<?xml version="1.0" encoding="utf-8"?>
<!-- Generator: Adobe Illustrator 27.5.0, SVG Export Plug-In . SVG Version: 6.00 Build 0)  -->
<svg version="1.1" xmlns="http://www.w3.org/2000/svg" xmlns:xlink="http://www.w3.org/1999/xlink" x="0px" y="0px"
	 viewBox="0 0 1435.3 627.2" style="enable-background:new 0 0 1435.3 627.2;" xml:space="preserve">
<style type="text/css">
	.st0{fill:#050505;}
	.st1{fill:#293656;}
	.st2{fill:#05E723;}
	.st3{fill:#10D800;}
	.st4{fill:#FF6809;}
	.st5{display:none;}
	.st6{display:inline;fill:#050505;}
	.st7{display:inline;fill:url(#SVGID_1_);}
	.st8{display:inline;fill:url(#SVGID_00000109730107057659735480000017596215188738425242_);}
	.st9{display:inline;fill:url(#SVGID_00000145738134027943072430000003248759883650913726_);}
	.st10{display:inline;fill:#05E723;}
	.st11{display:inline;fill:#00E676;}
	.st12{display:inline;fill:#FF6809;}
	.st13{fill:#FF4000;}
	.st14{display:inline;fill:url(#SVGID_00000167368012541757425500000003969332158077716126_);}
	.st15{fill:#FFFFFF;}
</style>
<g id="Layer_1">
	<path class="st0" d="M103.5,371.5"/>
	<path class="st0" d="M79.5,396.2"/>
	<path class="st0" d="M67.4,407.6"/>
	<path class="st0" d="M66.2,408.9"/>
	<path class="st1" d="M59.1,422.8c0.5-0.5,58.2-58.2,58.7-58.7c1.6-1.6,3.2-3.2,4.8-4.8c1.2-1.2,2.3-2.3,3.5-3.5
		c2.8-2.8,5.6-5.6,8.4-8.4c3.3-3.3,6.5-6.5,9.8-9.8c5.8-5.8,11.7-11.7,17.5-17.5c5.7-5.7,11.3-11.3,17-17c0.3-0.3,0.7-0.7,1.1-1.1
		c0.3-0.3,0.7-0.7,1.1-1.1c6.4-6.4,12.9-12.9,19.3-19.3c2.3-2.3,4.6-4.6,6.8-6.8c2.8-2.8,5.6-5.6,8.3-8.3c1.4-1.4,2.8-2.8,4.2-4.2
		c1.5-1.5,3.1-3.1,4.6-4.6c0.4-0.4,0.9-0.9,1.3-1.3c2.4-2.4,4.7-4.9,6.9-7.5c1.3-1.4,2.6-2.8,3.9-4.2c0.8-0.8,0.8-0.8,1.7-1.7
		c0.6-0.6,1.2-1.2,1.8-1.8c0.6-0.6,1.3-1.3,1.9-1.9c1.7-1.7,3.5-3.4,5.2-5.2c1.8-1.8,3.6-3.6,5.4-5.4c3.4-3.4,6.8-6.8,10.3-10.2
		c3.9-3.9,7.8-7.8,11.7-11.7c7.5-7.4,14.9-14.9,22.4-22.3c1-1,1.2-2.5,0.5-3.7l0,0c-0.3-0.6-0.3-0.6-0.6-1.1
		c-4.1-6.8-12.1-11.4-18.4-15.8c-0.5-0.3-0.9-0.6-1.4-1c-2.4-1.6-4.8-3.3-7.1-4.9c-5.2-3.5-10.4-7.2-15.5-10.8
		c-1.6-1.1-3.2-2.2-4.8-3.3c-0.9-0.6-1.9-1.3-2.8-1.9c-0.4-0.3-0.8-0.6-1.2-0.8c-3.2-2.2-6.3-4.7-7.6-8.5c0-0.1-0.1-0.2-0.1-0.3
		c-0.5-3.9-0.5-4.1,0.7-5.7c0.1-0.1,0.1-0.2,0.2-0.2c1.1-0.9,2.2-1.7,3.4-2.5c0,0,0,0,0.1,0c0.4-0.3,0.8-0.6,1.2-0.9
		c0.4-0.3,0.8-0.6,1.2-0.9l0.9-0.7c0.1-0.1,0.2-0.1,0.3-0.2c3.9-1.2,8.2,0.5,11.8,1.9c0.7,0.3,0.7,0.3,1.4,0.5
		c1.5,0.6,3.1,1.2,4.6,1.8c1.1,0.4,2.2,0.8,3.2,1.2c5.1,1.9,10.2,3.9,15.3,5.9c1.7,0.6,3.3,1.3,5,1.9c2.1,0.8,4.2,1.6,6.3,2.5
		c1,0.4,1.9,0.7,2.9,1.1c0.4,0.2,0.9,0.3,1.3,0.5c2.1,0.8,3.9,1.4,6.1,1.2c0.2,0,0.4-0.1,0.6-0.3c1.3-1.1,1.4-1.2,2.7-2.8
		c0,0,0-0.1,0.1-0.1c3.2-3.4,3.3-3.5,5.5-3.8c0.2,0,0.4,0,0.5,0c3.6,0.3,5.5,1.6,8,4.2c0,0,0.1,0.1,0.1,0.2c2,2.4,2.5,4.1,2.5,7.1
		c0,0.3-0.1,0.5-0.2,0.8l0,0c-0.5,1.1,0.1,2.3,1.3,2.6c20.1,4.2,22.7,2.5,33.1-3.9c5.2-3.3,9.7-7.3,14.2-11.4
		c1.1-0.9,2.1-1.9,3.2-2.8c1.9-1.7,3.7-3.4,5.6-5.1c25.4-23.4,25.5-23.5,39.1-19c0.1,0,0.2,0.1,0.3,0.2c3,2.2,5,4.6,5.7,8.3
		c0,0.1,0,0.2,0,0.2c0.3,13-9.6,24-17.8,33c-1.4,1.6-2.9,3.3-4.3,4.9c-0.5,0.6-1,1.1-1.5,1.7c-15.8,18.1-21.7,29.5-19.9,40.8
		c0,0.2-0.1,0.5,0,0.7c0.4,3.5,0.9,7,1.5,10.4c0.2,1.3,1.4,2.1,2.7,1.9c0,0,0,0,0,0c2.4-0.4,3.8-0.6,6,0.4c0.2,0.1,0.4,0.2,0.6,0.4
		c5.4,4.7,5.5,4.8,6,8.6c0,0.1,0,0.2,0,0.4c-0.5,4.1-3.6,6.9-6.5,9.6c-0.3,0.3-0.4,0.7-0.3,1.2c1.5,4.7,3.4,9.2,5.2,13.8
		c0.8,2,1.6,4,2.5,6.1c1.5,3.8,3,7.5,4.6,11.2c1.1,2.6,2.1,5.2,3.2,7.9c0.4,1,0.8,2,1.2,3c0.6,1.4,1.1,2.8,1.7,4.2
		c0.2,0.4,0.3,0.8,0.5,1.2c1.1,2.9,1.3,5.1,1.2,8.1c0,0.2,0,0.3-0.1,0.4c-0.7,1.7-0.8,1.7-1.9,3.3l-1.1,1.6c0,0,0,0.1-0.1,0.1
		c-1.5,1.9-3,3.6-5.4,4.1c-0.1,0-0.3,0-0.4,0c-4.2-0.6-7.1-2.4-9.9-5.6c0,0,0-0.1-0.1-0.1c-1-1.3-1.9-2.6-2.8-3.9
		c-0.5-0.7-0.5-0.7-1-1.5c-0.7-1-1.4-2-2.1-3c-1.3-1.8-2.5-3.6-3.8-5.4c-0.6-0.9-1.2-1.7-1.8-2.6c-3.2-4.5-6.4-9-9.7-13.5
		c-0.7-1-1.4-2-2.1-3c-9.4-11.1-9.1-13.3-19.4-20.5c-1.6-1.1-3.8-0.9-5.2,0.5c-4,4-8,8-12,12c-2.2,2.2-4.5,4.4-6.7,6.7
		c-2.2,2.1-4.3,4.3-6.5,6.4c-0.8,0.8-1.6,1.6-2.5,2.5c-1.2,1.1-2.3,2.3-3.5,3.5c-0.5,0.5-0.5,0.5-1,1c-1.6,1.6-3.2,3.3-4.7,5.1
		c-3.2,3.7-6.7,7.1-10.2,10.6c-0.8,0.8-1.6,1.6-2.4,2.4c-2.1,2.2-4.3,4.3-6.4,6.5c-2.3,2.3-4.6,4.6-7,7
		c-5.6,5.6-11.2,11.2-16.8,16.8c-2.6,2.6-5.3,5.3-7.9,7.9c-8.8,8.8-17.5,17.5-26.3,26.3c-2.3,2.3-4.5,4.5-6.8,6.8
		c-0.6,0.6-1.1,1.1-1.7,1.7c-9.2,9.2-18.3,18.3-27.5,27.5c-9.4,9.4-18.8,18.8-28.2,28.2c-5.3,5.3-10.6,10.6-15.8,15.9
		c-4.5,4.5-9,9-13.5,13.5c-2.3,2.3-4.6,4.6-6.9,6.9c-2.1,2.1-4.2,4.2-6.3,6.3c-0.8,0.8-1.5,1.5-2.3,2.3c-1,1-2.1,2.1-3.1,3.1
		c-0.4,0.4-0.4,0.4-0.9,0.9c-2.4,2.4-4.9,3.8-8.2,4.3c-0.1,0-0.2,0-0.3,0c-4.8-0.1-8.4-1.7-11.8-5.1c0,0,0,0-0.1-0.1"/>
	<path class="st2" d="M98.8,370.2"/>
	<path class="st2" d="M253.8,215.8c-0.5,0.5-0.9,1-1.4,1.4"/>
	<path class="st2" d="M268.4,201.1c-0.4,0.5-0.7,0.9-1.1,1.4"/>
	<path class="st2" d="M272.7,197.5c-0.4,0-0.8,0-1.2,0"/>
	<path class="st3" d="M223.3,235.9c-19.8-13.7-43.6-18.4-67.4-14.2c-20,4-39.4,15-51.7,31.5c-0.4,0.5-0.8,1.1-1.3,1.6
		c-14.4,19.1-19.4,42.3-16.8,65.9c0.4,2.4,0.9,4.8,1.6,7.2c0.1,0.5,0.2,1,0.4,1.4c3.3,12.5,7.7,21.5,13,28.2l-51,50.5
		c-19.4-23.7-31.3-52.9-34.7-83.2c-0.1-0.5-0.1-1-0.2-1.5c-4.4-41.1,8.1-81.3,33.3-113.7c0.5-0.6,0.9-1.2,1.4-1.8
		c8.9-11.1,19.1-20.4,30.5-28.8c0.6-0.4,1.1-0.8,1.7-1.3c11.1-8,23.4-14.2,36.3-19c0.7-0.3,0.7-0.3,1.4-0.5
		c46.8-17.3,103.4-9.8,143.9,19.5c0.9,0.7,0.9,0.7,1.9,1.4c4.7,3.4,4.4,3.1,8,6.4L223.3,235.9z"/>
	<path class="st2" d="M248.8,219.5c0,0.4,0,0.8,0,1.2"/>
	<path class="st4" d="M237.4,367"/>
</g>
<g id="Layer_1_copy" class="st5">
	<path class="st6" d="M241.8,531.1"/>
	<path class="st6" d="M202.7,571.3"/>
	<path class="st6" d="M183,590"/>
	<path class="st6" d="M181,592"/>
	<linearGradient id="SVGID_1_" gradientUnits="userSpaceOnUse" x1="600.725" y1="161.6116" x2="600.725" y2="161.6116">
		<stop  offset="1.277974e-03" style="stop-color:#3D3A44"/>
		<stop  offset="1" style="stop-color:#3D3A44"/>
	</linearGradient>
	<path class="st7" d="M600.7,161.6"/>
	
		<linearGradient id="SVGID_00000085235569149939989210000010972237474086728639_" gradientUnits="userSpaceOnUse" x1="583.6763" y1="156.2217" x2="583.6763" y2="156.2217">
		<stop  offset="1.277974e-03" style="stop-color:#3D3A44"/>
		<stop  offset="1" style="stop-color:#3D3A44"/>
	</linearGradient>
	<path style="display:inline;fill:url(#SVGID_00000085235569149939989210000010972237474086728639_);" d="M583.7,156.2"/>
	
		<linearGradient id="SVGID_00000157986567716889598760000008236993355974993816_" gradientUnits="userSpaceOnUse" x1="169.452" y1="388.4352" x2="767.6747" y2="388.4352">
		<stop  offset="1.277974e-03" style="stop-color:#3D3A44"/>
		<stop  offset="1" style="stop-color:#3D3A44"/>
	</linearGradient>
	<path style="display:inline;fill:url(#SVGID_00000157986567716889598760000008236993355974993816_);" d="M169.5,614.8
		c0.8-0.8,95-95,95.8-95.8c2.6-2.6,5.2-5.2,7.9-7.9c1.9-1.9,3.8-3.8,5.6-5.6c4.6-4.6,9.2-9.2,13.7-13.7c5.3-5.3,10.7-10.7,16-16
		c9.5-9.5,19-19.1,28.6-28.6c9.2-9.2,18.5-18.5,27.7-27.7c0.6-0.6,1.1-1.1,1.7-1.7c0.6-0.6,1.1-1.1,1.7-1.7
		c10.5-10.5,21-21,31.6-31.6c3.7-3.7,7.4-7.4,11.1-11.1c4.5-4.5,9.1-9.1,13.6-13.6c2.3-2.3,4.6-4.6,6.9-6.9c2.5-2.5,5-5,7.5-7.5
		c0.7-0.7,1.4-1.4,2.2-2.2c3.9-4,7.7-8,11.3-12.2c2.1-2.4,4.2-4.6,6.4-6.8c1.4-1.4,1.4-1.4,2.7-2.7c1-1,2-1.9,2.9-2.9
		c1-1,2.1-2.1,3.1-3.1c2.8-2.8,5.6-5.6,8.5-8.4c3-2.9,5.9-5.9,8.9-8.8c5.6-5.6,11.2-11.1,16.7-16.7c6.4-6.3,12.7-12.7,19.1-19.1
		c12.2-12.2,24.3-24.3,36.5-36.5c1.6-1.6,1.9-4.1,0.8-6l0,0c-0.5-0.9-0.5-0.9-1-1.9c-6.7-11.1-19.7-18.6-30.1-25.8
		c-0.8-0.5-1.5-1-2.3-1.6c-3.9-2.7-7.8-5.3-11.6-8c-8.5-5.8-16.9-11.7-25.3-17.6c-2.6-1.8-5.2-3.6-7.8-5.3c-1.5-1-3-2.1-4.5-3.1
		c-0.7-0.5-1.3-0.9-2-1.4c-5.2-3.6-10.2-7.7-12.3-13.8c-0.1-0.2-0.1-0.4-0.1-0.6c-0.7-5.4-0.8-6.4,0.4-8.2c0.5-0.8,1.1-1.4,1.9-2
		c1.4-1.2,2.9-2.3,4.5-3.3c0.2-0.1,0.4-0.3,0.5-0.4c0.6-0.4,1.1-0.9,1.7-1.3c0.6-0.5,1.3-0.9,1.9-1.4l0,0c1.4-1,3-1.7,4.7-1.9
		c5.6-0.6,11.6,1.7,16.7,3.7c1.2,0.4,1.2,0.4,2.3,0.9c2.5,1,5,1.9,7.5,2.9c1.8,0.7,3.5,1.3,5.3,2c8.3,3.2,16.7,6.4,25,9.6
		c2.7,1.1,5.4,2.1,8.1,3.2c2,0.8,4,1.5,5.9,2.3c2.9,1.1,5.7,2.3,8.5,3.6l50.6,23.6c25.9,0.4,33.3-4,50.3-14.4
		c8.4-5.4,15.8-11.9,23.1-18.6c1.7-1.5,3.5-3.1,5.2-4.6c3.1-2.8,6.1-5.6,9.1-8.4c33.9-31.3,42.8-40.5,56.1-36.8
		c0,0,22.9,5.3,16,26.4c-6.6,20-16.3,31.7-26.5,46.2c-0.5,0.8-1.1,1.5-1.7,2.2c-2,2.3-4.1,4.6-6.1,6.9c-0.8,0.9-1.6,1.8-2.4,2.8
		c-25.7,29.5-35.4,48.2-32.5,66.6c0.1,0.4-0.1,0.8,0,1.2c0.7,5.7,1.5,11.4,2.4,17l13.9,36.5c2.5,7.7,5.5,15.1,8.5,22.5
		c1.3,3.3,2.7,6.6,4,9.9c2.5,6.1,5,12.2,7.5,18.4c1.7,4.3,3.5,8.5,5.2,12.8c0.7,1.6,1.3,3.2,2,4.9c0.9,2.3,1.8,4.5,2.8,6.8
		c0.3,0.7,0.6,1.3,0.8,2c1.8,4.7,2.2,8.3,1.9,13.2c0,0.3-0.1,0.6-0.2,0.9c-1.2,2.6-1.3,2.8-3,5.3l-1.7,2.7c0,0-0.1,0.1-0.1,0.1
		c-2.5,3.1-4.8,5.9-8.8,6.8c-0.2,0.1-0.5,0.1-0.8,0c-6.8-0.9-11.5-4-16.1-9.2c0,0-0.1-0.1-0.1-0.1c-1.6-2.1-3.1-4.2-4.5-6.3
		c-0.8-1.2-0.8-1.2-1.7-2.4c-1.1-1.6-2.3-3.3-3.4-4.9c-2-3-4.1-5.9-6.2-8.8c-1-1.4-2-2.8-3-4.2c-5.2-7.4-10.5-14.7-15.8-22
		c-1.2-1.6-2.3-3.2-3.5-4.8c-15.3-18.1-14.9-21.7-31.6-33.3c-2.6-1.8-6.2-1.5-8.5,0.8c-6.5,6.5-13,13-19.6,19.5
		c-3.6,3.6-7.3,7.3-10.9,10.9c-3.5,3.5-7,7-10.5,10.5c-1.3,1.3-2.7,2.7-4,4c-1.9,1.9-3.8,3.8-5.6,5.6c-0.8,0.8-0.8,0.8-1.7,1.6
		c-2.7,2.7-5.2,5.4-7.7,8.3c-5.3,6-11,11.6-16.7,17.3c-1.3,1.3-2.6,2.6-3.8,3.9c-3.5,3.5-7,7-10.5,10.5c-3.8,3.8-7.6,7.6-11.4,11.4
		c-9.1,9.1-18.3,18.3-27.4,27.4c-4.3,4.3-8.6,8.6-12.9,12.9c-14.3,14.3-28.6,28.6-42.9,42.9c-3.7,3.7-7.4,7.4-11.1,11.1
		c-0.9,0.9-1.8,1.8-2.8,2.8c-14.9,15-29.9,29.9-44.8,44.9c-15.3,15.4-30.7,30.7-46,46.1c-8.6,8.6-17.2,17.2-25.8,25.9
		c-7.3,7.3-14.7,14.7-22,22c-3.7,3.7-7.5,7.5-11.2,11.2c-3.4,3.4-6.8,6.9-10.3,10.3c-1.2,1.2-2.5,2.5-3.7,3.7
		c-1.7,1.7-3.4,3.4-5.1,5c-0.7,0.7-0.7,0.7-1.4,1.5c-3.9,3.8-8,6.1-13.4,7.1c-0.2,0-0.3,0-0.5,0c-7.8-0.1-13.7-2.8-19.3-8.3
		c0,0-0.1-0.1-0.1-0.1"/>
	<path class="st10" d="M234.2,528.9"/>
	<path class="st10" d="M487.2,276.9c-0.8,0.8-1.5,1.6-2.3,2.4"/>
	<path class="st10" d="M511,253c-0.6,0.8-1.2,1.5-1.8,2.3"/>
	<path class="st10" d="M518,247c-0.7,0-1.3,0-2,0"/>
	<path class="st11" d="M437.3,309.7c-32.3-22.3-71.1-30.1-109.9-23.2c-32.6,6.5-64.3,24.5-84.4,51.4c-0.7,0.9-1.3,1.7-2,2.6
		c-23.6,31.2-31.7,69.1-27.5,107.6c0.6,4,1.5,7.9,2.5,11.8c0.2,0.8,0.4,1.6,0.6,2.3c5.3,20.4,12.5,35.1,21.2,46.1l-83.2,82.4
		C123,552.2,103.5,504.5,98,455c-0.1-0.8-0.2-1.6-0.3-2.4C90.6,385.6,111,319.9,152,267c0.8-1,1.5-1.9,2.3-2.9
		c14.5-18.1,31.1-33.3,49.7-47.1c0.9-0.7,1.8-1.4,2.8-2.1C225,201.8,245,191.8,266,184c1.1-0.4,1.1-0.4,2.2-0.8
		C344.6,154.9,437,167.2,503,215c1.5,1.1,1.5,1.1,3.1,2.2c7.6,5.6,7.2,5.1,13,10.4L437.3,309.7z"/>
	<path class="st10" d="M479,283c0,0.7,0,1.3,0,2"/>
	<path class="st12" d="M460.3,523.7"/>
</g>
<g id="wordmark">
	<g>
		<path class="st13" d="M505.6,195.8l22.3,83.4l27.4-83.4H582l27.4,83.4l22.3-83.4h35.1L628.2,325H594l-25.3-74.8L543.3,325H509
			l-38.5-129.1H505.6z"/>
		<path class="st13" d="M753.8,224.3h-39.9v21.6h37.7v28.4h-37.7v22.3h39.9V325h-73.5V195.8h73.5V224.3z"/>
		<path class="st13" d="M777.9,195.8h50c11.9,0,20.9,2.9,27.1,8.6c6.2,5.7,9.2,13.9,9.2,24.7c0,6.5-1.2,11.9-3.5,16.2
			c-2.3,4.3-5.9,7.9-10.7,10.9c4.8,0.9,8.9,2.3,12.2,4.2c3.4,1.9,6.1,4.2,8.2,6.9c2.1,2.7,3.6,5.8,4.5,9.2c0.9,3.4,1.4,7.1,1.4,11
			c0,6.1-1.1,11.4-3.2,16.1c-2.1,4.7-5.1,8.6-8.9,11.8c-3.8,3.2-8.5,5.6-14,7.2c-5.5,1.6-11.6,2.4-18.5,2.4h-53.9V195.8z
			 M811.5,246.5h6.2c10.5,0,15.8-4.2,15.8-12.5c0-8.3-5.3-12.5-15.8-12.5h-6.2V246.5z M811.5,298.9h7.4c8.4,0,14.5-1.1,18.2-3.3
			c3.7-2.2,5.5-5.7,5.5-10.4c0-4.8-1.8-8.3-5.5-10.4c-3.7-2.2-9.7-3.3-18.2-3.3h-7.4V298.9z"/>
	</g>
	<g>
		<path class="st1" d="M519.7,507h-39.2V356.1H543c16.9,0,29.9,4.4,38.9,13.2c9,8.8,13.5,21.2,13.5,37.2c0,16-4.5,28.4-13.5,37.2
			c-9,8.8-22,13.2-38.9,13.2h-23.2V507z M519.7,425.3h13c14.4,0,21.6-6.3,21.6-18.8c0-12.5-7.2-18.8-21.6-18.8h-13V425.3z"/>
		<path class="st1" d="M655.5,356.1V507h-39.2V356.1H655.5z"/>
		<path class="st1" d="M726.3,356.1v117.7h47V507h-86.3V356.1H726.3z"/>
		<path class="st1" d="M783.8,431.5c0-11.2,2.1-21.7,6.2-31.3c4.1-9.7,9.9-18.1,17.2-25.3c7.3-7.2,16.1-12.8,26.3-16.9
			c10.2-4.1,21.5-6.1,33.7-6.1c12.1,0,23.4,2,33.6,6.1c10.3,4.1,19.1,9.7,26.5,16.9c7.4,7.2,13.2,15.7,17.3,25.3
			c4.1,9.7,6.2,20.1,6.2,31.3c0,11.2-2.1,21.7-6.2,31.3c-4.1,9.7-9.9,18.1-17.3,25.3c-7.4,7.2-16.3,12.8-26.5,16.9
			c-10.3,4.1-21.5,6.1-33.6,6.1c-12.3,0-23.5-2-33.7-6.1c-10.2-4.1-19-9.7-26.3-16.9c-7.3-7.2-13.1-15.6-17.2-25.3
			C785.9,453.2,783.8,442.8,783.8,431.5z M824.8,431.5c0,6,1.1,11.5,3.4,16.6c2.3,5.1,5.3,9.5,9.2,13.2c3.9,3.7,8.4,6.6,13.5,8.7
			c5.1,2.1,10.6,3.1,16.3,3.1c5.7,0,11.2-1,16.3-3.1c5.1-2.1,9.7-5,13.6-8.7c3.9-3.7,7-8.1,9.3-13.2c2.3-5.1,3.4-10.6,3.4-16.6
			c0-6-1.1-11.5-3.4-16.6c-2.3-5.1-5.4-9.5-9.3-13.2c-3.9-3.7-8.5-6.6-13.6-8.7c-5.1-2.1-10.6-3.1-16.3-3.1c-5.7,0-11.2,1-16.3,3.1
			c-5.1,2.1-9.6,5-13.5,8.7c-3.9,3.7-6.9,8.1-9.2,13.2C826,420,824.8,425.5,824.8,431.5z"/>
		<path class="st1" d="M1031.4,389.3V507h-39.2V389.3H960v-33.2h103.7v33.2H1031.4z"/>
		<path class="st1" d="M1164.2,394.7c-4.3-3.5-8.5-6-12.8-7.7c-4.3-1.7-8.4-2.5-12.4-2.5c-5.1,0-9.2,1.2-12.4,3.6
			c-3.2,2.4-4.8,5.5-4.8,9.4c0,2.7,0.8,4.9,2.4,6.6c1.6,1.7,3.7,3.2,6.3,4.5c2.6,1.3,5.5,2.4,8.8,3.3c3.3,0.9,6.5,1.9,9.7,3
			c12.8,4.3,22.2,10,28.1,17.1c5.9,7.1,8.9,16.5,8.9,27.9c0,7.7-1.3,14.7-3.9,21c-2.6,6.3-6.4,11.6-11.4,16.1
			c-5,4.5-11.1,7.9-18.4,10.4c-7.3,2.5-15.5,3.7-24.7,3.7c-19.1,0-36.8-5.7-53.1-17l16.8-31.6c5.9,5.2,11.7,9.1,17.4,11.6
			c5.7,2.5,11.4,3.8,17,3.8c6.4,0,11.2-1.5,14.3-4.4c3.1-2.9,4.7-6.3,4.7-10c0-2.3-0.4-4.2-1.2-5.9c-0.8-1.7-2.1-3.2-4-4.6
			c-1.9-1.4-4.3-2.7-7.3-3.9c-3-1.2-6.6-2.5-10.9-4c-5.1-1.6-10-3.4-14.9-5.3c-4.9-1.9-9.2-4.5-13-7.7c-3.8-3.2-6.9-7.2-9.2-12.1
			c-2.3-4.9-3.5-11-3.5-18.5c0-7.5,1.2-14.2,3.7-20.3c2.5-6.1,5.9-11.3,10.4-15.6c4.5-4.3,9.9-7.7,16.4-10.1
			c6.5-2.4,13.7-3.6,21.7-3.6c7.5,0,15.3,1,23.4,3.1c8.1,2.1,15.9,5.1,23.4,9.1L1164.2,394.7z"/>
	</g>
</g>
<g id="Layer_4" class="st5">
	
		<linearGradient id="SVGID_00000107587863366518054350000013928140432452666014_" gradientUnits="userSpaceOnUse" x1="344.6664" y1="427.4667" x2="368.6664" y2="427.4667">
		<stop  offset="1.277974e-03" style="stop-color:#3D3A44"/>
		<stop  offset="1" style="stop-color:#3D3A44"/>
	</linearGradient>
	
		<circle style="display:inline;fill:url(#SVGID_00000107587863366518054350000013928140432452666014_);" cx="356.7" cy="427.5" r="12"/>
</g>
<g id="Layer_3">
	<circle class="st15" cx="173.8" cy="308" r="88.1"/>
</g>
<g id="Layer_5">
	<path class="st13" d="M133.3,492.2c-1.8-1.8-3.2-3.4-4.2-5.3c0,0,0-0.1,0-0.1c-1.7-3.5-0.9-7.7,1.8-10.5l193.5-197
		c0.3-0.3,0.6-0.6,0.9-0.8c1.1-0.8,2.7-0.2,3,1.1c7.9,36-0.1,76.4-18.8,107.8c-5.9,9.5-12.3,18.4-19.9,26.5
		c-1.2,1.3-2.3,2.6-3.5,3.9c-2.2,2.5-4.4,4.8-6.8,7.2c-0.4,0.4-0.8,0.9-1.3,1.3c-1.4,1.4-2.8,2.8-4.2,4.3c-1,1-2,2-3.1,3.1
		c-3.3,3.3-6.7,6.7-10,10c-0.6,0.6-1.1,1.1-1.7,1.7c-5.4,5.4-10.7,10.8-16.1,16.1c-1.2,1.2-2.5,2.5-3.7,3.7
		c-0.3,0.3-0.6,0.6-0.9,0.9c-5,5-10,10-14.9,15c-5.1,5.2-10.2,10.3-15.4,15.4c-2.9,2.9-5.8,5.8-8.6,8.7c-2.7,2.7-5.4,5.4-8.1,8.1
		c-1,1-2,2-3,3c-1.3,1.4-2.7,2.7-4.1,4.1c-0.4,0.4-0.8,0.8-1.2,1.2c0,0-0.1,0.1-0.1,0.1c-5.2,5-13.4,5.4-19.1,1
		c-2.3-1.8-4.4-4-6.6-6.3L133.3,492.2z"/>
</g>
</svg>
