<?xml version="1.0" encoding="utf-8"?>
<!-- Generator: Adobe Illustrator 27.5.0, SVG Export Plug-In . SVG Version: 6.00 Build 0)  -->
<svg version="1.1" xmlns="http://www.w3.org/2000/svg" xmlns:xlink="http://www.w3.org/1999/xlink" x="0px" y="0px"
	 viewBox="0 0 598 234.8" style="enable-background:new 0 0 598 234.8;" xml:space="preserve">
<style type="text/css">
	.st0{display:none;}
	.st1{display:inline;}
	.st2{fill:#2B4BB2;}
	.st3{font-family:'Barlow-Bold';}
	.st4{font-size:78.8816px;}
	.st5{fill:#DD5000;}
	.st6{font-size:90px;}
	.st7{display:inline;fill:#2B4BB2;}
	.st8{display:inline;fill:#FF5000;}
	.st9{fill:#FF5000;}
	.st10{fill:#FFFFFF;}
	.st11{fill:#698AD5;}
	.st12{fill:#FF8F00;}
	.st13{fill:#33873A;}
	.st14{fill:#FF4000;}
	.st15{fill:#EADA13;}
	.st16{fill:#8ABD35;}
	.st17{fill:#213975;}
	.st18{display:inline;fill:#213975;}
	.st19{display:inline;fill:#FF4000;}
	.st20{display:inline;fill:#FFFFFF;}
	.st21{display:inline;fill:#33873A;}
	.st22{display:inline;fill:#EADA13;}
	.st23{display:inline;fill:#8ABD35;}
</style>
<g id="Layer_1" class="st0">
	<text transform="matrix(1 0 0 1 175.946 155.5164)" class="st1"><tspan x="0" y="0" class="st2 st3 st4">TECH</tspan><tspan x="189.7" y="0" class="st5 st3 st6">A</tspan><tspan x="250.1" y="0" class="st5 st3 st4">DMIN</tspan></text>
	<path class="st7" d="M59.6,92.9c0.6-0.3,1.2-0.6,1.7-1c3.5-2.2,6.9-4.4,10.3-6.7c1.4-0.9,2.7-1.9,4.1-2.9c0.1-0.1,0.5,0,0.7,0.1
		c2.2,1.5,4.4,2.9,6.6,4.4c1.2,0.8,2.5,1.5,3.7,2.3c0.2,0.1,0.3,0.2,0.6,0.4c-0.3,0.2-0.5,0.4-0.8,0.6c-3,1.9-6.1,3.7-9.1,5.7
		c-6.5,4.1-12.9,8.3-19.3,12.4c-1.8,1.1-1.7,1.2-1.8,3.3c0,6.4-0.1,12.8-0.1,19.2c0,0.8,0.2,1.3,1,1.8c5.5,3.4,11,6.9,16.5,10.3
		c0.8,0.5,1.1,1.1,1.1,2.1c0,7.3,0,14.5,0,21.8c0,0.3,0,0.7-0.1,1.1c-0.3-0.1-0.5-0.2-0.7-0.3c-7.3-4.6-14.6-9.1-22-13.7
		c-3.6-2.3-7.3-4.5-11-6.8c-3-1.9-6-3.7-9-5.7c-0.3-0.2-0.5-0.6-0.5-0.9c0-9.3,0-18.5,0-27.8c0-1,0.3-1.6,1.2-2.2
		c4.8-3,9.5-6.2,14.3-9.3c0.8-0.5,1.5-1,2.3-1.6c0.2-0.1,0.2-0.4,0.2-0.7c0-4.6,0-9.1,0.1-13.7c0-0.9,0.1-1.9,0.1-2.8
		c0-0.4,0.1-0.6,0.6-0.5c2.7,0,5.4,0,8.1,0.1c1,0,1.1,0,1,1c0,2.9-0.1,5.9-0.1,8.8c0,0.3,0,0.6,0,0.9C59.4,92.8,59.5,92.8,59.6,92.9
		z"/>
	<path class="st8" d="M77.2,167.8c0-0.5-0.1-0.8-0.1-1.1c0-7.5,0-14.9,0-22.4c0-0.6,0.2-0.8,0.7-1.2c5.4-3.4,10.8-6.8,16.3-10.1
		c1.2-0.8,1.7-1.7,1.7-3.3c-0.1-6.3-0.1-12.6-0.1-18.9c0-1-0.3-1.5-1.1-2.1c-2.3-1.4-4.4-2.9-6.6-4.3c-2.8-1.8-5.6-3.6-8.4-5.4
		c-1.4-0.9-1.4-1.1,0-2c2.9-1.8,5.8-3.7,8.7-5.6c0.8-0.5,1.4-0.6,2.3,0c7.3,4.8,14.7,9.6,22,14.4c2.3,1.5,4.5,3,6.8,4.4
		c0.8,0.5,1.1,1.1,1.1,2c0,5.4,0,10.9,0,16.3c0,3.6-0.2,7.3,0,10.9c0.1,1.3-0.4,1.7-1.4,2.3c-2.6,1.6-5.1,3.2-7.7,4.8
		c-2.6,1.6-5.2,3.2-7.8,4.9c-3.8,2.4-7.7,4.8-11.5,7.2c-4.4,2.7-8.8,5.5-13.2,8.2C78.3,167.2,77.9,167.4,77.2,167.8z"/>
	<path class="st1" d="M137.4,115.7c-1.5-1-3-1.9-4.4-2.9c-0.8-0.5-1.5-1.2-2.3-1.7c-1.7-0.9-3.1-2.2-4.8-3.2c-1.7-1-3.3-2.2-4.9-3.3
		c-1.6-1.1-3.3-2.1-4.9-3.1c-3.3-2.1-6.7-4.1-9.9-6.3c-3.2-2.1-6.3-4.3-9.4-6.4c-2.9-2-5.9-3.9-8.8-5.7C86.2,82,84.4,81,82.7,80
		c-0.4-0.2-0.7-0.6-1-0.8c-1.7-1.2-3.4-2.4-5.2-3.6c-0.5-0.4-0.9-0.1-1.3,0.2c-2,1.3-4,2.7-6,4c-1.8,1.2-3.7,2.4-5.5,3.6
		c-0.3,0.2-0.5,0.4-0.8,0.6c-0.6-1.1-0.3-2,0.6-2.6c3.8-2.4,7.6-4.9,11.4-7.4c0.8-0.5,1.4-0.5,2.2,0c4.6,3,9.2,5.9,13.8,8.9
		c3.8,2.5,7.6,5.1,11.5,7.6c5.5,3.7,11.1,7.3,16.6,10.9c5.9,3.9,11.9,7.7,17.9,11.6c1.8,1.2,3.6,2.4,5.3,3.7c0.3,0.2,0.6,0.6,1,1
		c-0.4,0-0.6,0.1-0.9,0.1c-4.4,0-8.8,0-13.2,0c-1,0-1,0-1,1c0,8.7-0.1,17.4-0.1,26.1c0,0.4-0.3,0.9-0.6,1.1
		c-3.3,2.1-6.7,4.2-10.1,6.2c-9.9,6.1-19.8,12.3-29.8,18.4c-3.3,2.1-6.7,4.1-10,6.2c-0.1,0.1-0.2,0.1-0.2,0.2
		c-0.8,1.1-1.8,0.6-2.7,0.1c-0.6-0.4-1.1-0.9-1.7-1.3c-0.8-0.5-1.5-1-2.3-1.5c-2.5-1.6-5.1-3.2-7.7-4.7c-2.3-1.4-4.6-2.8-6.9-4.2
		c-2-1.2-3.9-2.3-5.9-3.5c-1.1-0.6-2.2-1.2-3.2-2c-4.4-3.3-9.2-6-13.9-8.9c-2.2-1.4-4.4-2.6-6.6-3.9c-0.6-0.4-1.3-0.8-1.8-1.3
		c-0.3-0.3-0.4-0.8-0.4-1.3c0-3.4,0-6.7,0-10.1c0-5.2,0-10.4,0-15.6c0-1,0-1.1-1-1.1c-2,0-4,0-6,0c-2.5,0-5.1,0-7.6-0.1
		c-0.1,0-0.3-0.1-0.6-0.2c0.5-0.5,0.9-0.9,1.3-1.2c4.5-3,9.1-5.9,13.6-8.9c7.1-4.6,14.1-9.3,21.2-14c0,0,0.1-0.1,0.1-0.1
		c0.4-0.1,0.8-0.9,1.3-0.4c0.3,0.3-0.1,1.6-0.5,1.9c-3.7,2.5-7.4,5-11.1,7.5c-4.7,3.1-9.3,6.1-14,9.1c-1.8,1.2-3.6,2.4-5.4,3.5
		c-0.3,0.2-0.7,0.4-1.3,0.7c0.4,0.1,0.7,0.1,1,0.1c3.2,0.1,6.4,0.1,9.7,0.2c1,0,1,0.1,1.1,1.1c0.1,8.7,0.1,17.4,0.1,26
		c0,1.1,0.3,1.8,1.3,2.4c8.1,4.9,16.1,9.8,24.1,14.8c5.6,3.5,11.2,7.1,16.9,10.7c2.2,1.4,4.5,2.7,6.8,4.1c0.7,0.4,1.3,0.4,1.9,0
		c2.4-1.5,4.8-2.9,7.2-4.4c8.1-5,16.1-10,24.2-15c5.4-3.4,10.8-6.7,16.2-10.1c0.3-0.2,0.5-0.3,0.8-0.5c0.6-0.3,0.8-0.8,0.8-1.5
		c0-6.9,0-13.7,0.1-20.6c0-1.9,0-3.9,0.1-5.8c0-1.3,0.1-1.3,1.4-1.4c2.9,0,5.8-0.1,8.6-0.1C136.6,115.8,137,115.8,137.4,115.7z"/>
</g>
<g id="Layer_1_copy_2" class="st0">
	<g class="st1">
		<path class="st2" d="M219.8,101.6v6.9c0,0.9-0.4,1.3-1.3,1.3h-13.6c-0.3,0-0.5,0.2-0.5,0.5v43.8c0,0.9-0.4,1.3-1.3,1.3h-8.4
			c-0.9,0-1.3-0.4-1.3-1.3v-43.8c0-0.3-0.2-0.5-0.5-0.5h-13.3c-0.9,0-1.3-0.4-1.3-1.3v-6.9c0-0.9,0.4-1.3,1.3-1.3h39
			C219.4,100.3,219.8,100.7,219.8,101.6z"/>
		<path class="st2" d="M263.9,109.8h-25.4c-0.3,0-0.5,0.2-0.5,0.5v12.1c0,0.3,0.2,0.5,0.5,0.5H255c0.9,0,1.3,0.4,1.3,1.3v6.9
			c0,0.9-0.4,1.3-1.3,1.3h-16.5c-0.3,0-0.5,0.2-0.5,0.5v12.6c0,0.3,0.2,0.5,0.5,0.5h25.4c0.9,0,1.3,0.4,1.3,1.3v6.9
			c0,0.9-0.4,1.3-1.3,1.3h-35.7c-0.9,0-1.3-0.4-1.3-1.3v-52.5c0-0.9,0.4-1.3,1.3-1.3h35.7c0.9,0,1.3,0.4,1.3,1.3v6.9
			C265.2,109.4,264.8,109.8,263.9,109.8z"/>
		<path class="st2" d="M281.6,153.7c-3.1-1.6-5.5-3.9-7.2-6.7c-1.7-2.9-2.5-6.2-2.5-10v-18.2c0-3.8,0.8-7.1,2.5-10
			c1.7-2.9,4.1-5.1,7.2-6.7c3.1-1.6,6.7-2.4,10.8-2.4c4,0,7.6,0.7,10.7,2.2c3.1,1.5,5.5,3.6,7.2,6.4c1.7,2.8,2.6,6,2.6,9.6
			c0,0.5-0.4,0.8-1.3,0.9l-8.4,0.6h-0.3c-0.7,0-1.1-0.1-1.1-0.4v-0.5c0-2.8-0.9-5-2.6-6.7c-1.7-1.7-4-2.5-6.7-2.5
			c-2.8,0-5.1,0.8-6.8,2.5c-1.7,1.7-2.6,3.9-2.6,6.7v19c0,2.7,0.9,4.9,2.6,6.6c1.7,1.7,4,2.5,6.8,2.5c2.8,0,5-0.8,6.7-2.5
			c1.7-1.7,2.6-3.9,2.6-6.6c0-0.3,0.1-0.5,0.4-0.7c0.2-0.2,0.6-0.2,1-0.2l8.4,0.4c0.9,0.1,1.3,0.2,1.3,0.4v0.4
			c0,3.6-0.9,6.8-2.6,9.6c-1.7,2.8-4.1,4.9-7.2,6.5c-3.1,1.5-6.6,2.3-10.7,2.3C288.3,156.1,284.7,155.3,281.6,153.7z"/>
		<path class="st2" d="M351.6,100.3h8.4c0.9,0,1.3,0.4,1.3,1.3v52.5c0,0.9-0.4,1.3-1.3,1.3h-8.4c-0.9,0-1.3-0.4-1.3-1.3v-21.3
			c0-0.3-0.2-0.5-0.5-0.5h-17.3c-0.3,0-0.5,0.2-0.5,0.5v21.3c0,0.9-0.4,1.3-1.3,1.3h-8.4c-0.9,0-1.3-0.4-1.3-1.3v-52.5
			c0-0.9,0.4-1.3,1.3-1.3h8.4c0.9,0,1.3,0.4,1.3,1.3v20.7c0,0.3,0.2,0.5,0.5,0.5h17.3c0.3,0,0.5-0.2,0.5-0.5v-20.7
			C350.3,100.7,350.7,100.3,351.6,100.3z"/>
		<path class="st5" d="M409.9,154.3l-2.5-8.4c-0.1-0.3-0.2-0.5-0.5-0.5h-22c-0.3,0-0.5,0.2-0.5,0.5l-2.5,8.4
			c-0.3,0.8-0.9,1.3-1.7,1.3h-10.4c-0.5,0-0.9-0.2-1.2-0.5c-0.2-0.3-0.3-0.7-0.1-1.2l19.2-60c0.3-0.8,0.9-1.3,1.7-1.3h13.2
			c0.8,0,1.4,0.4,1.7,1.3l19.2,60c0.1,0.1,0.1,0.3,0.1,0.5c0,0.4-0.1,0.6-0.4,0.9c-0.2,0.2-0.6,0.3-1,0.3h-10.4
			C410.8,155.5,410.2,155.1,409.9,154.3z M387.9,135.6h15.9c0.4,0,0.5-0.2,0.5-0.6l-8.1-27.5c-0.1-0.2-0.2-0.4-0.3-0.4
			c-0.2,0-0.3,0.1-0.4,0.4l-8,27.5C387.4,135.4,387.5,135.6,387.9,135.6z"/>
		<path class="st5" d="M430.9,154.2v-52.5c0-0.9,0.4-1.3,1.3-1.3h19.3c3.9,0,7.4,0.7,10.4,2.1c3,1.4,5.3,3.4,6.9,5.9
			c1.6,2.5,2.4,5.4,2.4,8.8v21.8c0,3.3-0.8,6.2-2.4,8.8c-1.6,2.5-3.9,4.5-6.9,5.9c-3,1.4-6.4,2.1-10.4,2.1h-19.3
			C431.3,155.5,430.9,155.1,430.9,154.2z M442.4,146h9.5c2.4,0,4.4-0.8,5.9-2.4c1.5-1.6,2.3-3.8,2.3-6.5v-18.1
			c0-2.7-0.8-4.9-2.2-6.5c-1.5-1.6-3.5-2.4-6-2.4h-9.4c-0.3,0-0.5,0.2-0.5,0.5v35.2C442,145.8,442.1,146,442.4,146z"/>
		<path class="st5" d="M479.2,154.2v-52.5c0-0.9,0.4-1.3,1.3-1.3h8.4c0.7,0,1.2,0.3,1.6,0.9l11.4,18.5c0.1,0.2,0.2,0.2,0.4,0.2
			c0.1,0,0.2-0.1,0.3-0.2l11.6-18.5c0.4-0.6,0.9-0.9,1.6-0.9h8.4c0.9,0,1.3,0.4,1.3,1.3v52.5c0,0.9-0.4,1.3-1.3,1.3h-8.4
			c-0.9,0-1.3-0.4-1.3-1.3V120c0-0.2-0.1-0.3-0.2-0.4c-0.1-0.1-0.2,0-0.4,0.2l-8,13c-0.4,0.6-0.9,0.9-1.6,0.9h-4
			c-0.7,0-1.2-0.3-1.6-0.9l-7.9-13c-0.1-0.2-0.2-0.3-0.4-0.2c-0.1,0.1-0.2,0.2-0.2,0.4v34.2c0,0.9-0.4,1.3-1.3,1.3h-8.4
			C479.7,155.5,479.2,155.1,479.2,154.2z"/>
		<path class="st5" d="M535.2,154.2v-52.5c0-0.9,0.4-1.3,1.3-1.3h8.4c0.9,0,1.3,0.4,1.3,1.3v52.5c0,0.9-0.4,1.3-1.3,1.3h-8.4
			C535.7,155.5,535.2,155.1,535.2,154.2z"/>
		<path class="st5" d="M556,154.2v-52.5c0-0.9,0.4-1.3,1.3-1.3h8.1c0.7,0,1.2,0.3,1.6,0.9l19.7,32.8c0.1,0.2,0.2,0.3,0.4,0.2
			c0.1-0.1,0.2-0.2,0.2-0.4v-32.2c0-0.9,0.4-1.3,1.3-1.3h8.3c0.9,0,1.3,0.4,1.3,1.3v52.5c0,0.9-0.4,1.3-1.3,1.3h-8
			c-0.6,0-1.2-0.3-1.6-0.9l-19.8-33.1c-0.1-0.2-0.2-0.3-0.4-0.2c-0.1,0.1-0.2,0.2-0.2,0.4l0.1,32.6c0,0.9-0.4,1.3-1.3,1.3h-8.4
			C556.4,155.5,556,155.1,556,154.2z"/>
	</g>
	<path class="st7" d="M8.7-66.8c0.6-0.3,1.2-0.6,1.7-1c3.5-2.2,6.9-4.4,10.3-6.7c1.4-0.9,2.7-1.9,4.1-2.9c0.1-0.1,0.5,0,0.7,0.1
		c2.2,1.5,4.4,2.9,6.6,4.4c1.2,0.8,2.5,1.5,3.7,2.3c0.2,0.1,0.3,0.2,0.6,0.4c-0.3,0.2-0.5,0.4-0.8,0.6c-3,1.9-6.1,3.7-9.1,5.7
		c-6.5,4.1-12.9,8.3-19.3,12.4c-1.8,1.1-1.7,1.2-1.8,3.3c0,6.4-0.1,12.8-0.1,19.2c0,0.8,0.2,1.3,1,1.8c5.5,3.4,11,6.9,16.5,10.3
		c0.8,0.5,1.1,1.1,1.1,2.1c0,7.3,0,14.5,0,21.8c0,0.3,0,0.7-0.1,1.1c-0.3-0.1-0.5-0.2-0.7-0.3C15.8,3.4,8.5-1.1,1.2-5.7
		c-3.6-2.3-7.3-4.5-11-6.8c-3-1.9-6-3.7-9-5.7c-0.3-0.2-0.5-0.6-0.5-0.9c0-9.3,0-18.5,0-27.8c0-1,0.3-1.6,1.2-2.2
		c4.8-3,9.5-6.2,14.3-9.3c0.8-0.5,1.5-1,2.3-1.6c0.2-0.1,0.2-0.4,0.2-0.7c0-4.6,0-9.1,0.1-13.7c0-0.9,0.1-1.9,0.1-2.8
		c0-0.4,0.1-0.6,0.6-0.5c2.7,0,5.4,0,8.1,0.1c1,0,1.1,0,1,1c0,2.9-0.1,5.9-0.1,8.8c0,0.3,0,0.6,0,0.9C8.6-66.9,8.6-66.8,8.7-66.8z"
		/>
	<path class="st8" d="M26.3,8.2c0-0.5-0.1-0.8-0.1-1.1c0-7.5,0-14.9,0-22.4c0-0.6,0.2-0.8,0.7-1.2c5.4-3.4,10.8-6.8,16.3-10.1
		c1.2-0.8,1.7-1.7,1.7-3.3c-0.1-6.3-0.1-12.6-0.1-18.9c0-1-0.3-1.5-1.1-2.1c-2.3-1.4-4.4-2.9-6.6-4.3c-2.8-1.8-5.6-3.6-8.4-5.4
		c-1.4-0.9-1.4-1.1,0-2c2.9-1.8,5.8-3.7,8.7-5.6c0.8-0.5,1.4-0.6,2.3,0c7.3,4.8,14.7,9.6,22,14.4c2.3,1.5,4.5,3,6.8,4.4
		c0.8,0.5,1.1,1.1,1.1,2c0,5.4,0,10.9,0,16.3c0,3.6-0.2,7.3,0,10.9c0.1,1.3-0.4,1.7-1.4,2.3c-2.6,1.6-5.1,3.2-7.7,4.8
		c-2.6,1.6-5.2,3.2-7.8,4.9c-3.8,2.4-7.7,4.8-11.5,7.2c-4.4,2.7-8.8,5.5-13.2,8.2C27.5,7.6,27,7.8,26.3,8.2z"/>
	<path class="st1" d="M86.6-43.9c-1.5-1-3-1.9-4.4-2.9c-0.8-0.5-1.5-1.2-2.3-1.7c-1.7-0.9-3.1-2.2-4.8-3.2c-1.7-1-3.3-2.2-4.9-3.3
		C68.5-56,66.9-57,65.3-58c-3.3-2.1-6.7-4.1-9.9-6.3c-3.2-2.1-6.3-4.3-9.4-6.4c-2.9-2-5.9-3.9-8.8-5.7c-1.7-1.1-3.5-2.1-5.3-3.2
		c-0.4-0.2-0.7-0.6-1-0.8c-1.7-1.2-3.4-2.4-5.2-3.6c-0.5-0.4-0.9-0.1-1.3,0.2c-2,1.3-4,2.7-6,4c-1.8,1.2-3.7,2.4-5.5,3.6
		c-0.3,0.2-0.5,0.4-0.8,0.6c-0.6-1.1-0.3-2,0.6-2.6c3.8-2.4,7.6-4.9,11.4-7.4c0.8-0.5,1.4-0.5,2.2,0c4.6,3,9.2,5.9,13.8,8.9
		c3.8,2.5,7.6,5.1,11.5,7.6C57-65.6,62.5-62,68.1-58.3C74-54.5,80-50.6,85.9-46.8c1.8,1.2,3.6,2.4,5.3,3.7c0.3,0.2,0.6,0.6,1,1
		c-0.4,0-0.6,0.1-0.9,0.1c-4.4,0-8.8,0-13.2,0c-1,0-1,0-1,1c0,8.7-0.1,17.4-0.1,26.1c0,0.4-0.3,0.9-0.6,1.1
		c-3.3,2.1-6.7,4.2-10.1,6.2C56.4-1.3,46.5,4.9,36.6,11c-3.3,2.1-6.7,4.1-10,6.2c-0.1,0.1-0.2,0.1-0.2,0.2c-0.8,1.1-1.8,0.6-2.7,0.1
		c-0.6-0.4-1.1-0.9-1.7-1.3c-0.8-0.5-1.5-1-2.3-1.5c-2.5-1.6-5.1-3.2-7.7-4.7C9.7,8.6,7.4,7.2,5,5.8c-2-1.2-3.9-2.3-5.9-3.5
		C-1.9,1.7-3,1.1-4,0.3c-4.4-3.3-9.2-6-13.9-8.9c-2.2-1.4-4.4-2.6-6.6-3.9c-0.6-0.4-1.3-0.8-1.8-1.3c-0.3-0.3-0.4-0.8-0.4-1.3
		c0-3.4,0-6.7,0-10.1c0-5.2,0-10.4,0-15.6c0-1,0-1.1-1-1.1c-2,0-4,0-6,0c-2.5,0-5.1,0-7.6-0.1c-0.1,0-0.3-0.1-0.6-0.2
		c0.5-0.5,0.9-0.9,1.3-1.2c4.5-3,9.1-5.9,13.6-8.9c7.1-4.6,14.1-9.3,21.2-14c0,0,0.1-0.1,0.1-0.1c0.4-0.1,0.8-0.9,1.3-0.4
		c0.3,0.3-0.1,1.6-0.5,1.9c-3.7,2.5-7.4,5-11.1,7.5c-4.7,3.1-9.3,6.1-14,9.1c-1.8,1.2-3.6,2.4-5.4,3.5c-0.3,0.2-0.7,0.4-1.3,0.7
		c0.4,0.1,0.7,0.1,1,0.1c3.2,0.1,6.4,0.1,9.7,0.2c1,0,1,0.1,1.1,1.1c0.1,8.7,0.1,17.4,0.1,26c0,1.1,0.3,1.8,1.3,2.4
		C-15.5-9.3-7.5-4.3,0.5,0.7c5.6,3.5,11.2,7.1,16.9,10.7c2.2,1.4,4.5,2.7,6.8,4.1c0.7,0.4,1.3,0.4,1.9,0c2.4-1.5,4.8-2.9,7.2-4.4
		c8.1-5,16.1-10,24.2-15c5.4-3.4,10.8-6.7,16.2-10.1c0.3-0.2,0.5-0.3,0.8-0.5c0.6-0.3,0.8-0.8,0.8-1.5c0-6.9,0-13.7,0.1-20.6
		c0-1.9,0-3.9,0.1-5.8c0-1.3,0.1-1.3,1.4-1.4c2.9,0,5.8-0.1,8.6-0.1C85.8-43.8,86.1-43.8,86.6-43.9z"/>
	<path class="st1" d="M122.2,142.8c0.7-1.3,0.6-2.7,0.6-4c0-6.4,0-12.8,0-19.2c0-0.4,0-0.8,0-1.3c0.2,0,0.5,0,0.8,0c1.3,0,2.7,0,4,0
		c0.2,0,0.4-0.1,0.6-0.2c-1.2-0.8-2.4-1.5-3.5-2.3c-3.6-2.6-7.1-5.2-10.6-7.9c-3.8-2.8-7.5-5.7-11.3-8.6c-4.5-3.4-9-6.8-13.5-10.3
		c-2.6-1.9-5.1-3.9-7.7-5.8c0,0-0.1-0.1-0.2-0.1c-0.4-0.3-0.7-0.8-1.1-0.8c-0.4,0-0.8,0.4-1.1,0.7c-2.3,1.8-4.6,3.6-6.8,5.3
		c-4,3.1-7.9,6.2-11.9,9.2c-4,3-7.9,6-11.9,9c-3.7,2.8-7.4,5.6-11.1,8.3c-1.1,0.8-2.3,1.5-3.5,2.3c-0.3,0.2-0.6,0.4-0.8,0.7
		c1.5,0,3.1,0,4.6,0c0,0.1,0,0.2,0,0.3c0,5.9,0,11.8,0,17.7c0,2.1,0.2,4.3,0.5,6.4c0.4,2.9,1.9,5.2,3.8,7.4c2.5,2.9,5.4,5.4,8.4,7.8
		c0.1,0.1,0.2,0.2,0.3,0.2c3,1.4,5.5,3.5,8.6,4.7c2.8,1.1,5.5,2.3,8.3,3.3c3.8,1.4,7.6,2.7,11.4,4.1c0.7,0.3,1.2,0.2,1.8,0
		c1.8-0.6,3.6-1.2,5.3-1.8c2.7-0.9,5.4-1.9,8.1-2.9c0.1,0,0.2-0.1,0.3-0.1c0.2,0.5,0.3,1,0.5,1.5c0.4,1.2,0.7,2.5,1.1,3.7
		c0,0.2,0,0.4,0,0.6c-0.2,0-0.4,0-0.6-0.1c-0.3-0.2-0.6-0.4-0.9-0.7c-0.4-0.5-0.8-0.4-1.3-0.3c-2.5,0.9-4.9,1.7-7.4,2.5
		c-1.5,0.5-3.1,0.9-4.6,1.3c-0.2,0.1-0.4,0.1-0.5,0.2c-0.6,0.4-1.3,0.3-2,0.1c-1.5-0.5-3-0.9-4.5-1.3c-0.2-0.1-0.5,0.1-0.6,0.3
		c-1.1,1.6-2.2,3.2-3.2,4.9c-0.7,1-1.6,1.4-2.8,1.1c-3.6-1-7.2-2.1-10.8-3.1c-1.2-0.3-1.8-1.2-2-2.6c-0.2-2-0.5-4.1-0.6-6.1
		c0-1.1-0.5-1.6-1.4-2.2c-2.3-1.5-4.5-3.1-6.8-4.7c-0.2-0.2-0.7-0.1-1-0.1c-1.7,0.5-3.4,1-5.1,1.5c-0.5,0.2-1,0.3-1.5,0.4
		c-1.5,0.4-2.7-0.1-3.6-1.5c-0.5-0.8-1-1.6-1.6-2.3c-0.5-0.7-1.2-1.2-1.8-1.9c-1.1-1.5-2.2-3-3.3-4.5c-0.5-0.7-0.5-1.4,0-2.1
		c1.5-2.1,3-4.3,4.5-6.4c0.1-0.1,0.1-0.3,0.1-0.5c-0.5-2.9-1.1-5.8-1.7-8.7c-0.1-0.3-0.4-0.7-0.6-0.8c-2.3-1.1-4.7-2.1-7-3.2
		c-1-0.5-1.7-1.1-1.6-2.4c0.1-2,0-3.9,0.1-5.9c0.1-1.1,0.3-2.1,0.5-3.2c0.1-0.9,0.3-1.8,0.4-2.8c0.1-1.2,0.6-1.6,1.9-1.9
		c2-0.4,3.9-0.9,5.9-1.4c0.2,0,0.4-0.2,0.6-0.2c1.3-0.1,1.9-0.9,2.5-2c1.1-2.1,2.4-4.2,3.6-6.3c0.3-0.5,0.5-0.9,0.1-1.5
		c-1.1-2.2-2.1-4.4-3.2-6.6C34,95.2,34,94.4,34.5,94c1.7-1.6,3.4-3.3,5.1-4.9c1.3-1.2,2.7-2.4,4.1-3.6c0.7-0.6,1.8-0.6,2.6-0.1
		c1.4,0.8,2.9,1.5,4.4,2.3c0.7,0.4,1.3,0.7,1.9,1.2c0.4,0.3,0.7,0.3,1.1,0.1c1.4-0.7,2.8-1.3,4.3-1.9c1.3-0.5,2.7-0.9,4-1.4
		c0.2-0.1,0.4-0.2,0.4-0.3c0.6-1.5,1.1-3,1.7-4.5c0.5-1.2,0.9-2.4,1.5-3.6c0.4-0.8,1.2-1.1,2-1.1c3.9,0,7.7,0,11.6,0
		c0.8,0,1.3,0.5,1.7,1.1c0.2,0.4,0.5,0.7,0.9,0.9c0.8,0.7,1.7,1.3,2.5,1.9c2.7,2.1,5.4,4.2,8.1,6.3c0.8,0.6,1.5,1.2,2.2,1.7
		c1.5-0.9,2.9-1.8,4.3-2.7c1-0.6,1.7-0.6,2.7,0.2c1.7,1.4,3.4,2.8,5.1,4.2c1.3,1.1,2.5,2.3,3.7,3.5c0.5,0.5,0.6,1.5,0.3,2.2
		c-0.6,1.3-1.1,2.6-1.7,3.9c9.2,7,18.3,14.2,27.4,21.3c0,0.1-0.1,0.2-0.1,0.3c-0.6,0-1.2,0-1.7,0c-2.6,0-5.3,0-7.9,0
		c-0.8,0-0.8,0-0.8,0.8c0,5.3,0,10.5-0.1,15.8c0,2.2-0.4,4.3-0.5,6.6C124.2,143.7,123.2,143.2,122.2,142.8z"/>
	<path class="st7" d="M97.3,133.8c2.7-1.8,4.5-4.3,5.8-7.3c0.5-1.2,0.8-2.5,1.2-3.7c0.3-0.9-0.2-1.9-1.5-1.7
		c-1.5,0.3-2.9,0.7-4.3,1.3c-1.8,0.9-3.6,1.8-5.4,2.7c-1,0.5-2.2,0.8-3.4,0.7h0c-0.6,0-1.1-0.2-1.5-0.6c-0.7-0.8-1.5-1.7-1.8-2.6
		c-0.8-1.7-1.9-3.7-0.9-5.5c0-0.3,0.7-0.8,0.9-1l12.3-7.2c0.4-0.4,0.7-1.1,0.1-1.6c-1.1-1-2.4-1.7-3.7-2.4c-1.2-0.6-2.6-1.1-4-1.4
		c-2.4-0.5-4.9-0.7-7.4-0.2c-3.9,0.8-6.9,2.8-9.4,5.7c-2,2.4-3.3,5.2-3.6,8.3c-0.1,0.6-0.1,1.2-0.1,1.9c0,2-1,3.9-2.7,5.1l0,0
		c-5.3,4-10.7,8-16,12c-2.7,2-5.4,4.1-8.1,6.2c-0.1,0-0.1,0.1-0.4,0.2c-0.2-1.7-0.7-3.4-0.7-5c-0.1-5.9,0-11.8,0-17.7
		c0-2.1,1-4.1,2.7-5.4c2.6-2,5.3-3.9,7.9-5.9c2.1-1.6,4.2-3.2,6.3-4.8c2.7-2.1,5.4-4.1,8.1-6.2c2.7-2.1,5.5-4.2,8.2-6.3
		c0.4-0.3,0.7-0.6,1.1-0.8c1.9-1.4,5-1.5,6.8,0c2,1.5,3.9,3,5.9,4.5c2.8,2.1,5.6,4.1,8.4,6.2c2.2,1.7,4.4,3.3,6.6,5
		c4,3.1,8,6.2,12.1,9.2c1.1,0.8,1.4,1.5,1.4,2.8c-0.1,6.9,0,13.7,0,20.6c0,0.5-0.1,1,0,1.6c0,0.6-0.3,0.7-0.7,0.6
		c-0.8-0.2-1.5-0.5-2.3-0.7c-2.9-0.9-5.8-1.8-8.7-2.8c-2.9-1-5.8-2-8.7-2.9c-0.3-0.1-0.6-0.2-0.9-0.3
		C96.9,134.3,96.8,134.2,97.3,133.8z"/>
	<path class="st8" d="M126.5,178.7c-0.3,0.4-0.5,0.7-0.7,1c-1.7,2.6-3.5,5.1-5.2,7.7c-0.2,0.3-0.4,0.5-0.6,0.8
		c-0.3,0.5-0.8,0.8-1.4,0.6c-0.6-0.2-1.1-0.5-1.3-1.2c-0.6-2.4-1.2-4.8-1.9-7.2c-0.7-2.4-1.4-4.9-2.1-7.3c-1-3.6-2-7.2-2.9-10.8
		c-0.6-2.1-1.2-4.2-1.7-6.4c-0.3-1-0.6-2.1-0.7-3.1c-0.1-0.7,0.2-0.9,0.9-0.7c3.8,1.2,7.5,2.5,11.3,3.7c2.3,0.8,4.6,1.4,6.9,2.2
		c3.3,1.1,6.6,2.2,9.8,3.3c2,0.7,4,1.3,6,2c0.7,0.2,1.4,0.4,2,0.8c0.3,0.2,0.7,0.6,0.7,0.9c0,0.3-0.3,0.8-0.6,1
		c-3.2,1.9-6.4,3.7-9.7,5.6c-0.4,0.2-0.9,0.4-1.4,0.5c0.4,0.5,0.9,0.9,1.3,1.4c2.7,3.2,5.5,6.4,8.2,9.6c0.7,0.8,1.4,1.5,2,2.3
		c0.3,0.4,0.5,0.9,0.7,1.4c0.1,0.4-0.1,0.8-0.4,1.1c-1.6,1.4-3.1,2.8-4.6,4.3c-0.8,0.7-2.5,0.6-3.3-0.3c-2.5-3-4.9-5.9-7.4-8.9
		c-1.1-1.4-2.2-2.7-3.4-4.1C126.9,179,126.7,178.9,126.5,178.7z"/>
	<path class="st7" d="M55.3,155.7c0.6-0.5,1.2-0.9,1.7-1.3c4.3-3.4,8.6-6.9,12.9-10.3c2.5-2,5-4.1,7.5-6.2c0.4-0.3,0.7-0.7,1.1-1.1
		c0.4-0.4,0.8-0.5,1.3-0.4c1,0.3,2,0.6,3,0.9c0.3,0.1,0.7,0.2,1,0.2c1.1,0.1,2.2,0.2,3.3,0.4c0.2,0,0.4,0.2,0.4,0.4
		c0.6,2.5,1.2,5,1.8,7.5c0.4,1.5,0.8,3,1.2,4.5c0.6,2.1,1.1,4.3,1.7,6.4c0.3,1,0.7,2,1,3c0.2,0.8,0.1,0.9-0.7,1.2
		c-1.7,0.5-3.3,1.2-4.9,1.8c-2.1,0.7-4.2,1.4-6.3,2.3c-1.1,0.5-2,0.2-2.9-0.2c-2.8-1-5.7-2-8.5-3.1c-3-1.2-6-2.4-8.9-3.7
		c-0.1,0-0.2-0.1-0.3-0.1c-1.6,0.1-2.7-1-4-1.5C56.3,156.2,55.9,156,55.3,155.7z"/>
	<path class="st1" d="M53.9-2.9c-0.3,0.4-0.5,0.7-0.7,1c-1.7,2.6-3.5,5.1-5.2,7.7c-0.2,0.3-0.4,0.5-0.6,0.8
		c-0.3,0.5-0.8,0.8-1.4,0.6c-0.6-0.2-1.1-0.5-1.3-1.2c-0.6-2.4-1.2-4.8-1.9-7.2c-0.7-2.4-1.4-4.9-2.1-7.3c-1-3.6-2-7.2-2.9-10.8
		c-0.6-2.1-1.2-4.2-1.7-6.4c-0.3-1-0.6-2.1-0.7-3.1c-0.1-0.7,0.2-0.9,0.9-0.7c3.8,1.2,7.5,2.5,11.3,3.7c2.3,0.8,4.6,1.4,6.9,2.2
		c3.3,1.1,6.6,2.2,9.8,3.3c2,0.7,4,1.3,6,2c0.7,0.2,1.4,0.4,2,0.8c0.3,0.2,0.7,0.6,0.7,0.9c0,0.3-0.3,0.8-0.6,1
		c-3.2,1.9-6.4,3.7-9.7,5.6c-0.4,0.2-0.9,0.4-1.4,0.5c0.4,0.5,0.9,0.9,1.3,1.4c2.7,3.2,5.5,6.4,8.2,9.6c0.7,0.8,1.4,1.5,2,2.3
		c0.3,0.4,0.5,0.9,0.7,1.4c0.1,0.4-0.1,0.8-0.4,1.1c-1.6,1.4-3.1,2.8-4.6,4.3c-0.8,0.7-2.5,0.6-3.3-0.3c-2.5-3-4.9-5.9-7.4-8.9
		c-1.1-1.4-2.2-2.7-3.4-4.1C54.3-2.6,54.1-2.7,53.9-2.9z"/>
	<g class="st1">
		<path class="st2" d="M-94.5-75.7c0.6-0.3,1.2-0.6,1.7-1c3.5-2.2,6.9-4.4,10.3-6.7c1.4-0.9,2.7-1.9,4.1-2.9c0.1-0.1,0.5,0,0.7,0.1
			c2.2,1.5,4.4,2.9,6.6,4.4c1.2,0.8,2.5,1.5,3.7,2.3c0.2,0.1,0.3,0.2,0.6,0.4c-0.3,0.2-0.5,0.4-0.8,0.6c-3,1.9-6.1,3.7-9.1,5.7
			c-6.5,4.1-12.9,8.3-19.3,12.4c-1.8,1.1-1.7,1.2-1.8,3.3c0,6.4-0.1,12.8-0.1,19.2c0,0.8,0.2,1.3,1,1.8c5.5,3.4,11,6.9,16.5,10.3
			c0.8,0.5,1.1,1.1,1.1,2.1c0,7.3,0,14.5,0,21.8c0,0.3,0,0.7-0.1,1.1C-79.6-0.8-79.9-0.9-80-1c-7.3-4.6-14.6-9.1-22-13.7
			c-3.6-2.3-7.3-4.5-11-6.8c-3-1.9-6-3.7-9-5.7c-0.3-0.2-0.5-0.6-0.5-0.9c0-9.3,0-18.5,0-27.8c0-1,0.3-1.6,1.2-2.2
			c4.8-3,9.5-6.2,14.3-9.3c0.8-0.5,1.5-1,2.3-1.6c0.2-0.1,0.2-0.4,0.2-0.7c0-4.6,0-9.1,0.1-13.7c0-0.9,0.1-1.9,0.1-2.8
			c0-0.4,0.1-0.6,0.6-0.5c2.7,0,5.4,0,8.1,0.1c1,0,1.1,0,1,1c0,2.9-0.1,5.9-0.1,8.8c0,0.3,0,0.6,0,0.9L-94.5-75.7"/>
		<path class="st9" d="M-76.9-0.8c0-0.5-0.1-0.8-0.1-1.1c0-7.5,0-14.9,0-22.4c0-0.6,0.2-0.8,0.7-1.2c5.4-3.4,10.8-6.8,16.3-10.1
			c1.2-0.8,1.7-1.7,1.7-3.3c-0.1-6.3-0.1-12.6-0.1-18.9c0-1-0.3-1.5-1.1-2.1c-2.3-1.4-4.4-2.9-6.6-4.3c-2.8-1.8-5.6-3.6-8.4-5.4
			c-1.4-0.9-1.4-1.1,0-2c2.9-1.8,5.8-3.7,8.7-5.6c0.8-0.5,1.4-0.6,2.3,0c7.3,4.8,14.7,9.6,22,14.4c2.3,1.5,4.5,3,6.8,4.4
			c0.8,0.5,1.1,1.1,1.1,2c0,5.4,0,10.9,0,16.3c0,3.6-0.2,7.3,0,10.9c0.1,1.3-0.4,1.7-1.4,2.3c-2.6,1.6-5.1,3.2-7.7,4.8
			c-2.6,1.6-5.2,3.2-7.8,4.9c-3.8,2.4-7.7,4.8-11.5,7.2c-4.4,2.7-8.8,5.5-13.2,8.2C-75.8-1.4-76.2-1.2-76.9-0.8"/>
		<path class="st10" d="M-71.8-75.8c-1.6,1-3.3,2-4.9,3.1c-6.5,4.1-12.9,8.3-19.3,12.4c-1.8,1.1-1.7,1.2-1.8,3.3
			c0,6.4-0.1,12.8-0.1,19.2c0,0.8,0.2,1.3,1,1.8c5.5,3.4,11,6.9,16.5,10.3c0.8,0.5,1.1,1.1,1.1,2.1c0,1.6,0,3.2,0,4.8
			c0.2,0,0.4,0,0.6,0c0.6,0,1.2,0,1.8,0c0-1.8,0-3.6,0-5.4c0-0.6,0.2-0.8,0.7-1.2c5.4-3.4,10.8-6.8,16.3-10.1
			c1.2-0.8,1.7-1.7,1.7-3.3c-0.1-6.3-0.1-12.6-0.1-18.9c0-1-0.3-1.5-1.1-2.1c-2.3-1.4-4.4-2.9-6.6-4.3c-2.8-1.8-5.6-3.6-8.4-5.4
			c-1.4-0.9-1.4-1.1,0-2c1.9-1.2,3.7-2.4,5.6-3.5C-69.9-75.3-70.8-75.6-71.8-75.8"/>
		<path class="st11" d="M-78.7-76.6c-16.5,0-29.8,12.9-29.8,28.9c0,15.8,13,28.6,29.2,28.9c0-1.6,0-3.2,0-4.8c0-1-0.3-1.6-1.1-2.1
			c-5.5-3.4-10.9-7-16.5-10.3c-0.8-0.5-1-1-1-1.8c0.1-6.4,0.1-12.8,0.1-19.2c0-2.1,0-2.1,1.8-3.3c6.4-4.2,12.9-8.3,19.3-12.4
			c1.6-1,3.2-2,4.9-3.1C-74-76.3-76.3-76.6-78.7-76.6"/>
		<path class="st12" d="M-68.9-75c-1.9,1.2-3.7,2.4-5.6,3.5c-1.4,0.9-1.4,1.1,0,2c2.8,1.8,5.6,3.6,8.4,5.4c2.2,1.4,4.4,2.9,6.6,4.3
			c0.9,0.5,1.1,1.1,1.1,2.1c0,6.3,0,12.6,0.1,18.9c0,1.5-0.5,2.5-1.7,3.3c-5.4,3.4-10.8,6.8-16.3,10.1c-0.5,0.3-0.7,0.6-0.7,1.2
			c0,1.8,0,3.6,0,5.4c15.6-0.9,28-13.5,28-28.8C-48.9-60.3-57.3-71.1-68.9-75"/>
	</g>
	<path class="st1" d="M255,245.7c0.7-1.3,0.6-2.7,0.6-4c0-6.4,0-12.8,0-19.2c0-0.4,0-0.8,0-1.3c0.2,0,0.5,0,0.8,0c1.3,0,2.7,0,4,0
		c0.2,0,0.4-0.1,0.6-0.2c-1.2-0.8-2.4-1.5-3.5-2.3c-3.6-2.6-7.1-5.2-10.6-7.9c-3.8-2.8-7.5-5.7-11.3-8.6c-4.5-3.4-9-6.8-13.5-10.3
		c-2.6-1.9-5.1-3.9-7.7-5.8c0,0-0.1-0.1-0.2-0.1c-0.4-0.3-0.7-0.8-1.1-0.8c-0.4,0-0.8,0.4-1.1,0.7c-2.3,1.8-4.6,3.6-6.8,5.3
		c-4,3.1-7.9,6.2-11.9,9.2c-4,3-7.9,6-11.9,9c-3.7,2.8-7.4,5.6-11.1,8.3c-1.1,0.8-2.3,1.5-3.5,2.3c-0.3,0.2-0.6,0.4-0.8,0.7
		c1.5,0,3.1,0,4.6,0c0,0.1,0,0.2,0,0.3c0,5.9,0,11.8,0,17.7c0,2.1,0.2,4.3,0.5,6.4c0.4,2.9,1.9,5.2,3.8,7.4c2.5,2.9,5.4,5.4,8.4,7.8
		c0.1,0.1,0.2,0.2,0.3,0.2c3,1.4,5.5,3.5,8.6,4.7c2.8,1.1,5.5,2.3,8.3,3.3c3.8,1.4,7.6,2.7,11.4,4.1c0.7,0.3,1.2,0.2,1.8,0
		c1.8-0.6,3.6-1.2,5.3-1.8c2.7-0.9,5.4-1.9,8.1-2.9c0.1,0,0.2-0.1,0.3-0.1c0.2,0.5,0.3,1,0.5,1.5c0.4,1.2,0.7,2.5,1.1,3.7
		c0,0.2,0,0.4,0,0.6c-0.2,0-0.4,0-0.6-0.1c-0.3-0.2-0.6-0.4-0.9-0.7c-0.4-0.5-0.8-0.4-1.3-0.3c-2.5,0.9-4.9,1.7-7.4,2.5
		c-1.5,0.5-3.1,0.9-4.6,1.3c-0.2,0.1-0.4,0.1-0.5,0.2c-0.6,0.4-1.3,0.3-2,0.1c-1.5-0.5-3-0.9-4.5-1.3c-0.2-0.1-0.5,0.1-0.6,0.3
		c-1.1,1.6-2.2,3.2-3.2,4.9c-0.7,1-1.6,1.4-2.8,1.1c-3.6-1-7.2-2.1-10.8-3.1c-1.2-0.3-1.8-1.2-2-2.6c-0.2-2-0.5-4.1-0.6-6.1
		c0-1.1-0.5-1.6-1.4-2.2c-2.3-1.5-4.5-3.1-6.8-4.7c-0.2-0.2-0.7-0.1-1-0.1c-1.7,0.5-3.4,1-5.1,1.5c-0.5,0.2-1,0.3-1.5,0.4
		c-1.5,0.4-2.7-0.1-3.6-1.5c-0.5-0.8-1-1.6-1.6-2.3c-0.5-0.7-1.2-1.2-1.8-1.9c-1.1-1.5-2.2-3-3.3-4.5c-0.5-0.7-0.5-1.4,0-2.1
		c1.5-2.1,3-4.3,4.5-6.4c0.1-0.1,0.1-0.3,0.1-0.5c-0.5-2.9-1.1-5.8-1.7-8.7c-0.1-0.3-0.4-0.7-0.6-0.8c-2.3-1.1-4.7-2.1-7-3.2
		c-1-0.5-1.7-1.1-1.6-2.4c0.1-2,0-3.9,0.1-5.9c0.1-1.1,0.3-2.1,0.5-3.2c0.1-0.9,0.3-1.8,0.4-2.8c0.1-1.2,0.6-1.6,1.9-1.9
		c2-0.4,3.9-0.9,5.9-1.4c0.2,0,0.4-0.2,0.6-0.2c1.3-0.1,1.9-0.9,2.5-2c1.1-2.1,2.4-4.2,3.6-6.3c0.3-0.5,0.5-0.9,0.1-1.5
		c-1.1-2.2-2.1-4.4-3.2-6.6c-0.3-0.6-0.3-1.4,0.2-1.8c1.7-1.6,3.4-3.3,5.1-4.9c1.3-1.2,2.7-2.4,4.1-3.6c0.7-0.6,1.8-0.6,2.6-0.1
		c1.4,0.8,2.9,1.5,4.4,2.3c0.7,0.4,1.3,0.7,1.9,1.2c0.4,0.3,0.7,0.3,1.1,0.1c1.4-0.7,2.8-1.3,4.3-1.9c1.3-0.5,2.7-0.9,4-1.4
		c0.2-0.1,0.4-0.2,0.4-0.3c0.6-1.5,1.1-3,1.7-4.5c0.5-1.2,0.9-2.4,1.5-3.6c0.4-0.8,1.2-1.1,2-1.1c3.9,0,7.7,0,11.6,0
		c0.8,0,1.3,0.5,1.7,1.1c0.2,0.4,0.5,0.7,0.9,0.9c0.8,0.7,1.7,1.3,2.5,1.9c2.7,2.1,5.4,4.2,8.1,6.3c0.8,0.6,1.5,1.2,2.2,1.7
		c1.5-0.9,2.9-1.8,4.3-2.7c1-0.6,1.7-0.6,2.7,0.2c1.7,1.4,3.4,2.8,5.1,4.2c1.3,1.1,2.5,2.3,3.7,3.5c0.5,0.5,0.6,1.5,0.3,2.2
		c-0.6,1.3-1.1,2.6-1.7,3.9c9.2,7,18.3,14.2,27.4,21.3c0,0.1-0.1,0.2-0.1,0.3c-0.6,0-1.2,0-1.7,0c-2.6,0-5.3,0-7.9,0
		c-0.8,0-0.8,0-0.8,0.8c0,5.3,0,10.5-0.1,15.8c0,2.2-0.4,4.3-0.5,6.6C257,246.6,256.1,246.1,255,245.7z"/>
	<g id="SBCrkm_00000144301074902701310610000008258901200468292237_" class="st1">
		<g>
			<path d="M359.8,41.2c3.5,0.2,6.2,0.2,8.9,0.4c3.4,0.3,4.5,1.6,4.7,4.9c0,0.4,0,0.7,0,1.1c0,2,0,4.1,0,6.1c0,1.8,0.8,2.8,2.5,3.5
				c4.1,1.7,8.2,3.4,12.3,5.1c1.6,0.7,2.8,0.5,4.1-0.8c1.7-1.7,3.5-3.5,5.2-5.2c2.2-2.1,4.1-2.4,6.3-0.3c4.2,3.9,8.2,7.9,12.1,12.1
				c2.2,2.4,1.9,4.2-0.4,6.6c-1.6,1.7-3.4,3.4-5,5c-1.3,1.3-1.5,2.6-0.7,4.3c1.7,4,3.4,8,5,12c0.7,1.8,1.7,2.6,3.6,2.7
				c2.7,0,5.3,0,8,0.1c2.3,0.1,3.4,1,3.9,3.3c0.2,1,0.4,2,0.4,3c-0.1,5.1,0,10.2-0.3,15.3c-0.2,2.9-1.5,3.8-4.4,3.9
				c-2.5,0.1-4.9,0-7.4,0c-2.2,0-3,0.7-3.8,2.7c-1.6,4-3.2,7.9-4.9,11.8c-0.8,1.8-0.6,3,0.8,4.4c1.7,1.7,3.4,3.4,5.1,5.1
				c2,2.1,2.3,3.9,0.5,6.1c-3,3.5-6.2,6.7-9.4,10c-0.9,0.9-2,1.8-3.1,2.6c-2.4,1.7-4,1.6-6.1-0.5c-1.7-1.7-3.4-3.4-5.1-5.1
				c-1.5-1.5-2.7-1.6-4.6-0.7c-3.8,1.6-7.6,3.2-11.4,4.7c-2.3,0.9-3,1.7-3,4.1c0,2.5,0,5.1-0.1,7.6c-0.1,2.4-1.1,3.5-3.4,3.9
				c-1.3,0.2-2.6,0.4-4,0.4c-4.3,0-8.6-0.1-13-0.2c-0.8,0-1.6-0.2-2.4-0.5c-1.6-0.4-2.5-1.5-2.6-3.1c-0.1-2.6-0.1-5.2-0.1-7.9
				c0-2.8-0.7-3.6-3.3-4.5c-3.5-1.3-7-2.7-10.5-4.3c-2.7-1.2-3.6-1.2-5.7,0.9c-1.5,1.5-3,3.1-4.6,4.6c-2.1,2.1-3.9,2.3-6.2,0.4
				c-3-2.5-5.7-5.2-8.5-7.9c-1.4-1.4-2.7-2.8-3.9-4.4c-1.8-2.4-1.6-4.1,0.5-6.3c1.7-1.8,3.5-3.5,5.2-5.2c1.2-1.3,1.4-2.4,0.7-4.1
				c-1.7-4.1-3.4-8.1-5-12.2c-0.7-1.7-1.7-2.5-3.6-2.5c-2.5,0-5.1,0-7.6-0.1c-2.8-0.1-3.9-1.1-4.3-3.8c-0.3-1.6-0.4-3.2-0.4-4.8
				c0-4,0.1-7.9,0.2-11.9c0-0.8,0.2-1.6,0.5-2.3c0.5-1.6,1.6-2.6,3.3-2.6c2.8-0.1,5.6-0.1,8.4-0.2c2,0,2.9-0.7,3.7-2.6
				c1.6-4,3.3-8.1,5-12.1c0.7-1.7,0.6-2.8-0.7-4.2c-1.7-1.7-3.4-3.4-5.1-5.1c-2.2-2.3-2.5-4.2-0.3-6.5c3.8-4.1,7.8-8.2,12-12
				c2.4-2.2,4.2-1.9,6.6,0.4c1.7,1.7,3.4,3.4,5.1,5.1c1.2,1.2,2.4,1.4,4,0.7c4.1-1.7,8.3-3.4,12.4-5.1c1.7-0.7,2.3-1.6,2.4-3.4
				c0-2.7,0-5.5,0.1-8.2c0.1-2.2,1.1-3.4,3.3-3.7C354.3,41.5,357.4,41.4,359.8,41.2z M321.6,111.6c0,21.4,17.5,38.9,38.9,39
				c21.5,0,39-17.5,39-39c0-21.4-17.5-39-38.9-39C339.1,72.5,321.6,90,321.6,111.6z"/>
		</g>
	</g>
</g>
<g id="final">
	<g>
		<path class="st13" d="M374.5,105.3c-0.2-9-3.2-16.7-9.1-23.5c-0.3-0.3-0.3-0.8,0.1-1.1c5.5-4.9,10.9-9.8,16.6-14.9
			c0.4-0.3,1-0.3,1.3,0.1c10.1,11.3,14.8,24.5,15.2,39.4c0,0.3-0.2,0.5-0.5,0.5h-23.2C374.7,105.7,374.5,105.5,374.5,105.3z"/>
		<g>
			<path class="st14" d="M295.2,65.9l16.6,15c0.2,0.2,0.2,0.4,0,0.6c-5.8,6.8-8.8,14.7-9.2,23.7c0,0.2-0.2,0.4-0.5,0.4h-22.9
				c-0.3,0-0.5-0.2-0.5-0.5c0.3-15,5.2-28,15.1-39.3C294.2,65.6,294.8,65.6,295.2,65.9z"/>
		</g>
		<path class="st15" d="M336.1,46.8c0.3,7.5,0.6,14.5,0.9,21.8c0,0.6-0.4,1.1-1,1.1c-7.9,0.7-15.1,3.6-21.3,9
			c-0.2,0.2-0.5,0.2-0.6,0c-5.2-5.5-10.2-11.1-15.2-16.9c-0.3-0.4-0.3-1,0.1-1.3c10.5-8.9,22.4-14,36.1-14.6
			C335.6,45.9,336.1,46.3,336.1,46.8z"/>
		<path class="st16" d="M360.3,76.4c-0.4-0.4-1.1-0.9-1.5-1.2c-3-2-7-3.3-10.3-4.3c-2.4-0.7-5-0.9-7.5-1.2c-0.3,0-0.5-0.3-0.6-0.4
			c0.4-7.6,0.7-15,1.1-22.5c0-0.5,0.5-0.9,1-0.9c14,0.6,25.7,5.9,35.9,14.7c0.4,0.3,0.4,0.9,0.1,1.3c-5.1,5.6-10.1,11.1-15.1,16.7
			c-0.1,0.1-0.3,0.2-0.5,0.1L360.3,76.4z"/>
		<g>
			<g>
				<path class="st17" d="M338.8,106.6c-1.7-0.3-3.9-1.1-4.5-4.2l0-0.1l0-0.1c0-3.2,1.5-4.8,4.7-5.1c0.7-0.1,1.2-0.4,1.6-0.9
					c1-1.3,2.1-2.7,3.1-4c3.1-4,6.3-8.2,9.6-12.2c2.1-2.6,4-5.3,5.8-7.8c0.1-0.1,0.2-0.2,0.3-0.3c0.8-0.6,1.4-1.4,2-2.3
					c0.7-0.9,1.4-1.8,2.4-2.6l1.8-1.4l-1.1,2c-0.5,0.9-1,1.7-1.5,2.5c-0.7,1-1.3,2-1.8,3.1c0,0.1-0.1,0.2-0.2,0.3
					c-1.7,2-3.1,4.3-4.5,6.5c-0.6,0.9-1.2,1.9-1.8,2.8c-3.5,5.2-7,10.4-10.5,15.6l-0.1,0.2c-0.3,0.5-0.4,1.1-0.3,1.7
					c0.3,1.7,0,3.4-1.1,4.6c-0.9,1.1-2.2,1.7-3.7,1.7L338.8,106.6z"/>
			</g>
			<g>
				<path class="st17" d="M364.1,67.5c-1,1.9-2.4,3.6-3.3,5.5c0,0.1-0.1,0.1-0.1,0.2c-2.4,2.9-4.3,6.2-6.4,9.3
					c-3.5,5.2-7,10.4-10.5,15.6c-0.1,0.1-0.1,0.2-0.2,0.2c-0.4,0.6-0.5,1.4-0.4,2.1c0.6,2.9-1.2,5.7-4.2,5.7c0,0-0.1,0-0.1,0
					c-1.9-0.4-3.6-1.3-4-3.8l0-0.1c0-3.1,1.5-4.3,4.2-4.6c0.8-0.1,1.5-0.4,2-1.1c4.2-5.4,8.3-10.9,12.7-16.3c2.1-2.5,4-5.2,5.8-7.9
					c0-0.1,0.1-0.1,0.2-0.2C361.4,71,362.3,68.9,364.1,67.5 M367.1,64l-3.6,2.7c-1,0.8-1.8,1.7-2.5,2.7c-0.6,0.8-1.2,1.6-1.9,2.2
					c-0.1,0.1-0.3,0.2-0.4,0.4c-1.8,2.5-3.7,5.2-5.8,7.8c-3.3,4-6.5,8.2-9.7,12.3c-1,1.3-2.1,2.7-3.1,4c-0.3,0.4-0.7,0.6-1.3,0.7
					c-3.4,0.3-5.1,2.1-5.1,5.6l0,0.2l0.1,0.2l0,0c0.5,2.5,2.1,3.9,4.8,4.5l0.1,0l0.1,0l0.2,0c1.6,0,3-0.7,4-1.9
					c1.1-1.3,1.5-3.2,1.2-5c-0.1-0.5,0-1,0.2-1.4c0-0.1,0.1-0.1,0.1-0.2c3.5-5.2,7-10.4,10.5-15.6c0.6-0.9,1.2-1.9,1.9-2.8
					c1.4-2.2,2.9-4.4,4.5-6.4c0.1-0.1,0.2-0.3,0.2-0.4c0.5-1,1.1-2,1.8-3c0.5-0.8,1.1-1.6,1.5-2.5L367.1,64L367.1,64z"/>
			</g>
		</g>
	</g>
	<g>
		<g>
			<path class="st17" d="M52.5,119.7c0.3,0.3,0.4,0.6,0.4,1.1v9c0,0.4-0.1,0.8-0.4,1.1c-0.3,0.3-0.6,0.4-1.1,0.4h-14
				c-0.4,0-0.6,0.2-0.6,0.6v44.6c0,0.4-0.1,0.8-0.4,1.1c-0.3,0.3-0.6,0.4-1.1,0.4H24.5c-0.4,0-0.8-0.1-1.1-0.4
				c-0.3-0.3-0.4-0.6-0.4-1.1v-44.6c0-0.4-0.2-0.6-0.6-0.6H8.9c-0.4,0-0.8-0.1-1.1-0.4c-0.3-0.3-0.4-0.6-0.4-1.1v-9
				c0-0.4,0.1-0.8,0.4-1.1c0.3-0.3,0.6-0.4,1.1-0.4h42.6C51.9,119.3,52.3,119.4,52.5,119.7z"/>
		</g>
		<g>
			<path class="st17" d="M89.1,176.7L79.3,155c-0.1-0.3-0.3-0.4-0.7-0.4h-5.2c-0.4,0-0.6,0.2-0.6,0.6v21.3c0,0.4-0.1,0.8-0.4,1.1
				c-0.3,0.3-0.6,0.4-1.1,0.4H60.5c-0.4,0-0.8-0.1-1.1-0.4c-0.3-0.3-0.4-0.6-0.4-1.1v-55.6c0-0.4,0.1-0.8,0.4-1.1
				c0.3-0.3,0.6-0.4,1.1-0.4h24.4c3.7,0,6.9,0.8,9.7,2.3c2.8,1.5,5,3.6,6.5,6.4c1.5,2.8,2.3,5.9,2.3,9.5c0,3.7-0.9,6.9-2.7,9.6
				c-1.8,2.7-4.3,4.7-7.6,5.9c-0.4,0.2-0.5,0.4-0.3,0.8l10.7,22.3l0.2,0.7c0,0.7-0.4,1.1-1.3,1.1H90.8
				C90,177.9,89.4,177.5,89.1,176.7z M72.9,131.7v11.6c0,0.4,0.2,0.6,0.6,0.6h9.1c2.1,0,3.7-0.6,5-1.7c1.3-1.1,1.9-2.7,1.9-4.6
				c0-2-0.6-3.5-1.9-4.7c-1.3-1.2-3-1.8-5-1.8h-9.1C73.1,131.2,72.9,131.4,72.9,131.7z"/>
		</g>
		<g>
			<path class="st17" d="M148.1,176.7l-1.9-6.9c-0.1-0.3-0.3-0.5-0.7-0.5h-18.9c-0.3,0-0.6,0.2-0.7,0.5l-1.9,6.9
				c-0.2,0.8-0.8,1.3-1.7,1.3h-11.8c-0.6,0-1-0.2-1.2-0.5c-0.2-0.3-0.3-0.7-0.1-1.2l17.6-55.7c0.3-0.8,0.9-1.3,1.8-1.3h14.8
				c0.9,0,1.5,0.4,1.8,1.3l17.7,55.7c0.1,0.1,0.1,0.3,0.1,0.6c0,0.7-0.4,1.1-1.3,1.1h-11.8C148.8,177.9,148.3,177.5,148.1,176.7z
				 M129.3,158.1c0,0.3,0.2,0.5,0.5,0.5h12.4c0.2,0,0.4-0.1,0.5-0.2c0.1-0.1,0.1-0.3,0-0.5l-6.4-22.3c-0.1-0.3-0.2-0.4-0.3-0.4
				c-0.1,0-0.3,0.1-0.4,0.4l-6.4,22.3V158.1z"/>
		</g>
		<g>
			<path class="st17" d="M169.6,177.5c-0.3-0.3-0.4-0.6-0.4-1.1v-55.6c0-0.4,0.1-0.8,0.4-1.1c0.3-0.3,0.6-0.4,1.1-0.4h20.9
				c4.4,0,8.2,0.8,11.6,2.3c3.4,1.5,5.9,3.7,7.8,6.5c1.8,2.8,2.8,6,2.8,9.6v22c0,3.6-0.9,6.8-2.8,9.6c-1.8,2.8-4.4,4.9-7.8,6.5
				c-3.4,1.5-7.2,2.3-11.6,2.3h-20.9C170.2,177.9,169.9,177.8,169.6,177.5z M183.7,166h8.5c2.2,0,4-0.8,5.4-2.4
				c1.4-1.6,2.1-3.7,2.2-6.4V140c0-2.7-0.7-4.8-2.1-6.4c-1.4-1.6-3.3-2.4-5.6-2.4h-8.4c-0.4,0-0.6,0.2-0.6,0.6v33.7
				C183.1,165.8,183.3,166,183.7,166z"/>
		</g>
		<g>
			<path class="st17" d="M262.2,130.7c-0.3,0.3-0.6,0.4-1.1,0.4h-25.6c-0.4,0-0.6,0.2-0.6,0.6v10c0,0.4,0.2,0.6,0.6,0.6h16.2
				c0.4,0,0.8,0.1,1.1,0.4c0.3,0.3,0.4,0.6,0.4,1.1v8.8c0,0.4-0.1,0.8-0.4,1.1c-0.3,0.3-0.6,0.4-1.1,0.4h-16.2
				c-0.4,0-0.6,0.2-0.6,0.6v10.7c0,0.4,0.2,0.6,0.6,0.6h25.6c0.4,0,0.8,0.1,1.1,0.4c0.3,0.3,0.4,0.6,0.4,1.1v8.9
				c0,0.4-0.1,0.8-0.4,1.1c-0.3,0.3-0.6,0.4-1.1,0.4h-38.6c-0.4,0-0.8-0.1-1.1-0.4c-0.3-0.3-0.4-0.6-0.4-1.1v-55.6
				c0-0.4,0.1-0.8,0.4-1.1c0.3-0.3,0.6-0.4,1.1-0.4h38.6c0.4,0,0.8,0.1,1.1,0.4c0.3,0.3,0.4,0.6,0.4,1.1v8.9
				C262.6,130.1,262.5,130.5,262.2,130.7z"/>
		</g>
		<g>
			<path class="st17" d="M278.5,176.4c-3.4-1.5-6-3.6-7.8-6.4s-2.8-6-2.8-9.6v-1.1c0-0.4,0.1-0.8,0.4-1.1c0.3-0.3,0.6-0.4,1.1-0.4
				H280c0.4,0,0.8,0.1,1.1,0.3c0.3,0.2,0.4,0.4,0.4,0.7v1c0,1.8,0.9,3.4,2.7,4.8c1.8,1.4,4.1,2.1,7,2.1c2.5,0,4.3-0.5,5.4-1.6
				c1.2-1.1,1.8-2.3,1.8-3.7c0-1.6-0.7-2.8-2.1-3.6c-1.4-0.8-3.8-1.8-7.3-2.9l-1.8-0.6c-3.6-1.2-6.7-2.4-9.4-3.8
				c-2.7-1.4-5-3.3-6.9-5.7c-1.9-2.4-2.8-5.4-2.8-9c0-3.5,0.9-6.5,2.7-9.1c1.8-2.6,4.3-4.6,7.5-6c3.2-1.4,6.9-2.1,10.9-2.1
				c4.3,0,8.2,0.8,11.6,2.3c3.4,1.6,6.1,3.8,8.1,6.6c2,2.8,2.9,6.1,2.9,9.8v0.7c0,0.4-0.1,0.8-0.4,1.1c-0.3,0.3-0.6,0.4-1.1,0.4
				h-10.6c-0.4,0-0.8-0.1-1.1-0.2c-0.3-0.1-0.4-0.3-0.4-0.6v-0.8c0-2-0.9-3.7-2.6-5.2c-1.7-1.5-4.1-2.3-7-2.3
				c-2.2,0-3.9,0.4-5.1,1.3c-1.2,0.9-1.8,2.2-1.8,3.8c0,1.2,0.4,2.2,1.2,3.1c0.8,0.8,2,1.6,3.6,2.3c1.6,0.7,4.2,1.6,7.6,2.7
				c3.9,1.3,7,2.5,9.1,3.5c2.2,1,4.2,2.6,6.2,4.9c1.9,2.3,2.9,5.2,2.9,8.9c0,3.5-0.9,6.6-2.8,9.3c-1.8,2.7-4.4,4.7-7.8,6.2
				c-3.4,1.5-7.2,2.2-11.6,2.2C285.8,178.6,281.9,177.8,278.5,176.4z"/>
		</g>
	</g>
	<g>
		<g>
			<path class="st14" d="M353,176.8l-2-7c-0.1-0.3-0.3-0.5-0.7-0.5H331c-0.3,0-0.6,0.2-0.7,0.5l-2,7c-0.2,0.9-0.8,1.3-1.7,1.3h-12.1
				c-0.6,0-1-0.2-1.2-0.5c-0.2-0.3-0.3-0.7-0.1-1.2l18-57c0.3-0.9,0.9-1.3,1.8-1.3h15.2c1,0,1.6,0.4,1.8,1.3l18.1,57
				c0.1,0.1,0.1,0.3,0.1,0.6c0,0.7-0.5,1.1-1.4,1.1h-12.1C353.8,178,353.3,177.6,353,176.8z M333.8,157.7c0,0.3,0.2,0.5,0.5,0.5H347
				c0.2,0,0.4-0.1,0.5-0.2c0.1-0.1,0.1-0.3,0-0.5l-6.5-22.8c-0.1-0.3-0.2-0.4-0.3-0.4c-0.1,0-0.3,0.1-0.4,0.4l-6.5,22.8V157.7z"/>
		</g>
		<g>
			<path class="st14" d="M375.1,177.6c-0.3-0.3-0.4-0.7-0.4-1.1v-56.9c0-0.5,0.1-0.8,0.4-1.1c0.3-0.3,0.7-0.4,1.1-0.4h21.3
				c4.5,0,8.4,0.8,11.8,2.3c3.4,1.5,6.1,3.7,8,6.6c1.9,2.9,2.8,6.1,2.8,9.9v22.5c0,3.7-0.9,7-2.8,9.9c-1.9,2.9-4.5,5.1-8,6.6
				c-3.4,1.5-7.4,2.3-11.8,2.3h-21.3C375.7,178,375.3,177.9,375.1,177.6z M389.5,165.9h8.7c2.3,0,4.1-0.8,5.6-2.4
				c1.4-1.6,2.2-3.8,2.2-6.6v-17.7c0-2.7-0.7-4.9-2.2-6.6c-1.5-1.6-3.4-2.4-5.7-2.4h-8.6c-0.4,0-0.6,0.2-0.6,0.6v34.5
				C388.9,165.7,389.1,165.9,389.5,165.9z"/>
		</g>
		<g>
			<path class="st14" d="M427.9,177.6c-0.3-0.3-0.4-0.7-0.4-1.1v-56.9c0-0.5,0.1-0.8,0.4-1.1c0.3-0.3,0.7-0.4,1.1-0.4H440
				c0.8,0,1.4,0.3,1.8,1l11.4,18.4c0.3,0.4,0.6,0.4,0.9,0l11.5-18.4c0.4-0.7,1-1,1.8-1h11.1c0.5,0,0.8,0.1,1.1,0.4
				c0.3,0.3,0.4,0.7,0.4,1.1v56.9c0,0.5-0.1,0.8-0.4,1.1c-0.3,0.3-0.7,0.4-1.1,0.4h-11.1c-0.5,0-0.8-0.1-1.1-0.4
				c-0.3-0.3-0.4-0.7-0.4-1.1V143c0-0.3-0.1-0.5-0.3-0.5c-0.2-0.1-0.3,0.1-0.4,0.3l-6.9,11.3c-0.4,0.7-1,1-1.8,1h-5.2
				c-0.8,0-1.4-0.3-1.8-1l-6.9-11.3c-0.1-0.3-0.3-0.4-0.4-0.3c-0.2,0.1-0.3,0.2-0.3,0.5v33.5c0,0.5-0.1,0.8-0.4,1.1
				c-0.3,0.3-0.7,0.4-1.1,0.4H429C428.5,178,428.2,177.9,427.9,177.6z"/>
		</g>
		<g>
			<path class="st14" d="M488.9,177.6c-0.3-0.3-0.4-0.7-0.4-1.1v-56.9c0-0.5,0.1-0.8,0.4-1.1c0.3-0.3,0.7-0.4,1.1-0.4h11.1
				c0.5,0,0.8,0.1,1.1,0.4c0.3,0.3,0.4,0.7,0.4,1.1v56.9c0,0.5-0.1,0.8-0.4,1.1c-0.3,0.3-0.7,0.4-1.1,0.4H490
				C489.5,178,489.2,177.9,488.9,177.6z"/>
		</g>
		<g>
			<path class="st14" d="M511.7,177.6c-0.3-0.3-0.4-0.7-0.4-1.1v-56.9c0-0.5,0.1-0.8,0.4-1.1c0.3-0.3,0.7-0.4,1.1-0.4h10.5
				c0.8,0,1.4,0.3,1.8,1L544,151c0.1,0.2,0.3,0.3,0.4,0.3c0.2-0.1,0.3-0.2,0.3-0.5l-0.1-31.1c0-0.5,0.1-0.8,0.4-1.1
				c0.3-0.3,0.7-0.4,1.1-0.4h11c0.5,0,0.8,0.1,1.1,0.4c0.3,0.3,0.4,0.7,0.4,1.1v56.9c0,0.5-0.1,0.8-0.4,1.1
				c-0.3,0.3-0.7,0.4-1.1,0.4h-10.5c-0.7,0-1.3-0.3-1.8-1l-18.9-32.3c-0.1-0.3-0.3-0.4-0.5-0.3c-0.2,0.1-0.3,0.2-0.3,0.5l0.2,31.6
				c0,0.5-0.1,0.8-0.4,1.1c-0.3,0.3-0.7,0.4-1.1,0.4h-11C512.3,178,512,177.9,511.7,177.6z"/>
		</g>
	</g>
	<path class="st10" d="M427.7,136.4"/>
	<path class="st10" d="M424.8,131.6"/>
	<path class="st14" d="M424.8,131.6"/>
	<g>
		<path class="st17" d="M22.2,110.6c0.3,0,0.6-0.3,0.6-0.6c0-10.3-0.1-13.8,0.1-24.4c0.1-2,1.4-4.7,3-5.7
			c22.4-13.1,44.8-26.1,67.4-38.9c1.5-0.9,4.4-1,5.8-0.2c22.4,12.7,44.6,25.7,67,38.4c2.9,1.6,3.6,3.6,3.6,6.7c0,0,0,20.3-0.1,23.9
			c0,0.3,0.2,0.6,0.6,0.6h14.1c0.3,0,0.6-0.3,0.6-0.6c0-15.5-0.2-17.3,0.1-32.5c0.1-3.8-1.3-5.6-4.4-7.4
			c-26.8-15.4-53.6-30.8-80.4-46.4c-3-1.7-5.1-1.7-8,0c-26.7,15.6-53.5,31-80.4,46.4c-2.9,1.6-4.2,3.3-4.2,6.8
			C8,91,7.8,96.4,7.8,110c0,0.3,0.2,0.6,0.6,0.6L22.2,110.6z"/>
	</g>
	<g>
		<path class="st17" d="M38.7,197.1v2.2c0,0.3-0.2,0.5-0.5,0.5h-5.7c-0.1,0-0.2,0.1-0.2,0.2v18.2c0,0.3-0.2,0.5-0.5,0.5h-2.7
			c-0.3,0-0.5-0.2-0.5-0.5V200c0-0.1-0.1-0.2-0.2-0.2H23c-0.3,0-0.5-0.2-0.5-0.5v-2.2c0-0.3,0.2-0.5,0.5-0.5h15.1
			C38.5,196.6,38.7,196.8,38.7,197.1z"/>
		<path class="st17" d="M48.5,215.4c0.6-0.3,1-0.7,1.4-1.2c0.1-0.2,0.2-0.3,0.4-0.3c0.1,0,0.2,0,0.3,0.1l1.5,1.2
			c0.1,0.1,0.2,0.3,0.2,0.4c0,0.1,0,0.2-0.1,0.3c-0.6,1-1.4,1.7-2.5,2.3c-1.1,0.5-2.3,0.8-3.6,0.8c-1.7,0-3.1-0.4-4.2-1.2
			c-1.1-0.8-1.9-1.9-2.4-3.3c-0.4-1.2-0.6-2.5-0.6-3.9c0-1.5,0.1-2.6,0.3-3.3c0.4-1.5,1.2-2.7,2.4-3.6s2.6-1.3,4.3-1.3
			c3.9,0,6.2,2.2,6.9,6.5c0.1,0.7,0.2,1.6,0.2,2.6c0,0.3-0.2,0.5-0.5,0.5h-9.8c-0.1,0-0.2,0.1-0.2,0.2c0,0.6,0.1,1,0.2,1.4
			c0.2,0.8,0.7,1.3,1.3,1.8c0.7,0.4,1.5,0.6,2.4,0.6C47.2,215.9,47.9,215.7,48.5,215.4z M43.8,206.1c-0.5,0.4-0.9,0.9-1.1,1.6
			c-0.1,0.4-0.2,0.9-0.3,1.3c0,0.1,0,0.2,0.2,0.2H49c0.1,0,0.2-0.1,0.2-0.2c-0.1-0.6-0.1-1-0.2-1.1c-0.2-0.7-0.6-1.3-1.1-1.8
			c-0.6-0.4-1.3-0.6-2.1-0.6C45,205.5,44.3,205.7,43.8,206.1z"/>
		<path class="st17" d="M58.9,217.7c-1.2-0.8-2-2-2.5-3.4c-0.3-0.9-0.5-2.2-0.5-3.8c0-1.5,0.2-2.8,0.5-3.7c0.4-1.4,1.3-2.5,2.4-3.3
			c1.2-0.8,2.6-1.2,4.2-1.2c1.6,0,3.1,0.4,4.3,1.2c1.2,0.8,2,1.9,2.4,3.1c0.1,0.2,0.1,0.5,0.2,0.9v0.1c0,0.2-0.1,0.4-0.4,0.4
			l-2.6,0.4h-0.1c-0.2,0-0.4-0.1-0.4-0.4l-0.1-0.4c-0.1-0.6-0.5-1.2-1.1-1.6s-1.3-0.6-2.1-0.6c-0.8,0-1.5,0.2-2,0.6
			c-0.6,0.4-0.9,1-1.1,1.7c-0.2,0.7-0.3,1.6-0.3,2.8c0,1.2,0.1,2.1,0.3,2.8c0.2,0.7,0.6,1.3,1.1,1.8c0.5,0.4,1.2,0.6,2.1,0.6
			c0.8,0,1.5-0.2,2.1-0.6c0.6-0.4,1-1,1.1-1.6l0-0.2c0-0.1,0.1-0.2,0.2-0.3c0.1-0.1,0.2-0.1,0.4-0.1l2.6,0.4
			c0.3,0.1,0.4,0.2,0.4,0.4c0,0.1,0,0.4-0.1,0.8c-0.4,1.3-1.2,2.4-2.4,3.2c-1.2,0.8-2.7,1.2-4.3,1.2C61.4,219,60,218.6,58.9,217.7z"
			/>
		<path class="st17" d="M85,203.8c1,1,1.5,2.4,1.5,4.1v10.2c0,0.3-0.2,0.5-0.5,0.5h-2.7c-0.3,0-0.5-0.2-0.5-0.5v-9.5
			c0-1-0.3-1.8-0.8-2.4s-1.3-0.9-2.2-0.9s-1.6,0.3-2.2,0.9c-0.6,0.6-0.8,1.4-0.8,2.3v9.5c0,0.3-0.2,0.5-0.5,0.5h-2.7
			c-0.3,0-0.5-0.2-0.5-0.5v-21.1c0-0.3,0.2-0.5,0.5-0.5h2.7c0.3,0,0.5,0.2,0.5,0.5v6.8c0,0.1,0,0.1,0.1,0.2c0,0,0.1,0,0.1-0.1
			c0.9-1.1,2.2-1.7,3.9-1.7C82.6,202.3,84,202.8,85,203.8z"/>
		<path class="st17" d="M102.2,203.8c1,1,1.5,2.4,1.5,4.1v10.2c0,0.3-0.2,0.5-0.5,0.5h-2.7c-0.3,0-0.5-0.2-0.5-0.5v-9.5
			c0-1-0.3-1.8-0.8-2.4s-1.3-0.9-2.2-0.9s-1.6,0.3-2.2,0.9c-0.6,0.6-0.8,1.4-0.8,2.3v9.5c0,0.3-0.2,0.5-0.5,0.5h-2.7
			c-0.3,0-0.5-0.2-0.5-0.5v-15.1c0-0.3,0.2-0.5,0.5-0.5h2.7c0.3,0,0.5,0.2,0.5,0.5v0.9c0,0.1,0,0.1,0.1,0.2c0,0,0.1,0,0.1-0.1
			c0.9-1.1,2.2-1.7,3.9-1.7C99.8,202.3,101.1,202.8,102.2,203.8z"/>
		<path class="st17" d="M107.9,199.9c-0.4-0.4-0.7-1-0.7-1.7c0-0.7,0.2-1.2,0.7-1.6c0.4-0.4,1-0.6,1.7-0.6s1.3,0.2,1.7,0.6
			c0.4,0.4,0.6,1,0.6,1.6c0,0.7-0.2,1.2-0.6,1.7c-0.4,0.4-1,0.6-1.7,0.6S108.3,200.3,107.9,199.9z M107.7,218.2v-15.1
			c0-0.3,0.2-0.5,0.5-0.5h2.7c0.3,0,0.5,0.2,0.5,0.5v15.1c0,0.3-0.2,0.5-0.5,0.5h-2.7C107.9,218.7,107.7,218.6,107.7,218.2z"/>
		<path class="st17" d="M118.1,217.7c-1.2-0.8-2-2-2.5-3.4c-0.3-0.9-0.5-2.2-0.5-3.8c0-1.5,0.2-2.8,0.5-3.7c0.4-1.4,1.3-2.5,2.4-3.3
			c1.2-0.8,2.6-1.2,4.2-1.2c1.6,0,3.1,0.4,4.3,1.2c1.2,0.8,2,1.9,2.4,3.1c0.1,0.2,0.1,0.5,0.2,0.9v0.1c0,0.2-0.1,0.4-0.4,0.4
			l-2.6,0.4H126c-0.2,0-0.4-0.1-0.4-0.4l-0.1-0.4c-0.1-0.6-0.5-1.2-1.1-1.6c-0.6-0.4-1.3-0.6-2.1-0.6c-0.8,0-1.5,0.2-2,0.6
			c-0.6,0.4-0.9,1-1.1,1.7c-0.2,0.7-0.3,1.6-0.3,2.8c0,1.2,0.1,2.1,0.3,2.8c0.2,0.7,0.6,1.3,1.1,1.8c0.5,0.4,1.2,0.6,2.1,0.6
			c0.8,0,1.5-0.2,2.1-0.6c0.6-0.4,1-1,1.1-1.6l0-0.2c0-0.1,0.1-0.2,0.2-0.3s0.2-0.1,0.4-0.1l2.6,0.4c0.3,0.1,0.4,0.2,0.4,0.4
			c0,0.1,0,0.4-0.1,0.8c-0.4,1.3-1.2,2.4-2.4,3.2c-1.2,0.8-2.7,1.2-4.3,1.2C120.7,219,119.3,218.6,118.1,217.7z"/>
		<path class="st17" d="M142,203c1,0.5,1.8,1.1,2.4,1.9c0.5,0.8,0.8,1.7,0.8,2.8v10.5c0,0.3-0.2,0.5-0.5,0.5H142
			c-0.3,0-0.5-0.2-0.5-0.5v-0.8c0-0.1,0-0.1-0.1-0.1c0,0-0.1,0-0.2,0c-1.1,1.1-2.7,1.6-4.6,1.6c-1.6,0-2.8-0.4-3.8-1.2
			c-1-0.8-1.5-2-1.5-3.6c0-1.6,0.6-2.9,1.7-3.8s2.8-1.4,4.9-1.4h3.3c0.1,0,0.2-0.1,0.2-0.2v-0.7c0-0.8-0.2-1.5-0.7-1.9
			c-0.5-0.5-1.2-0.7-2.2-0.7c-0.7,0-1.3,0.1-1.8,0.4c-0.5,0.3-0.8,0.6-1,1.1c-0.1,0.3-0.3,0.4-0.6,0.4l-2.8-0.3
			c-0.2,0-0.3-0.1-0.4-0.1c-0.1-0.1-0.1-0.2-0.1-0.3c0.2-1.3,0.9-2.3,2.1-3.1c1.2-0.8,2.7-1.2,4.5-1.2
			C139.8,202.3,141,202.6,142,203z M140.4,215.3c0.7-0.5,1.1-1.2,1.1-2.1v-1.5c0-0.1-0.1-0.2-0.2-0.2h-2.6c-1.1,0-2,0.2-2.7,0.6
			c-0.7,0.4-1,1-1,1.8c0,0.7,0.3,1.2,0.8,1.6c0.5,0.4,1.1,0.6,1.9,0.6C138.8,216.1,139.7,215.8,140.4,215.3z"/>
		<path class="st17" d="M148.9,218.2v-21.1c0-0.3,0.2-0.5,0.5-0.5h2.7c0.3,0,0.5,0.2,0.5,0.5v21.1c0,0.3-0.2,0.5-0.5,0.5h-2.7
			C149,218.7,148.9,218.6,148.9,218.2z"/>
		<path class="st17" d="M167.2,218.3l-5.7-21.1c0,0,0-0.1,0-0.2c0-0.1,0-0.2,0.1-0.3c0.1-0.1,0.2-0.1,0.3-0.1h2.8
			c0.3,0,0.5,0.1,0.5,0.4l3.6,14.2c0,0.1,0.1,0.1,0.1,0.1s0.1,0,0.1-0.1l3.4-14.2c0.1-0.3,0.2-0.4,0.5-0.4h2.8
			c0.3,0,0.5,0.1,0.6,0.4l3.6,14.2c0,0.1,0.1,0.1,0.1,0.1s0.1,0,0.1-0.1l3.5-14.2c0.1-0.3,0.2-0.4,0.5-0.4h2.7
			c0.2,0,0.3,0.1,0.4,0.2s0.1,0.2,0,0.4l-5.4,21.1c-0.1,0.3-0.3,0.4-0.6,0.4h-2.7c-0.3,0-0.5-0.1-0.5-0.4l-3.7-14.9
			c0-0.1-0.1-0.1-0.1-0.1s-0.1,0-0.1,0.1l-3.5,14.9c-0.1,0.3-0.2,0.4-0.5,0.4h-2.6C167.5,218.7,167.3,218.6,167.2,218.3z"/>
		<path class="st17" d="M197.7,215.4c0.6-0.3,1-0.7,1.4-1.2c0.1-0.2,0.2-0.3,0.4-0.3c0.1,0,0.2,0,0.3,0.1l1.5,1.2
			c0.1,0.1,0.2,0.3,0.2,0.4c0,0.1,0,0.2-0.1,0.3c-0.6,1-1.4,1.7-2.5,2.3c-1.1,0.5-2.3,0.8-3.6,0.8c-1.7,0-3.1-0.4-4.2-1.2
			s-1.9-1.9-2.4-3.3c-0.4-1.2-0.6-2.5-0.6-3.9c0-1.5,0.1-2.6,0.3-3.3c0.4-1.5,1.2-2.7,2.4-3.6c1.2-0.9,2.6-1.3,4.3-1.3
			c3.9,0,6.2,2.2,6.9,6.5c0.1,0.7,0.2,1.6,0.2,2.6c0,0.3-0.2,0.5-0.5,0.5h-9.8c-0.1,0-0.2,0.1-0.2,0.2c0,0.6,0.1,1,0.2,1.4
			c0.2,0.8,0.7,1.3,1.3,1.8c0.7,0.4,1.5,0.6,2.4,0.6C196.4,215.9,197.1,215.7,197.7,215.4z M193,206.1c-0.5,0.4-0.9,0.9-1.1,1.6
			c-0.1,0.4-0.2,0.9-0.3,1.3c0,0.1,0,0.2,0.2,0.2h6.4c0.1,0,0.2-0.1,0.2-0.2c-0.1-0.6-0.1-1-0.2-1.1c-0.2-0.7-0.6-1.3-1.1-1.8
			c-0.6-0.4-1.3-0.6-2.1-0.6C194.2,205.5,193.6,205.7,193,206.1z"/>
		<path class="st17" d="M219.7,210.6c0,1.5-0.2,2.8-0.6,3.9c-0.5,1.4-1.2,2.4-2.3,3.2c-1.1,0.8-2.3,1.2-3.8,1.2
			c-1.5,0-2.7-0.5-3.6-1.6c0-0.1-0.1-0.1-0.1-0.1c-0.1,0-0.1,0.1-0.1,0.2v0.8c0,0.3-0.2,0.5-0.5,0.5h-2.7c-0.3,0-0.5-0.2-0.5-0.5
			v-21.1c0-0.3,0.2-0.5,0.5-0.5h2.7c0.3,0,0.5,0.2,0.5,0.5v6.7c0,0.1,0,0.1,0.1,0.1c0.1,0,0.1,0,0.1-0.1c0.9-1,2.1-1.5,3.6-1.5
			c1.5,0,2.8,0.4,3.9,1.2s1.8,1.9,2.2,3.3C219.5,207.8,219.7,209.1,219.7,210.6z M215.9,210.7c0-1.6-0.3-2.9-0.9-3.9
			c-0.6-0.9-1.4-1.3-2.5-1.3c-1,0-1.8,0.5-2.4,1.4c-0.5,0.9-0.8,2.1-0.8,3.8c0,1.6,0.2,2.8,0.7,3.7c0.6,1,1.4,1.5,2.5,1.5
			c1.2,0,2.1-0.5,2.7-1.5C215.7,213.4,215.9,212.2,215.9,210.7z"/>
		<path class="st17" d="M232.5,218.2c-1.2-0.5-2.1-1.3-2.8-2.2c-0.7-1-1-2.1-1-3.3V212c0-0.3,0.2-0.5,0.5-0.5h2.6
			c0.3,0,0.5,0.2,0.5,0.5v0.5c0,1,0.4,1.8,1.3,2.4c0.9,0.6,2,1,3.4,1c1.3,0,2.3-0.3,2.9-0.8c0.7-0.5,1-1.3,1-2.1
			c0-0.6-0.2-1.1-0.5-1.5c-0.4-0.4-0.9-0.8-1.5-1.1c-0.7-0.3-1.7-0.8-3-1.3c-1.5-0.5-2.7-1.1-3.6-1.5c-0.9-0.5-1.7-1.1-2.3-2
			c-0.6-0.8-0.9-1.9-0.9-3.1c0-1.9,0.7-3.3,2-4.4c1.3-1.1,3.1-1.6,5.4-1.6c1.6,0,3,0.3,4.2,0.8c1.2,0.5,2.2,1.3,2.8,2.3
			c0.7,1,1,2.1,1,3.4v0.4c0,0.3-0.2,0.5-0.5,0.5h-2.6c-0.1,0-0.3,0-0.4-0.1c-0.1-0.1-0.1-0.2-0.1-0.3v-0.3c0-1-0.4-1.8-1.2-2.5
			c-0.8-0.7-1.9-1-3.4-1c-1.2,0-2.1,0.2-2.7,0.7c-0.6,0.5-1,1.2-1,2.1c0,0.6,0.2,1.1,0.5,1.5s0.8,0.8,1.5,1.1
			c0.7,0.3,1.7,0.7,3.1,1.2c1.5,0.6,2.7,1.1,3.6,1.5c0.9,0.5,1.7,1.1,2.3,1.9c0.6,0.8,1,1.9,1,3.1c0,1.2-0.3,2.3-0.9,3.2
			s-1.5,1.7-2.7,2.2s-2.6,0.8-4.2,0.8C235.1,219,233.7,218.7,232.5,218.2z"/>
		<path class="st17" d="M258,202.6h2.6c0.3,0,0.5,0.2,0.5,0.5v15.1c0,0.3-0.2,0.5-0.5,0.5H258c-0.3,0-0.5-0.2-0.5-0.5v-0.8
			c0-0.1,0-0.1-0.1-0.2c-0.1,0-0.1,0-0.1,0.1c-0.8,1.1-2.1,1.6-3.9,1.6c-1.6,0-2.9-0.5-4-1.4c-1.1-0.9-1.6-2.2-1.6-3.9v-10.5
			c0-0.3,0.2-0.5,0.5-0.5h2.7c0.3,0,0.5,0.2,0.5,0.5v9.5c0,1,0.3,1.8,0.8,2.4c0.5,0.6,1.2,0.9,2.2,0.9c0.9,0,1.7-0.3,2.3-0.9
			c0.6-0.6,0.9-1.4,0.9-2.4v-9.5C257.5,202.8,257.6,202.6,258,202.6z"/>
		<path class="st17" d="M279.3,210.7c0,1.5-0.2,2.8-0.5,3.9c-0.5,1.4-1.2,2.5-2.2,3.3c-1,0.8-2.3,1.2-3.9,1.2
			c-1.5,0-2.7-0.5-3.6-1.5c0-0.1-0.1-0.1-0.1-0.1c-0.1,0-0.1,0.1-0.1,0.1v6.7c0,0.3-0.2,0.5-0.5,0.5h-2.7c-0.3,0-0.5-0.2-0.5-0.5
			v-21.1c0-0.3,0.2-0.5,0.5-0.5h2.7c0.3,0,0.5,0.2,0.5,0.5v0.8c0,0.1,0,0.1,0.1,0.2c0.1,0,0.1,0,0.1-0.1c0.9-1.1,2.1-1.6,3.6-1.6
			c1.5,0,2.7,0.4,3.8,1.2c1.1,0.8,1.8,1.9,2.3,3.2C279.1,207.9,279.3,209.2,279.3,210.7z M275.5,210.6c0-1.5-0.3-2.7-0.8-3.6
			c-0.5-1-1.4-1.5-2.7-1.5c-1.1,0-1.9,0.5-2.5,1.5c-0.5,0.8-0.7,2-0.7,3.7c0,1.6,0.3,2.9,0.8,3.8c0.6,0.9,1.4,1.4,2.4,1.4
			c1.1,0,1.9-0.4,2.5-1.3C275.2,213.6,275.5,212.3,275.5,210.6z"/>
		<path class="st17" d="M296.8,210.7c0,1.5-0.2,2.8-0.5,3.9c-0.5,1.4-1.2,2.5-2.2,3.3c-1,0.8-2.3,1.2-3.9,1.2
			c-1.5,0-2.7-0.5-3.6-1.5c0-0.1-0.1-0.1-0.1-0.1c-0.1,0-0.1,0.1-0.1,0.1v6.7c0,0.3-0.2,0.5-0.5,0.5h-2.7c-0.3,0-0.5-0.2-0.5-0.5
			v-21.1c0-0.3,0.2-0.5,0.5-0.5h2.7c0.3,0,0.5,0.2,0.5,0.5v0.8c0,0.1,0,0.1,0.1,0.2c0.1,0,0.1,0,0.1-0.1c0.9-1.1,2.1-1.6,3.6-1.6
			c1.5,0,2.7,0.4,3.8,1.2c1.1,0.8,1.8,1.9,2.3,3.2C296.6,207.9,296.8,209.2,296.8,210.7z M293,210.6c0-1.5-0.3-2.7-0.8-3.6
			c-0.5-1-1.4-1.5-2.7-1.5c-1.1,0-1.9,0.5-2.5,1.5c-0.5,0.8-0.7,2-0.7,3.7c0,1.6,0.3,2.9,0.8,3.8c0.6,0.9,1.4,1.4,2.4,1.4
			c1.1,0,1.9-0.4,2.5-1.3C292.7,213.6,293,212.3,293,210.6z"/>
		<path class="st17" d="M302.7,217.7c-1.2-0.8-2-2-2.5-3.5c-0.4-1-0.5-2.2-0.5-3.6c0-1.3,0.2-2.5,0.5-3.6c0.5-1.5,1.3-2.6,2.5-3.4
			c1.2-0.8,2.6-1.2,4.3-1.2c1.6,0,3,0.4,4.2,1.2c1.2,0.8,2,2,2.5,3.4c0.4,1,0.6,2.2,0.6,3.6c0,1.3-0.2,2.5-0.5,3.6
			c-0.5,1.5-1.3,2.7-2.5,3.5s-2.6,1.3-4.2,1.3C305.3,219,303.9,218.6,302.7,217.7z M309,215.2c0.6-0.4,1-1.1,1.2-1.9
			c0.2-0.7,0.3-1.6,0.3-2.7c0-1-0.1-1.9-0.3-2.7c-0.2-0.8-0.6-1.4-1.2-1.8s-1.3-0.6-2.1-0.6c-0.8,0-1.5,0.2-2.1,0.6
			c-0.6,0.4-1,1-1.2,1.8c-0.2,0.7-0.3,1.6-0.3,2.7s0.1,1.9,0.3,2.7c0.2,0.8,0.6,1.4,1.2,1.9c0.6,0.4,1.3,0.7,2.1,0.7
			C307.8,215.8,308.4,215.6,309,215.2z"/>
		<path class="st17" d="M326.9,202.7c0.3,0.1,0.3,0.3,0.3,0.6l-0.5,2.6c0,0.2-0.1,0.3-0.2,0.3s-0.2,0-0.4,0c-0.3-0.1-0.6-0.1-1-0.1
			c-0.3,0-0.5,0-0.6,0c-0.9,0-1.6,0.4-2.2,0.9c-0.6,0.6-0.9,1.3-0.9,2.3v8.8c0,0.3-0.2,0.5-0.5,0.5h-2.7c-0.3,0-0.5-0.2-0.5-0.5
			v-15.1c0-0.3,0.2-0.5,0.5-0.5h2.7c0.3,0,0.5,0.2,0.5,0.5v1.2c0,0.1,0,0.1,0.1,0.2c0,0,0.1,0,0.1-0.1c0.9-1.3,2.1-2,3.7-2
			C325.8,202.4,326.4,202.5,326.9,202.7z"/>
		<path class="st17" d="M337.9,205.6h-3.1c-0.1,0-0.2,0.1-0.2,0.2v7.5c0,0.8,0.2,1.4,0.5,1.8c0.3,0.4,0.9,0.5,1.7,0.5h0.8
			c0.3,0,0.5,0.2,0.5,0.5v2.1c0,0.3-0.2,0.5-0.5,0.5l-1.5,0c-1.7,0-2.9-0.3-3.7-0.9c-0.8-0.6-1.2-1.7-1.3-3.2v-8.8
			c0-0.1-0.1-0.2-0.2-0.2h-1.6c-0.3,0-0.5-0.2-0.5-0.5v-2c0-0.3,0.2-0.5,0.5-0.5h1.6c0.1,0,0.2-0.1,0.2-0.2v-3.5
			c0-0.3,0.2-0.5,0.5-0.5h2.5c0.3,0,0.5,0.2,0.5,0.5v3.5c0,0.1,0.1,0.2,0.2,0.2h3.1c0.3,0,0.5,0.2,0.5,0.5v2
			C338.4,205.4,338.3,205.6,337.9,205.6z"/>
		<path class="st17" d="M356.8,203.1v2.2c0,0.3-0.2,0.5-0.5,0.5h-3c-0.1,0-0.2,0.1-0.2,0.2v12.2c0,0.3-0.2,0.5-0.5,0.5H350
			c-0.3,0-0.5-0.2-0.5-0.5V206c0-0.1-0.1-0.2-0.2-0.2h-1.8c-0.3,0-0.5-0.2-0.5-0.5v-2.2c0-0.3,0.2-0.5,0.5-0.5h1.8
			c0.1,0,0.2-0.1,0.2-0.2v-0.5c0-1.4,0.2-2.4,0.5-3.2c0.4-0.7,0.9-1.3,1.8-1.6c0.8-0.3,2-0.5,3.5-0.4h1c0.3,0,0.5,0.2,0.5,0.5v2
			c0,0.3-0.2,0.5-0.5,0.5h-0.7c-0.9,0-1.5,0.2-1.9,0.5c-0.3,0.4-0.5,1-0.5,2v0.3c0,0.1,0.1,0.2,0.2,0.2h3
			C356.6,202.6,356.8,202.7,356.8,203.1z"/>
		<path class="st17" d="M361.3,217.7c-1.2-0.8-2-2-2.5-3.5c-0.4-1-0.5-2.2-0.5-3.6c0-1.3,0.2-2.5,0.5-3.6c0.5-1.5,1.3-2.6,2.5-3.4
			c1.2-0.8,2.6-1.2,4.3-1.2c1.6,0,3,0.4,4.2,1.2c1.2,0.8,2,2,2.5,3.4c0.4,1,0.6,2.2,0.6,3.6c0,1.3-0.2,2.5-0.5,3.6
			c-0.5,1.5-1.3,2.7-2.5,3.5s-2.6,1.3-4.2,1.3C364,219,362.5,218.6,361.3,217.7z M367.6,215.2c0.6-0.4,1-1.1,1.2-1.9
			c0.2-0.7,0.3-1.6,0.3-2.7c0-1-0.1-1.9-0.3-2.7c-0.2-0.8-0.6-1.4-1.2-1.8s-1.3-0.6-2.1-0.6c-0.8,0-1.5,0.2-2.1,0.6
			c-0.6,0.4-1,1-1.2,1.8c-0.2,0.7-0.3,1.6-0.3,2.7s0.1,1.9,0.3,2.7c0.2,0.8,0.6,1.4,1.2,1.9c0.6,0.4,1.3,0.7,2.1,0.7
			C366.4,215.8,367.1,215.6,367.6,215.2z"/>
		<path class="st17" d="M385.5,202.7c0.3,0.1,0.3,0.3,0.3,0.6l-0.5,2.6c0,0.2-0.1,0.3-0.2,0.3s-0.2,0-0.4,0c-0.3-0.1-0.6-0.1-1-0.1
			c-0.3,0-0.5,0-0.6,0c-0.9,0-1.6,0.4-2.2,0.9c-0.6,0.6-0.9,1.3-0.9,2.3v8.8c0,0.3-0.2,0.5-0.5,0.5h-2.7c-0.3,0-0.5-0.2-0.5-0.5
			v-15.1c0-0.3,0.2-0.5,0.5-0.5h2.7c0.3,0,0.5,0.2,0.5,0.5v1.2c0,0.1,0,0.1,0.1,0.2c0,0,0.1,0,0.1-0.1c0.9-1.3,2.1-2,3.7-2
			C384.5,202.4,385,202.5,385.5,202.7z"/>
		<path class="st17" d="M398.1,218.1c-1.2-0.6-2.1-1.5-2.8-2.6c-0.7-1.1-1-2.4-1-3.9v-7.8c0-1.5,0.3-2.8,1-3.9s1.6-2,2.8-2.6
			c1.2-0.6,2.6-0.9,4.2-0.9c1.6,0,2.9,0.3,4.1,0.9s2.1,1.4,2.8,2.5c0.7,1.1,1,2.3,1,3.7c0,0.2-0.2,0.3-0.5,0.4L407,204h-0.1
			c-0.3,0-0.4-0.1-0.4-0.2v-0.2c0-1.2-0.4-2.2-1.2-3c-0.8-0.8-1.8-1.1-3.1-1.1s-2.3,0.4-3.1,1.1c-0.8,0.8-1.2,1.8-1.2,3v8.1
			c0,1.2,0.4,2.2,1.2,3c0.8,0.8,1.8,1.1,3.1,1.1s2.3-0.4,3.1-1.1c0.8-0.7,1.2-1.7,1.2-3c0-0.1,0-0.2,0.1-0.3
			c0.1-0.1,0.2-0.1,0.4-0.1l2.7,0.1c0.3,0,0.5,0.1,0.5,0.2v0.2c0,1.4-0.3,2.7-1,3.8c-0.7,1.1-1.6,1.9-2.8,2.5s-2.6,0.9-4.1,0.9
			C400.7,219,399.3,218.7,398.1,218.1z"/>
		<path class="st17" d="M416.3,217.7c-1.2-0.8-2-2-2.5-3.5c-0.4-1-0.5-2.2-0.5-3.6c0-1.3,0.2-2.5,0.5-3.6c0.5-1.5,1.3-2.6,2.5-3.4
			c1.2-0.8,2.6-1.2,4.3-1.2c1.6,0,3,0.4,4.2,1.2c1.2,0.8,2,2,2.5,3.4c0.4,1,0.6,2.2,0.6,3.6c0,1.3-0.2,2.5-0.5,3.6
			c-0.5,1.5-1.3,2.7-2.5,3.5s-2.6,1.3-4.2,1.3C418.9,219,417.5,218.6,416.3,217.7z M422.6,215.2c0.6-0.4,1-1.1,1.2-1.9
			c0.2-0.7,0.3-1.6,0.3-2.7c0-1-0.1-1.9-0.3-2.7c-0.2-0.8-0.6-1.4-1.2-1.8s-1.3-0.6-2.1-0.6c-0.8,0-1.5,0.2-2.1,0.6
			c-0.6,0.4-1,1-1.2,1.8c-0.2,0.7-0.3,1.6-0.3,2.7s0.1,1.9,0.3,2.7c0.2,0.8,0.6,1.4,1.2,1.9c0.6,0.4,1.3,0.7,2.1,0.7
			C421.4,215.8,422.1,215.6,422.6,215.2z"/>
		<path class="st17" d="M443.2,203.8c1,1,1.5,2.4,1.5,4.1v10.2c0,0.3-0.2,0.5-0.5,0.5h-2.7c-0.3,0-0.5-0.2-0.5-0.5v-9.5
			c0-1-0.3-1.8-0.8-2.4c-0.6-0.6-1.3-0.9-2.2-0.9c-0.9,0-1.6,0.3-2.2,0.9s-0.8,1.4-0.8,2.3v9.5c0,0.3-0.2,0.5-0.5,0.5h-2.7
			c-0.3,0-0.5-0.2-0.5-0.5v-15.1c0-0.3,0.2-0.5,0.5-0.5h2.7c0.3,0,0.5,0.2,0.5,0.5v0.9c0,0.1,0,0.1,0.1,0.2c0,0,0.1,0,0.1-0.1
			c0.9-1.1,2.2-1.7,3.9-1.7C440.8,202.3,442.2,202.8,443.2,203.8z"/>
		<path class="st17" d="M456.6,205.6h-3.1c-0.1,0-0.2,0.1-0.2,0.2v7.5c0,0.8,0.2,1.4,0.5,1.8c0.3,0.4,0.9,0.5,1.7,0.5h0.8
			c0.3,0,0.5,0.2,0.5,0.5v2.1c0,0.3-0.2,0.5-0.5,0.5l-1.5,0c-1.7,0-2.9-0.3-3.7-0.9c-0.8-0.6-1.2-1.7-1.3-3.2v-8.8
			c0-0.1-0.1-0.2-0.2-0.2H448c-0.3,0-0.5-0.2-0.5-0.5v-2c0-0.3,0.2-0.5,0.5-0.5h1.6c0.1,0,0.2-0.1,0.2-0.2v-3.5
			c0-0.3,0.2-0.5,0.5-0.5h2.5c0.3,0,0.5,0.2,0.5,0.5v3.5c0,0.1,0.1,0.2,0.2,0.2h3.1c0.3,0,0.5,0.2,0.5,0.5v2
			C457.1,205.4,456.9,205.6,456.6,205.6z"/>
		<path class="st17" d="M469.5,202.7c0.3,0.1,0.3,0.3,0.3,0.6l-0.5,2.6c0,0.2-0.1,0.3-0.2,0.3s-0.2,0-0.4,0c-0.3-0.1-0.6-0.1-1-0.1
			c-0.3,0-0.5,0-0.6,0c-0.9,0-1.6,0.4-2.2,0.9c-0.6,0.6-0.9,1.3-0.9,2.3v8.8c0,0.3-0.2,0.5-0.5,0.5h-2.7c-0.3,0-0.5-0.2-0.5-0.5
			v-15.1c0-0.3,0.2-0.5,0.5-0.5h2.7c0.3,0,0.5,0.2,0.5,0.5v1.2c0,0.1,0,0.1,0.1,0.2c0,0,0.1,0,0.1-0.1c0.9-1.3,2.1-2,3.7-2
			C468.5,202.4,469,202.5,469.5,202.7z"/>
		<path class="st17" d="M481.7,203c1,0.5,1.8,1.1,2.4,1.9c0.5,0.8,0.8,1.7,0.8,2.8v10.5c0,0.3-0.2,0.5-0.5,0.5h-2.7
			c-0.3,0-0.5-0.2-0.5-0.5v-0.8c0-0.1,0-0.1-0.1-0.1c0,0-0.1,0-0.2,0c-1.1,1.1-2.7,1.6-4.6,1.6c-1.6,0-2.8-0.4-3.8-1.2
			c-1-0.8-1.5-2-1.5-3.6c0-1.6,0.6-2.9,1.7-3.8s2.8-1.4,4.9-1.4h3.3c0.1,0,0.2-0.1,0.2-0.2v-0.7c0-0.8-0.2-1.5-0.7-1.9
			c-0.5-0.5-1.2-0.7-2.2-0.7c-0.7,0-1.3,0.1-1.8,0.4c-0.5,0.3-0.8,0.6-1,1.1c-0.1,0.3-0.3,0.4-0.6,0.4l-2.8-0.3
			c-0.2,0-0.3-0.1-0.4-0.1c-0.1-0.1-0.1-0.2-0.1-0.3c0.2-1.3,0.9-2.3,2.1-3.1c1.2-0.8,2.7-1.2,4.5-1.2
			C479.5,202.3,480.7,202.6,481.7,203z M480.1,215.3c0.7-0.5,1.1-1.2,1.1-2.1v-1.5c0-0.1-0.1-0.2-0.2-0.2h-2.6c-1.1,0-2,0.2-2.7,0.6
			c-0.7,0.4-1,1-1,1.8c0,0.7,0.3,1.2,0.8,1.6c0.5,0.4,1.1,0.6,1.9,0.6C478.5,216.1,479.4,215.8,480.1,215.3z"/>
		<path class="st17" d="M491.1,217.7c-1.2-0.8-2-2-2.5-3.4c-0.3-0.9-0.5-2.2-0.5-3.8c0-1.5,0.2-2.8,0.5-3.7c0.4-1.4,1.3-2.5,2.4-3.3
			c1.2-0.8,2.6-1.2,4.2-1.2c1.6,0,3.1,0.4,4.3,1.2c1.2,0.8,2,1.9,2.4,3.1c0.1,0.2,0.1,0.5,0.2,0.9v0.1c0,0.2-0.1,0.4-0.4,0.4
			l-2.6,0.4H499c-0.2,0-0.4-0.1-0.4-0.4l-0.1-0.4c-0.1-0.6-0.5-1.2-1.1-1.6c-0.6-0.4-1.3-0.6-2.1-0.6c-0.8,0-1.5,0.2-2,0.6
			c-0.6,0.4-0.9,1-1.1,1.7c-0.2,0.7-0.3,1.6-0.3,2.8c0,1.2,0.1,2.1,0.3,2.8c0.2,0.7,0.6,1.3,1.1,1.8c0.5,0.4,1.2,0.6,2.1,0.6
			c0.8,0,1.5-0.2,2.1-0.6c0.6-0.4,1-1,1.1-1.6l0-0.2c0-0.1,0.1-0.2,0.2-0.3c0.1-0.1,0.2-0.1,0.4-0.1l2.6,0.4
			c0.3,0.1,0.4,0.2,0.4,0.4c0,0.1,0,0.4-0.1,0.8c-0.4,1.3-1.2,2.4-2.4,3.2s-2.7,1.2-4.3,1.2C493.7,219,492.3,218.6,491.1,217.7z"/>
		<path class="st17" d="M513.4,205.6h-3.1c-0.1,0-0.2,0.1-0.2,0.2v7.5c0,0.8,0.2,1.4,0.5,1.8c0.3,0.4,0.9,0.5,1.7,0.5h0.8
			c0.3,0,0.5,0.2,0.5,0.5v2.1c0,0.3-0.2,0.5-0.5,0.5l-1.5,0c-1.7,0-2.9-0.3-3.7-0.9c-0.8-0.6-1.2-1.7-1.3-3.2v-8.8
			c0-0.1-0.1-0.2-0.2-0.2h-1.6c-0.3,0-0.5-0.2-0.5-0.5v-2c0-0.3,0.2-0.5,0.5-0.5h1.6c0.1,0,0.2-0.1,0.2-0.2v-3.5
			c0-0.3,0.2-0.5,0.5-0.5h2.5c0.3,0,0.5,0.2,0.5,0.5v3.5c0,0.1,0.1,0.2,0.2,0.2h3.1c0.3,0,0.5,0.2,0.5,0.5v2
			C513.9,205.4,513.7,205.6,513.4,205.6z"/>
		<path class="st17" d="M519.4,217.7c-1.2-0.8-2-2-2.5-3.5c-0.4-1-0.5-2.2-0.5-3.6c0-1.3,0.2-2.5,0.5-3.6c0.5-1.5,1.3-2.6,2.5-3.4
			c1.2-0.8,2.6-1.2,4.3-1.2c1.6,0,3,0.4,4.2,1.2c1.2,0.8,2,2,2.5,3.4c0.4,1,0.6,2.2,0.6,3.6c0,1.3-0.2,2.5-0.5,3.6
			c-0.5,1.5-1.3,2.7-2.5,3.5s-2.6,1.3-4.2,1.3C522.1,219,520.6,218.6,519.4,217.7z M525.7,215.2c0.6-0.4,1-1.1,1.2-1.9
			c0.2-0.7,0.3-1.6,0.3-2.7c0-1-0.1-1.9-0.3-2.7c-0.2-0.8-0.6-1.4-1.2-1.8s-1.3-0.6-2.1-0.6c-0.8,0-1.5,0.2-2.1,0.6
			c-0.6,0.4-1,1-1.2,1.8c-0.2,0.7-0.3,1.6-0.3,2.7s0.1,1.9,0.3,2.7c0.2,0.8,0.6,1.4,1.2,1.9c0.6,0.4,1.3,0.7,2.1,0.7
			C524.5,215.8,525.2,215.6,525.7,215.2z"/>
		<path class="st17" d="M543.6,202.7c0.3,0.1,0.3,0.3,0.3,0.6l-0.5,2.6c0,0.2-0.1,0.3-0.2,0.3s-0.2,0-0.4,0c-0.3-0.1-0.6-0.1-1-0.1
			c-0.3,0-0.5,0-0.6,0c-0.9,0-1.6,0.4-2.2,0.9c-0.6,0.6-0.9,1.3-0.9,2.3v8.8c0,0.3-0.2,0.5-0.5,0.5h-2.7c-0.3,0-0.5-0.2-0.5-0.5
			v-15.1c0-0.3,0.2-0.5,0.5-0.5h2.7c0.3,0,0.5,0.2,0.5,0.5v1.2c0,0.1,0,0.1,0.1,0.2c0,0,0.1,0,0.1-0.1c0.9-1.3,2.1-2,3.7-2
			C542.6,202.4,543.1,202.5,543.6,202.7z"/>
		<path class="st17" d="M548.7,218.3c-1-0.4-1.8-0.9-2.3-1.6c-0.5-0.7-0.8-1.4-0.8-2.3v-0.2c0-0.3,0.2-0.5,0.5-0.5h2.5
			c0.3,0,0.5,0.1,0.5,0.2v0.2c0,0.5,0.3,1,0.9,1.4c0.6,0.4,1.3,0.6,2.2,0.6c0.8,0,1.5-0.2,2.1-0.5c0.5-0.3,0.8-0.8,0.8-1.3
			c0-0.5-0.2-0.8-0.6-1.1s-1.1-0.5-2.1-0.8l-1.2-0.4c-1.1-0.3-2-0.7-2.7-1s-1.4-0.8-1.9-1.5c-0.5-0.6-0.8-1.4-0.8-2.4
			c0-1.5,0.6-2.6,1.7-3.5c1.1-0.9,2.7-1.3,4.6-1.3c1.3,0,2.4,0.2,3.4,0.6c1,0.4,1.7,1,2.3,1.7c0.5,0.7,0.8,1.6,0.8,2.5
			c0,0.1,0,0.2-0.1,0.3c-0.1,0.1-0.2,0.1-0.4,0.1h-2.4c-0.3,0-0.5-0.1-0.5-0.2v-0.2c0-0.5-0.3-1-0.8-1.4c-0.5-0.4-1.3-0.6-2.2-0.6
			c-0.8,0-1.5,0.2-2,0.5c-0.5,0.3-0.8,0.7-0.8,1.3c0,0.5,0.2,0.9,0.7,1.2s1.3,0.6,2.4,0.9l0.7,0.2c1.1,0.3,2.1,0.7,2.8,1
			c0.8,0.3,1.4,0.8,1.9,1.5s0.8,1.4,0.8,2.4c0,1.5-0.6,2.7-1.8,3.5c-1.2,0.9-2.7,1.3-4.7,1.3C550.8,218.9,549.7,218.7,548.7,218.3z"
			/>
	</g>
</g>
<g id="final_copy" class="st0">
	<g class="st1">
		<path class="st10" d="M468.4,149.6c0.2,0.2,0.3,0.5,0.5,0.8c0.2,0.6,0.4,1.3,0.7,1.9c0.5,1.1,1.2,1.6,2.3,1.2
			c3.5-1.2,7-2.6,10.5-3.9c0.9-0.3,1.2-1.1,1.1-2c-0.3-3.1-0.5-6.3-0.8-9.4c-0.1-0.6,0.1-1.1,0.7-1.4c2.8-1.8,5.1-4.2,7.3-6.7
			c1.1-1.4,1.5-1.4,3.1-0.6c2,0.9,4,1.7,6,2.6c0.8,0.3,1.5,0.2,1.8-0.6c1.4-3.3,2.8-6.5,4.1-9.8c0.4-1,0.2-2-0.4-2.9
			c-1.4-2-2.9-4-4.2-6c-0.4-0.6-0.7-1.4-0.5-2c0.8-3.7,1.1-7.5,1.2-11.3c0-0.7,0.3-1.1,1-1.3c1.8-0.7,3.5-1.5,5.3-2.2
			c0.7-0.3,0.9-0.8,0.8-1.6c-0.3-1.9-0.6-3.8-0.9-5.7c-0.4-2.2-0.9-4.4-1.5-6.6c-0.1-0.4-0.6-0.9-1-1.1c-2-0.9-4-1.6-5.9-2.5
			c-0.5-0.2-1-0.7-1.2-1.1c-1.4-4-3-8-5.2-11.6c-0.6-1.1-0.4-2,0-3c0.7-1.6,1.4-3.3,2-5c0.3-0.7,0.2-1.4-0.3-2.1
			c-1.5-1.9-2.8-3.9-4.3-5.8c-1.2-1.6-2.7-3-4-4.5c-0.6-0.7-1.3-0.5-1.9-0.1c-1.1,0.6-2.2,1.3-3.3,1.9c-2.4,1.2-1.8,1.4-3.8-0.4
			c-0.1-0.1-0.2-0.2-0.3-0.2c-3.1-2.1-6.3-4.3-9.4-6.4c-0.4-0.3-0.8-0.8-0.9-1.2c-0.8-2.8-1.5-5.7-2.3-8.5c-0.1-0.4-0.4-0.9-0.7-1.1
			c-1-0.5-2.1-1-3.2-1.3c-1.8-0.5-3.6-0.9-5.3-1.3c-0.3-0.1-0.6-0.2-0.8-0.3c-1-0.3-2-0.6-3-0.8c-0.7-0.2-1,0.2-1.1,0.8
			c-0.1,1-0.2,2-0.5,3c-0.4,1.4-0.4,3-1.1,4.4c-0.3,0.6-0.5,0.9-1.1,0.9c-3.6,0.1-7.1,0.4-10.5,1.3c-1.3,0.3-2.4,0-3.4-0.9
			c-2.2-2-4.4-4-6.6-6c-0.6-0.5-1.2-0.7-2-0.4c-3.9,1.7-7.3,4.1-10.5,6.7c-0.3,0.3-0.5,1.1-0.3,1.5c1.3,2.8,2.6,5.6,4,8.3
			c0.7,1.4,0.8,2.5-0.3,3.6c-0.1,0.1-0.1,0.2-0.2,0.2c-2.3,2.7-3.9,5.9-5.6,9.1c-0.4,0.8-0.9,1-1.7,0.9c-3.2-0.2-6.5-0.4-9.7-0.6
			c-0.8,0-1.2,0.2-1.4,1c-1.5,4.6-2.2,9.4-2.8,14.3c-0.1,0.9,0.2,1.4,1,1.9c3,1.8,6.1,3.6,9,5.4c0.3,0.2,0.7,0.7,0.7,1.1
			c0.2,1.7,0.3,3.5,0.4,5.2c0,0.3,0.1,0.6,0.2,0.8c0.2,0.4,0.6,0.8,0.7,1.3c0.3,1.1,0.4,2.2,0.6,3.4c0.2,1.4,0.5,2.9,0.7,4.3
			c0,0.2-0.1,0.6-0.2,0.7c-0.5,0.5-1,1-1.6,1.5c-2.1,1.7-4.1,3.5-6.2,5.2c-0.8,0.6-0.8,1.2-0.5,2c0.1,0.3,0.2,0.6,0.3,0.9
			c1.8,4,3.6,7.9,5.5,11.8c1,2.2,1.7,2.4,4.1,2c2.8-0.5,5.6-0.9,8.4-1.4c0.7-0.1,1.1,0.1,1.4,0.6c1.2,1.7,2.5,3.3,3.8,4.9
			c0.4,0.5,0.9,0.9,1.4,1.4c0.2-0.4,0.4-0.6,0.5-0.9c1.9-4.2,3.7-8.5,5.6-12.7c0.3-0.7,0.3-1.4-0.2-2.2c-1.1-1.5-2.1-2.9-3-4.5
			c-3.3-5.7-5.4-11.9-6.4-18.4c-1-6-0.7-11.9,0.8-17.8c1-3.8,2.4-7.4,5.1-10.4c1.7-1.9,3.7-3.6,5.7-5.2c3.1-2.5,6.7-4.3,10.7-5.1
			c4.1-0.9,8.3-0.7,12.4-0.5"/>
		<path class="st10" d="M453.2,130.3c0.3-0.8,0.8-1.5,1.1-2.4c0.5-1.3,0.9-2.6,1.3-3.9c1.7-5.4,3.5-10.7,5.1-16.2
			c1.4-4.6,4.1-7.9,8.7-9.5c3.7-1.3,6.6-3.6,8.8-6.9c5.5-8.2,4.5-18.6-0.9-26.3c-0.4-0.5-1-0.9-1.7-1.5c-0.1,0.6-0.1,0.8-0.2,1.1
			c-1.4,4.7-2.9,9.4-4.4,14.1c-0.1,0.3-0.6,0.5-0.9,0.6c-3.1,0.2-6.3,0.4-9.4,0.7c-1.1,0.1-1.8-0.4-2.5-1.1c-2-2.1-4-4.2-6-6.4
			c-0.3-0.3-0.6-0.9-0.6-1.3c0.3-1.6,0.5-3.2,1-4.8c0.4-1.3,1.2-2.4,1.7-3.6c0.5-1.1,0.8-2.3,1.1-3.4c0.4-1.3,0.7-2.7,1.1-4
			c-0.2-0.1-0.3-0.2-0.4-0.2c-0.2,0-0.5,0-0.7,0c-3.3,0.6-6.2,1.9-8.8,4c-6.5,5.2-8.8,11.9-7.7,20c0.4,2.9,1.7,5.5,2.8,8.1
			c0.7,1.8,1.4,3.7,1.7,5.6c0.5,3.5-0.4,6.9-1.8,10.2c-3.4,8.1-6.9,16.2-10.3,24.3"/>
		<path class="st14" d="M464.9,143.9L463,143c-2.6-0.3-5.1-0.5-7.7-0.8c-0.7-0.1-0.8-0.4-0.6-1c1.3-4.2,2.5-8.4,3.8-12.6
			c0.1-0.3,0.6-0.6,1-0.6c1,0,1.9,0.2,2.9,0.3c5,0.3,9.6-1,14-3.4c3.6-1.9,6.5-4.6,9-7.7c3-3.9,5.2-8.3,6.2-13.2
			c1.1-5.2,0.9-10.4,0.4-15.6c-0.4-4.7-1.6-9.4-3.9-13.4c-1.6-2.8-3-5.8-5.2-8.3c-2.3-2.6-4.5-5.2-7-7.6c-3.6-3.6-8.6-6.7-13.2-8.7
			l-2.9-0.8l-2.5-0.4c-4.2-0.3-8.3-0.4-12.4,0.5c-4,0.9-7.5,2.6-10.7,5.1c-2,1.6-4,3.3-5.7,5.2c-2.7,2.9-4.1,6.6-5.1,10.4
			c-1.5,5.9-1.8,11.8-0.8,17.8c1,6.5,3.1,12.7,6.4,18.4c0.9,1.6,2,3,3,4.5c0.5,0.7,0.6,1.4,0.2,2.2c-1.9,4.2-3.7,8.5-5.6,12.7
			c-0.1,0.2-0.3,0.5-0.5,0.9c-0.5-0.5-1-0.9-1.4-1.4c-1.3-1.6-2.6-3.3-3.8-4.9c-0.4-0.5-0.8-0.8-1.4-0.6c-2.8,0.5-5.6,0.9-8.4,1.4
			c-2.4,0.4-3.1,0.1-4.1-2c-1.9-3.9-3.7-7.9-5.5-11.8c-0.1-0.3-0.2-0.6-0.3-0.9c-0.3-0.8-0.3-1.4,0.5-2c2.1-1.7,4.2-3.4,6.2-5.2
			c0.6-0.5,1.1-1,1.6-1.5c0.2-0.2,0.3-0.5,0.2-0.7l-2.3-9.8c-0.1-1.7-0.2-3.5-0.4-5.2c0-0.4-0.4-0.9-0.7-1.1c-3-1.9-6-3.7-9-5.4
			c-0.8-0.4-1.1-1-1-1.9c0.5-4.8,1.3-9.6,2.8-14.3c0.2-0.7,0.6-1,1.4-1c3.2,0.2,6.5,0.3,9.7,0.6c0.8,0.1,1.2-0.1,1.7-0.9
			c1.6-3.1,3.2-6.3,5.6-9.1c0.1-0.1,0.1-0.2,0.2-0.2c1.1-1.1,1.1-2.2,0.3-3.6c-1.5-2.7-2.8-5.5-4-8.3c-0.2-0.4,0-1.2,0.3-1.5
			c3.2-2.7,6.7-5,10.5-6.7c0.8-0.3,1.4-0.2,2,0.4c2.2,2,4.5,3.9,6.6,6c1,1,2.1,1.3,3.4,0.9c3.5-0.9,7-1.2,10.5-1.3
			c0.7,0,0.8-0.3,1.1-0.9c0.7-1.4,0.7-3,1.1-4.4c0.3-1,0.3-2,0.5-3c0.1-0.7,0.4-1,1.1-0.8c1,0.3,2,0.5,3,0.8
			c0.3,0.1,0.6,0.2,0.8,0.3c1.8,0.4,3.6,0.8,5.3,1.3c1.1,0.3,2.2,0.8,3.2,1.3c0.3,0.2,0.6,0.7,0.7,1.1c0.8,2.8,1.5,5.7,2.3,8.5
			c0.1,0.5,0.5,0.9,0.9,1.2c3.1,2.2,6.3,4.3,9.4,6.4c0.1,0.1,0.2,0.1,0.3,0.2c2,1.9,1.5,1.6,3.8,0.4c1.1-0.6,2.2-1.3,3.3-1.9
			c0.6-0.3,1.3-0.5,1.9,0.1c1.3,1.5,2.7,2.9,4,4.5c1.5,1.9,2.9,3.9,4.3,5.8c0.5,0.7,0.6,1.3,0.3,2.1c-0.6,1.7-1.3,3.4-2,5
			c-0.5,1-0.7,1.9,0,3c2.1,3.7,3.8,7.6,5.2,11.6c0.2,0.5,0.7,0.9,1.2,1.1c2,0.9,4,1.6,5.9,2.5c0.4,0.2,0.9,0.7,1,1.1
			c0.6,2.2,1,4.4,1.5,6.6c0.4,1.9,0.6,3.8,0.9,5.7c0.1,0.8,0,1.3-0.8,1.6c-1.8,0.7-3.5,1.5-5.3,2.2c-0.7,0.3-0.9,0.7-1,1.3
			c-0.1,3.8-0.5,7.6-1.2,11.3c-0.1,0.6,0.2,1.5,0.5,2c1.3,2,2.8,4,4.2,6c0.6,0.9,0.8,1.9,0.4,2.9c-1.3,3.3-2.7,6.6-4.1,9.8
			c-0.3,0.8-1,0.9-1.8,0.6c-2-0.9-4-1.7-6-2.6c-1.6-0.7-2-0.7-3.1,0.6c-2.1,2.6-4.4,4.9-7.3,6.7c-0.6,0.4-0.7,0.8-0.7,1.4
			c0.3,3.1,0.5,6.3,0.8,9.4c0.1,1-0.1,1.7-1.1,2c-3.5,1.3-7,2.7-10.5,3.9c-1.1,0.4-1.9-0.1-2.3-1.2L464.9,143.9"/>
		<path class="st17" d="M451.3,70.8c-0.1,0.4,0.7,1.4,1,1.8c2,2.2,4,4.3,6,6.4c0.7,0.8,1.4,1.2,2.5,1.1c3.1-0.2,6.3-0.4,9.4-0.7
			c0.3,0,0.8-0.3,0.9-0.6c1.5-4.7,2.9-9.4,4.4-14.1c0.1-0.2,0.1-0.5,0.2-1.1c0.7,0.6,1.3,1,1.7,1.5c5.3,7.7,6.4,18.2,0.8,26.4
			c-2.2,3.2-5.4,5.5-9,6.9c-4.5,1.6-7.1,4.8-8.5,9.4c0,0-7.3,22.6-7.5,22.4c-1.2,3.6-1.7,5.8-2.7,9c-0.3,0.8-1.2,1.2-2,0.8l-1.6-0.6
			c-5.7-2-11-5.1-15.6-9l0,0c-0.6-0.3-0.9-1.1-0.6-1.7c3.3-7.9,7.7-17.8,11-25.5c1.4-3.2,2.3-6.6,1.8-10.2c-0.3-1.9-1-3.8-1.7-5.6
			c-1.1-2.7-2.4-5.2-2.8-8.1c-1.1-8.1,1.2-14.9,7.7-20c2.6-2.1,5.5-3.4,8.8-4c0.2,0,0.5,0,0.7,0c0.1,0,0.2,0.1,0.4,0.2
			c-0.4,1.3-0.7,2.7-1.1,4c-0.3,1.2-0.6,2.3-1.1,3.4L451.3,70.8z"/>
	</g>
	<g class="st1">
		<g>
			<path class="st17" d="M24.1,177.4c-1.1,0-2.1-0.4-2.9-1.2c-0.7-0.7-1.1-1.7-1.1-2.9v-42.7H8.5c-1.1,0-2.1-0.4-2.9-1.2
				c-0.7-0.7-1.1-1.7-1.1-2.9v-9c0-1.1,0.4-2.1,1.2-2.9c0.8-0.8,1.7-1.1,2.9-1.1H51c1.1,0,2.1,0.4,2.9,1.1c0.8,0.8,1.2,1.8,1.2,2.9
				v9c0,1.1-0.4,2.1-1.2,2.9c-0.8,0.8-1.7,1.2-2.9,1.2H39v42.7c0,1.1-0.4,2.1-1.2,2.9c-0.8,0.8-1.7,1.1-2.9,1.1H24.1z"/>
			<path class="st10" d="M51,116.2c0.4,0,0.8,0.1,1.1,0.4c0.3,0.3,0.4,0.6,0.4,1.1v9c0,0.4-0.1,0.8-0.4,1.1
				c-0.3,0.3-0.6,0.4-1.1,0.4H37c-0.4,0-0.6,0.2-0.6,0.6v44.6c0,0.4-0.1,0.8-0.4,1.1c-0.3,0.3-0.6,0.4-1.1,0.4H24.1
				c-0.4,0-0.8-0.1-1.1-0.4c-0.3-0.3-0.4-0.6-0.4-1.1v-44.6c0-0.4-0.2-0.6-0.6-0.6H8.5c-0.4,0-0.8-0.1-1.1-0.4
				c-0.3-0.3-0.4-0.6-0.4-1.1v-9c0-0.4,0.1-0.8,0.4-1.1c0.3-0.3,0.6-0.4,1.1-0.4H51 M51,111.2H8.5c-1.8,0-3.4,0.7-4.6,1.9
				C2.6,114.3,2,116,2,117.7v9c0,1.8,0.7,3.4,1.9,4.6c1.2,1.2,2.8,1.9,4.6,1.9h9.1v40.2c0,1.8,0.7,3.4,1.9,4.6
				c1.2,1.2,2.8,1.9,4.6,1.9h10.9c1.8,0,3.4-0.7,4.6-1.9c1.2-1.2,1.9-2.9,1.9-4.6v-40.2H51c1.8,0,3.4-0.7,4.6-1.9
				c1.2-1.2,1.9-2.9,1.9-4.6v-9c0-1.8-0.7-3.4-1.9-4.6C54.4,111.9,52.8,111.2,51,111.2L51,111.2z"/>
		</g>
		<g>
			<path class="st17" d="M90.4,177.4c-1.8,0-3.3-1-4.1-2.7L77.1,154H75v19.4c0,1.1-0.4,2.1-1.2,2.9c-0.8,0.8-1.7,1.2-2.9,1.2H60.1
				c-1.1,0-2.1-0.4-2.9-1.2c-0.7-0.7-1.1-1.7-1.1-2.9v-55.6c0-1.1,0.4-2.1,1.2-2.9c0.8-0.8,1.7-1.2,2.9-1.2h24.4
				c4.1,0,7.8,0.9,10.9,2.6c3.2,1.7,5.7,4.2,7.5,7.4c1.7,3.1,2.6,6.7,2.6,10.7c0,4.2-1.1,7.9-3.1,11c-1.7,2.6-4.1,4.7-6.9,6.1
				l10,20.8l0.3,1.2v0.3c0,1.7-1.2,3.6-3.8,3.6H90.4z M82.2,138.4c1.4,0,2.5-0.4,3.4-1.1c0.7-0.7,1.1-1.5,1.1-2.7
				c0-1.6-0.6-2.4-1.1-2.8c-0.8-0.7-1.9-1.1-3.3-1.1H75v7.7H82.2z"/>
			<path class="st10" d="M84.5,116.2c3.7,0,6.9,0.8,9.7,2.3c2.8,1.5,5,3.6,6.5,6.4c1.5,2.8,2.3,5.9,2.3,9.5c0,3.7-0.9,6.9-2.7,9.6
				c-1.8,2.7-4.3,4.7-7.6,5.9c-0.4,0.2-0.5,0.4-0.3,0.8l10.7,22.3l0.2,0.7c0,0.7-0.4,1.1-1.3,1.1H90.4c-0.8,0-1.4-0.4-1.8-1.2
				l-9.7-21.8c-0.1-0.3-0.3-0.4-0.7-0.4h-5.2c-0.4,0-0.6,0.2-0.6,0.6v21.3c0,0.4-0.1,0.8-0.4,1.1c-0.3,0.3-0.6,0.4-1.1,0.4H60.1
				c-0.4,0-0.8-0.1-1.1-0.4c-0.3-0.3-0.4-0.6-0.4-1.1v-55.6c0-0.4,0.1-0.8,0.4-1.1c0.3-0.3,0.6-0.4,1.1-0.4H84.5 M73.1,140.9h9.1
				c2.1,0,3.7-0.6,5-1.7c1.3-1.1,1.9-2.7,1.9-4.6c0-2-0.6-3.5-1.9-4.7c-1.3-1.2-3-1.8-5-1.8h-9.1c-0.4,0-0.6,0.2-0.6,0.6v11.6
				C72.5,140.7,72.7,140.9,73.1,140.9 M84.5,111.2H60.1c-1.8,0-3.4,0.7-4.6,1.9c-1.2,1.2-1.9,2.9-1.9,4.6v55.6
				c0,1.8,0.7,3.4,1.9,4.6c1.2,1.2,2.8,1.9,4.6,1.9H71c1.8,0,3.4-0.7,4.6-1.9c1.2-1.2,1.9-2.9,1.9-4.6v-12.4l6.6,14.8
				c1.1,2.6,3.5,4.2,6.3,4.2h11.5c3.7,0,6.3-2.6,6.3-6.1v-0.6l-0.1-0.6l-0.2-0.7l-0.1-0.5l-0.2-0.5l-8.9-18.4
				c2.3-1.5,4.2-3.4,5.7-5.7c2.4-3.6,3.6-7.7,3.6-12.4c0-4.4-1-8.4-2.9-11.9c-2-3.6-4.9-6.4-8.5-8.4C93.1,112.2,89,111.2,84.5,111.2
				L84.5,111.2z M77.5,133.1h4.7c1.2,0,1.5,0.3,1.7,0.5c0.1,0.1,0.3,0.3,0.3,1c0,0.6-0.1,0.7-0.3,0.8c-0.1,0.1-0.5,0.5-1.7,0.5h-4.7
				V133.1L77.5,133.1z"/>
		</g>
		<g>
			<path class="st17" d="M149.3,177.4c-2,0-3.6-1.2-4.1-3.1l-1.5-5.5h-16.2l-1.6,5.5c-0.5,1.9-2.1,3.1-4.1,3.1H110
				c-1.8,0-2.8-0.9-3.2-1.5c-0.4-0.6-1-1.8-0.4-3.5l17.6-55.7c0.6-1.9,2.2-3,4.1-3H143c2.1,0,3.6,1.1,4.2,3l17.6,55.6
				c0.2,0.4,0.2,0.9,0.2,1.4c0,1.7-1.2,3.6-3.8,3.6H149.3z M139.2,153l-3.6-12.5L132,153H139.2z"/>
			<path class="st10" d="M143,116.2c0.9,0,1.5,0.4,1.8,1.3l17.7,55.7c0.1,0.1,0.1,0.3,0.1,0.6c0,0.7-0.4,1.1-1.3,1.1h-11.8
				c-0.9,0-1.5-0.4-1.7-1.3l-1.9-6.9c-0.1-0.3-0.3-0.5-0.7-0.5h-18.9c-0.3,0-0.6,0.2-0.7,0.5l-1.9,6.9c-0.2,0.8-0.8,1.3-1.7,1.3H110
				c-0.6,0-1-0.2-1.2-0.5c-0.2-0.3-0.3-0.7-0.1-1.2l17.6-55.7c0.3-0.8,0.9-1.3,1.8-1.3H143 M129.4,155.5h12.4c0.2,0,0.4-0.1,0.5-0.2
				c0.1-0.1,0.1-0.3,0-0.5l-6.4-22.3c-0.1-0.3-0.2-0.4-0.3-0.4c-0.1,0-0.3,0.1-0.4,0.4l-6.4,22.3v0.2
				C128.9,155.4,129.1,155.5,129.4,155.5 M143,111.2h-14.8c-3.1,0-5.5,1.8-6.5,4.7l0,0l0,0L104,171.7c-0.7,2-0.4,4.1,0.8,5.7
				c0.7,0.9,2.3,2.5,5.2,2.5h11.8c3.1,0,5.7-1.9,6.5-4.9l1-3.7h12.4l1,3.7c0.8,3,3.4,4.9,6.5,4.9h11.8c3.7,0,6.3-2.6,6.3-6.1
				c0-0.8-0.1-1.6-0.4-2.3L149.5,116C148.7,113.1,146.1,111.2,143,111.2L143,111.2z M135.3,150.5l0.3-0.9l0.3,0.9H135.3L135.3,150.5
				z"/>
		</g>
		<g>
			<path class="st17" d="M170.3,177.4c-1.1,0-2.1-0.4-2.9-1.2c-0.7-0.7-1.1-1.7-1.1-2.9v-55.6c0-1.1,0.4-2.1,1.2-2.9
				c0.8-0.8,1.7-1.2,2.9-1.2h20.9c4.7,0,8.9,0.8,12.6,2.5c3.8,1.7,6.8,4.2,8.9,7.4c2.1,3.2,3.2,6.9,3.2,11v22c0,4.1-1.1,7.8-3.2,11
				c-2.1,3.2-5.1,5.7-8.9,7.4c-3.7,1.6-7.9,2.5-12.6,2.5H170.3z M191.7,160.5c1.5,0,2.6-0.5,3.6-1.5c1-1.1,1.5-2.7,1.6-4.8l0-17.2
				c0-2.1-0.5-3.6-1.5-4.7c-0.9-1.1-2.1-1.6-3.7-1.6h-6.5v29.9H191.7z"/>
			<path class="st10" d="M191.1,116.2c4.4,0,8.2,0.8,11.6,2.3c3.4,1.5,5.9,3.7,7.8,6.5c1.8,2.8,2.8,6,2.8,9.6v22
				c0,3.6-0.9,6.8-2.8,9.6c-1.8,2.8-4.4,4.9-7.8,6.5c-3.4,1.5-7.2,2.3-11.6,2.3h-20.9c-0.4,0-0.8-0.1-1.1-0.4
				c-0.3-0.3-0.4-0.6-0.4-1.1v-55.6c0-0.4,0.1-0.8,0.4-1.1c0.3-0.3,0.6-0.4,1.1-0.4H191.1 M183.3,163h8.5c2.2,0,4-0.8,5.4-2.4
				c1.4-1.6,2.1-3.7,2.2-6.4v-17.3c0-2.7-0.7-4.8-2.1-6.4c-1.4-1.6-3.3-2.4-5.6-2.4h-8.4c-0.4,0-0.6,0.2-0.6,0.6v33.7
				C182.7,162.8,182.9,163,183.3,163 M191.1,111.2h-20.9c-1.8,0-3.4,0.7-4.6,1.9c-1.2,1.2-1.9,2.9-1.9,4.6v55.6
				c0,1.8,0.7,3.4,1.9,4.6c1.2,1.2,2.8,1.9,4.6,1.9h20.9c5,0,9.6-0.9,13.6-2.7c4.2-1.9,7.5-4.7,9.9-8.3c2.4-3.6,3.6-7.8,3.6-12.4
				v-22c0-4.6-1.2-8.8-3.6-12.4c-2.4-3.6-5.7-6.4-9.9-8.3C200.8,112.1,196.2,111.2,191.1,111.2L191.1,111.2z M187.7,133.1h4
				c1,0,1.5,0.3,1.8,0.7c0.2,0.2,0.9,1,0.9,3.1v17.2c0,1.4-0.4,2.5-0.9,3.2c-0.4,0.4-0.8,0.7-1.7,0.7h-4.1V133.1L187.7,133.1z"/>
		</g>
		<g>
			<path class="st17" d="M222.1,177.4c-1.1,0-2.1-0.4-2.9-1.2c-0.7-0.7-1.1-1.7-1.1-2.9v-55.6c0-1.1,0.4-2.1,1.2-2.9
				c0.8-0.8,1.7-1.2,2.9-1.2h38.6c1.1,0,2.1,0.4,2.8,1.1c0.8,0.8,1.2,1.8,1.2,2.9v8.9c0,1.1-0.4,2.1-1.2,2.9
				c-0.8,0.8-1.7,1.1-2.9,1.1H237v6.1h14.3c1.1,0,2.1,0.4,2.9,1.1c0.8,0.8,1.2,1.7,1.2,2.9v8.8c0,1.1-0.4,2.1-1.2,2.9
				c-0.7,0.8-1.7,1.1-2.9,1.1H237v6.9h23.7c1.1,0,2.1,0.4,2.9,1.1c0.8,0.8,1.2,1.7,1.2,2.9v8.9c0,1.1-0.4,2.1-1.2,2.9
				c-0.8,0.8-1.7,1.1-2.9,1.1H222.1z"/>
			<path class="st10" d="M260.7,116.2c0.4,0,0.8,0.1,1.1,0.4c0.3,0.3,0.4,0.6,0.4,1.1v8.9c0,0.4-0.1,0.8-0.4,1.1
				c-0.3,0.3-0.6,0.4-1.1,0.4h-25.6c-0.4,0-0.6,0.2-0.6,0.6v10c0,0.4,0.2,0.6,0.6,0.6h16.2c0.4,0,0.8,0.1,1.1,0.4
				c0.3,0.3,0.4,0.6,0.4,1.1v8.8c0,0.4-0.1,0.8-0.4,1.1c-0.3,0.3-0.6,0.4-1.1,0.4h-16.2c-0.4,0-0.6,0.2-0.6,0.6v10.7
				c0,0.4,0.2,0.6,0.6,0.6h25.6c0.4,0,0.8,0.1,1.1,0.4c0.3,0.3,0.4,0.6,0.4,1.1v8.9c0,0.4-0.1,0.8-0.4,1.1c-0.3,0.3-0.6,0.4-1.1,0.4
				h-38.6c-0.4,0-0.8-0.1-1.1-0.4c-0.3-0.3-0.4-0.6-0.4-1.1v-55.6c0-0.4,0.1-0.8,0.4-1.1c0.3-0.3,0.6-0.4,1.1-0.4H260.7
				 M260.7,111.2h-38.6c-1.8,0-3.4,0.7-4.6,1.9c-1.2,1.2-1.9,2.9-1.9,4.6v55.6c0,1.8,0.7,3.4,1.9,4.6c1.2,1.2,2.8,1.9,4.6,1.9h38.6
				c1.8,0,3.4-0.7,4.6-1.9c1.2-1.2,1.9-2.9,1.9-4.6v-8.9c0-1.8-0.7-3.4-1.9-4.6c-1.2-1.2-2.9-1.9-4.6-1.9h-21.2v-1.9h11.8
				c1.8,0,3.4-0.7,4.6-1.9c1.2-1.2,1.9-2.8,1.9-4.6v-8.8c0-1.8-0.7-3.4-1.9-4.6c-1.2-1.2-2.9-1.9-4.6-1.9h-11.8v-1.1h21.2
				c1.8,0,3.4-0.7,4.6-1.9c1.2-1.2,1.9-2.9,1.9-4.6v-8.9c0-1.8-0.7-3.4-1.9-4.6C264.1,111.9,262.5,111.2,260.7,111.2L260.7,111.2z"
				/>
		</g>
		<g>
			<path class="st17" d="M289.9,178.1c-4.8,0-9.1-0.8-12.8-2.4c-3.8-1.7-6.8-4.1-8.9-7.3c-2.1-3.2-3.2-6.9-3.2-11v-1.1
				c0-1.1,0.4-2.1,1.2-2.9c0.7-0.8,1.7-1.2,2.9-1.2h10.6c1,0,1.8,0.2,2.5,0.7c1,0.7,1.5,1.7,1.5,2.8v1c0,0.6,0.2,1.6,1.7,2.8
				c1.4,1.1,3.2,1.6,5.5,1.6c1.8,0,3.1-0.3,3.8-0.9c0.8-0.8,0.9-1.4,0.9-1.8c0-0.7-0.2-1.1-0.9-1.5c-0.8-0.5-2.7-1.4-6.8-2.7
				l-1.8-0.6c-3.7-1.2-7-2.5-9.8-4c-3-1.5-5.6-3.7-7.7-6.4c-2.2-2.9-3.4-6.4-3.4-10.5c0-4,1.1-7.5,3.2-10.5c2.1-3,5-5.3,8.6-6.9
				c3.5-1.5,7.5-2.3,11.9-2.3c4.6,0,8.9,0.9,12.6,2.6c3.8,1.7,6.9,4.3,9.1,7.5c2.2,3.3,3.4,7,3.4,11.2v0.7c0,1.1-0.4,2.1-1.1,2.9
				c-0.8,0.8-1.7,1.2-2.9,1.2h-10.6c-0.9,0-1.6-0.2-2.2-0.5c-1.1-0.6-1.8-1.6-1.8-2.9v-0.8c0-0.8-0.2-2-1.7-3.3
				c-1.3-1.1-3-1.6-5.3-1.6c-1.6,0-2.9,0.3-3.6,0.9c-0.4,0.3-0.8,0.7-0.8,1.7c0,0.7,0.3,1.1,0.5,1.3c0.4,0.4,1.2,1,2.8,1.7
				c1.6,0.7,4.1,1.6,7.4,2.7c4,1.4,7.2,2.6,9.4,3.6c2.5,1.2,4.9,3,7,5.6c2.3,2.7,3.5,6.3,3.5,10.5c0,4-1.1,7.6-3.2,10.7
				c-2.1,3-5.1,5.4-8.9,7C298.8,177.3,294.5,178.1,289.9,178.1z"/>
			<path class="st10" d="M288.9,115.6c4.3,0,8.2,0.8,11.6,2.3c3.4,1.6,6.1,3.8,8.1,6.6c2,2.8,2.9,6.1,2.9,9.8v0.7
				c0,0.4-0.1,0.8-0.4,1.1c-0.3,0.3-0.6,0.4-1.1,0.4h-10.6c-0.4,0-0.8-0.1-1.1-0.2c-0.3-0.1-0.4-0.3-0.4-0.6v-0.8
				c0-2-0.9-3.7-2.6-5.2c-1.7-1.5-4.1-2.3-7-2.3c-2.2,0-3.9,0.4-5.1,1.3c-1.2,0.9-1.8,2.2-1.8,3.8c0,1.2,0.4,2.2,1.2,3.1
				c0.8,0.8,2,1.6,3.6,2.3c1.6,0.7,4.2,1.6,7.6,2.7c3.9,1.3,7,2.5,9.1,3.5c2.2,1,4.2,2.6,6.2,4.9c1.9,2.3,2.9,5.2,2.9,8.9
				c0,3.5-0.9,6.6-2.8,9.3c-1.8,2.7-4.4,4.7-7.8,6.2c-3.4,1.5-7.2,2.2-11.6,2.2c-4.5,0-8.4-0.7-11.8-2.2c-3.4-1.5-6-3.6-7.8-6.4
				s-2.8-6-2.8-9.6v-1.1c0-0.4,0.1-0.8,0.4-1.1c0.3-0.3,0.6-0.4,1.1-0.4h10.6c0.4,0,0.8,0.1,1.1,0.3c0.3,0.2,0.4,0.4,0.4,0.7v1
				c0,1.8,0.9,3.4,2.7,4.8c1.8,1.4,4.1,2.1,7,2.1c2.5,0,4.3-0.5,5.4-1.6c1.2-1.1,1.8-2.3,1.8-3.7c0-1.6-0.7-2.8-2.1-3.6
				c-1.4-0.8-3.8-1.8-7.3-2.9l-1.8-0.6c-3.6-1.2-6.7-2.4-9.4-3.8c-2.7-1.4-5-3.3-6.9-5.7c-1.9-2.4-2.8-5.4-2.8-9
				c0-3.5,0.9-6.5,2.7-9.1c1.8-2.6,4.3-4.6,7.5-6C281.2,116.3,284.9,115.6,288.9,115.6 M288.9,110.6c-4.7,0-9.1,0.8-12.9,2.5
				c-4.1,1.8-7.3,4.4-9.6,7.7c-2.4,3.4-3.6,7.5-3.6,12c0,4.7,1.3,8.8,3.9,12.1c1.5,1.9,3.2,3.6,5.1,5H269c-1.8,0-3.4,0.7-4.6,1.9
				c-1.2,1.2-1.9,2.9-1.9,4.6v1.1c0,4.6,1.2,8.8,3.6,12.4c2.4,3.6,5.7,6.3,10,8.2c4,1.8,8.6,2.6,13.8,2.6c5,0,9.6-0.9,13.6-2.6
				c4.2-1.8,7.5-4.5,9.9-7.9c2.4-3.5,3.7-7.6,3.7-12.1c0-4.9-1.4-9-4.1-12.2c-1.4-1.7-3-3.1-4.6-4.3h1.8c1.8,0,3.4-0.7,4.6-1.9
				c1.2-1.2,1.9-2.9,1.9-4.6v-0.7c0-4.7-1.3-8.9-3.8-12.6c-2.5-3.6-5.9-6.4-10.1-8.3C298.5,111.5,293.9,110.6,288.9,110.6
				L288.9,110.6z M286.8,132.6c0.3-0.1,0.8-0.2,1.6-0.2c1.7,0,2.9,0.3,3.7,1c0.9,0.8,0.9,1.2,0.9,1.4v0.1c-2-0.7-3.6-1.3-4.7-1.8
				C287.5,133,287.1,132.8,286.8,132.6L286.8,132.6z M290.9,158.7c-1.7,0-3-0.3-3.9-1.1c-0.6-0.4-0.8-0.7-0.8-0.8l0-0.5l1,0.3
				c2.7,0.9,4.3,1.5,5.2,1.9C292.1,158.6,291.6,158.7,290.9,158.7L290.9,158.7z"/>
		</g>
	</g>
	<g class="st1">
		<g>
			<path class="st14" d="M354.3,177.5c-2,0-3.6-1.2-4.1-3.1l-1.6-5.7H332l-1.6,5.7c-0.5,1.9-2.1,3.1-4.1,3.1h-12.1
				c-1.9,0-2.8-0.9-3.2-1.5c-0.4-0.6-1-1.8-0.4-3.5l18-57c0.6-1.9,2.2-3,4.2-3h15.2c2.1,0,3.7,1.1,4.2,3.1l18,56.9
				c0.2,0.4,0.2,0.9,0.2,1.5c0,1.7-1.2,3.6-3.9,3.6H354.3z M344,152.7l-3.7-13.1l-3.7,13.1H344z"/>
			<path class="st10" d="M347.8,115c1,0,1.6,0.4,1.8,1.3l18.1,57c0.1,0.1,0.1,0.3,0.1,0.6c0,0.7-0.5,1.1-1.4,1.1h-12.1
				c-0.9,0-1.5-0.4-1.7-1.3l-2-7c-0.1-0.3-0.3-0.5-0.7-0.5h-19.4c-0.3,0-0.6,0.2-0.7,0.5l-2,7c-0.2,0.9-0.8,1.3-1.7,1.3h-12.1
				c-0.6,0-1-0.2-1.2-0.5c-0.2-0.3-0.3-0.7-0.1-1.2l18-57c0.3-0.9,0.9-1.3,1.8-1.3H347.8 M333.9,155.2h12.7c0.2,0,0.4-0.1,0.5-0.2
				c0.1-0.1,0.1-0.3,0-0.5l-6.5-22.8c-0.1-0.3-0.2-0.4-0.3-0.4c-0.1,0-0.3,0.1-0.4,0.4l-6.5,22.8v0.2
				C333.4,155,333.6,155.2,333.9,155.2 M347.8,110h-15.2c-3.1,0-5.6,1.8-6.5,4.7l0,0l0,0l-18,57c-0.7,2-0.4,4.1,0.8,5.7
				c0.7,0.9,2.3,2.5,5.2,2.5h12.1c3.2,0,5.7-1.9,6.5-5l1.1-3.9h12.9l1.1,3.9c0.8,3,3.4,5,6.5,5h12.1c3.7,0,6.4-2.6,6.4-6.1
				c0-0.8-0.1-1.6-0.4-2.3l-18-56.8C353.6,111.9,351,110,347.8,110L347.8,110z M339.9,150.2l0.4-1.5l0.4,1.5H339.9L339.9,150.2z"/>
		</g>
		<g>
			<path class="st14" d="M375.8,177.5c-1.1,0-2.1-0.4-2.9-1.2c-0.8-0.8-1.2-1.8-1.2-2.9v-56.9c0-1.1,0.4-2.1,1.2-2.9
				c0.8-0.8,1.8-1.2,2.9-1.2h21.3c4.8,0,9.1,0.9,12.9,2.5c3.9,1.7,6.9,4.3,9,7.5c2.2,3.3,3.2,7,3.2,11.2v22.5c0,4.2-1.1,8-3.2,11.2
				c-2.1,3.2-5.2,5.8-9,7.5c-3.7,1.7-8.1,2.5-12.9,2.5H375.8z M397.7,160.3c1.6,0,2.7-0.5,3.7-1.6c1-1.2,1.6-2.8,1.6-5l0-17.6
				c0-2.1-0.5-3.7-1.5-4.9c-1-1.1-2.2-1.6-3.8-1.6H391v30.7H397.7z"/>
			<path class="st10" d="M397.1,115c4.5,0,8.4,0.8,11.8,2.3c3.4,1.5,6.1,3.7,8,6.6c1.9,2.9,2.8,6.1,2.8,9.9v22.5
				c0,3.7-0.9,7-2.8,9.9c-1.9,2.9-4.5,5.1-8,6.6c-3.4,1.5-7.4,2.3-11.8,2.3h-21.3c-0.5,0-0.8-0.1-1.1-0.4c-0.3-0.3-0.4-0.7-0.4-1.1
				v-56.9c0-0.5,0.1-0.8,0.4-1.1c0.3-0.3,0.7-0.4,1.1-0.4H397.1 M389.1,162.8h8.7c2.3,0,4.1-0.8,5.6-2.4c1.4-1.6,2.2-3.8,2.2-6.6
				v-17.7c0-2.7-0.7-4.9-2.2-6.6c-1.5-1.6-3.4-2.4-5.7-2.4h-8.6c-0.4,0-0.6,0.2-0.6,0.6v34.5C388.5,162.6,388.7,162.8,389.1,162.8
				 M397.1,110h-21.3c-1.8,0-3.4,0.7-4.6,1.9c-1.2,1.2-1.9,2.9-1.9,4.6v56.9c0,1.8,0.7,3.4,1.9,4.7c1.2,1.2,2.9,1.9,4.6,1.9h21.3
				c5.1,0,9.8-0.9,13.9-2.8c4.3-1.9,7.7-4.8,10.1-8.4c2.4-3.7,3.7-7.9,3.7-12.6v-22.5c0-4.7-1.2-8.9-3.7-12.6
				c-2.4-3.6-5.8-6.5-10.1-8.4C406.9,110.9,402.3,110,397.1,110L397.1,110z M393.5,132.2h4.2c1.1,0,1.6,0.3,2,0.8
				c0.2,0.3,0.9,1,0.9,3.2v17.6c0,1.5-0.4,2.6-1,3.3c-0.4,0.5-0.8,0.7-1.8,0.7h-4.3V132.2L393.5,132.2z"/>
		</g>
		<g>
			<path class="st14" d="M466.9,177.5c-1.1,0-2.1-0.4-2.9-1.2c-0.8-0.8-1.2-1.8-1.2-2.9v-25.9l-3,4.9c-0.8,1.4-2.2,2.2-3.9,2.2h-5.2
				c-1.7,0-3.1-0.8-4-2.3l-3-4.8v26c0,1.1-0.4,2.1-1.2,2.9c-0.8,0.8-1.8,1.2-2.9,1.2h-11.1c-1.1,0-2.1-0.4-2.9-1.2
				c-0.8-0.8-1.2-1.8-1.2-2.9v-56.9c0-1.1,0.4-2.1,1.2-2.9c0.8-0.8,1.8-1.2,2.9-1.2h11.1c1.7,0,3.1,0.8,4,2.3l9.7,15.6l9.8-15.7
				c0.8-1.4,2.2-2.2,3.9-2.2H478c1.1,0,2.1,0.4,2.9,1.2c0.8,0.8,1.2,1.8,1.2,2.9v56.9c0,1.1-0.4,2.1-1.2,2.9
				c-0.8,0.8-1.8,1.2-2.9,1.2H466.9z"/>
			<path class="st10" d="M478,115c0.5,0,0.8,0.1,1.1,0.4c0.3,0.3,0.4,0.7,0.4,1.1v56.9c0,0.5-0.1,0.8-0.4,1.1
				c-0.3,0.3-0.7,0.4-1.1,0.4h-11.1c-0.5,0-0.8-0.1-1.1-0.4c-0.3-0.3-0.4-0.7-0.4-1.1V140c0-0.3-0.1-0.5-0.3-0.5c0,0-0.1,0-0.1,0
				c-0.1,0-0.3,0.1-0.3,0.4l-6.9,11.3c-0.4,0.7-1,1-1.8,1h-5.2c-0.8,0-1.4-0.3-1.8-1l-6.9-11.3c-0.1-0.2-0.2-0.4-0.3-0.4
				c0,0-0.1,0-0.1,0c-0.2,0.1-0.3,0.2-0.3,0.5v33.5c0,0.5-0.1,0.8-0.4,1.1c-0.3,0.3-0.7,0.4-1.1,0.4h-11.1c-0.5,0-0.8-0.1-1.1-0.4
				c-0.3-0.3-0.4-0.7-0.4-1.1v-56.9c0-0.5,0.1-0.8,0.4-1.1c0.3-0.3,0.7-0.4,1.1-0.4h11.1c0.8,0,1.4,0.3,1.8,1l11.4,18.4
				c0.1,0.2,0.3,0.3,0.4,0.3c0.1,0,0.3-0.1,0.4-0.3l11.5-18.4c0.4-0.7,1-1,1.8-1H478 M478,110H467c-2.6,0-4.8,1.2-6.1,3.4l-7.6,12.2
				l-7.6-12.2c-1.3-2.2-3.5-3.4-6.1-3.4h-11.1c-1.8,0-3.4,0.7-4.6,1.9c-1.2,1.2-1.9,2.9-1.9,4.6v56.9c0,1.8,0.7,3.4,1.9,4.7
				c1.2,1.2,2.9,1.9,4.6,1.9h11.1c1.8,0,3.4-0.7,4.6-1.9c1.2-1.2,1.9-2.9,1.9-4.6v-17.9c1.2,1,2.7,1.5,4.4,1.5h5.2
				c1.7,0,3.2-0.5,4.4-1.5v17.9c0,1.8,0.7,3.4,1.9,4.7c1.2,1.2,2.9,1.9,4.6,1.9H478c1.8,0,3.4-0.7,4.7-1.9c1.2-1.2,1.9-2.9,1.9-4.6
				v-56.9c0-1.8-0.7-3.4-1.9-4.6C481.5,110.7,479.8,110,478,110L478,110z"/>
		</g>
		<g>
			<path class="st14" d="M489.6,177.5c-1.1,0-2.1-0.4-2.9-1.2c-0.8-0.7-1.2-1.7-1.2-2.9v-56.9c0-1.1,0.4-2.1,1.2-2.9
				c0.8-0.8,1.8-1.2,2.9-1.2h11.1c1.1,0,2.1,0.4,2.9,1.2c0.8,0.8,1.2,1.8,1.2,2.9v56.9c0,1.1-0.4,2.1-1.2,2.9
				c-0.8,0.8-1.8,1.2-2.9,1.2H489.6z"/>
			<path class="st10" d="M500.7,115c0.5,0,0.8,0.1,1.1,0.4c0.3,0.3,0.4,0.7,0.4,1.1v56.9c0,0.5-0.1,0.8-0.4,1.1
				c-0.3,0.3-0.7,0.4-1.1,0.4h-11.1c-0.5,0-0.8-0.1-1.1-0.4c-0.3-0.3-0.4-0.7-0.4-1.1v-56.9c0-0.5,0.1-0.8,0.4-1.1
				c0.3-0.3,0.7-0.4,1.1-0.4H500.7 M500.7,110h-11.1c-1.8,0-3.4,0.7-4.6,1.9c-1.2,1.2-1.9,2.9-1.9,4.6v56.9c0,1.8,0.7,3.4,1.9,4.7
				c1.2,1.2,2.9,1.9,4.6,1.9h11.1c1.8,0,3.4-0.7,4.6-1.9c1.2-1.2,1.9-2.9,1.9-4.6v-56.9c0-1.8-0.7-3.4-1.9-4.6
				C504.2,110.7,502.5,110,500.7,110L500.7,110z"/>
		</g>
		<g>
			<path class="st14" d="M546.2,177.5c-1.6,0-3-0.8-3.9-2.1l-0.1-0.1l-14.9-25.6l0.1,23.8c0,1.1-0.4,2.1-1.2,2.9
				c-0.8,0.8-1.8,1.2-2.9,1.2h-11c-1.1,0-2.1-0.4-2.9-1.2c-0.8-0.7-1.2-1.7-1.2-2.9v-56.9c0-1.1,0.4-2.1,1.2-2.9
				c0.8-0.8,1.8-1.2,2.9-1.2h10.5c1.7,0,3.1,0.8,4,2.3l14.9,25.1l-0.1-23.3c0-1.1,0.4-2.1,1.2-2.9c0.8-0.8,1.8-1.2,2.9-1.2h11
				c1.1,0,2.1,0.4,2.9,1.2c0.8,0.8,1.2,1.8,1.2,2.9v56.9c0,1.1-0.4,2.1-1.2,2.9c-0.8,0.8-1.8,1.2-2.9,1.2H546.2z"/>
			<path class="st10" d="M556.7,115c0.5,0,0.8,0.1,1.1,0.4c0.3,0.3,0.4,0.7,0.4,1.1v56.9c0,0.5-0.1,0.8-0.4,1.1
				c-0.3,0.3-0.7,0.4-1.1,0.4h-10.5c-0.7,0-1.3-0.3-1.8-1l-18.9-32.3c-0.1-0.2-0.2-0.4-0.4-0.4c0,0-0.1,0-0.1,0
				c-0.2,0.1-0.3,0.2-0.3,0.5l0.2,31.6c0,0.5-0.1,0.8-0.4,1.1c-0.3,0.3-0.7,0.4-1.1,0.4h-11c-0.5,0-0.8-0.1-1.1-0.4
				c-0.3-0.3-0.4-0.7-0.4-1.1v-56.9c0-0.5,0.1-0.8,0.4-1.1c0.3-0.3,0.7-0.4,1.1-0.4h10.5c0.8,0,1.4,0.3,1.8,1l18.9,31.9
				c0.1,0.2,0.2,0.3,0.3,0.3c0,0,0.1,0,0.1,0c0.2-0.1,0.3-0.2,0.3-0.5l-0.1-31.1c0-0.5,0.1-0.8,0.4-1.1c0.3-0.3,0.7-0.4,1.1-0.4
				H556.7 M556.7,110h-11c-1.8,0-3.4,0.7-4.7,1.9c-1.2,1.2-1.9,2.9-1.9,4.6l0,14.2L529,113.5c-1.3-2.2-3.5-3.5-6.1-3.5h-10.5
				c-1.8,0-3.4,0.7-4.6,1.9c-1.2,1.2-1.9,2.9-1.9,4.6v56.9c0,1.8,0.7,3.4,1.9,4.7c1.2,1.2,2.9,1.9,4.6,1.9h11c1.8,0,3.4-0.7,4.6-1.9
				c1.2-1.2,1.9-2.9,1.9-4.6l-0.1-14.5l10.2,17.5l0.1,0.1l0.1,0.1c1.4,2.1,3.6,3.3,6,3.3h10.5c1.8,0,3.4-0.7,4.6-1.9
				c1.2-1.2,1.9-2.9,1.9-4.6v-56.9c0-1.8-0.7-3.4-1.9-4.6C560.1,110.7,558.5,110,556.7,110L556.7,110z"/>
		</g>
	</g>
	<path class="st18" d="M21.8,109.8c0.3,0,0.6-0.3,0.6-0.6c0-10.3-0.1-13.8,0.1-24.4c0.1-2,1.4-4.7,3-5.7
		C47.9,66,70.3,53.1,92.9,40.3c1.5-0.9,4.4-1,5.8-0.2c22.4,12.7,44.6,25.7,67,38.4c2.9,1.6,3.6,3.6,3.6,6.7c0,0,0,20.3-0.1,23.9
		c0,0.3,0.2,0.6,0.6,0.6H184c0.3,0,0.6-0.3,0.6-0.6c0-15.5-0.2-17.3,0.1-32.5c0.1-3.8-1.3-5.6-4.4-7.4C153.4,54,126.6,38.5,99.9,23
		c-3-1.7-5.1-1.7-8,0C65.1,38.6,38.4,54,11.5,69.4c-2.9,1.6-4.2,3.3-4.2,6.8c0.2,13.9,0.1,19.3,0.1,33c0,0.3,0.2,0.6,0.6,0.6
		L21.8,109.8z"/>
	<path class="st19" d="M558.4,187.6H313.1c-0.4,0-0.6-0.3-0.6-0.6v-3.7c0-0.4,0.3-0.6,0.6-0.6h245.4V187.6z"/>
	<path class="st20" d="M427.3,133.4"/>
	<path class="st20" d="M424.4,128.6"/>
	<path class="st19" d="M424.4,128.6"/>
	<path class="st19" d="M292.9,93.9c1.2,0,2-0.3,2.4-1.6c2.1-6.3,4.4-12.5,6.6-18.7c0.6-1.6,1.3-3.2,1.9-4.8c0.7-1.8,1.8-2.5,3.6-2.5
		c1.8,0,3.3,0.7,3.9,2.5c1.1,3,2.1,6,3.2,9c1.3,3.6,2.7,7.3,4.1,10.9c0.2,0.4,0.5,0.8,0.8,1.4c0.2-0.3,0.3-0.4,0.3-0.6
		c1.2-5,2.3-10,3.5-15c1.4-5.6,2.9-11.2,4.3-16.8c1.1-4.3,2.1-8.6,3.1-12.8c0.6-2.5,1.4-5,2-7.5c0.4-1.5,0.6-3,0.9-4.5
		c0.1-0.6,0.2-1.1,0.5-1.6c0.7-1.5,1.8-2.7,3.7-2.8c1.9-0.1,3.1,1.1,3.7,2.6c0.8,2,1.4,4.2,2,6.3c1.4,4.8,2.9,9.5,4.3,14.3
		c2.2,7.7,4.4,15.4,6.6,23.1c2.5,8.6,5,17.2,7.6,25.8c0.1,0.4,0.3,0.8,0.4,1.2c0.1,0,0.2,0,0.4,0.1c0.4-0.8,0.8-1.6,1.2-2.4
		c1.1-2.3,2.2-4.6,3.3-6.9c1.2-2.4,2.5-4.7,3.7-7.1l2.1-4.3c1.2-2.5,2.4-5,3.7-7.5c1.4-2.6,4.8-2.7,6.5-0.3c0.4,0.6,0.8,1.3,1,2.1
		c1.3,4,2.6,8,3.9,12c0.6,1.8,1.2,3.7,1.9,5.5c0.1,0.3,0.6,0.6,1,0.6c4.4,0.1,8.8,0.1,13.2,0.1c5.5,0,24-0.1,29.4-0.1
		c2.3,0,3.8,1.2,4.2,3.2c0.4,2.2-1.1,4-3.4,4c-4.3,0-21.6,0-25.9,0c-6.4,0-12.9,0-19.3,0c-2.6,0-3.8-0.8-4.6-3.2
		c-1.6-4.4-3.1-8.8-4.7-13.1c-0.1-0.1-0.2-0.3-0.4-0.6c-0.9,1.6-1.8,3-2.6,4.5c-2.2,4.4-4.5,8.8-6.6,13.2c-1.3,2.6-2.4,5.2-3.5,7.9
		c-0.2,0.4-0.4,0.9-0.6,1.3c-0.8,1.8-1.9,3.4-3.8,4.2c-0.2,0-0.3,0-0.5,0c0,0-0.1-0.1-0.1-0.1c-3.3-0.6-4.4-3-5.2-5.9
		c-3.3-11.8-6.7-23.6-10-35.4c-1.9-6.5-3.8-13-5.7-19.4c-1-3.4-1.9-6.8-2.9-10.1l-0.9,4c-1.4,5.4-2.9,10.8-4.3,16.3
		c-2.1,8.4-4,16.8-6,25.2c-0.9,4-1.9,7.9-2.9,11.9c-0.2,0.9-0.7,1.8-1.4,2.5c-2.4,2.6-5,1.3-6.1-0.9c-0.8-1.6-1.4-3.4-2-5.1
		c-1.1-2.9-2.1-5.9-3.3-8.9c-1.1-2.7-2.2-5.5-3.3-8.2c-0.2-0.4-0.5-0.8-0.8-1.3c-2.2,6-4.3,11.7-6.4,17.5c-1,2.7-2.3,3.7-5.2,3.7
		c-11.3,0-44.6,0-55.8,0.1c-1.1,0-2.1-0.2-2.9-0.9c-1.2-1.1-1.6-2-1.1-3.4c0.4-1.4,1.7-2.4,3.2-2.4"/>
</g>
<g id="favicon" class="st0">
	<path class="st18" d="M61.8,129.8c0.3,0,0.6-0.3,0.6-0.6c0-10.3-0.1-13.8,0.1-24.4c0.1-2,1.4-4.7,3-5.7
		c22.4-13.1,44.8-26.1,67.4-38.9c1.5-0.9,4.4-1,5.8-0.2c22.4,12.7,44.6,25.7,67,38.4c2.9,1.6,3.6,3.6,3.6,6.7c0,0,0,20.3-0.1,23.9
		c0,0.3,0.2,0.6,0.6,0.6H224c0.3,0,0.6-0.3,0.6-0.6c0-15.5-0.2-17.3,0.1-32.5c0.1-3.8-1.3-5.6-4.4-7.4C193.4,74,166.6,58.5,139.9,43
		c-3-1.7-5.1-1.7-8,0c-26.7,15.6-53.5,31-80.4,46.4c-2.9,1.6-4.2,3.3-4.2,6.8c0.2,13.9,0.1,19.3,0.1,33c0,0.3,0.2,0.6,0.6,0.6
		L61.8,129.8z"/>
	<g class="st1">
		<path class="st14" d="M115.7,125.6c-0.3,0-0.7,0-1,0c-5.8,0-11.5,0-17.3,0c-0.5,0-0.8-0.2-1.1-0.6c-0.4-0.8-0.5-1.6-0.5-2.4
			c0-2.6,0.1-5.3,0.1-7.9c0-0.7,0.1-1.4,0.1-2.1c0-1.3,1.1-2,2.3-2.1c1.5,0,3.1-0.1,4.6-0.1c0.2,0,0.5,0,0.7,0
			c0.6-0.1,1.2-0.3,1.4-0.9c0.5-1.1,1-2.3,1.4-3.4c0.6-1.4,1.2-2.8,1.7-4.2c0.1-0.2,0.2-0.4,0.2-0.6c0.3-0.7,0.2-1.4-0.4-2
			c-0.4-0.5-0.9-0.9-1.3-1.3c-0.7-0.8-1.5-1.5-2.2-2.3c-0.1-0.1-0.1-0.1-0.2-0.2c-0.8-1-0.9-1.9-0.1-3c0.5-0.7,1.2-1.4,1.8-2
			c1.2-1.3,2.3-2.6,3.6-3.8c0.9-0.9,1.8-1.6,2.8-2.4c1-0.7,2.2-0.5,3.1,0.3c0.9,0.9,1.7,1.7,2.6,2.6c0.3,0.3,0.7,0.6,1,0.9
			c0.7,0.6,1.4,0.6,2.2,0.3c1.6-0.7,3.1-1.3,4.7-2c0.9-0.4,1.8-0.7,2.8-1.1c1.1-0.4,1.5-1,1.5-2.1c0-1.4,0-2.8,0-4.2
			c0-0.5,0.1-1,0.2-1.5c0.2-0.6,0.6-1,1.2-1.3c1.1-0.4,2.3-0.5,3.5-0.5c2.4,0,4.8,0,7.2,0.1c0.7,0,1.5,0.3,2.2,0.5
			c0.9,0.3,1.2,1,1.2,1.8c0.1,1.7,0.1,3.5,0.2,5.2c0,0.9,0.4,1.5,1.2,1.9c1.5,0.6,3.1,1.2,4.7,1.9c0.8,0.3,1.7,0.7,2.5,1.1
			c0.1,0.1,0.2,0.1,0.3,0.1c1,0.4,1.8,0.4,2.6-0.4c0.8-0.9,1.7-1.8,2.6-2.6c0.6-0.5,1.2-1,1.9-1.4c0.1-0.1,0.4,0,0.6,0
			c0.1,0,0.1,0.1,0.2,0c0.4-0.3,0.7,0,1,0.2c0.4,0.2,0.8,0.5,1.2,0.9c1.6,1.5,3.3,3,4.9,4.6c0.9,0.9,1.6,1.8,2.4,2.8
			c0.9,1.2,0.8,2.2-0.2,3.2c-0.1,0.1-0.2,0.2-0.3,0.3c-1,1-2,2-3,3c-0.8,0.7-0.9,1.6-0.5,2.4c0.4,1.2,1,2.3,1.4,3.5
			c0.5,1.3,1.1,2.6,1.6,4c0.4,1,1.1,1.5,2.1,1.5c1.4,0,2.8,0,4.3,0c0.4,0,0.8,0,1.1,0.1c0.9,0.2,1.6,0.7,1.7,1.6
			c0.2,1.2,0.4,2.4,0.4,3.7c0,2.4-0.1,4.9-0.2,7.3c0,0.6-0.3,1.3-0.5,1.9c-0.2,0.4-0.5,0.6-1,0.6c-5.5,0-11,0-16.4,0
			c-0.6,0-1.3,0-1.9,0c2.5-9.4,0.7-17.7-6.5-24.6c-5.1-4.8-11.3-6.8-18.2-6.2c-7.5,0.7-13.4,4.3-17.5,10.5
			C114.3,111.6,113.7,118.5,115.7,125.6z"/>
	</g>
	<circle class="st18" cx="137.9" cy="117.3" r="12.5"/>
</g>
<g id="footer" class="st0">
	<path class="st21" d="M427.5,105.3c-0.2-9-3.2-16.7-9.1-23.5c-0.3-0.3-0.3-0.8,0.1-1.1c5.5-4.9,10.9-9.8,16.6-14.9
		c0.4-0.3,1-0.3,1.3,0.1c10.1,11.3,14.8,24.5,15.2,39.4c0,0.3-0.2,0.5-0.5,0.5h-23.2C427.7,105.7,427.5,105.5,427.5,105.3z"/>
	<g class="st1">
		<path class="st14" d="M348.2,65.9l16.6,15c0.2,0.2,0.2,0.4,0,0.6c-5.8,6.8-8.8,14.7-9.2,23.7c0,0.2-0.2,0.4-0.5,0.4h-22.9
			c-0.3,0-0.5-0.2-0.5-0.5c0.3-15,5.2-28,15.1-39.3C347.2,65.6,347.8,65.6,348.2,65.9z"/>
	</g>
	<path class="st22" d="M389.1,46.8c0.3,7.5,0.6,14.5,0.9,21.8c0,0.6-0.4,1.1-1,1.1c-7.9,0.7-15.1,3.6-21.3,9c-0.2,0.2-0.5,0.2-0.6,0
		c-5.2-5.5-10.2-11.1-15.2-16.9c-0.3-0.4-0.3-1,0.1-1.3c10.5-8.9,22.4-14,36.1-14.6C388.6,45.9,389.1,46.3,389.1,46.8z"/>
	<path class="st23" d="M413.3,76.4c-0.4-0.4-1.1-0.9-1.5-1.2c-3-2-7-3.3-10.3-4.3c-2.4-0.7-5-0.9-7.5-1.2c-0.3,0-0.5-0.3-0.6-0.4
		c0.4-7.6,0.7-15,1.1-22.5c0-0.5,0.5-0.9,1-0.9c14,0.6,25.7,5.9,35.9,14.7c0.4,0.3,0.4,0.9,0.1,1.3c-5.1,5.6-10.1,11.1-15.1,16.7
		c-0.1,0.1-0.3,0.2-0.5,0.1L413.3,76.4z"/>
	<g class="st1">
		<g>
			<path class="st10" d="M391.8,106.6c-1.7-0.3-3.9-1.1-4.5-4.2l0-0.1l0-0.1c0-3.2,1.5-4.8,4.7-5.1c0.7-0.1,1.2-0.4,1.6-0.9
				c1-1.3,2.1-2.7,3.1-4c3.1-4,6.3-8.2,9.6-12.2c2.1-2.6,4-5.3,5.8-7.8c0.1-0.1,0.2-0.2,0.3-0.3c0.8-0.6,1.4-1.4,2-2.3
				c0.7-0.9,1.4-1.8,2.4-2.6l1.8-1.4l-1.1,2c-0.5,0.9-1,1.7-1.5,2.5c-0.7,1-1.3,2-1.8,3.1c0,0.1-0.1,0.2-0.2,0.3
				c-1.7,2-3.1,4.3-4.5,6.5c-0.6,0.9-1.2,1.9-1.8,2.8c-3.5,5.2-7,10.4-10.5,15.6l-0.1,0.2c-0.3,0.5-0.4,1.1-0.3,1.7
				c0.3,1.7,0,3.4-1.1,4.6c-0.9,1.1-2.2,1.7-3.7,1.7L391.8,106.6z"/>
		</g>
		<g>
			<path class="st10" d="M417.1,67.5c-1,1.9-2.4,3.6-3.3,5.5c0,0.1-0.1,0.1-0.1,0.2c-2.4,2.9-4.3,6.2-6.4,9.3
				c-3.5,5.2-7,10.4-10.5,15.6c-0.1,0.1-0.1,0.2-0.2,0.2c-0.4,0.6-0.5,1.4-0.4,2.1c0.6,2.9-1.2,5.7-4.2,5.7c0,0-0.1,0-0.1,0
				c-1.9-0.4-3.6-1.3-4-3.8l0-0.1c0-3.1,1.5-4.3,4.2-4.6c0.8-0.1,1.5-0.4,2-1.1c4.2-5.4,8.3-10.9,12.7-16.3c2.1-2.5,4-5.2,5.8-7.9
				c0-0.1,0.1-0.1,0.2-0.2C414.4,71,415.3,68.9,417.1,67.5 M420.1,64l-3.6,2.7c-1,0.8-1.8,1.7-2.5,2.7c-0.6,0.8-1.2,1.6-1.9,2.2
				c-0.1,0.1-0.3,0.2-0.4,0.4c-1.8,2.5-3.7,5.2-5.8,7.8c-3.3,4-6.5,8.2-9.7,12.3c-1,1.3-2.1,2.7-3.1,4c-0.3,0.4-0.7,0.6-1.3,0.7
				c-3.4,0.3-5.1,2.1-5.1,5.6l0,0.2l0.1,0.2l0,0c0.5,2.5,2.1,3.9,4.8,4.5l0.1,0l0.1,0l0.2,0c1.6,0,3-0.7,4-1.9
				c1.1-1.3,1.5-3.2,1.2-5c-0.1-0.5,0-1,0.2-1.4c0-0.1,0.1-0.1,0.1-0.2c3.5-5.2,7-10.4,10.5-15.6c0.6-0.9,1.2-1.9,1.9-2.8
				c1.4-2.2,2.9-4.4,4.5-6.4c0.1-0.1,0.2-0.3,0.2-0.4c0.5-1,1.1-2,1.8-3c0.5-0.8,1.1-1.6,1.5-2.5L420.1,64L420.1,64z"/>
		</g>
	</g>
	<g class="st1">
		<g>
			<path class="st10" d="M52.5,119.7c0.3,0.3,0.4,0.6,0.4,1.1v9c0,0.4-0.1,0.8-0.4,1.1c-0.3,0.3-0.6,0.4-1.1,0.4h-14
				c-0.4,0-0.6,0.2-0.6,0.6v44.6c0,0.4-0.1,0.8-0.4,1.1c-0.3,0.3-0.6,0.4-1.1,0.4H24.5c-0.4,0-0.8-0.1-1.1-0.4
				c-0.3-0.3-0.4-0.6-0.4-1.1v-44.6c0-0.4-0.2-0.6-0.6-0.6H8.9c-0.4,0-0.8-0.1-1.1-0.4c-0.3-0.3-0.4-0.6-0.4-1.1v-9
				c0-0.4,0.1-0.8,0.4-1.1c0.3-0.3,0.6-0.4,1.1-0.4h42.6C51.9,119.3,52.3,119.4,52.5,119.7z"/>
		</g>
		<g>
			<path class="st10" d="M89.1,176.7L79.3,155c-0.1-0.3-0.3-0.4-0.7-0.4h-5.2c-0.4,0-0.6,0.2-0.6,0.6v21.3c0,0.4-0.1,0.8-0.4,1.1
				c-0.3,0.3-0.6,0.4-1.1,0.4H60.5c-0.4,0-0.8-0.1-1.1-0.4c-0.3-0.3-0.4-0.6-0.4-1.1v-55.6c0-0.4,0.1-0.8,0.4-1.1
				c0.3-0.3,0.6-0.4,1.1-0.4h24.4c3.7,0,6.9,0.8,9.7,2.3c2.8,1.5,5,3.6,6.5,6.4c1.5,2.8,2.3,5.9,2.3,9.5c0,3.7-0.9,6.9-2.7,9.6
				c-1.8,2.7-4.3,4.7-7.6,5.9c-0.4,0.2-0.5,0.4-0.3,0.8l10.7,22.3l0.2,0.7c0,0.7-0.4,1.1-1.3,1.1H90.8
				C90,177.9,89.4,177.5,89.1,176.7z M72.9,131.7v11.6c0,0.4,0.2,0.6,0.6,0.6h9.1c2.1,0,3.7-0.6,5-1.7c1.3-1.1,1.9-2.7,1.9-4.6
				c0-2-0.6-3.5-1.9-4.7c-1.3-1.2-3-1.8-5-1.8h-9.1C73.1,131.2,72.9,131.4,72.9,131.7z"/>
		</g>
		<g>
			<path class="st10" d="M148.1,176.7l-1.9-6.9c-0.1-0.3-0.3-0.5-0.7-0.5h-18.9c-0.3,0-0.6,0.2-0.7,0.5l-1.9,6.9
				c-0.2,0.8-0.8,1.3-1.7,1.3h-11.8c-0.6,0-1-0.2-1.2-0.5c-0.2-0.3-0.3-0.7-0.1-1.2l17.6-55.7c0.3-0.8,0.9-1.3,1.8-1.3h14.8
				c0.9,0,1.5,0.4,1.8,1.3l17.7,55.7c0.1,0.1,0.1,0.3,0.1,0.6c0,0.7-0.4,1.1-1.3,1.1h-11.8C148.8,177.9,148.3,177.5,148.1,176.7z
				 M129.3,158.1c0,0.3,0.2,0.5,0.5,0.5h12.4c0.2,0,0.4-0.1,0.5-0.2c0.1-0.1,0.1-0.3,0-0.5l-6.4-22.3c-0.1-0.3-0.2-0.4-0.3-0.4
				c-0.1,0-0.3,0.1-0.4,0.4l-6.4,22.3V158.1z"/>
		</g>
		<g>
			<path class="st10" d="M169.6,177.5c-0.3-0.3-0.4-0.6-0.4-1.1v-55.6c0-0.4,0.1-0.8,0.4-1.1c0.3-0.3,0.6-0.4,1.1-0.4h20.9
				c4.4,0,8.2,0.8,11.6,2.3c3.4,1.5,5.9,3.7,7.8,6.5c1.8,2.8,2.8,6,2.8,9.6v22c0,3.6-0.9,6.8-2.8,9.6c-1.8,2.8-4.4,4.9-7.8,6.5
				c-3.4,1.5-7.2,2.3-11.6,2.3h-20.9C170.2,177.9,169.9,177.8,169.6,177.5z M183.7,166h8.5c2.2,0,4-0.8,5.4-2.4
				c1.4-1.6,2.1-3.7,2.2-6.4V140c0-2.7-0.7-4.8-2.1-6.4c-1.4-1.6-3.3-2.4-5.6-2.4h-8.4c-0.4,0-0.6,0.2-0.6,0.6v33.7
				C183.1,165.8,183.3,166,183.7,166z"/>
		</g>
		<g>
			<path class="st10" d="M262.2,130.7c-0.3,0.3-0.6,0.4-1.1,0.4h-25.6c-0.4,0-0.6,0.2-0.6,0.6v10c0,0.4,0.2,0.6,0.6,0.6h16.2
				c0.4,0,0.8,0.1,1.1,0.4c0.3,0.3,0.4,0.6,0.4,1.1v8.8c0,0.4-0.1,0.8-0.4,1.1c-0.3,0.3-0.6,0.4-1.1,0.4h-16.2
				c-0.4,0-0.6,0.2-0.6,0.6v10.7c0,0.4,0.2,0.6,0.6,0.6h25.6c0.4,0,0.8,0.1,1.1,0.4c0.3,0.3,0.4,0.6,0.4,1.1v8.9
				c0,0.4-0.1,0.8-0.4,1.1c-0.3,0.3-0.6,0.4-1.1,0.4h-38.6c-0.4,0-0.8-0.1-1.1-0.4c-0.3-0.3-0.4-0.6-0.4-1.1v-55.6
				c0-0.4,0.1-0.8,0.4-1.1c0.3-0.3,0.6-0.4,1.1-0.4h38.6c0.4,0,0.8,0.1,1.1,0.4c0.3,0.3,0.4,0.6,0.4,1.1v8.9
				C262.6,130.1,262.5,130.5,262.2,130.7z"/>
		</g>
		<g>
			<path class="st10" d="M278.5,176.4c-3.4-1.5-6-3.6-7.8-6.4s-2.8-6-2.8-9.6v-1.1c0-0.4,0.1-0.8,0.4-1.1c0.3-0.3,0.6-0.4,1.1-0.4
				H280c0.4,0,0.8,0.1,1.1,0.3c0.3,0.2,0.4,0.4,0.4,0.7v1c0,1.8,0.9,3.4,2.7,4.8c1.8,1.4,4.1,2.1,7,2.1c2.5,0,4.3-0.5,5.4-1.6
				c1.2-1.1,1.8-2.3,1.8-3.7c0-1.6-0.7-2.8-2.1-3.6c-1.4-0.8-3.8-1.8-7.3-2.9l-1.8-0.6c-3.6-1.2-6.7-2.4-9.4-3.8
				c-2.7-1.4-5-3.3-6.9-5.7c-1.9-2.4-2.8-5.4-2.8-9c0-3.5,0.9-6.5,2.7-9.1c1.8-2.6,4.3-4.6,7.5-6c3.2-1.4,6.9-2.1,10.9-2.1
				c4.3,0,8.2,0.8,11.6,2.3c3.4,1.6,6.1,3.8,8.1,6.6c2,2.8,2.9,6.1,2.9,9.8v0.7c0,0.4-0.1,0.8-0.4,1.1c-0.3,0.3-0.6,0.4-1.1,0.4
				h-10.6c-0.4,0-0.8-0.1-1.1-0.2c-0.3-0.1-0.4-0.3-0.4-0.6v-0.8c0-2-0.9-3.7-2.6-5.2c-1.7-1.5-4.1-2.3-7-2.3
				c-2.2,0-3.9,0.4-5.1,1.3c-1.2,0.9-1.8,2.2-1.8,3.8c0,1.2,0.4,2.2,1.2,3.1c0.8,0.8,2,1.6,3.6,2.3c1.6,0.7,4.2,1.6,7.6,2.7
				c3.9,1.3,7,2.5,9.1,3.5c2.2,1,4.2,2.6,6.2,4.9c1.9,2.3,2.9,5.2,2.9,8.9c0,3.5-0.9,6.6-2.8,9.3c-1.8,2.7-4.4,4.7-7.8,6.2
				c-3.4,1.5-7.2,2.2-11.6,2.2C285.8,178.6,281.9,177.8,278.5,176.4z"/>
		</g>
	</g>
	<g class="st1">
		<g>
			<path class="st14" d="M353,176.8l-2-7c-0.1-0.3-0.3-0.5-0.7-0.5H331c-0.3,0-0.6,0.2-0.7,0.5l-2,7c-0.2,0.9-0.8,1.3-1.7,1.3h-12.1
				c-0.6,0-1-0.2-1.2-0.5c-0.2-0.3-0.3-0.7-0.1-1.2l18-57c0.3-0.9,0.9-1.3,1.8-1.3h15.2c1,0,1.6,0.4,1.8,1.3l18.1,57
				c0.1,0.1,0.1,0.3,0.1,0.6c0,0.7-0.5,1.1-1.4,1.1h-12.1C353.8,178,353.3,177.6,353,176.8z M333.8,157.7c0,0.3,0.2,0.5,0.5,0.5H347
				c0.2,0,0.4-0.1,0.5-0.2c0.1-0.1,0.1-0.3,0-0.5l-6.5-22.8c-0.1-0.3-0.2-0.4-0.3-0.4c-0.1,0-0.3,0.1-0.4,0.4l-6.5,22.8V157.7z"/>
		</g>
		<g>
			<path class="st14" d="M375.1,177.6c-0.3-0.3-0.4-0.7-0.4-1.1v-56.9c0-0.5,0.1-0.8,0.4-1.1c0.3-0.3,0.7-0.4,1.1-0.4h21.3
				c4.5,0,8.4,0.8,11.8,2.3c3.4,1.5,6.1,3.7,8,6.6c1.9,2.9,2.8,6.1,2.8,9.9v22.5c0,3.7-0.9,7-2.8,9.9c-1.9,2.9-4.5,5.1-8,6.6
				c-3.4,1.5-7.4,2.3-11.8,2.3h-21.3C375.7,178,375.3,177.9,375.1,177.6z M389.5,165.9h8.7c2.3,0,4.1-0.8,5.6-2.4
				c1.4-1.6,2.2-3.8,2.2-6.6v-17.7c0-2.7-0.7-4.9-2.2-6.6c-1.5-1.6-3.4-2.4-5.7-2.4h-8.6c-0.4,0-0.6,0.2-0.6,0.6v34.5
				C388.9,165.7,389.1,165.9,389.5,165.9z"/>
		</g>
		<g>
			<path class="st14" d="M427.9,177.6c-0.3-0.3-0.4-0.7-0.4-1.1v-56.9c0-0.5,0.1-0.8,0.4-1.1c0.3-0.3,0.7-0.4,1.1-0.4H440
				c0.8,0,1.4,0.3,1.8,1l11.4,18.4c0.3,0.4,0.6,0.4,0.9,0l11.5-18.4c0.4-0.7,1-1,1.8-1h11.1c0.5,0,0.8,0.1,1.1,0.4
				c0.3,0.3,0.4,0.7,0.4,1.1v56.9c0,0.5-0.1,0.8-0.4,1.1c-0.3,0.3-0.7,0.4-1.1,0.4h-11.1c-0.5,0-0.8-0.1-1.1-0.4
				c-0.3-0.3-0.4-0.7-0.4-1.1V143c0-0.3-0.1-0.5-0.3-0.5c-0.2-0.1-0.3,0.1-0.4,0.3l-6.9,11.3c-0.4,0.7-1,1-1.8,1h-5.2
				c-0.8,0-1.4-0.3-1.8-1l-6.9-11.3c-0.1-0.3-0.3-0.4-0.4-0.3c-0.2,0.1-0.3,0.2-0.3,0.5v33.5c0,0.5-0.1,0.8-0.4,1.1
				c-0.3,0.3-0.7,0.4-1.1,0.4H429C428.5,178,428.2,177.9,427.9,177.6z"/>
		</g>
		<g>
			<path class="st14" d="M488.9,177.6c-0.3-0.3-0.4-0.7-0.4-1.1v-56.9c0-0.5,0.1-0.8,0.4-1.1c0.3-0.3,0.7-0.4,1.1-0.4h11.1
				c0.5,0,0.8,0.1,1.1,0.4c0.3,0.3,0.4,0.7,0.4,1.1v56.9c0,0.5-0.1,0.8-0.4,1.1c-0.3,0.3-0.7,0.4-1.1,0.4H490
				C489.5,178,489.2,177.9,488.9,177.6z"/>
		</g>
		<g>
			<path class="st14" d="M511.7,177.6c-0.3-0.3-0.4-0.7-0.4-1.1v-56.9c0-0.5,0.1-0.8,0.4-1.1c0.3-0.3,0.7-0.4,1.1-0.4h10.5
				c0.8,0,1.4,0.3,1.8,1L544,151c0.1,0.2,0.3,0.3,0.4,0.3c0.2-0.1,0.3-0.2,0.3-0.5l-0.1-31.1c0-0.5,0.1-0.8,0.4-1.1
				c0.3-0.3,0.7-0.4,1.1-0.4h11c0.5,0,0.8,0.1,1.1,0.4c0.3,0.3,0.4,0.7,0.4,1.1v56.9c0,0.5-0.1,0.8-0.4,1.1
				c-0.3,0.3-0.7,0.4-1.1,0.4h-10.5c-0.7,0-1.3-0.3-1.8-1l-18.9-32.3c-0.1-0.3-0.3-0.4-0.5-0.3c-0.2,0.1-0.3,0.2-0.3,0.5l0.2,31.6
				c0,0.5-0.1,0.8-0.4,1.1c-0.3,0.3-0.7,0.4-1.1,0.4h-11C512.3,178,512,177.9,511.7,177.6z"/>
		</g>
	</g>
	<path class="st20" d="M427.7,136.4"/>
	<path class="st20" d="M424.8,131.6"/>
	<path class="st19" d="M424.8,131.6"/>
	<g class="st1">
		<path class="st10" d="M22.2,110.6c0.3,0,0.6-0.3,0.6-0.6c0-10.3-0.1-13.8,0.1-24.4c0.1-2,1.4-4.7,3-5.7
			c22.4-13.1,44.8-26.1,67.4-38.9c1.5-0.9,4.4-1,5.8-0.2c22.4,12.7,44.6,25.7,67,38.4c2.9,1.6,3.6,3.6,3.6,6.7c0,0,0,20.3-0.1,23.9
			c0,0.3,0.2,0.6,0.6,0.6h14.1c0.3,0,0.6-0.3,0.6-0.6c0-15.5-0.2-17.3,0.1-32.5c0.1-3.8-1.3-5.6-4.4-7.4
			c-26.8-15.4-53.6-30.8-80.4-46.4c-3-1.7-5.1-1.7-8,0c-26.7,15.6-53.5,31-80.4,46.4c-2.9,1.6-4.2,3.3-4.2,6.8
			C8,91,7.8,96.4,7.8,110c0,0.3,0.2,0.6,0.6,0.6L22.2,110.6z"/>
	</g>
</g>
</svg>
