<?xml version="1.0" encoding="utf-8"?>
<!-- Generator: Adobe Illustrator 27.5.0, SVG Export Plug-In . SVG Version: 6.00 Build 0)  -->
<svg version="1.1" id="Layer_1" xmlns="http://www.w3.org/2000/svg" xmlns:xlink="http://www.w3.org/1999/xlink" x="0px" y="0px"
	 viewBox="0 0 400 251" style="enable-background:new 0 0 400 251;" xml:space="preserve">
<style type="text/css">
	.st0{fill:#FFFFFF;}
</style>
<g>
	<path d="M230.8,100.9c-0.1,4.4-0.5,8.8-1.1,13.2c-0.5,3.2-1.2,6.3-2.3,9.2c-2.1,5.4-4.9,10.3-9.4,14c-4,3.4-8.6,5.5-13.9,6
		c-4.2,0.4-8.4,0.4-12.5-0.6c-5.5-1.3-10-4.3-13.7-8.5c-2.4-2.7-4.1-5.7-5.5-9c-1.9-4.2-2.8-8.6-3.4-13.2c-0.6-4.3-0.9-8.5-0.8-12.8
		c0.1-5,0.6-9.9,1.6-14.8c1.2-5.7,3.3-11,6.9-15.6c4-5.2,9.1-9,15.7-10.3c6.1-1.2,12.2-1.1,18.1,1.2c4,1.5,7.4,4.1,10.3,7.3
		c4,4.7,6.6,10.1,8,16.1c0.7,3.1,1.2,6.3,1.5,9.5C230.7,95.5,230.7,98.2,230.8,100.9z M170.4,100.9c0.2,3,0.4,6.1,0.7,9.1
		c0.4,3.7,1,7.3,2.2,10.8c1.6,4.5,3.5,8.8,6.8,12.4c3.3,3.6,7.1,6.2,11.9,7.3c4.5,1.1,9.1,1.2,13.6,0.2c1.8-0.4,3.6-0.9,5.3-1.6
		c4-1.8,7.1-4.7,9.7-8.2c2.9-3.9,4.6-8.3,5.8-12.9c1.4-5.2,1.9-10.5,2-15.9c0.1-4.4-0.3-8.8-0.9-13.2c-0.8-5.3-2.3-10.3-4.9-15
		c-3.4-6.2-8.3-10.8-15.3-12.8c-3.4-1-6.8-1.1-10.3-0.9c-3.1,0.2-6.1,0.8-8.9,2.1c-5.2,2.4-9.1,6.4-11.8,11.3
		c-2.2,4-3.7,8.2-4.5,12.7C171,91.3,170.6,96.1,170.4,100.9z"/>
	<path d="M282.3,59.3c0,0.7,0,1.4,0,2.1c0,18.8,0,37.6,0,56.4c0,0.5,0.1,0.6,0.6,0.6c4.6,0,9.2,0,13.9,0c0.1,0,0.3,0.2,0.4,0.4
		c0,0,0,0,0,0.1c0.1,2.4,0.3,2-1.8,2c-4,0-8,0-12,0c-1.3,0-1.1-0.1-1.1,1.2c0,6.6,0,13.1,0,19.7c0,0.6-0.1,0.9-0.8,0.8
		c-0.1,0-0.2,0-0.4,0c-1.2,0-1.2,0-1.2-1.2c0-5.4,0.1-10.7,0.1-16.1c0-1.4,0-2.8,0-4.3c-0.3,0-0.5,0-0.7,0c-13.1,0-26.1,0-39.2,0
		c-0.6,0-1.3,0-1.9,0c-0.4,0-0.5-0.1-0.5-0.5c0,0,0-0.1,0-0.1c-0.2-1.6,0.4-2.9,1.4-4.2c3.7-5,7.2-10.1,10.8-15.2
		c4.1-5.8,8.2-11.5,12.3-17.2c5.3-7.5,10.7-15.1,16-22.6c0.3-0.4,0.6-0.9,0.9-1.3c0.1-0.1,0.3-0.3,0.4-0.3
		C280.3,59.2,281.2,59.3,282.3,59.3z M240.1,118.2c0.3,0,0.4,0,0.6,0c1.2,0,2.3,0,3.5,0c11.7,0,23.5,0,35.2,0c0.4,0,0.5-0.1,0.5-0.4
		c0-0.2,0-0.3,0-0.5c0-15,0-29.9,0-44.9c0-3.1,0-6.1,0-9.2c0-0.2-0.1-0.5-0.1-0.7c-0.1,0-0.1,0-0.2,0
		C266.4,81.1,253.3,99.6,240.1,118.2z"/>
	<path d="M146.4,120.8c0,2.5,0,4.9,0,7.3c0,4.6,0,9.2,0,13.7c0,0.5-0.1,0.7-0.6,0.6c-0.5,0-1,0-1.4,0c-0.3,0-0.4-0.1-0.4-0.4
		c0-6.9,0-13.7,0-20.6c0-0.2,0-0.4,0-0.6c-0.5,0-1,0-1.5,0c-13.2,0-26.4,0-39.6,0c-0.2,0-0.4,0-0.6,0c-0.4,0-0.5-0.2-0.5-0.5
		c-0.1-1.4,0.1-2.6,1-3.8c5-6.9,10-14,14.9-21c8.1-11.4,16.2-22.9,24.4-34.3c0.3-0.4,0.6-0.9,0.9-1.3c0.2-0.4,0.6-0.5,1-0.5
		c0.6,0,1.3,0,1.9,0c0.4,0,0.5,0.1,0.5,0.5c0,13.2,0,26.5,0,39.7c0,6,0,12.1,0,18.1c0,0.6,0.2,0.7,0.7,0.7c4.6,0,9.1,0,13.7,0
		c0.5,0,0.7,0.1,0.7,0.6c0,0.4,0,0.8,0,1.2c0,0.5-0.1,0.7-0.6,0.6c-1.2,0-2.3,0-3.5,0c-3.4,0-6.9,0-10.3,0
		C146.8,120.7,146.6,120.8,146.4,120.8z M144,118.2c0-0.3,0-0.5,0-0.7c0-17.9,0-35.8,0-53.7c0-0.2,0-0.4,0-0.6
		c0-0.2-0.1-0.3-0.2-0.5c-0.1,0.1-0.3,0.2-0.4,0.3c-0.4,0.6-0.8,1.2-1.3,1.8c-3.3,4.6-6.5,9.1-9.8,13.7c-3.6,5.1-7.1,10.1-10.7,15.2
		c-5.5,7.8-11,15.6-16.5,23.3c-0.3,0.4-0.5,0.7-0.9,1.2C117.5,118.2,130.7,118.2,144,118.2z"/>
	<path d="M145.5,193.7c-0.7,1.1-1.5,2.1-2.6,2.7c-2.7,1.5-6.4,1-8.2-1.3c-0.6-0.8-1.1-1.8-1.3-2.7c-0.6-2.4-0.5-4.8,0.7-7
		c1.4-2.5,3.8-3.4,6.7-3c1.9,0.2,3.4,1.2,4.3,2.9c0.1,0.2,0.2,0.3,0.5,0.4c0.1-1.1,0.1-2.2,0.2-3.3c0.1,0,0.2,0,0.3,0
		c0.1,0.3,0.2,0.7,0.2,1c0,1.2,0,2.5,0,3.7c0,3.5,0,7.1,0,10.6c0,0.8-0.1,1.7-0.3,2.5c-0.7,2.2-2.4,3.1-4.5,3.4
		c-1.6,0.2-3.2,0.2-4.7-0.5c-1.9-0.8-2.6-2.3-2.7-4.1c0-0.1,0.1-0.3,0.2-0.4c0.1,0.1,0.3,0.2,0.4,0.4c0.2,0.6,0.3,1.2,0.6,1.8
		c0.8,1.6,2.3,2.1,4,2.3c1.2,0.1,2.4-0.1,3.5-0.5c1.4-0.5,2.2-1.5,2.7-2.8C145.9,197.8,145.5,195.7,145.5,193.7z M145.5,189.8
		c0-0.6,0-1.2-0.2-1.7c-0.8-3.6-3.3-5.7-7.1-5c-1.8,0.4-3.1,1.6-3.8,3.3c-0.7,1.7-1,3.4-0.6,5.2c0.6,2.7,2.4,4.7,4.9,5
		c2.6,0.3,4.6-0.9,5.8-3C145.3,192.5,145.6,191.2,145.5,189.8z"/>
	<path d="M188.7,196.9c0-0.8,0-1.7,0-2.5c0-5.7,0-11.4,0-17.1c0-0.2-0.1-0.4,0-0.6c0-0.1,0.2-0.3,0.3-0.3c0.1,0,0.3,0.1,0.4,0.3
		c0.1,0.1,0,0.3,0,0.4c0,6.6,0,13.2,0,19.8c0,0.2,0,0.4,0,0.6c-0.1,0.2-0.1,0.5-0.2,0.6c-0.2,0-0.6,0-0.7-0.2
		c-0.3-0.2-0.5-0.5-0.7-0.8c-3.6-5.1-7.2-10.2-10.8-15.3c-0.9-1.2-1.7-2.5-2.5-3.7c-0.1-0.2-0.3-0.3-0.4-0.4
		c-0.1,0.2-0.2,0.4-0.2,0.5c0,1.6,0,3.2,0,4.8c0,4.7,0,9.3,0,14c0,0.2,0,0.4,0,0.6c-0.1,0.2-0.2,0.3-0.3,0.5
		c-0.1-0.2-0.3-0.3-0.3-0.5c-0.1-0.3-0.1-0.7-0.1-1.1c0-6.4,0-12.9,0.1-19.3c0-0.3,0.1-0.6,0.2-0.9c0.3,0.1,0.8,0.2,1,0.4
		c0.7,0.9,1.3,1.8,2,2.8c2.3,3.3,4.7,6.6,7,9.8c1.7,2.3,3.3,4.7,5,7c0.1,0.1,0.2,0.2,0.3,0.4C188.6,196.9,188.6,196.9,188.7,196.9z"
		/>
	<path d="M102.1,187.4c0-3.3,0-6.7,0-10c0-0.9,0-1,1-1c3.1,0,6.2,0,9.3,0.2c2.1,0.1,3.9,1,4.6,3.2c1.3,4.1-0.4,8-5.1,8.4
		c-2.6,0.2-5.3,0.1-7.9,0.1c-1.1,0-1.1,0-1.1,1.1c0,2.7,0,5.3,0,8c0,0.2-0.1,0.4-0.2,0.6c0,0.1-0.3,0.1-0.4,0
		c-0.1-0.1-0.2-0.3-0.2-0.5c0-2,0-4,0.1-5.9C102.1,190.2,102.1,188.8,102.1,187.4C102.1,187.4,102.1,187.4,102.1,187.4z
		 M102.8,182.3C102.8,182.3,102.8,182.3,102.8,182.3c0,1.5,0,3,0,4.4c0,0.6,0.2,0.9,0.8,0.9c2.7,0,5.5,0,8.2-0.1
		c2.9-0.1,4.9-2.2,5-5.2c0.1-2.8-1.7-4.8-4.5-5c-3-0.1-5.9-0.1-8.9-0.1c-0.4,0-0.6,0.1-0.6,0.6C102.8,179.4,102.8,180.8,102.8,182.3
		z"/>
	<path d="M296.1,185.8c0-0.9,0-1.7,0-2.6c0-2,0-4.1,0-6.1c0-0.4,0-0.7,0.6-0.6c0,0.4,0,0.8,0,1.1c0,4.5-0.1,8.9-0.1,13.4
		c0,2,0,4.1,0.1,6.1c0,0.2,0,0.4,0,0.6c-0.1,0.2-0.2,0.3-0.3,0.4c-0.1-0.1-0.4-0.3-0.4-0.4c0-0.8,0.1-1.6,0.1-2.4c0-0.2,0-0.4,0-0.8
		c-0.3,0.3-0.5,0.4-0.6,0.6c-1.6,3-4.4,3.7-7.1,3.1c-2.6-0.5-4.1-2.3-4.7-4.8c-0.7-2.9-0.6-5.8,1-8.5c1.9-3.4,8.3-4,10.8,0.2
		c0.2,0.3,0.3,0.5,0.5,0.8C296,185.9,296.1,185.9,296.1,185.8z M296.2,190.4c-0.1-0.8-0.1-1.7-0.3-2.5c-0.6-2.6-2.1-4.4-4.8-4.9
		c-3-0.5-4.7,0.3-6.1,2.8c-1.6,2.7-1.7,5.7-0.3,8.6c1.1,2.2,2.9,3.5,5.5,3.4c2.3-0.1,4-1.3,5-3.3
		C295.9,193.2,296.3,191.9,296.2,190.4z"/>
	<path d="M119.5,187.5c-0.2-2.4,1.5-4.6,3.7-5c1.4-0.3,2.8-0.3,4.2,0c1.5,0.3,2.6,1.4,2.8,2.9c0.2,1.4,0.3,2.8,0.3,4.2
		c0,2.2,0,4.5-0.1,6.7c0,0.8,0.2,1.1,1.1,1.1c0.2,0,0.4,0,0.5,0c0.1,0.1,0.3,0.2,0.3,0.4c0,0.1-0.2,0.3-0.3,0.3
		c-1.3,0.3-2.2-0.4-2.1-1.7c0-0.3,0-0.6,0-1.1c-0.3,0.3-0.6,0.4-0.8,0.7c-2.3,2.8-5.9,2.9-8.4,1.9c-1.4-0.6-2.3-1.6-2.2-3.2
		c0-0.7,0-1.5,0.2-2.2c0.5-1.9,2-2.5,3.8-2.7c1.4-0.1,2.8-0.1,4.2-0.3c0.8-0.1,1.6-0.3,2.3-0.7c0.4-0.2,0.8-0.8,0.8-1.2
		c0.2-2.2-0.4-3.9-2.8-4.5c-1.6-0.4-3.2-0.3-4.7,0.5c-1.3,0.7-2,1.8-2.2,3.2C120.1,187.1,120.1,187.5,119.5,187.5z M129.9,189.5
		c-0.1,0-0.2,0-0.3,0c-2,0.5-4,0.7-6,0.8c-0.8,0-1.6,0.2-2.4,0.4c-1.3,0.4-1.9,1.5-2.1,2.8c-0.2,1.4,0.2,2.6,1.4,3.5
		c0.8,0.6,1.8,0.7,2.8,0.8c2.5,0.2,5.2-1.1,6.2-3.8C130,192.5,129.8,191,129.9,189.5z"/>
	<path d="M155.8,190.5c-1.9,0-3.8,0-5.7,0c-0.4,0-0.7,0.1-0.7,0.5c0,1.9,0.3,3.6,1.7,5c1.7,1.8,3.9,2,6.2,1.5
		c2.3-0.6,3.6-2.1,4.1-4.4c0-0.2,0.3-0.3,0.5-0.4c0.1,0.2,0.2,0.4,0.2,0.6c-0.5,3.5-3.4,5.1-6.3,5.2c-1.3,0-2.5-0.1-3.6-0.7
		c-1.1-0.6-1.9-1.5-2.4-2.7c-1-2.5-1.2-5.1-0.5-7.7c1-3.8,4.3-5.8,8.1-4.9c2.9,0.7,4.3,2.7,4.9,5.4c0.1,0.7,0.1,1.4,0.2,2
		c0,0.5-0.2,0.6-0.7,0.6C159.7,190.5,157.7,190.5,155.8,190.5z M155.4,189.8C155.4,189.8,155.4,189.8,155.4,189.8c1.6,0,3.3,0,4.9,0
		c1.2,0,1.2,0,1.1-1.3c-0.1-2.3-2-5-4.4-5.4c-1.6-0.3-3.3-0.3-4.7,0.7c-1.9,1.3-2.9,3.2-3,5.5c0,0.4,0.1,0.6,0.6,0.6
		C151.8,189.8,153.6,189.8,155.4,189.8z"/>
	<path d="M223.6,187.4c0-3.1,0-6.2,0-9.3c0-1.6,0-1.7,1.6-1.7c3.7,0,7.4,0,11.1,0c0.1,0,0.3,0,0.4,0c0.2,0.1,0.3,0.3,0.4,0.4
		c-0.2,0.1-0.3,0.3-0.5,0.3c-0.6,0.1-1.3,0.1-1.9,0.1c-3.1,0-6.3,0-9.4,0c-0.9,0-0.9,0-0.9,0.9c0,2.4,0,4.8-0.1,7.2c0,1,0,1,1,1
		c3.3,0,6.5,0,9.8,0c0.1,0,0.2,0,0.2,0c0.2,0.1,0.3,0.2,0.5,0.3c-0.1,0.1-0.3,0.3-0.5,0.3c-0.3,0.1-0.6,0.1-0.9,0.1
		c-3.2,0-6.5,0-9.7,0c-0.4,0-0.5,0.1-0.5,0.5c0,3.3,0.1,6.6,0.1,9.9c0,0.3,0.1,0.6-0.4,0.5c-0.1,0-0.3-0.3-0.3-0.5
		C223.6,194.2,223.6,190.8,223.6,187.4z"/>
	<path d="M191.7,190.6c-0.1-2.5,0.5-4.6,2.2-6.4c2.8-3,8.8-2.5,10.7,1.5c1.4,3.1,1.5,6.1,0.1,9.1c-1.4,3-4.5,4-7.6,3.4
		c-3.3-0.7-4.8-3.4-5.3-6.3C191.7,191.4,191.7,191,191.7,190.6z M204.9,190.5c0-2.8-0.7-4.9-2.8-6.5c-1.6-1.1-3.3-1.3-5.2-0.8
		c-1.8,0.5-3,1.6-3.8,3.3c-1.6,3.5-1.1,7.4,1.7,9.9c1.9,1.8,5.5,1.9,7.4,0.2C204.1,195,204.9,192.9,204.9,190.5z"/>
	<path d="M237.5,190.3c-0.1-2.4,0.6-4.5,2.3-6.2c2.5-2.6,8.6-2.8,10.7,2.1c1.3,3.1,1.2,6.2-0.4,9.1c-1,2-2.8,2.9-5,3.1
		c-4.8,0.4-7.5-3.2-7.6-7.2C237.5,190.8,237.5,190.5,237.5,190.3z M250.7,189.8c-0.2-1.6-0.5-3.6-2.1-5.2c-2.7-2.5-6.8-2.2-9,0.8
		c-0.7,1-1.1,2.1-1.4,3.3c-0.6,2.3,0,4.5,1.3,6.4c2.4,3.7,7.3,3.4,9.6,0.6C250.3,194.1,250.8,192.3,250.7,189.8z"/>
	<path d="M269.6,185.6c0.2-0.3,0.4-0.4,0.5-0.6c0.9-1.7,2.4-2.5,4.2-2.7c1.8-0.2,3.5,0.1,4.9,1.4c0.9,0.9,1.4,1.9,1.5,3.1
		c0.1,3.6,0,7.2,0,10.7c0,0.2-0.2,0.4-0.3,0.6c-0.1-0.2-0.4-0.4-0.4-0.6c0-3.2,0-6.5-0.1-9.7c0-0.8-0.1-1.6-0.5-2.3
		c-1-2.1-2.4-2.6-4.8-2.6c-2.9,0.1-4.9,2.5-5.1,5c-0.1,2-0.1,4-0.1,5.9c0,1.2,0,2.5,0,3.7c0,0.2-0.2,0.4-0.3,0.5
		c-0.1-0.2-0.3-0.3-0.3-0.5c0-1.8-0.1-3.6-0.1-5.4c0-2.9,0-5.8,0.1-8.7c0-0.1,0-0.3,0-0.4c0.1-0.2,0.2-0.3,0.3-0.4
		c0.1,0.1,0.3,0.3,0.3,0.4C269.6,183.8,269.6,184.6,269.6,185.6z"/>
	<path d="M265.4,198.2c-0.6-0.8-0.2-1.8-0.4-2.8c-0.2,0.2-0.3,0.3-0.4,0.4c-1.5,2.3-3.7,2.9-6.3,2.5c-1.5-0.2-2.8-0.8-3.5-2.2
		c-0.4-0.8-0.7-1.6-0.7-2.4c-0.1-3.5-0.1-7-0.1-10.4c0-0.1,0-0.3,0-0.4c0.1-0.1,0.2-0.2,0.3-0.2c0.1,0,0.2,0.2,0.2,0.3
		c0,0.5,0,1,0,1.4c0,2.6,0,5.3,0,7.9c0,1.2,0.1,2.3,0.7,3.4c1.1,2,3.8,2.6,5.9,1.9c2.3-0.7,3.3-2.4,3.7-4.7c0.1-0.6,0.1-1.2,0.1-1.7
		c0-2.5,0-5.1,0-7.6c0-0.2,0-0.4,0-0.6c0-0.1,0.2-0.2,0.3-0.3c0.1,0.1,0.3,0.2,0.3,0.3c0.1,0.3,0.1,0.6,0.1,0.9c0,4.6,0,9.3,0,13.9
		c0,0.2-0.1,0.4-0.1,0.6C265.5,198.2,265.5,198.2,265.4,198.2z"/>
	<path d="M213.1,197.3c0.2,0.7,0.1,0.8-0.6,0.8c-0.8,0-1.5,0-2.2-0.4c-0.5-0.3-0.9-0.8-0.9-1.4c-0.1-2.9-0.1-5.8-0.1-8.7
		c0-1.2,0-2.5,0-3.7c0-0.4-0.1-0.6-0.6-0.6c-0.6,0-1.2,0-1.8,0c-0.2,0-0.4-0.3-0.6-0.5c0.2-0.1,0.4-0.3,0.6-0.3c0.5,0,1.1,0,1.6,0
		c0.6,0.1,0.7-0.2,0.7-0.8c0-1.1,0-2.2,0-3.4c0-0.1,0-0.2,0-0.3c0.1-0.1,0.2-0.3,0.3-0.4c0.1,0.1,0.3,0.3,0.3,0.4c0,0.9,0,1.7,0,2.6
		c-0.1,2.3-0.1,1.8,1.8,1.9c0.4,0,0.7,0,1.1,0c0.2,0,0.6,0.2,0.6,0.3c0.1,0.4-0.3,0.4-0.6,0.4c-0.7,0-1.5,0.1-2.2,0
		c-0.5,0-0.7,0.1-0.7,0.7c0,3.6,0,7.2,0,10.9c0,0.2,0,0.4,0,0.6c0.1,1.3,0.6,1.8,1.9,1.8C212.2,197.3,212.6,197.3,213.1,197.3z"/>
	<path class="st0" d="M170.4,100.9c0.2-4.8,0.6-9.7,1.5-14.4c0.8-4.5,2.3-8.7,4.5-12.7c2.8-5,6.6-8.9,11.8-11.3
		c2.8-1.3,5.8-2,8.9-2.1c3.5-0.2,6.9-0.1,10.3,0.9c7,2,11.9,6.5,15.3,12.8c2.6,4.7,4.1,9.7,4.9,15c0.6,4.4,1,8.8,0.9,13.2
		c-0.1,5.4-0.6,10.7-2,15.9c-1.2,4.6-2.9,9-5.8,12.9c-2.6,3.5-5.7,6.4-9.7,8.2c-1.7,0.7-3.5,1.3-5.3,1.6c-4.5,1-9.1,0.8-13.6-0.2
		c-4.8-1.1-8.6-3.8-11.9-7.3c-3.3-3.6-5.3-7.8-6.8-12.4c-1.2-3.5-1.8-7.1-2.2-10.8C170.8,107,170.6,104,170.4,100.9z"/>
	<path class="st0" d="M240.1,118.2c13.2-18.6,26.4-37.1,39.5-55.7c0.1,0,0.1,0,0.2,0c0,0.2,0.1,0.5,0.1,0.7c0,3.1,0,6.1,0,9.2
		c0,15,0,29.9,0,44.9c0,0.2,0,0.3,0,0.5c0,0.4-0.1,0.4-0.5,0.4c-11.7,0-23.5,0-35.2,0c-1.2,0-2.3,0-3.5,0
		C240.5,118.3,240.3,118.2,240.1,118.2z"/>
	<path class="st0" d="M144,118.2c-13.3,0-26.5,0-39.9,0c0.4-0.5,0.7-0.8,0.9-1.2c5.5-7.8,11-15.5,16.5-23.3
		c3.6-5.1,7.1-10.1,10.7-15.2c3.3-4.6,6.5-9.1,9.8-13.7c0.4-0.6,0.8-1.2,1.3-1.8c0.1-0.1,0.2-0.2,0.4-0.3c0.1,0.2,0.2,0.3,0.2,0.5
		c0,0.2,0,0.4,0,0.6c0,17.9,0,35.8,0,53.7C144,117.8,144,118,144,118.2z"/>
	<path class="st0" d="M145.5,189.8c0.1,1.4-0.2,2.7-0.9,3.8c-1.2,2.1-3.2,3.2-5.8,3c-2.6-0.3-4.4-2.3-4.9-5
		c-0.4-1.8-0.2-3.6,0.6-5.2c0.7-1.7,2-2.9,3.8-3.3c3.8-0.7,6.3,1.4,7.1,5C145.5,188.6,145.5,189.2,145.5,189.8z"/>
	<path class="st0" d="M102.8,182.3c0-1.5,0-3,0-4.4c0-0.4,0.2-0.6,0.6-0.6c3,0,5.9,0,8.9,0.1c2.8,0.1,4.6,2.2,4.5,5
		c-0.1,2.9-2,5-5,5.2c-2.7,0.1-5.5,0.1-8.2,0.1c-0.6,0-0.8-0.2-0.8-0.9C102.8,185.3,102.8,183.8,102.8,182.3
		C102.8,182.3,102.8,182.3,102.8,182.3z"/>
	<path class="st0" d="M296.2,190.4c0.1,1.5-0.3,2.8-1,4.1c-1.1,2-2.7,3.2-5,3.3c-2.6,0.1-4.4-1.2-5.5-3.4c-1.4-2.9-1.3-5.9,0.3-8.6
		c1.4-2.5,3.1-3.3,6.1-2.8c2.7,0.5,4.2,2.3,4.8,4.9C296.1,188.7,296.1,189.6,296.2,190.4z"/>
	<path class="st0" d="M129.9,189.5c-0.1,1.5,0.1,2.9-0.4,4.4c-1,2.7-3.7,4-6.2,3.8c-1-0.1-1.9-0.2-2.8-0.8c-1.2-0.9-1.7-2.1-1.4-3.5
		c0.2-1.3,0.8-2.4,2.1-2.8c0.8-0.2,1.6-0.4,2.4-0.4c2-0.1,4-0.3,6-0.8C129.7,189.5,129.7,189.5,129.9,189.5z"/>
	<path class="st0" d="M155.4,189.8c-1.8,0-3.7,0-5.5,0c-0.5,0-0.6-0.2-0.6-0.6c0.1-2.3,1.2-4.2,3-5.5c1.4-1,3.1-1,4.7-0.7
		c2.4,0.5,4.3,3.2,4.4,5.4c0,1.2,0.1,1.2-1.1,1.3C158.7,189.8,157.1,189.8,155.4,189.8C155.4,189.8,155.4,189.8,155.4,189.8z"/>
	<path class="st0" d="M204.9,190.5c0,2.4-0.8,4.5-2.7,6.1c-2,1.7-5.6,1.6-7.4-0.2c-2.7-2.6-3.3-6.4-1.7-9.9c0.8-1.7,2-2.8,3.8-3.3
		c1.8-0.5,3.6-0.3,5.2,0.8C204.2,185.5,204.9,187.6,204.9,190.5z"/>
	<path class="st0" d="M250.7,189.8c0,2.5-0.4,4.3-1.7,5.9c-2.2,2.7-7.2,3-9.6-0.6c-1.3-2-1.8-4.1-1.3-6.4c0.3-1.2,0.6-2.3,1.4-3.3
		c2.3-3,6.4-3.3,9-0.8C250.3,186.2,250.6,188.2,250.7,189.8z"/>
</g>
</svg>
