<?xml version="1.0" encoding="utf-8"?>
<!-- Generator: Adobe Illustrator 27.5.0, SVG Export Plug-In . SVG Version: 6.00 Build 0)  -->
<svg version="1.1" id="Layer_1" xmlns="http://www.w3.org/2000/svg" xmlns:xlink="http://www.w3.org/1999/xlink" x="0px" y="0px"
	 viewBox="0 0 68.2 51.3" style="enable-background:new 0 0 68.2 51.3;" xml:space="preserve">
<style type="text/css">
	.st0{fill:#FF2000;}
</style>
<path class="st0" d="M8.1,17.2c10.9,0,7.9,0,18.9,0c0.6,0,1.3,0,1.9,0c0.6,0,0.6,0,0.6-0.6c0-2.3,0-4.6,0-6.9c0-0.7,0-1.4,0-2
	c0-0.1,0.1-0.2,0.1-0.3c0.1,0,0.2,0,0.3,0.1c2.4,1.4,4.9,2.8,7.3,4.2c2,1.1,3.9,2.3,5.9,3.4c2.1,1.2,4.2,2.4,6.3,3.6
	c1.1,0.6,2.2,1.3,3.3,1.9c2,1.2,4.1,2.3,6.1,3.5c0.6,0.3,1.2,0.7,1.7,1c0.1,0.1,0.2,0.2,0.3,0.3c-0.1,0.1-0.2,0.2-0.3,0.3
	c-1.4,0.8-2.9,1.6-4.3,2.5c-0.9,0.5-1.7,1-2.6,1.5c-2.4,1.4-4.7,2.7-7.1,4.1c-2.5,1.5-5,2.9-7.6,4.4c-2.9,1.7-5.8,3.4-8.7,5
	c-0.1,0.1-0.2,0.2-0.4,0.2c-0.3,0.1-0.3,0.1-0.3-0.2c0-1.2,0-2.5,0-3.7c0-1.7,0-3.3,0-5c0-0.1,0-0.2,0-0.4c0-0.4,0-0.5-0.5-0.5
	c-23,0,3.5,0-19.5,0.1c-0.4,0-0.7,0-1.1,0c-0.2,0-0.3-0.1-0.3-0.4c0-0.4,0-0.8,0-1.3c0-4.8,0-9.6,0-14.4c0-0.4,0-0.5,0.4-0.5"/>
</svg>
