<?xml version="1.0" encoding="utf-8"?>
<!-- Generator: Adobe Illustrator 27.5.0, SVG Export Plug-In . SVG Version: 6.00 Build 0)  -->
<svg version="1.1" id="Layer_1" xmlns="http://www.w3.org/2000/svg" xmlns:xlink="http://www.w3.org/1999/xlink" x="0px" y="0px"
	 viewBox="0 0 494.7 511.8" style="enable-background:new 0 0 494.7 511.8;" xml:space="preserve">
<style type="text/css">
	.st0{fill:#F9AA00;}
	.st1{fill:#E27300;}
</style>
<path class="st0" d="M380,476.9c0.8-0.9-0.2-0.9-0.6-0.9c-1.6-0.3-3.2-0.4-4.8-0.8c-2.5-0.8-5.1-1.3-7.3-2.7
	c-1.2-0.7-2.6-1.2-3.9-1.8c-2.7-1.4-5.3-2.9-7.7-4.6c-3.5-2.5-6.4-5.6-9.3-8.8c-1.7-1.9-2.9-4.1-4.4-6.1c-1.4-1.9-2-4.1-3.5-5.9
	c-0.4-0.5-0.1-1-0.2-1.6c0.2-1-0.7-1.4-1.2-1.9c-1.1-2.7-1.9-5.5-2.5-8.3c-1.4-5.7-1.4-11.4-1.4-17.1c0-107.6,0-215.3,0-322.9
	c0-2,0.1-3.9,0.3-5.9c0.1-0.9,0.6-1.7,0.8-2.7c0.4-2,0.5-4,1.2-5.9c0.6-1.7,1.4-3.4,1.7-5.2c0-0.2,0-0.5,0.1-0.6
	c1.7-1.8,2-4.4,3.5-6.3c1.4-2,2.6-4.2,4.1-6c2.5-3,4.8-6,7.9-8.4c2.9-2.2,5.7-4.7,9-6.3c2.3-1.1,4.5-2.6,7.1-3.3
	c1.7-0.5,3.6-0.9,5.2-1.8c0.8-0.5,1.8-0.4,2.8-0.4c1.9,0,3.6-0.4,5.2-1.5c3.8,0,7.6,0,11.5,0c0,0,0,0.1,0,0.1
	c0.2,0.2,0.5,0.3,0.8,0.4c3,1,6.2,1.1,9.3,2.1c3.6,1.1,7,2.8,10.3,4.5c2.8,1.4,5.2,3.3,7.7,5.2c5,4,8.9,8.9,12.4,14.2
	c1.5,2.3,2.2,5.1,3.8,7.3c0.1,0.2,0.2,0.6,0.2,0.8c-0.1,0.6,0.1,1.1,0.4,1.6c1,1.6,1.4,3.5,1.7,5.3c0.8,4.1,1.4,8.3,1.4,12.6
	c-0.1,22.7,0,45.5,0,68.2c0,40,0,80,0,119.9c0,47.6,0,95.2,0,142.8c0,4.8-0.9,9.5-2.2,14c-0.7,2.4-1.5,4.8-2.7,7c-1,1.9-1.7,4-3,5.7
	c-2,2.6-3.9,5.3-6.1,7.8c-4.4,4.9-9.5,8.7-15.2,11.9c-2.6,1.4-5.4,2.4-8.1,3.4c-2.8,1.1-6,1.7-9.1,2c-1,0.1-2.1,0.2-3,0.7
	c-0.3,0.1-0.7-0.1-0.9,0.3C387.5,476.9,383.8,476.9,380,476.9z"/>
<path class="st1" d="M96.3,476.9c-0.2,0-0.2-0.1-0.2-0.3c2.7,0,5.4,0,8.2,0c0.2,0,0.4,0,0.2,0.3C101.8,476.9,99,476.9,96.3,476.9z"
	/>
<path class="st1" d="M395.7,38.9c-0.4,0.4-0.8,0.4-1.2,0C394.9,38.9,395.3,38.9,395.7,38.9z"/>
<path class="st1" d="M392.1,476.6c0.2,0,0.4-0.1,0.4,0.3c-0.4,0-0.8,0-1.2,0C391.5,476.5,391.8,476.7,392.1,476.6z"/>
<path class="st1" d="M397.2,38.9c-0.3,0.1-0.7,0.3-1,0C396.6,38.9,396.9,38.9,397.2,38.9z"/>
<path class="st1" d="M91.8,476.9c0.2-0.2,0.3-0.3,0.5,0C92.1,476.9,92,476.9,91.8,476.9z"/>
<path class="st1" d="M95.3,476.9c-0.1-0.3,0.1-0.3,0.3-0.3c0.2,0,0.3,0.1,0.2,0.3C95.6,476.9,95.5,476.9,95.3,476.9z"/>
<path class="st1" d="M394,38.9c-0.1,0.4-0.3,0.3-0.5,0.1c0,0,0-0.1,0-0.1C393.7,38.9,393.8,38.9,394,38.9z"/>
<path class="st1" d="M105,476.9c0-0.2,0.1-0.3,0.3-0.3c0.2,0,0.3,0.1,0.2,0.3C105.3,476.9,105.2,476.9,105,476.9z"/>
<path class="st1" d="M106.3,476.9c0-0.2,0.2-0.2,0.3-0.2c0.1,0,0.2,0.1,0.2,0.2C106.6,476.9,106.4,476.9,106.3,476.9z"/>
<path class="st1" d="M238.2,476.9c0.2-0.1,0.3-0.3,0.5,0C238.5,476.9,238.3,476.9,238.2,476.9z"/>
<path class="st1" d="M240.4,476.9c0-0.1,0.1-0.1,0.1-0.2c0,0.1,0.1,0.1,0.1,0.2C240.6,476.9,240.5,476.9,240.4,476.9z"/>
<path class="st1" d="M248.9,476.9c0-0.1,0-0.2,0-0.2c0.1,0,0.2,0,0.2,0.2C249,476.9,249,476.9,248.9,476.9z"/>
<path class="st1" d="M297.4,248.6c0.6,4.5,0.9,9,0.9,13.5c0,52.6,0,105.2,0,157.8c0,4.8-0.5,9.5-1.2,14.2c-1.5,0.3-0.6,1.5-0.8,2.2
	c0,1-0.5,1.8-0.7,2.6c-0.5,1.7-1.6,3.1-1.9,4.8c-0.3,1.4-0.9,2.6-1.6,3.7c-0.9,1.2-1.6,2.5-2.3,3.8c-0.7,1.3-1.6,2.5-2.5,3.7
	c-3,3.9-6.5,7.3-10.4,10.3c-1.9,1.5-4,2.6-6,3.8c-0.1,0-0.1,0-0.2,0.1c-0.1,0-0.1,0.1-0.2,0.1c-0.2,0.1-0.4,0.1-0.5,0.2
	c0,0.1,0,0.1-0.1,0.1c-0.1,0.1-0.1,0.2-0.2,0.3c-0.1,0.1-0.3,0.2-0.4,0.2c-0.9,0.2-1.9,0-2.3,1.2c0,0-0.1,0-0.1,0
	c-0.1,0-0.1,0-0.2,0.1c-1.5,0.9-3.2,1.3-4.9,1.7c-0.3,0.1-0.7,0.2-1,0.5c-0.7,0.8-1.5,0.8-2.5,0.7c-1.4-0.4-2.5,0.4-3.6,1
	c-1.3,0.5-2.7,0.4-4,0.4c-0.7,0-1.4,0.4-2.1,0.1c-0.2,0-0.3,0.1-0.5,0.1c-0.2,0-0.3,0-0.5,0c-2-0.2-4-0.3-6,0
	c-2.6,0.2-5.2-0.4-7.8-0.8c-1.4-1.2-3.1-1.1-4.7-1.2c-2.3-0.4-4.5-1.4-6.6-2.4c-4.2-1.9-7.9-4.5-11.4-7.6c-4-3.5-7.3-7.4-9.9-12
	c-1.3-2.3-3-4.5-3.7-7.2c-0.3-1-1-1.9-1.1-3.1c0-0.5-1.1-0.8-0.9-1.6c0-0.5,0-1.1,0-1.6c0-0.5-0.1-0.8-0.7-0.8
	c-0.5-1.5-0.8-3.1-1.2-4.6c-0.8-2.5-0.7-5.1-1.7-7.4c-0.4-0.9-0.4-1.9-0.4-2.8c0.3-2.3,0.1-4.6,0.3-6.9c0-0.9-0.3-1.3-1.2-1.2
	c-0.2-1.5-0.3-3-0.3-4.5c0-51,0-102,0-153c0-1.8,0.2-3.5,0.3-5.3c1.3-1,1-2.3,0.9-3.6c0.1-1.1,0-2.1,0.9-3.1
	c0.4-0.4,0.2-1.5,0.4-2.2c1-2.4,1.6-4.9,2.6-7.2c0.3-0.6,0.7-1,1-1.6c3.2-6.8,8-12.4,13.6-17.2c4.1-3.6,8.9-6.3,13.8-8.6
	c1.7-0.8,3.5-1.3,5.2-1.8c1.1-0.3,2.2-0.7,3.4-1.1c0.1,0,0.2-0.1,0.3-0.1c0.4,0,0.9-0.1,1.3-0.1c1.2,0.1,2.3,0.1,3.5-0.1
	c0.4-0.1,0.9-0.2,1-0.8c2.6-0.4,5.3-0.4,7.9-0.3c1.8,0,3.5,0.2,5.3,0.4c0,0.4,0.2,0.5,0.5,0.7c1,0.3,2.1,0.2,3.1,0.2
	c0.6-0.1,1.2,0.1,1.8,0.4c0.3,0.7,1,0.2,1.5,0.4c0.2,0.1,0.4,0.1,0.6,0.2c0,0,0,0,0,0c4,1.1,7.7,2.8,11.4,4.9c3,1.7,5.8,3.6,8.3,5.8
	c4.5,3.9,8.6,8.2,11.5,13.4c1.4,2.5,2.9,5,3.8,7.7c0.3,0.9,0.4,1.8,0.6,2.7c-0.3,0.9,0.5,1.2,0.8,1.8c0.1,0.4,0.2,0.9,0.3,1.3
	c-0.6,1.6-0.2,2.8,1,3.2c0.1,0.3,0.1,0.6,0.2,0.9C297.4,248.4,297.4,248.5,297.4,248.6z"/>
<path class="st1" d="M95.4,476.2C95.4,476.2,95.3,476.1,95.4,476.2c-0.4-0.4-0.8-0.3-1.3-0.2c-2.1,0.1-4.1,0-6.1-0.6
	c-0.1-0.2-0.2-0.2-0.4-0.1c-0.2,0-0.4-0.1-0.6-0.1c-0.5-0.8-1.4-0.7-2.2-0.7c-3.4-0.7-6.4-2.2-9.4-3.8c-1.6-0.8-3.2-1.9-4.8-2.7
	c-2.3-1.3-4.2-3.3-6.3-5c-3.9-3.2-6.7-7.2-9.7-11.1c-1.4-1.9-2-4-3.2-5.9c-0.2-0.4-0.4-0.8-0.4-1.3c0-0.4,0-0.8-0.6-0.9
	c-0.2,0-0.5-0.3-0.5-0.5c-0.2-2-1.7-3.5-1.8-5.5c-0.1-1.5-0.4-2.9-1.2-4.3c-0.1-0.2-0.1-0.4-0.1-0.6c0-1.5,0-2.9-0.3-4.3
	c0-0.9,0.5-1.9-0.3-2.7c-0.2-2.3-0.3-4.5,0-6.8c0.9-0.9,0.8-1.9,0.4-2.9c0.2-1.7,0.3-3.4,0.5-5.1c1-0.6,0.8-1.7,0.9-2.7
	c0.4-1.4,0.9-2.8,1.3-4.1c0.7-2.4,2-4.4,2.8-6.7c0.4-1.3,1.5-2.3,2.2-3.5c3.3-5.7,7.9-10.3,13.1-14.3c1.9-1.5,3.9-2.8,6-4
	c1.2,0.2,2.1-0.7,3.2-1c0.2-0.1,0.1-0.4-0.1-0.5c1.3-0.9,2.7-1.6,4.2-2c1.6-0.3,2.9-1.3,4.5-1.6c0.5-0.1,1-0.3,1.5-0.1
	c0.7-0.2,1.9,0.6,2.1-0.9c1.2-0.3,2.4,0,3.6-0.4c1.5,0.2,3.1,0.6,4.4-0.7c0.2,0,0.4,0,0.6,0.1c0.2,0.3,0.5,0.3,0.7,0
	c2-0.3,4-0.2,6,0c0.1,0.3,0.2,0.6,0.5,0.7c1.4,0.2,2.8,0.6,4.2,0.1c1.5-0.1,2.9,0.2,4.3,0.5c0.2,0.7,0.8,0.7,1.3,0.7
	c2,0,3.8,1,5.6,1.7c2.2,0.9,4.3,1.8,6.3,2.9c6.5,3.3,11.9,8,16.4,13.6c2.4,3.1,5,6.2,6.3,10c0.4,1.1,1.1,2,1.5,3
	c0,0.4-0.1,0.8-0.1,1.2c-0.2,1.1,0.2,1.6,1.3,1.7c1.7,4.6,2.4,9.4,2.8,14.2c0,2.2-0.2,4.3,0.1,6.5c-0.1,0.9-0.2,1.9-0.2,2.8
	c-0.5,0.1-0.7,0.4-0.7,0.9c0.1,1.2-0.1,2.4-0.2,3.6c-0.2,3.3-1.2,6.4-2.3,9.4c-0.9,2.4-2.2,4.6-3.3,7c-1.4,3-3.6,5.6-5.7,8.2
	c-1.5,1.8-3,3.6-4.8,5.2c-3.1,2.8-6.4,5.1-10,7.2c-2.1,1.2-4.1,2.5-6.4,3.2c-1.8,0.6-3.7,1.2-5.6,1.8c-2,0.7-4,1.1-6.1,1.5
	c-1.3,0.2-2.6,0.2-3.9,0.2c-2.3,0.4-4.6-1.4-6.9,0c-0.2,0.1-0.4,0-0.6,0C96.9,476.1,96.1,476.1,95.4,476.2z"/>
<path class="st0" d="M190.6,414.9c0.9-0.1,1.2,0.3,1.2,1.2c-0.1,2.3,0.1,4.6-0.3,6.9C191.1,420.3,190.4,417.7,190.6,414.9z"/>
<path class="st0" d="M95.4,476.2c0.7,0,1.5,0,2.2,0c0.2,0,0.5,0.1,0.6,0c2.3-1.4,4.6,0.4,6.9,0c-0.2,0.3-0.6,0.3-0.9,0.4
	c-2.7,0-5.4,0-8.2,0C95.9,476.4,95.5,476.5,95.4,476.2z"/>
<path class="st0" d="M108.7,369.2c-1.4,0.5-2.8,0.1-4.2-0.1c-0.3-0.1-0.4-0.4-0.5-0.7C105.7,368,107.2,368.6,108.7,369.2z"/>
<path class="st0" d="M238.6,204.5c0,0.6-0.5,0.7-1,0.8c-1.2,0.2-2.3,0.2-3.5,0.1C235.6,204.6,237.1,204.3,238.6,204.5z"/>
<path class="st0" d="M153.4,432.6c0.2-1.2,0.3-2.4,0.2-3.6c0-0.5,0.2-0.8,0.7-0.9c0,0.9,0,1.9,0,2.8
	C154.3,431.7,153.5,432,153.4,432.6z"/>
<path class="st0" d="M229.2,474.1c1.6,0.1,3.3,0,4.7,1.2C232.1,475.7,230.7,474.6,229.2,474.1z"/>
<path class="st0" d="M254.7,475.4c1.1-0.6,2.2-1.4,3.6-1C257.2,475,256.1,475.6,254.7,475.4z"/>
<path class="st0" d="M96.8,368.4c-1.3,1.4-2.9,0.9-4.4,0.7C93.8,368.5,95.3,368.6,96.8,368.4z"/>
<path class="st0" d="M297.2,247.4c-1.2-0.4-1.5-1.6-1-3.2C297,245.1,296.8,246.3,297.2,247.4z"/>
<path class="st0" d="M191.5,248.4c0.1,1.3,0.4,2.7-0.9,3.6C190.6,250.8,191.1,249.6,191.5,248.4z"/>
<path class="st0" d="M255.6,205.4c-1.1,0-2.1,0.1-3.1-0.2c-0.4-0.1-0.6-0.3-0.5-0.7C253.2,204.4,254.3,205.1,255.6,205.4z"/>
<path class="st0" d="M151.6,404.6c-1.1-0.1-1.5-0.7-1.3-1.7c0.1-0.4,0.1-0.8,0.1-1.2C150.8,402.6,151.3,403.6,151.6,404.6z"/>
<path class="st0" d="M76.6,374c0.1,0.2,0.3,0.5,0.1,0.5c-1.1,0.3-1.9,1.3-3.2,1C74.4,374.9,75.5,374.4,76.6,374z"/>
<path class="st0" d="M88.8,369.5c-0.2,1.5-1.4,0.7-2.1,0.9C87.2,369.5,88,369.6,88.8,369.5z"/>
<path class="st0" d="M46.7,415.9c0.3,1.1,0.4,2.1-0.4,2.9C46.2,417.9,46.3,416.9,46.7,415.9z"/>
<path class="st0" d="M154.5,425.3c-0.3-2.2-0.1-4.3-0.1-6.5C154.8,421,154.6,423.2,154.5,425.3z"/>
<path class="st0" d="M296.3,436.3c0.2-0.8-0.6-1.9,0.8-2.2C297.4,435.1,296.6,435.6,296.3,436.3z"/>
<path class="st0" d="M241.7,476.1c2-0.4,4-0.3,6,0C245.6,476.3,243.6,476.1,241.7,476.1z"/>
<path class="st0" d="M48.1,408.2c-0.1,1,0.1,2-0.9,2.7C47.7,410,47.5,408.9,48.1,408.2z"/>
<path class="st0" d="M46.3,425.7c0.9,0.8,0.3,1.8,0.3,2.7C45.8,427.6,46.4,426.6,46.3,425.7z"/>
<path class="st1" d="M337.1,441.7c0.5,0.6,1.4,0.9,1.2,1.9C337.4,443.3,337,442.6,337.1,441.7z"/>
<path class="st0" d="M84.9,474.4c0.8,0,1.6,0,2.2,0.7C86.1,475.6,85.5,474.9,84.9,474.4z"/>
<path class="st0" d="M266.8,471.4c0.3-1.2,1.4-1,2.3-1.2C268.4,470.5,267.7,471.1,266.8,471.4z"/>
<path class="st0" d="M194.8,437.9c0.6-0.1,0.7,0.3,0.7,0.8c0,0.5,0,1.1,0,1.6C195,439.6,194.9,438.7,194.8,437.9z"/>
<path class="st0" d="M295.9,242.8c-0.3-0.6-1.2-1-0.8-1.8C295.8,241.4,296,242.1,295.9,242.8z"/>
<path class="st0" d="M114.3,370.4c-0.6-0.1-1.2,0-1.3-0.7C113.7,369.4,113.8,370.3,114.3,370.4z"/>
<path class="st0" d="M258.9,206.2c-0.5-0.2-1.2,0.3-1.5-0.4C257.9,205.7,258.4,205.7,258.9,206.2z"/>
<path class="st0" d="M98,368.4c-0.2,0.3-0.4,0.3-0.7,0C97.5,368.3,97.8,368.3,98,368.4z"/>
<path class="st0" d="M94.1,475.9c0.4-0.1,0.8-0.2,1.2,0.2C94.9,476.2,94.5,476.2,94.1,475.9z"/>
<path class="st0" d="M269.8,469.5c0.2-0.1,0.4-0.1,0.5-0.2C270.3,469.6,270,469.5,269.8,469.5z"/>
<path class="st0" d="M269.6,469.9c0.1-0.1,0.1-0.2,0.2-0.3C269.8,469.8,269.8,470,269.6,469.9z"/>
<path class="st0" d="M87.6,475.2c0.2-0.1,0.3-0.1,0.4,0.1C87.9,475.3,87.7,475.2,87.6,475.2z"/>
<path class="st0" d="M248.1,476c0.2,0,0.3-0.1,0.5-0.1C248.5,476,248.3,476.1,248.1,476z"/>
<path class="st0" d="M270.6,469.2c0-0.1,0.1-0.1,0.2-0.1C270.7,469.2,270.7,469.3,270.6,469.2z"/>
<path class="st0" d="M297.4,248.6c0-0.1-0.1-0.2-0.1-0.4C297.4,248.4,297.4,248.5,297.4,248.6z"/>
<path class="st0" d="M266.6,471.4c0,0,0.1-0.1,0.2-0.1c0,0-0.1,0.1-0.1,0.1L266.6,471.4z"/>
<path class="st0" d="M259.4,206.4C259.4,206.4,259.5,206.4,259.4,206.4C259.5,206.4,259.4,206.4,259.4,206.4z"/>
<path class="st0" d="M232.9,205.5c-0.1,0-0.2,0.1-0.3,0.1C232.6,205.5,232.8,205.4,232.9,205.5z"/>
</svg>
