<?xml version="1.0" encoding="utf-8"?>
<!-- Generator: Adobe Illustrator 27.5.0, SVG Export Plug-In . SVG Version: 6.00 Build 0)  -->
<svg version="1.1" id="Layer_1" xmlns="http://www.w3.org/2000/svg" xmlns:xlink="http://www.w3.org/1999/xlink" x="0px" y="0px"
	 viewBox="0 0 411 290" style="enable-background:new 0 0 411 290;" xml:space="preserve">
<style type="text/css">
	.st0{fill:#51ADEB;}
	.st1{fill:#EE6B62;}
	.st2{fill:#7C8389;}
	.st3{fill:#C2CDD4;}
	.st4{fill:#D8E4EA;}
	.st5{fill:#F2F7F9;}
</style>
<g>
	<path class="st0" d="M206.1,265.5c-1.1,0-2.2,0.1-3.2,0.1c-33.5,0-67,0-100.4,0c-1.4,0-2.7-0.2-4-1c-2.3-1.5-3.8-4.1-3.3-6.2
		c0.6-2.6,3.1-4.8,6-4.9c2.8-0.1,5.7,0,8.5,0c0.9,0,1.8-0.1,2.5-0.8c5.7-5.5,10.8-11.4,12.6-19.4c1-4.4,1.1-4.4-3.4-4.4
		c-26.9,0-53.8,0-80.7,0c-10.4,0-18.6-9.1-18.2-19c0-0.8,0.1-1.7,0.1-2.5c0-54.3,0-108.7,0-163c0-0.8,0-1.7-0.1-2.5
		c-0.4-8.9,4.6-15.8,12.9-18.6c2.5-0.8,4.8-1,7.3-1c75.8,0,151.6,0,227.3,0c11.1,0,19.3,9.3,19,18.9c-0.2,5.7,0,11.5,0,17.2
		c-4,0.1-8,0.2-11.9,0c0-5.2,0-10.5,0-15.7c0-5.9-2.2-8.2-8-8.2c-75.5,0-151.1,0-226.6,0c-4.6,0-8,1.8-8,8
		c0.2,40.6,0.1,81.3,0.1,121.9c0,5.1-0.3,4.1,4.1,4.1c51.1,0,102.3,0,153.4,0c0,20.1,0,40.3,0,60.4c-1.2,0-2.5,0.2-3.7,0
		c-2.3-0.3-2.6,1-2.1,2.6c1.2,4.5,2.8,8.9,5.9,12.6c0,0.9,0,1.8,0,2.7c-0.5,6.2,2.3,10.7,6.8,14.7
		C200.9,263.6,203.8,263.8,206.1,265.5z M155.2,205C155.2,205,155.2,205,155.2,205c2,0,4,0,6,0c0.2,0,0.3,0,0.5,0
		c3.7-0.3,5.8-2.4,5.8-5.8c0-4.3-1.7-6.5-5.6-6.6c-4.2-0.2-8.5-0.2-12.7,0c-3.8,0.2-5.9,2.8-5.7,6.7c0.2,3.5,2.6,5.7,6.5,5.7
		C151.7,205,153.4,205,155.2,205z"/>
	<path class="st1" d="M206.1,265.5c-2.2-1.7-5.1-1.9-7.3-3.9c-4.4-4-7.2-8.5-6.8-14.7c0.1-0.9,0-1.8,0-2.7
		c0.2-5.1,0.3-10.1-0.1-15.2c0-20.1,0-40.3,0-60.4c0.1-1.2,0.2-2.5,0.2-3.7c0-28.4,0-56.7,0-85.1c0-4,0-8,2.5-11.7
		c4.3-6.4,10.4-9,17.9-9c16.1,0,32.1,0,48.2,0c5.4,0,10.8-0.1,16.2-0.1c4,0,8.1,0,12.1,0c8.3,0,16.7,0.1,25,0.1
		c3.8,0,7.6,0,11.2,1.4c6.5,2.4,10.2,7.1,11.8,13.7c0.4,1.5,0.4,2.9,0.4,4.4c0,17.7,0,35.3,0,53c-3.9,0-7.8,0-11.7,0
		c0-1-0.1-2-0.1-3c0-14.2-0.1-28.3,0-42.5c0-2.4-0.8-3.1-3.2-3.1C284,83,245.5,83,207,83c-2.4,0-3.1,0.7-3.1,3.1
		c0.1,42.6,0,85.1,0,127.7c0,3.2,0,3.2,3.4,3.2c30.2,0,60.3,0,90.5,0c1.1,0,2.2,0.1,3.2,0.1c0,9.7,0,19.3,0,29c0,7.8,3,14,10.3,17.5
		c0.7,0.3,1.3,0.7,1.7,1.4c0,0.2,0,0.4,0,0.6c-35.5,0-71,0-106.6,0C206.4,265.6,206.2,265.5,206.1,265.5L206.1,265.5z M264.8,229
		c-2,0-4-0.1-6,0c-3.4,0.1-6.3,3.1-6.3,6.2c0,2.8,3.2,6.1,6.2,6.2c3.9,0.1,7.8,0.2,11.7,0c4.1-0.2,6.8-2.9,6.6-6.6
		c-0.1-3.4-2.9-5.8-7-5.9C268.3,229,266.5,229,264.8,229z"/>
	<path class="st2" d="M313.1,265c-0.4-0.7-1-1.1-1.7-1.4c-7.3-3.6-10.3-9.7-10.3-17.5c-0.1-9.7,0-19.3,0-29c0.8-0.9,0.4-1.9,0.4-2.9
		c0-22,0-44,0.1-65.9c0-2.8,1-5.4,2.6-7.8c4.1-6,9.8-8.6,16.9-8.5c1.5,0,3.1,0.5,4.6-0.4c3.9,0,7.8,0,11.7,0
		c9.4,0.1,18.7,0,28.1,0.2c4.7,0.1,9.2,1,13.1,3.8c3.2,2.3,5.1,5.6,6.7,9.1c0.2,1.2-0.4,2.5,0.7,3.4c0.6,2.6,0.4,5.3,0.4,7.9
		c0,29.7,0.1,59.4-0.1,89.1c-0.1,7.3-2.4,14-9.5,17.7c-3.1,1.7-6.4,3-10.2,3c-17.1-0.1-34.1-0.1-51.2-0.1
		C314.7,265.4,313.9,265.2,313.1,265z M313.4,198.6c0,13.3,0.1,26.6,0,40c0,2.3,0.6,3,2.9,3c18.2-0.1,36.5-0.1,54.7-0.1
		c3.2,0,3.2,0,3.2-3.2c0-26.4,0-52.8,0-79.2c0-2.4-0.7-3.2-3.1-3.1c-18.4,0.1-36.8,0.1-55.2,0c-2.2,0-2.6,0.7-2.6,2.7
		C313.4,172,313.4,185.3,313.4,198.6z"/>
	<path class="st3" d="M22.5,42c0,0.8,0.1,1.7,0.1,2.5c0,54.3,0,108.7,0,163c0,0.8,0,1.7-0.1,2.5c-0.7-0.8-0.4-1.7-0.4-2.6
		c0-54.2,0-108.5,0-162.7C22.1,43.8,21.7,42.8,22.5,42z"/>
	<path class="st3" d="M289.1,58.9c-4,0-8.1,0-12.1,0c0-0.2,0-0.3,0.1-0.5c4,0.3,8,0.2,11.9,0C289,58.6,289.1,58.8,289.1,58.9z"/>
	<path class="st4" d="M386.1,148c-1.1-1-0.5-2.3-0.7-3.4C387.3,145.4,386.5,146.7,386.1,148z"/>
	<path class="st3" d="M313.1,265c0.8,0.2,1.6,0.4,2.4,0.6c-0.8,0.4-1.6,0.5-2.4,0C313.1,265.4,313.1,265.2,313.1,265z"/>
	<path class="st4" d="M206,265.5c0.2,0,0.3,0.1,0.5,0.1C206.3,265.9,206.1,265.9,206,265.5z"/>
	<path class="st5" d="M277,58.4c0,0.2-0.1,0.3-0.1,0.5c-5.4,0-10.8,0.1-16.2,0.1c-16.1,0-32.1,0-48.2,0c-7.5,0-13.6,2.6-17.9,9
		c-2.4,3.6-2.5,7.6-2.5,11.7c-0.1,28.4,0,56.7,0,85.1c0,1.2-0.1,2.5-0.2,3.7c-51.1,0-102.3,0-153.4,0c-4.4,0-4.1,1-4.1-4.1
		c0-40.6,0.1-81.3-0.1-121.9c0-6.2,3.4-8,8-8c75.5,0,151.1,0,226.6,0c5.9,0,8,2.2,8,8.2C277,47.9,277,53.2,277,58.4z"/>
	<path class="st4" d="M155.2,205c-1.7,0-3.5,0-5.2,0c-3.8,0-6.3-2.2-6.5-5.7c-0.2-3.9,1.9-6.5,5.7-6.7c4.2-0.2,8.5-0.2,12.7,0
		c3.9,0.2,5.6,2.4,5.6,6.6c0,3.4-2.1,5.4-5.8,5.8c-0.2,0-0.3,0-0.5,0C159.2,205,157.2,205,155.2,205C155.2,205,155.2,205,155.2,205z
		"/>
	<path class="st5" d="M325.7,131.5c-1.5,1-3.1,0.4-4.6,0.4c-7.1-0.1-12.8,2.6-16.9,8.5c-1.6,2.4-2.6,5-2.6,7.8
		c-0.1,22-0.1,44-0.1,65.9c0,1,0.4,2-0.4,2.9c-1.1,0-2.2-0.1-3.2-0.1c-30.2,0-60.3,0-90.5,0c-3.4,0-3.4,0-3.4-3.2
		c0-42.6,0-85.1,0-127.7c0-2.4,0.6-3.1,3.1-3.1c38.5,0.1,77,0.1,115.5,0c2.4,0,3.2,0.7,3.2,3.1c-0.1,14.2-0.1,28.3,0,42.5
		C325.6,129.6,325.7,130.6,325.7,131.5z"/>
	<path class="st4" d="M264.8,229c1.7,0,3.5,0,5.2,0c4.1,0.1,6.9,2.4,7,5.9c0.1,3.6-2.5,6.4-6.6,6.6c-3.9,0.2-7.8,0.1-11.7,0
		c-3-0.1-6.2-3.4-6.2-6.2c0-3.1,2.9-6.1,6.3-6.2C260.8,228.9,262.8,229,264.8,229z"/>
	<path class="st5" d="M313.4,198.6c0-13.3,0-26.6,0-40c0-2,0.4-2.7,2.6-2.7c18.4,0.1,36.8,0.1,55.2,0c2.4,0,3.1,0.7,3.1,3.1
		c-0.1,26.4,0,52.8,0,79.2c0,3.2,0,3.2-3.2,3.2c-18.2,0-36.5,0-54.7,0.1c-2.3,0-2.9-0.7-2.9-3C313.4,225.2,313.4,211.9,313.4,198.6z
		"/>
</g>
</svg>
