<?xml version="1.0" encoding="utf-8"?>
<!-- Generator: Adobe Illustrator 27.5.0, SVG Export Plug-In . SVG Version: 6.00 Build 0)  -->
<svg version="1.1" xmlns="http://www.w3.org/2000/svg" xmlns:xlink="http://www.w3.org/1999/xlink" x="0px" y="0px"
	 viewBox="0 0 100 100" style="enable-background:new 0 0 100 100;" xml:space="preserve">
<style type="text/css">
	.st0{display:none;}
	.st1{display:inline;fill:#D6342B;stroke:#FFFFFF;stroke-miterlimit:10;}
	.st2{display:inline;fill:#FFBF0B;stroke:#FFFFFF;stroke-miterlimit:10;}
	.st3{display:inline;fill:#E89D32;stroke:#FFFFFF;stroke-miterlimit:10;}
	.st4{display:inline;fill:#27A769;stroke:#FFFFFF;stroke-miterlimit:10;}
	.st5{display:inline;fill:#FFFFFF;}
	.st6{display:inline;fill:#FFBF0B;}
	.st7{display:inline;fill:#E89D32;}
	.st8{fill:#8BD42C;}
	.st9{opacity:0.2;fill:#FFFFFF;}
	.st10{fill:#FDFDFF;}
	.st11{fill:#E8EBF4;}
	.st12{fill:#333940;}
	.st13{fill:#555865;}
	.st14{display:inline;fill:#FFC243;}
	.st15{display:inline;fill:#0880AD;}
	.st16{display:inline;fill:#04F0A5;}
	.st17{display:inline;fill:#0FD08E;}
	.st18{display:inline;fill:#11CE35;}
	.st19{display:inline;fill:#FDFDFF;}
	.st20{display:inline;fill:#D4F0F5;}
</style>
<g id="Layer_1" class="st0">
	<path class="st1" d="M25.3,88.2c-6.1,0-12.1,0.1-18.2,0.1c-0.9,0-1.5-0.5-1.5-1.5c0-12,4.5-22.2,12.5-30.9c0.1-0.1,0.3-0.2,0.5-0.3
		c0.4,0.3,0.9,0.5,1.3,0.8c3.8,3.8,7.7,7.6,11.5,11.5c0.9,0.9,1.6,1.8,2.4,2.7c-4.4,4.6-6.7,10-6.9,16.3c0,0.9-0.6,1.3-1.5,1.4
		C25.4,88.2,25.4,88.2,25.3,88.2z"/>
	<path class="st2" d="M66.5,70.2c-2-1.5-3.8-3-6-4.2c-3.3-1.7-6.7-2.2-10.3-2.2c0-7.2,0-14.4,0-21.6c6-0.2,11.7,1.3,17.2,3.5
		c5.1,2.1,9.6,5.2,13.6,8.9c0.2,0.2,0.4,0.5,0.6,0.8C76.5,60.3,71.5,65.3,66.5,70.2z"/>
	<path class="st3" d="M50.1,42.2c0,7.2,0,14.4,0,21.6c-6.5-0.4-11.8,2.2-16.3,6.7c-0.8-0.9-1.6-1.8-2.4-2.7
		c-3.8-3.8-7.6-7.7-11.5-11.5c-0.4-0.3-0.8-0.6-1.3-0.8c2.3-2.6,5-4.6,7.9-6.4c6.3-4.1,13.3-6,20.6-6.9C48.1,42,49.1,42.2,50.1,42.2
		z"/>
	<path class="st4" d="M66.5,70.2c5-4.9,10-9.9,15-14.8c4.6,4.3,7.8,9.4,10,15.2c2,5,3,10.2,3.2,15.6c0,1.3-0.4,2.1-1.7,2.1
		c-6,0-12,0.1-18,0c-1.7,0-1.8-1.6-2-2.8c-0.2-1.4-0.3-2.9-0.4-4.3c0.2-0.1,0.4-0.3,0.6-0.4c3.4-2.1,6.7-4.1,10.1-6.2
		c0.7-0.5,1.4-1,0.9-2.1c-0.5-1-1.3-0.9-2.2-0.7c-0.9,0.3-1.9,0.7-2.8,1c-2.9,1-5.9,1.9-8.8,2.8C69.1,73.8,67.8,72,66.5,70.2z"/>
	<path class="st5" d="M70.4,75.6c2.9-0.9,5.9-1.9,8.8-2.8c0.9-0.3,1.9-0.7,2.8-1c0.9-0.3,1.7-0.3,2.2,0.7c0.5,1-0.1,1.6-0.9,2.1
		c-3.4,2.1-6.7,4.1-10.1,6.2c-0.2,0.1-0.4,0.3-0.6,0.4c-2.9,1.6-5.8,3.3-8.7,4.9c-1.9,1-3.6,2.4-5.6,3c-2.4,0.8-3.1,3.1-5,4.3
		c-2.5,1.5-4.9,1.4-7.1-0.4c-2.4-2-2.9-4.9-1.4-7.6c1.4-2.5,3.6-3.3,6.6-3c2.4,0.2,4.4-1.4,6.7-2.1c4-1.4,7.9-2.8,11.9-4.3
		C70.1,75.9,70.2,75.7,70.4,75.6z"/>
	<path class="st6" d="M15.1,37.1c0.2-1.4,0.3-2.7,0.7-3.9c0.8-3.1-2.2-3.8-3.4-5.7c-0.9-1.5-0.9-3,1-3.1c4-0.1,6.1-2.1,7.6-5.6
		c0.8-2,2.7-1.3,3.2,0.2c1.2,3.6,3.5,5.2,7.2,5.4c2.1,0.1,2.2,1.6,1.1,3.1c-0.3,0.5-0.7,1-1.2,1.2c-2.8,1.8-2.5,4.4-1.7,7
		c0.4,1.2,0.2,2.2-0.9,3c-0.9,0.7-1.6-0.1-2-0.5c-3-2.5-5.8-1.7-8.8,0.2C16.1,39.9,15.6,38.3,15.1,37.1z"/>
	<path class="st6" d="M88.3,26c0,0.9-0.3,1.6-1,2.1c-3.2,2.1-3.4,5.1-2.4,8.3c0.3,1-0.1,1.6-0.7,2.2c-0.7,0.6-1.3,0.2-1.9,0
		c-0.1,0-0.2-0.1-0.2-0.1c-2.8-2.2-5.5-2.4-8.4-0.1c-0.7,0.5-1.5,0.9-2.4,0.2c-0.9-0.7-0.9-1.6-0.6-2.6c0.9-3.1,0.6-5.8-2.3-7.9
		c-0.7-0.5-1.5-1.3-1.2-2.4c0.4-1.3,1.5-1.4,2.7-1.5c2.4-0.3,4.7-0.6,5.5-3.6c0.3-1.1,0.6-2.7,2.2-2.9c1.8-0.2,2.4,1.4,2.7,2.6
		c0.9,3.7,3.9,3.5,6.6,4C87.7,24.6,88.5,25,88.3,26z"/>
	<path class="st6" d="M43,23.5c0-0.1,0.1-0.9,0.3-1.6c0.8-2.3-0.3-3.8-1.9-5.3c-0.9-0.8-2.3-1.7-1.8-3.2c0.4-1.4,1.9-1.5,3.1-1.5
		c3.9,0.2,4.7-2.9,6-5.5c0.3-0.7,0.8-1,1.5-1.1c0.8,0,1.3,0.5,1.6,1.2c0.6,1.1,1.1,2.2,1.6,3.3c1.2,2.6,3.8,1.6,5.7,2.3
		c1.7,0.6,2.3,1.6,1.2,3c-0.9,1.3-2.2,2.3-3.2,3.6c-1,1.3-0.1,2.8,0,4.2c0.1,1.3,0.7,2.6-0.7,3.5c-1.3,0.9-2.2-0.1-2.9-0.7
		c-2.7-2.2-5-1-7.4,0.4C43.9,27.4,42.9,26.6,43,23.5z"/>
	<path class="st7" d="M25.3,88.2c0,0,0.1,0,0.1,0C25.5,88.2,25.4,88.3,25.3,88.2L25.3,88.2z"/>
</g>
<g id="Layer_2">
	<circle class="st8" cx="-57.4" cy="45.2" r="45.4"/>
	<path class="st9" d="M50.2,92.3c0-1.8,0-3.6,0-5.5c5.6,0,11.2,0,16.8,0c3.1,0,3.3,0.7,3.3-3.4c0-22.1,0-44.1,0-66.2
		c0-1.5-0.1-3.1-0.1-4.6c0-0.3,0.1-0.7-0.4-0.7c-0.6,0-1.1-0.2-1.7-0.2c-5.6,0-11.1-0.3-16.7,0c-0.4,0-0.8,0.1-1.2-0.2
		c0-1.8,0-3.5,0-5.3c6.2,0,12.4-0.1,18.6,0c2.6,0,4.6,1.4,5.6,3.9c0.9,25,0.1,50.1,0.4,75.1c0,2-0.4,3.9-1.9,5.4
		c-1.1,1-2.3,1.7-3.9,1.7C62.8,92.3,56.5,92.3,50.2,92.3z"/>
	<path class="st10" d="M50.2,86.7c-6.3,0-12.5,0-18.8,0c-0.7,0-1-0.1-1-0.9c0-23.2,0-46.3,0-69.5c0-1,0.1-2.1,0-3.1
		c-0.1-1,0.3-1.2,1.2-1.2c4.9,0,9.9,0,14.8,0c1.2,0,2.4,0,3.6,0c0.3,0.2,0.2,0.6,0.2,0.9c0,6.1,0,12.1,0,18.2
		c-0.4,0.3-0.8,0.5-1.4,0.5c-4.5,0-8.6,1.4-12.5,3.6c-1.6,0.9-3,2.2-3.2,4.2c-0.3,3.5,3,5.6,6.1,4.1c1.4-0.7,2.8-1.6,4.4-2
		c2.2-0.6,4.3-1.3,6.6-1.2c0,2,0,4.1,0,6.1c0,0.6,0.1,1.1,0.5,1.6c-0.3,0.5-0.6,1-0.9,1.5c-0.8,0.3-0.8,1.1-1.3,1.6
		c-0.8,0.8-1.4,1.7-2.1,2.7c-2.2,3.2,0.7,7.7,3.8,7.5l0,0.1C50.2,69.9,50.2,78.3,50.2,86.7z"/>
	<path class="st11" d="M50.2,31c0-6.1,0-12.1,0-18.2c0-0.3,0.1-0.7-0.2-0.9c0.1-0.1,0.2-0.3,0.2-0.4c0.4,0.2,0.8,0.2,1.2,0.2
		c5.6-0.3,11.1,0,16.7,0c0.6,0,1.1,0.2,1.7,0.2c0.5,0,0.4,0.4,0.4,0.7c0.1,1.5,0.1,3.1,0.1,4.6c0,22.1,0,44.1,0,66.2
		c0,4-0.2,3.4-3.3,3.4c-5.6,0-11.2,0-16.8,0c0-0.1,0-0.1,0-0.2c0-8.4,0-16.9,0-25.3c1,0.1,1.8-0.3,2.6-0.9c1.2-0.9,1.7-2.1,2.2-3.3
		c1.4-3.9,2.7-7.9,4.1-11.7c0.3-0.8,0.3-1.7,1-2.3c0.3,0,0.5,0.2,0.8,0.4c1.8,1.1,3.3,1,5-0.3c1.2-1,1.8-3.2,1.3-4.7
		c-0.6-2.1-2.2-3-4-3.9c-0.1-1,0.7-1.8,0.8-2.9c-0.9,0.7-1.2,1.7-2.2,2.1c-2-0.8-4-1.6-6.2-2C53.9,31.5,52.1,31,50.2,31
		C50.3,31.1,50.2,31,50.2,31z"/>
	<path class="st12" d="M50.2,40.3c-2.3-0.2-4.4,0.6-6.6,1.2c-1.6,0.4-2.9,1.3-4.4,2c-3.1,1.5-6.4-0.6-6.1-4.1c0.2-2,1.5-3.3,3.2-4.2
		c3.9-2.2,8-3.6,12.5-3.6c0.5,0,1-0.2,1.4-0.5c0,0,0.1,0.1,0.1,0.1C50.3,34.2,50.3,37.2,50.2,40.3L50.2,40.3z"/>
	<path class="st12" d="M60.1,43.1c-0.7,0.6-0.7,1.6-1,2.3c-1.4,3.9-2.8,7.8-4.1,11.7c-0.4,1.3-1,2.5-2.2,3.3c-0.8,0.6-1.6,1-2.6,0.9
		l0-0.1c0-3.1,0-6.2,0-9.3c0-0.9,0-1.7-0.5-2.5c0.3-0.5,0.6-1,0.9-1.5c1.5-1.9,3-3.7,4.5-5.6c0.2-0.3,0.6-0.6,0.5-1
		c1-0.4,1.4-1.4,2-2.2c1.4-1.8,2.7-3.6,4.1-5.5c0.9-0.4,1.3-1.5,2.2-2.1c-0.1,1.1-1,1.9-0.8,2.9c-1.2,2.2-1.5,4.8-2.6,7
		C60.4,42.1,60,42.5,60.1,43.1z"/>
	<path class="st13" d="M49.8,49.5c0.5,0.8,0.5,1.7,0.5,2.5c0,3.1,0,6.2,0,9.3c-3.1,0.2-6-4.3-3.8-7.5c0.6-0.9,1.3-1.9,2.1-2.7
		C49,50.7,49,49.8,49.8,49.5z"/>
	<path class="st11" d="M55.8,41.4c0.1,0.5-0.3,0.7-0.5,1c-1.5,1.9-3,3.7-4.5,5.6c-0.4-0.5-0.5-1-0.5-1.6c0-2,0-4.1,0-6.1
		c0,0,0.1-0.1,0.1-0.1c0.2,0.2,0.4,0.3,0.7,0.3C52.6,40.3,54.2,40.9,55.8,41.4z"/>
	<path class="st8" d="M55.8,41.4c-1.6-0.5-3.1-1.1-4.8-0.9c-0.3,0-0.5-0.1-0.7-0.3c0-3,0-6.1,0-9.1c1.8-0.1,3.6,0.4,5.3,0.7
		c2.2,0.3,4.2,1.2,6.2,2c-1.4,1.8-2.7,3.7-4.1,5.5C57.2,40,56.8,41,55.8,41.4z"/>
	<path class="st8" d="M60.1,43.1c-0.1-0.6,0.3-1,0.5-1.5c1.1-2.3,1.4-4.8,2.6-7c1.8,0.8,3.4,1.8,4,3.9c0.5,1.6-0.1,3.8-1.3,4.7
		c-1.6,1.3-3.2,1.4-5,0.3C60.7,43.3,60.4,43.1,60.1,43.1z"/>
	<path class="st9" d="M51,92.3c0-1.8,0-3.6,0-5.5c-5.6,0-11.2,0-16.8,0c-3.1,0-3.3,0.7-3.3-3.4c0-22.1,0-44.1,0-66.2
		c0-1.5,0.1-3.1,0.1-4.6c0-0.3-0.1-0.7,0.4-0.7c0.6,0,1.1-0.2,1.7-0.2c5.6,0,11.1-0.3,16.7,0c0.4,0,0.8,0.1,1.2-0.2
		c0-1.8,0-3.5,0-5.3c-6.2,0-12.4-0.1-18.6,0c-2.6,0-4.6,1.4-5.6,3.9c-0.9,25-0.1,50.1-0.4,75.1c0,2,0.4,3.9,1.9,5.4
		c1.1,1,2.3,1.7,3.9,1.7C38.5,92.3,44.7,92.3,51,92.3z"/>
</g>
<g id="ssl" class="st0">
	<path class="st14" d="M7.6,86.8c-0.9,0-1.6-0.7-1.6-1.6L5.9,67.3c0-1.9,0-3.8,0.1-5.7c0-1.2,1-2.2,2.2-2.2c0.6,0,1.2,0,1.9,0
		c1.7,0,3.4,0,5.1,0c4.8,0,9.6,0,14.4,0c1.6,0.2,3.2,0,4.8,0c0.6,0.3,1.2,0.2,1.8,0.2c1.9,0.1,2.3,0.5,2.3,2.2c0,3.2,0,6.3,0,9.5
		l0,2.8c0,1.4,0,2.7,0,4.1c0,1.9,0,3.9-0.1,5.8c0,2.3,0.1,2.7-2.7,2.7c-3.9,0.1-7.9,0-11.8,0C24,86.8,12,86.8,7.6,86.8z M20.5,74.3
		c0,0.6,0,1.1,0,1.7c0,1.1,0.7,1.9,1.7,1.9c1.1,0,1.8-0.7,1.9-1.9c0-0.9,0.1-1.9,0-2.8c-0.1-0.9,0.2-1.5,0.8-2.1
		c0.8-0.7,1.1-1.7,1.1-2.7c0-1.3-1.1-2.8-2.3-3.2c-1.9-0.6-3.2-0.2-4.4,1.5c-0.7,1-0.8,3.1,0.1,4C20.4,71.7,20.6,72.9,20.5,74.3z"/>
	<path class="st15" d="M63.7,19.8c0.9-1,1.8-2,2.7-2.9c2.9-2.7,6.3-4.2,10.4-4.4c4.1-0.2,7.5,1.2,10.7,3.5c3.3,2.4,5.2,5.7,6.1,9.6
		c1.6,6.8-1.9,14.4-8.1,17.8c-1.9,1-3.8,1.8-6,2.3c-1.8-0.1-3.6,0.1-5.3-0.4c-1.4-0.1-2.6-0.7-3.9-1.3c-2.9-1.4-5.2-3.6-6.9-6.4
		c-1.5-2.6-2.6-5.4-2.4-8.6c0.1-1.4,0.2-2.7,0.4-4.1C62.1,23.1,63,21.5,63.7,19.8z M70.2,26c-0.6-0.1-1.2,0.1-1.4,0.7
		c-0.2,0.6-0.1,1.1,0.4,1.6c2.1,2.1,4.2,4.2,6.3,6.3c0.6,0.6,1.5,0.6,2.2,0c2.8-2.8,5.5-5.5,8.2-8.3c0.7-0.7,0.7-1.5,0.1-2
		c-0.6-0.6-1.4-0.6-2,0c-1.8,1.4-3.3,3.1-4.9,4.8c-0.7,0.8-1.4,1.5-2.2,2.2c-0.3,0.2-0.5,0.3-0.8,0c-1.4-1.7-3.2-3.1-4.7-4.6
		C71,26.2,70.7,25.9,70.2,26z"/>
	<path class="st16" d="M63.7,19.8c-0.8,1.7-1.6,3.3-2.2,5.1c-0.5-0.3-0.8-0.7-1.2-0.9c-3.3-1.8-6.6-3.6-9.9-5.5
		c-1.1-0.7-2-0.8-3.1-0.1c-3.2,1.9-6.5,3.6-9.7,5.4c-4.3,2.4-8.6,4.9-12.9,7.3c-1.3,0.7-1.7,1.7-1.7,3.1c0,2.6,0.3,5.2-0.2,7.8
		c-1.7-0.1-3.3,0.2-4.9,0.6c-0.4-1.1-0.1-2.3-0.1-3.4c0-2.8-0.1-5.6,0.1-8.5c0.1-1.4,0.9-2.3,2-3c1.6-1.2,3.6-1.8,5.2-3
		c2.1-1.5,4.5-2.4,6.7-3.7c4.8-2.9,9.8-5.4,14.6-8.3c1.9-1.2,3.5-0.7,5.3,0.2c4,2.1,7.8,4.5,11.7,6.6C63.6,19.4,63.7,19.6,63.7,19.8
		z"/>
	<path class="st16" d="M74.2,45.2c1.7,0.5,3.6,0.3,5.3,0.4c-0.7,4.8-1.7,9.6-3.8,14.1c-0.6,1.3-1.3,2.4-2,3.7c-1,2-2.3,3.7-3.8,5.3
		c-1.6,1.9-3.5,3.6-5.3,5.3c-2.5,2.4-5.5,4.2-8.4,6c-1.9,1.2-3.9,2.2-5.8,3.3c-1.2,0.6-2.3,0.6-3.4,0c-2.4-1.2-4.7-2.6-6.9-4
		c-0.5-0.3-1.2-0.3-1.5-1c0-1.4,0.2-2.7-0.1-4.1c0-0.5,0-1.1,0-1.6c0.7-0.1,1.4,0.2,2,0.6c2.4,1.5,4.9,3,7.4,4.5
		c0.5,0.3,1,0.6,1.6,0.2c3-1.8,6.1-3.4,8.9-5.5c3.5-2.6,6.6-5.6,9.1-9.2c2.4-3.4,4.1-7.2,5.2-11.1C73.4,49.8,73.9,47.5,74.2,45.2z"
		/>
	<path class="st15" d="M17.9,42.4c1.6-0.4,3.2-0.7,4.9-0.6c2.3,0.3,4.6,0.9,6.5,2.3c0.4,0.3,0.9,0.4,1.3,0.1c0.5,1.1,1.3,2,2.2,2.9
		c0,0.4-0.1,0.9,0.2,1.2c1,1.3,1.2,2.9,1.5,4.5c0,0.8,0,1.7,0,2.5c-0.2,1.4,0.2,2.8-0.2,4.1c-1.6,0-3.2,0.2-4.8,0c0-1.3,0-2.7-0.1-4
		c-0.1-1.4,0-2.8-0.6-4.1c-1.4-3-4.4-4.7-7.8-4.2c-3.1,0.5-5.8,3.5-5.8,6.5c0,1.6-0.1,3.3-0.1,4.9l0,0.1l0.1,0c0,0.3,0,0.5,0,0.8
		c-1.7,0-3.4,0-5.1,0c-0.1-2.7-0.2-5.3,0.3-7.9c0.5-2.8,2.1-5.1,4.3-6.9C15.7,43.7,16.9,43.2,17.9,42.4z"/>
	<path class="st17" d="M38.5,74.1c0.3,1.4,0.1,2.7,0.1,4.1c0,0-0.1,0-0.1,0C38.5,76.9,38.5,75.5,38.5,74.1z"/>
	<path class="st18" d="M30.6,44.2c-0.5,0.3-0.9,0.3-1.3-0.1c-1.9-1.4-4.2-2-6.5-2.3c0.4-2.6,0.2-5.2,0.2-7.8c0-1.4,0.5-2.4,1.7-3.1
		c4.3-2.4,8.6-4.9,12.9-7.3c3.2-1.8,6.5-3.6,9.7-5.4c1.1-0.7,2-0.5,3.1,0.1c3.2,1.9,6.6,3.7,9.9,5.5c0.5,0.3,0.8,0.7,1.2,0.9
		c-0.3,1.3-0.4,2.7-0.4,4.1c-0.2,3.2,0.9,6,2.4,8.6c1.6,2.8,3.9,5,6.9,6.4c1.2,0.6,2.5,1.2,3.9,1.3c-0.3,2.3-0.8,4.6-1.5,6.8
		c-1.2,4-2.8,7.7-5.2,11.1c-2.5,3.6-5.6,6.6-9.1,9.2c-2.8,2.1-5.9,3.7-8.9,5.5c-0.6,0.4-1.1,0.1-1.6-0.2c-2.5-1.5-4.9-3-7.4-4.5
		c-0.6-0.4-1.2-0.7-2-0.6c0-3.5,0-7.1,0-10.6c0-1.8-0.4-2.2-2.3-2.3c-0.6,0-1.2,0.1-1.8-0.2c0.4-1.4,0.1-2.8,0.2-4.1
		c0.6,0,1.2,0,1.8,0c2.8,0.1,5.3-1.8,5.3-4.7c0-2.3-1.1-4.2-3.3-4.9c-0.9-0.3-1.8-0.1-2.7-0.4c-0.8-0.3-1.6-0.5-1.9-1.3
		c-0.7-1.7,0.4-3,2.4-3.1c0.3,0,0.6,0.1,0.9-0.1c0.2,0,0.4,0,0.6,0c0.1,0.1,0.2,0.1,0.4,0c0.6,0,1.2,0,1.8-0.1
		c1.1-0.1,1.6-0.7,1.3-1.7c-0.2-0.8-0.9-0.9-1.6-0.9c-1.4,0-2.9,0-4.3,0c-0.9,0-1.7,0.4-2.5,0.9C31,40.3,30.4,42.1,30.6,44.2z
		 M59.2,55.4c0.1,0.1,0.1,0.1,0.2,0c1.1,0,2.2,0,3.3,0c0.1,0.2,0.3,0.2,0.4,0c0.1,0,0.3,0,0.4,0c0.3,0.2,0.5,0.2,0.8,0
		c0.2,0,0.4,0,0.6,0c0.1,0.2,0.3,0.2,0.4,0c0.7-0.1,1.4-0.2,1.6-1.1c0.1-0.9-0.4-1.3-1.2-1.5c-0.1-0.1-0.2-0.2-0.3-0.1
		c-1.9,0-3.8,0-5.7,0c-0.8,0-1.1-0.3-1-1.1c0-3.2,0-6.4,0-9.6c0-0.9-0.1-1.9-0.2-2.8c0-0.4-0.2-0.8-0.7-1c-1.2-0.5-2,0.1-2,1.7
		c0,4.5,0,9.1,0,13.6c0,0.9,0.4,1.5,1.4,1.7c0.1,0.1,0.1,0.1,0.2,0C57.9,55.4,58.5,55.4,59.2,55.4z M50.6,40.8c0.7,0,1.5,0,2.2-0.1
		c0.6-0.1,1-0.4,1.1-1.1c0.1-0.7-0.2-1.2-0.9-1.3c-2.2-0.3-4.4-0.5-6.5,0.2c-2,0.7-3.4,2.6-3.3,4.7c0.1,1.8,1.2,3.8,3.4,4.6
		c1.2,0.4,2.4,0.3,3.6,0.7c1.3,0.5,1.7,1.9,0.9,3.1c-0.6,0.8-1.4,1-2.2,1.1c-1.2,0.1-2.5-0.1-3.7,0.2c-0.1-0.1-0.3-0.1-0.4,0
		c-0.8,0.1-1.3,0.5-1.2,1.2c0.1,0.7,0.6,1.3,1.5,1.3c1.2,0,2.4,0,3.6,0.1c0.1,0.1,0.1,0.1,0.2,0c2.8,0.1,5-1.8,5.4-4
		c0.5-2.4-1-5-3.3-5.6c-1.1-0.3-2.2-0.2-3.3-0.6c-0.8-0.3-1.4-0.9-1.5-1.8c-0.1-0.9,0.3-1.6,1-2c0.6-0.4,1.2-0.5,1.9-0.4
		c0.3,0,0.5,0.1,0.8-0.1c0.1,0,0.3,0,0.4,0C50.3,40.9,50.4,40.9,50.6,40.8z"/>
	<path class="st15" d="M20.5,74.3c0.2-1.4-0.1-2.6-1.1-3.6c-0.9-0.9-0.9-3-0.1-4c1.2-1.7,2.4-2.1,4.4-1.5c1.2,0.4,2.3,1.8,2.3,3.2
		c0,1-0.3,2-1.1,2.7c-0.6,0.6-0.9,1.2-0.8,2.1c0.1,0.9,0.1,1.9,0,2.8c0,1.2-0.8,1.9-1.9,1.9c-0.9,0-1.6-0.8-1.7-1.9
		C20.4,75.4,20.5,74.8,20.5,74.3z"/>
	<path class="st19" d="M70.2,26c0.5-0.1,0.8,0.1,1.1,0.4c1.6,1.5,3.3,2.9,4.7,4.6c0.3,0.3,0.5,0.3,0.8,0c0.8-0.6,1.5-1.4,2.2-2.2
		c1.6-1.6,3.1-3.3,4.9-4.8c0.7-0.5,1.4-0.5,2,0c0.6,0.5,0.5,1.3-0.1,2c-2.7,2.8-5.5,5.6-8.2,8.3c-0.7,0.7-1.6,0.7-2.2,0
		c-2.1-2.1-4.2-4.2-6.3-6.3c-0.5-0.5-0.6-1-0.4-1.6C69,26.1,69.6,25.9,70.2,26z"/>
	<path class="st19" d="M37.7,40.8c-0.2,0-0.4,0-0.6,0c-0.3-0.1-0.6-0.1-0.9,0.1c-2,0.1-3.1,1.5-2.4,3.1c0.3,0.9,1.1,1.1,1.9,1.3
		c0.9,0.3,1.8,0.1,2.7,0.4c2.2,0.7,3.3,2.6,3.3,4.9c0,2.9-2.5,4.8-5.3,4.7c-0.6,0-1.2,0-1.8,0c0-0.8,0-1.7,0-2.5
		c0.8,0,1.6,0,2.4-0.2c1.2-0.3,2.2-1.3,2.1-2.3c-0.2-1.4-0.9-2-2.4-2c-1.3-0.1-2.7-0.3-3.8-1.1c-0.8-0.9-1.6-1.8-2.2-2.9
		c-0.2-2.1,0.4-3.9,2.2-5.2c0.8-0.5,1.6-0.9,2.5-0.9c1.4,0,2.9,0,4.3,0c0.6,0,1.3,0.1,1.6,0.9c0.3,1-0.2,1.6-1.3,1.7
		c-0.6,0-1.2,0-1.8,0.1C37.9,40.8,37.8,40.8,37.7,40.8z"/>
	<path class="st17" d="M32.8,47.1c1.1,0.8,2.4,1.1,3.8,1.1c1.5,0.1,2.3,0.7,2.4,2c0.1,0.9-0.9,2-2.1,2.3c-0.8,0.2-1.6,0.2-2.4,0.2
		c-0.4-1.5-0.5-3.1-1.5-4.5C32.7,48,32.8,47.6,32.8,47.1z"/>
	<path class="st17" d="M15.1,58.5c0,0,0,0.1,0,0.1C15.1,58.6,15,58.6,15.1,58.5L15.1,58.5z"/>
	<path class="st19" d="M49,40.9c-0.7,0-1.3,0.1-1.9,0.4c-0.7,0.5-1.2,1.1-1,2c0.1,0.9,0.7,1.5,1.5,1.8c1.1,0.4,2.2,0.3,3.3,0.6
		c2.3,0.6,3.8,3.3,3.3,5.6c-0.5,2.2-2.6,4.1-5.4,4c-0.1,0-0.1,0-0.2,0c-1.2,0-2.4,0-3.6-0.1c-0.8,0-1.4-0.5-1.5-1.3
		c-0.1-0.7,0.4-1.2,1.2-1.2c0.1,0,0.3,0,0.4,0c1.2-0.2,2.5-0.1,3.7-0.2c0.9-0.1,1.7-0.3,2.2-1.1c0.8-1.2,0.5-2.6-0.9-3.1
		c-1.2-0.4-2.4-0.3-3.6-0.7c-2.3-0.8-3.4-2.7-3.4-4.6c-0.1-2,1.2-4,3.3-4.7c2.1-0.7,4.3-0.5,6.5-0.2c0.7,0.1,1,0.6,0.9,1.3
		c-0.1,0.6-0.5,1-1.1,1.1c-0.7,0.1-1.5,0.1-2.2,0.1c-0.1,0-0.2,0-0.4,0c-0.1,0-0.3,0-0.4,0C49.5,40.7,49.2,40.7,49,40.9z"/>
	<path class="st19" d="M57,55.4c-0.9-0.2-1.4-0.8-1.4-1.7c0-4.5,0-9.1,0-13.6c0-1.6,0.8-2.2,2-1.7c0.5,0.2,0.7,0.5,0.7,1
		c0.1,0.9,0.2,1.9,0.2,2.8c0,3.2,0,6.4,0,9.6c0,0.8,0.2,1.1,1,1.1c1.9,0,3.8,0,5.7,0c0.1,0,0.2,0,0.3,0.1c0.7,0.2,1.3,0.6,1.2,1.5
		c-0.1,0.9-0.8,1-1.6,1.1c-0.1,0-0.2,0-0.4,0c-0.2,0-0.4,0-0.6,0c-0.3,0-0.5,0-0.8,0c-0.1,0-0.3,0-0.4,0c-0.1,0-0.3,0-0.4,0
		c-1.1,0-2.2,0-3.3,0c-0.1,0-0.1,0-0.2,0c-0.7,0-1.3,0-2,0C57.1,55.4,57.1,55.4,57,55.4z"/>
	<path class="st16" d="M36.1,40.9c0.3-0.2,0.6-0.2,0.9-0.1C36.8,41,36.4,40.9,36.1,40.9z"/>
	<path class="st16" d="M63.5,55.4c0.3,0,0.5,0,0.8,0C64,55.6,63.7,55.6,63.5,55.4z"/>
	<path class="st16" d="M49,40.9c0.2-0.2,0.5-0.2,0.8-0.1C49.5,40.9,49.2,40.9,49,40.9z"/>
	<path class="st20" d="M45.1,52.8c-0.1,0-0.3,0-0.4,0C44.8,52.7,45,52.7,45.1,52.8z"/>
	<path class="st16" d="M62.7,55.4c0.1,0,0.3,0,0.4,0C62.9,55.6,62.8,55.6,62.7,55.4z"/>
	<path class="st16" d="M64.8,55.4c0.1,0,0.2,0,0.4,0C65.1,55.6,65,55.6,64.8,55.4z"/>
	<path class="st16" d="M65.6,52.8c-0.1,0-0.2,0-0.3-0.1C65.4,52.6,65.5,52.6,65.6,52.8z"/>
	<path class="st16" d="M50.2,40.8c0.1,0,0.2,0,0.4,0C50.4,40.9,50.3,40.9,50.2,40.8z"/>
	<path class="st16" d="M37.7,40.8c0.1,0,0.2,0,0.4,0C37.9,40.9,37.8,40.9,37.7,40.8z"/>
	<path class="st16" d="M59.2,55.4c0.1,0,0.1,0,0.2,0C59.3,55.5,59.2,55.5,59.2,55.4z"/>
	<path class="st16" d="M57,55.4c0.1,0,0.1,0,0.2,0C57.1,55.5,57.1,55.5,57,55.4z"/>
	<path class="st16" d="M48.6,55.4c0.1,0,0.1,0,0.2,0C48.7,55.5,48.7,55.5,48.6,55.4z"/>
</g>
<g id="Layer_4" class="st0">
</g>
</svg>
