<?xml version="1.0" encoding="utf-8"?>
<!-- Generator: Adobe Illustrator 27.5.0, SVG Export Plug-In . SVG Version: 6.00 Build 0)  -->
<svg version="1.1" id="Layer_1" xmlns="http://www.w3.org/2000/svg" xmlns:xlink="http://www.w3.org/1999/xlink" x="0px" y="0px"
	 viewBox="0 0 467 467" style="enable-background:new 0 0 467 467;" xml:space="preserve">
<style type="text/css">
	.st0{fill:#2B2B2B;}
	.st1{fill:#FFFFFF;}
</style>
<circle class="st0" cx="233" cy="234" r="214"/>
<path class="st1" d="M377.8,343.2H89.9c-7.8,0-14.2-6.3-14.2-14.2V136.2c0-7.8,6.3-14.2,14.2-14.2h287.9c7.8,0,14.2,6.3,14.2,14.2
	V329C392,336.9,385.7,343.2,377.8,343.2z"/>
<path class="st0" d="M123.1,317.8c25.3-26,50-51.4,75-77.2c4.8,3.7,9.5,7.3,14.2,10.9c2.8,2.1,5.5,4.3,8.3,6.3
	c11.3,8.1,15.7,8.2,26.8,0.1c7.5-5.5,14.8-11.3,22.6-17.3c24.8,25.5,49.6,51,75,77.2C270.8,317.8,197.5,317.8,123.1,317.8z"/>
<path class="st0" d="M335.4,150.1c-34.3,26.4-67.6,52-101.3,77.8c-33.5-25.7-66.9-51.4-101.3-77.8
	C200.6,150.1,267.3,150.1,335.4,150.1z"/>
<path class="st0" d="M101.3,166.3c24,18.4,47.3,36.4,71.1,54.7c-23.6,24.4-47,48.6-71.1,73.5C101.3,251.4,101.3,209.3,101.3,166.3z"
	/>
<path class="st0" d="M366.6,294.3c-23.9-24.7-47.2-48.8-70.9-73.3c23.7-18.2,47-36.2,70.9-54.6C366.6,209.2,366.6,251.3,366.6,294.3
	z"/>
</svg>
