<?xml version="1.0" encoding="utf-8"?>
<!-- Generator: Adobe Illustrator 27.5.0, SVG Export Plug-In . SVG Version: 6.00 Build 0)  -->
<svg version="1.1" id="Layer_1" xmlns="http://www.w3.org/2000/svg" xmlns:xlink="http://www.w3.org/1999/xlink" x="0px" y="0px"
	 viewBox="0 0 561.8 573.7" style="enable-background:new 0 0 561.8 573.7;" xml:space="preserve">
<style type="text/css">
	.st0{fill:#35ED64;}
	.st1{fill:#34B9EF;}
</style>
<g id="uYUfGl.tif">
	<g>
		<path class="st0" d="M216.4,213.6c4.4-10.5,11.4-19.2,19.4-27.1c35.7-35.6,71.6-71.1,107-106.9c17.4-17.6,37.6-29.3,62.3-32.9
			c0.8-0.1,1.7-0.1,2.1-1c8,0,16,0,24,0c7.8,2.1,15.8,3.7,23.5,6.3c22.8,7.7,40.4,22.2,53.2,42.3c9.1,14.2,13.9,29.8,15.4,46.8
			c2.4,27.7-5.3,52-22,73.8c-2.8,3.7-6,7-9.3,10.3c-36.2,36.3-72.5,72.5-108.8,108.7c-7.6,7.6-15.9,14.5-25.8,19.2
			c-1.9,0.9-3.5,2.3-5.3,3.5c-1.8-0.2-3.2,0.8-4.7,1.4c-12.7,5.1-25.7,7.9-39.5,7.8c-8.3-0.1-16.4-1.6-24.6-2.2
			c-4.6-2.4-10-3-14.5-5.3c-14.1-7.2-27.6-15.2-38.2-27.6c-11.1-13.1-19-27.5-23.3-44.1c6.2-6.2,11.9-12.9,18.6-18.6
			c8-6.8,17.2-11.6,28.3-11.3c0.1,2.2,0.1,4.3,0.2,6.5c0.4,16.6,7.4,30,20.2,40.4c5.7,4.6,12.3,7.2,19.2,9.7
			c7,2.5,13.5,2.9,20.4,1.6c7.7,0.2,14.4-2.9,21-6.5c10.5-5.7,16.8-15.8,25.3-23.6c1.4,0.2,2.1-0.7,2.9-1.5c32-32,64.2-63.9,96-96.2
			c15.8-16.1,19.5-41.7,8.6-61.9c-8.9-16.4-22.6-25.9-41.3-28.5c-18.1-2.5-33.1,3.2-45.7,15.8c-27.8,27.8-55.6,55.6-83.4,83.4
			c-4.3,4.3-8.8,8.5-13.2,12.7c-4.1,0.3-7.6-3.1-11.3-2.6c-7.8,0.9-15.6-0.9-23.5,0.6c-9,1.6-18.4,1.7-26.8,6.1
			C220.6,213.5,218.6,213.7,216.4,213.6z"/>
		<path class="st1" d="M283.2,363.4c8.2,0.7,16.3,2.2,24.6,2.2c13.8,0.1,26.8-2.7,39.5-7.8c1.5-0.6,2.9-1.6,4.7-1.4
			c-3.9,8.9-9.3,16.7-16,23.9c-9.3,10-18.8,19.6-28.5,29.2c-27.6,27.6-55.3,55-82.8,82.7c-15.3,15.3-33.4,25.6-54.2,31
			c-3.4,0.9-7.1,0.4-10.3,2.2c-8,0-16,0-24,0c-7.2-1.7-14.7-2.7-21.5-5.4c-33.3-13-56.4-35.8-66.7-70.7c-1.6-5.3-1.7-10.8-3.8-15.9
			c0-6,0-12,0-18c1-1.1,1-2.4,0.6-3.8c0.7-14.2,4.5-27.6,11.4-39.9c5.2-9.2,11.7-17.4,19.1-24.8c37.9-37.8,75.7-75.8,113.7-113.6
			c6.5-6.4,14-11.8,22.3-15.9c1.9-0.9,3.9-1.8,5-3.9c2.2,0.1,4.2-0.1,6.2-1.2c8.4-4.3,17.7-4.4,26.8-6.1c7.9-1.4,15.7,0.3,23.5-0.6
			c3.7-0.4,7.2,3,11.3,2.6c1.2,1.8,3.3,1.1,5,1.6c18.2,5.9,34.2,15.1,47.2,29.3c11.9,13,19.8,28.1,23.8,45.2
			c-8.4,7.9-14.8,17.9-25.3,23.6c-6.6,3.6-13.3,6.7-21,6.5c-0.4-10.6-0.9-21-6.5-30.6c-7-11.9-16.7-20.8-29.6-25.3
			c-7.6-2.6-15.6-5-23.8-2.2c-11-0.3-20.3,4.5-28.3,11.3c-6.6,5.6-12.4,12.3-18.6,18.6c-0.6,0.5-1.4,0.9-1.9,1.5
			c-31.5,31.4-63,62.8-94.4,94.3c-2.8,2.8-5.6,5.6-7.8,9c-8.3,13-10.9,26.9-7.7,42c1.8,8.7,6,16.1,11.6,22.9
			c9.6,11.5,22,18,36.8,19.3c18,1.5,32.9-5.8,45.5-18.3c28.9-28.8,57.7-57.7,86.6-86.5C278.3,368.1,280.2,365.2,283.2,363.4z"/>
		<path class="st1" d="M44.9,411.7c0.4,1.4,0.4,2.7-0.6,3.8c0-1.3,0-2.7,0-4l0.4-0.2L44.9,411.7z"/>
		<path class="st1" d="M388.1,396.8c0.3-5.7,5.1-8.6,10.4-6.5c1.7,0.7,3.3,1.5,4.6,2.8c15.2,15.2,30.5,30.3,45.5,45.6
			c5.5,5.6,4.4,11.1-2.3,14.1c-3.2,1.4-5.7,0.6-8-1.7c-16-16-32-32.1-48.1-48C388.5,401.3,387.9,399.2,388.1,396.8z"/>
		<path class="st1" d="M332.2,457.3c0-9,0-18,0-26.9c0-5.3,2.9-8.7,7.2-8.9c5-0.2,8.7,3.1,8.7,8.6c0.2,18.3,0.1,36.6,0,54.9
			c0,4.7-4.2,8.5-8.6,8.5c-4.3,0-7.3-3.4-7.3-8.7C332.1,475.5,332.2,466.4,332.2,457.3z"/>
		<path class="st1" d="M455.5,349.5c-8.8,0-17.6,0-26.5,0c-5.6,0-8.7-2.8-8.8-7.8c-0.1-5.1,3.1-8.2,8.9-8.2c17.6-0.1,35.3,0,52.9,0
			c5.8,0,10,3.4,10,8c0,4.3-4.6,8-10.1,8C473.1,349.5,464.3,349.5,455.5,349.5z"/>
		<path class="st1" d="M122.6,117.5c3.8,0.1,6.3,1.4,8.3,3.4c15.5,15.4,31,30.7,46.3,46.3c5.2,5.3,3.8,10.8-2.6,13.7
			c-3,1.3-5.5,0.8-7.7-1.3c-16.3-16.2-32.5-32.5-48.8-48.7c-2.6-2.6-2.6-6-1.3-8.8C118,119.7,119.9,117.1,122.6,117.5z"/>
		<path class="st1" d="M111.7,237.6c-8.8,0-17.6,0-26.5,0c-6.4,0-9.7-2.6-10-7.7c-0.2-4.1,4.4-8.1,9.9-8.2c6-0.1,12,0,18,0
			c12,0,24-0.1,35.9,0c3.4,0,6.4,0.9,8.1,4.4c1.5,3,0.9,5.6-0.8,8.3c-1.8,2.8-4.3,3.2-7.2,3.2C130,237.6,120.9,237.6,111.7,237.6z"
			/>
		<path class="st1" d="M220.2,112.9c0-8.6,0-17.3,0-25.9c0-6.1,2.6-9.3,7.4-9.4c5.3-0.1,8.5,3.5,8.6,9.8c0,13.8,0,27.6,0,41.4
			c0,4,0.1,8,0,12c-0.2,5.1-3.9,8.9-8.6,8.8c-4.3,0-7.3-3.4-7.3-8.7C220.2,131.5,220.2,122.2,220.2,112.9z"/>
	</g>
</g>
</svg>
