<?xml version="1.0" encoding="utf-8"?>
<!-- Generator: Adobe Illustrator 27.5.0, SVG Export Plug-In . SVG Version: 6.00 Build 0)  -->
<svg version="1.1" id="Layer_1" xmlns="http://www.w3.org/2000/svg" xmlns:xlink="http://www.w3.org/1999/xlink" x="0px" y="0px"
	 viewBox="0 0 467 467" style="enable-background:new 0 0 467 467;" xml:space="preserve">
<style type="text/css">
	.st0{fill:#FF0000;}
	.st1{fill:#FFFFFF;}
</style>
<circle class="st0" cx="233" cy="234" r="214"/>
<g>
	<path class="st1" d="M372.4,346H91.8c-7.6,0-13.8-6.1-13.8-13.8V144.3c0-7.6,6.1-13.8,13.8-13.8h280.6c7.6,0,13.8,6.1,13.8,13.8
		v187.9C386.3,339.9,380.1,346,372.4,346z"/>
	<path class="st0" d="M124.2,321.2c24.7-25.3,48.7-50.1,73.1-75.2c4.7,3.6,9.3,7.1,13.8,10.6c2.7,2,5.4,4.2,8.1,6.1
		c11,7.9,15.3,8,26.1,0.1c7.3-5.4,14.4-11,22-16.9c24.2,24.9,48.3,49.7,73.1,75.2C268.1,321.2,196.7,321.2,124.2,321.2z"/>
	<path class="st0" d="M331.1,157.8c-33.4,25.7-65.9,50.7-98.7,75.8c-32.6-25-65.2-50.1-98.7-75.8
		C199.7,157.8,264.7,157.8,331.1,157.8z"/>
	<path class="st0" d="M102.9,173.6c23.4,17.9,46.1,35.5,69.3,53.3c-23,23.8-45.8,47.4-69.3,71.6
		C102.9,256.5,102.9,215.5,102.9,173.6z"/>
	<path class="st0" d="M361.5,298.3c-23.3-24.1-46-47.6-69.1-71.4c23.1-17.7,45.8-35.3,69.1-53.2
		C361.5,215.4,361.5,256.4,361.5,298.3z"/>
</g>
</svg>
