<?xml version="1.0" encoding="utf-8"?>
<!-- Generator: Adobe Illustrator 27.5.0, SVG Export Plug-In . SVG Version: 6.00 Build 0)  -->
<svg version="1.1" xmlns="http://www.w3.org/2000/svg" xmlns:xlink="http://www.w3.org/1999/xlink" x="0px" y="0px"
	 viewBox="0 0 854 828" style="enable-background:new 0 0 854 828;" xml:space="preserve">
<style type="text/css">
	.st0{fill:#050505;}
	.st1{fill:#05E723;}
	.st2{fill:#00E676;}
	.st3{fill:#FF6809;}
	.st4{display:none;}
	.st5{display:inline;fill:#050505;}
	.st6{display:inline;fill:url(#SVGID_1_);}
	.st7{display:inline;fill:url(#SVGID_00000062891961836166228970000002043740230121468055_);}
	.st8{display:inline;fill:url(#SVGID_00000038405396845334392440000006173311602680926360_);}
	.st9{display:inline;fill:#05E723;}
	.st10{display:inline;fill:#00E676;}
	.st11{display:inline;fill:#FF6809;}
	.st12{display:inline;fill:url(#SVGID_00000156559633201387473770000016397152985309136291_);}
	.st13{fill:#FFFFFF;}
	.st14{fill:#FF6000;}
</style>
<g id="Layer_1">
	<path class="st0" d="M241.8,519.1"/>
	<path class="st0" d="M202.7,559.4"/>
	<path class="st0" d="M183,578"/>
	<path class="st0" d="M181,580"/>
	<path class="st1" d="M234.2,517"/>
	<path class="st1" d="M487.2,265c-0.8,0.8-1.5,1.6-2.3,2.4"/>
	<path class="st1" d="M511,241c-0.6,0.8-1.2,1.5-1.8,2.3"/>
	<path class="st1" d="M518,235c-0.7,0-1.3,0-2,0"/>
	<path class="st2" d="M437.3,297.8c-32.3-22.3-71.1-30.1-109.9-23.2c-32.6,6.5-64.3,24.5-84.4,51.4c-0.7,0.9-1.3,1.7-2,2.6
		c-23.6,31.2-31.7,69.1-27.5,107.6c0.6,4,1.5,7.9,2.5,11.8c0.2,0.8,0.4,1.6,0.6,2.3c5.3,20.4,12.5,35.1,21.2,46.1l-83.2,82.4
		C123,540.2,103.5,492.5,98,443c-0.1-0.8-0.2-1.6-0.3-2.4C90.6,373.6,111,307.9,152,255c0.8-1,1.5-1.9,2.3-2.9
		c14.5-18.1,31.1-33.3,49.7-47.1c0.9-0.7,1.8-1.4,2.8-2.1C225,189.9,245,179.8,266,172c1.1-0.4,1.1-0.4,2.2-0.8
		C344.6,143,437,155.3,503,203c1.5,1.1,1.5,1.1,3.1,2.2c7.6,5.6,7.2,5.1,13,10.4L437.3,297.8z"/>
	<path class="st1" d="M479,271c0,0.7,0,1.3,0,2"/>
	<path class="st3" d="M460.3,511.7"/>
</g>
<g id="Layer_1_copy" class="st4">
	<path class="st5" d="M241.8,519.1"/>
	<path class="st5" d="M202.7,559.4"/>
	<path class="st5" d="M183,578"/>
	<path class="st5" d="M181,580"/>
	<linearGradient id="SVGID_1_" gradientUnits="userSpaceOnUse" x1="600.725" y1="149.6401" x2="600.725" y2="149.6401">
		<stop  offset="1.277974e-03" style="stop-color:#3D3A44"/>
		<stop  offset="1" style="stop-color:#3D3A44"/>
	</linearGradient>
	<path class="st6" d="M600.7,149.6"/>
	
		<linearGradient id="SVGID_00000150067060975235319940000015262877768220684724_" gradientUnits="userSpaceOnUse" x1="583.6763" y1="144.2502" x2="583.6763" y2="144.2502">
		<stop  offset="1.277974e-03" style="stop-color:#3D3A44"/>
		<stop  offset="1" style="stop-color:#3D3A44"/>
	</linearGradient>
	<path style="display:inline;fill:url(#SVGID_00000150067060975235319940000015262877768220684724_);" d="M583.7,144.3"/>
	
		<linearGradient id="SVGID_00000127758701052448174990000005950012903750334378_" gradientUnits="userSpaceOnUse" x1="169.452" y1="376.4637" x2="767.6747" y2="376.4637">
		<stop  offset="1.277974e-03" style="stop-color:#3D3A44"/>
		<stop  offset="1" style="stop-color:#3D3A44"/>
	</linearGradient>
	<path style="display:inline;fill:url(#SVGID_00000127758701052448174990000005950012903750334378_);" d="M169.5,602.8
		c0.8-0.8,95-95,95.8-95.8c2.6-2.6,5.2-5.2,7.9-7.9c1.9-1.9,3.8-3.8,5.6-5.6c4.6-4.6,9.2-9.2,13.7-13.7c5.3-5.3,10.7-10.7,16-16
		c9.5-9.5,19-19.1,28.6-28.6c9.2-9.2,18.5-18.5,27.7-27.7c0.6-0.6,1.1-1.1,1.7-1.7c0.6-0.6,1.1-1.1,1.7-1.7
		c10.5-10.5,21-21,31.6-31.6c3.7-3.7,7.4-7.4,11.1-11.1c4.5-4.5,9.1-9.1,13.6-13.6c2.3-2.3,4.6-4.6,6.9-6.9c2.5-2.5,5-5,7.5-7.5
		c0.7-0.7,1.4-1.4,2.2-2.2c3.9-4,7.7-8,11.3-12.2c2.1-2.4,4.2-4.6,6.4-6.8c1.4-1.4,1.4-1.4,2.7-2.7c1-1,2-1.9,2.9-2.9
		c1-1,2.1-2.1,3.1-3.1c2.8-2.8,5.6-5.6,8.5-8.4c3-2.9,5.9-5.9,8.9-8.8c5.6-5.6,11.2-11.1,16.7-16.7c6.4-6.3,12.7-12.7,19.1-19.1
		c12.2-12.2,24.3-24.3,36.5-36.5c1.6-1.6,1.9-4.1,0.8-6l0,0c-0.5-0.9-0.5-0.9-1-1.9c-6.7-11.1-19.7-18.6-30.1-25.8
		c-0.8-0.5-1.5-1-2.3-1.6c-3.9-2.7-7.8-5.3-11.6-8c-8.5-5.8-16.9-11.7-25.3-17.6c-2.6-1.8-5.2-3.6-7.8-5.3c-1.5-1-3-2.1-4.5-3.1
		c-0.7-0.5-1.3-0.9-2-1.4c-5.2-3.6-10.2-7.7-12.3-13.8c-0.1-0.2-0.1-0.4-0.1-0.6c-0.7-5.4-0.8-6.4,0.4-8.2c0.5-0.8,1.1-1.4,1.9-2
		c1.4-1.2,2.9-2.3,4.5-3.3c0.2-0.1,0.4-0.3,0.5-0.4c0.6-0.4,1.1-0.9,1.7-1.3c0.6-0.5,1.3-0.9,1.9-1.4l0,0c1.4-1,3-1.7,4.7-1.9
		c5.6-0.6,11.6,1.7,16.7,3.7c1.2,0.4,1.2,0.4,2.3,0.9c2.5,1,5,1.9,7.5,2.9c1.8,0.7,3.5,1.3,5.3,2c8.3,3.2,16.7,6.4,25,9.6
		c2.7,1.1,5.4,2.1,8.1,3.2c2,0.8,4,1.5,5.9,2.3c2.9,1.1,5.7,2.3,8.5,3.6l50.6,23.6c25.9,0.4,33.3-4,50.3-14.4
		c8.4-5.4,15.8-11.9,23.1-18.6c1.7-1.5,3.5-3.1,5.2-4.6c3.1-2.8,6.1-5.6,9.1-8.4c33.9-31.3,42.8-40.5,56.1-36.8
		c0,0,22.9,5.3,16,26.4c-6.6,20-16.3,31.7-26.5,46.2c-0.5,0.8-1.1,1.5-1.7,2.2c-2,2.3-4.1,4.6-6.1,6.9c-0.8,0.9-1.6,1.8-2.4,2.8
		c-25.7,29.5-35.4,48.2-32.5,66.6c0.1,0.4-0.1,0.8,0,1.2c0.7,5.7,1.5,11.4,2.4,17l13.9,36.5c2.5,7.7,5.5,15.1,8.5,22.5
		c1.3,3.3,2.7,6.6,4,9.9c2.5,6.1,5,12.2,7.5,18.4c1.7,4.3,3.5,8.5,5.2,12.8c0.7,1.6,1.3,3.2,2,4.9c0.9,2.3,1.8,4.5,2.8,6.8
		c0.3,0.7,0.6,1.3,0.8,2c1.8,4.7,2.2,8.3,1.9,13.2c0,0.3-0.1,0.6-0.2,0.9c-1.2,2.6-1.3,2.8-3,5.3l-1.7,2.7c0,0-0.1,0.1-0.1,0.1
		c-2.5,3.1-4.8,5.9-8.8,6.8c-0.2,0.1-0.5,0.1-0.8,0c-6.8-0.9-11.5-4-16.1-9.2c0,0-0.1-0.1-0.1-0.1c-1.6-2.1-3.1-4.2-4.5-6.3
		c-0.8-1.2-0.8-1.2-1.7-2.4c-1.1-1.6-2.3-3.3-3.4-4.9c-2-3-4.1-5.9-6.2-8.8c-1-1.4-2-2.8-3-4.2c-5.2-7.4-10.5-14.7-15.8-22
		c-1.2-1.6-2.3-3.2-3.5-4.8c-15.3-18.1-14.9-21.7-31.6-33.3c-2.6-1.8-6.2-1.5-8.5,0.8c-6.5,6.5-13,13-19.6,19.5
		c-3.6,3.6-7.3,7.3-10.9,10.9c-3.5,3.5-7,7-10.5,10.5c-1.3,1.3-2.7,2.7-4,4c-1.9,1.9-3.8,3.8-5.6,5.6c-0.8,0.8-0.8,0.8-1.7,1.6
		c-2.7,2.7-5.2,5.4-7.7,8.3c-5.3,6-11,11.6-16.7,17.3c-1.3,1.3-2.6,2.6-3.8,3.9c-3.5,3.5-7,7-10.5,10.5c-3.8,3.8-7.6,7.6-11.4,11.4
		c-9.1,9.1-18.3,18.3-27.4,27.4c-4.3,4.3-8.6,8.6-12.9,12.9c-14.3,14.3-28.6,28.6-42.9,42.9c-3.7,3.7-7.4,7.4-11.1,11.1
		c-0.9,0.9-1.8,1.8-2.8,2.8c-14.9,15-29.9,29.9-44.8,44.9c-15.3,15.4-30.7,30.7-46,46.1c-8.6,8.6-17.2,17.2-25.8,25.9
		c-7.3,7.3-14.7,14.7-22,22c-3.7,3.7-7.5,7.5-11.2,11.2c-3.4,3.4-6.8,6.9-10.3,10.3c-1.2,1.2-2.5,2.5-3.7,3.7
		c-1.7,1.7-3.4,3.4-5.1,5c-0.7,0.7-0.7,0.7-1.4,1.5c-3.9,3.8-8,6.1-13.4,7.1c-0.2,0-0.3,0-0.5,0c-7.8-0.1-13.7-2.8-19.3-8.3
		c0,0-0.1-0.1-0.1-0.1"/>
	<path class="st9" d="M234.2,517"/>
	<path class="st9" d="M487.2,265c-0.8,0.8-1.5,1.6-2.3,2.4"/>
	<path class="st9" d="M511,241c-0.6,0.8-1.2,1.5-1.8,2.3"/>
	<path class="st9" d="M518,235c-0.7,0-1.3,0-2,0"/>
	<path class="st10" d="M437.3,297.8c-32.3-22.3-71.1-30.1-109.9-23.2c-32.6,6.5-64.3,24.5-84.4,51.4c-0.7,0.9-1.3,1.7-2,2.6
		c-23.6,31.2-31.7,69.1-27.5,107.6c0.6,4,1.5,7.9,2.5,11.8c0.2,0.8,0.4,1.6,0.6,2.3c5.3,20.4,12.5,35.1,21.2,46.1l-83.2,82.4
		C123,540.2,103.5,492.5,98,443c-0.1-0.8-0.2-1.6-0.3-2.4C90.6,373.6,111,307.9,152,255c0.8-1,1.5-1.9,2.3-2.9
		c14.5-18.1,31.1-33.3,49.7-47.1c0.9-0.7,1.8-1.4,2.8-2.1C225,189.9,245,179.8,266,172c1.1-0.4,1.1-0.4,2.2-0.8
		C344.6,143,437,155.3,503,203c1.5,1.1,1.5,1.1,3.1,2.2c7.6,5.6,7.2,5.1,13,10.4L437.3,297.8z"/>
	<path class="st9" d="M479,271c0,0.7,0,1.3,0,2"/>
	<path class="st11" d="M460.3,511.7"/>
</g>
<g id="wordmark">
</g>
<g id="Layer_4" class="st4">
	
		<linearGradient id="SVGID_00000157298986196003994070000008295950674269974681_" gradientUnits="userSpaceOnUse" x1="344.6664" y1="415.4952" x2="368.6664" y2="415.4952">
		<stop  offset="1.277974e-03" style="stop-color:#3D3A44"/>
		<stop  offset="1" style="stop-color:#3D3A44"/>
	</linearGradient>
	
		<circle style="display:inline;fill:url(#SVGID_00000157298986196003994070000008295950674269974681_);" cx="356.7" cy="415.5" r="12"/>
</g>
<g id="Layer_3">
	<g>
		<path class="st13" d="M743.3,360.4c-0.9-2.3-1.8-4.5-2.8-6.8c-0.7-1.6-1.3-3.2-2-4.9c-1.7-4.3-3.5-8.6-5.2-12.8
			c-2.5-6.1-5-12.2-7.5-18.4c-1.3-3.3-2.7-6.6-4-9.9c-3-7.4-6.1-14.8-8.5-22.5c-0.2-0.7,0-1.4,0.5-1.9c4.8-4.5,9.7-9.1,10.6-15.7
			c0-0.2,0-0.4,0-0.6c-0.8-6.1-1-6.3-9.8-14c-0.3-0.2-0.6-0.5-0.9-0.6c-3.6-1.6-5.8-1.4-9.7-0.7c0,0,0,0-0.1,0
			c-2.1,0.4-4.1-0.9-4.4-3c-0.9-5.7-1.7-11.3-2.4-17c0-0.4,0.1-0.8,0-1.2c-2.9-18.5,6.8-37.1,32.5-66.6c0.8-0.9,1.6-1.9,2.4-2.8
			c2.3-2.7,4.6-5.4,7-8c13.4-14.7,29.5-32.6,29-53.8c0-0.1,0-0.3,0-0.4c-1.2-5.9-4.5-10-9.3-13.5c-0.2-0.1-0.4-0.2-0.6-0.3
			c-22.2-7.4-22.4-7.2-63.8,31c-3,2.8-6.1,5.6-9.1,8.4c-1.7,1.5-3.5,3.1-5.2,4.6c-7.4,6.7-14.7,13.2-23.1,18.6
			c-17.1,10.3-21.2,13.2-54,6.3c-1.9-0.4-2.9-2.4-2.1-4.2l0-0.1c0.2-0.4,0.3-0.8,0.3-1.3c0-4.9-0.9-7.6-4.1-11.5
			c-0.1-0.1-0.1-0.2-0.2-0.3c-4-4.2-7.2-6.3-13-6.8c-0.3,0-0.6,0-0.9,0c-3.5,0.6-3.7,0.8-9,6.2c0,0-0.1,0.1-0.1,0.1
			c-2.1,2.5-2.3,2.7-4.3,4.5c-0.3,0.2-0.6,0.4-1,0.4c-3.6,0.4-6.5-0.7-9.9-2c-0.7-0.3-1.4-0.6-2.1-0.9c-1.6-0.6-3.1-1.2-4.7-1.8
			c-3.4-1.3-6.8-2.7-10.2-4c-2.7-1.1-5.4-2.1-8.1-3.2c-8.3-3.2-16.6-6.5-25-9.6c-1.8-0.7-3.5-1.3-5.3-2c-2.5-1-5-1.9-7.5-2.9
			c-1.2-0.4-1.2-0.4-2.3-0.9c-5.9-2.3-13-5.1-19.3-3.2c-0.2,0.1-0.4,0.2-0.6,0.3l-1.5,1.1c-0.7,0.5-1.3,1-1.9,1.4
			c-0.6,0.5-1.3,1-1.9,1.5c0,0-0.1,0-0.1,0.1c-1.9,1.3-3.7,2.6-5.5,4.1c-0.1,0.1-0.2,0.2-0.3,0.3c-2,2.6-2,2.8-1.2,9.2
			c0,0.2,0.1,0.3,0.1,0.5c2.1,6.1,7.1,10.2,12.3,13.8c0.7,0.5,1.4,0.9,2,1.4c1.5,1,3,2.1,4.5,3.1c2.6,1.8,5.2,3.5,7.8,5.3
			c8.4,5.9,16.8,11.8,25.3,17.6c3.9,2.6,7.8,5.3,11.6,8c0.8,0.5,1.5,1.1,2.3,1.6c10.4,7.2,23.3,14.7,30.1,25.8
			c0.5,0.9,0.5,0.9,1,1.9c1.1,2,0.8,4.4-0.8,6c-12.2,12.2-24.3,24.3-36.5,36.5c-6.4,6.4-12.7,12.7-19.1,19.1
			c-5.6,5.6-11.2,11.1-16.7,16.7c-3,3-5.9,5.9-8.9,8.8c-2.8,2.8-5.6,5.6-8.5,8.4c-1,1-2.1,2.1-3.1,3.1c-1,1-2,1.9-2.9,2.9
			c-1.4,1.4-1.4,1.4-2.7,2.7c-0.4,0.4-0.8,0.8-1.2,1.2c26.3,26.1,42.6,62.2,42.6,102.2c0,6.8-0.5,13.4-1.4,19.9
			c2.8-2.8,5.6-5.6,8.4-8.4c9.1-9.1,18.3-18.3,27.4-27.4c3.8-3.8,7.6-7.6,11.4-11.4c3.5-3.5,7-7,10.5-10.5c1.3-1.3,2.6-2.6,3.8-3.9
			c5.7-5.7,11.4-11.3,16.7-17.3c2.4-2.9,5-5.6,7.7-8.3c0.8-0.8,0.8-0.8,1.7-1.6c1.9-1.9,3.8-3.8,5.6-5.6c1.3-1.3,2.7-2.7,4-4
			c3.5-3.5,7-7,10.5-10.5c3.6-3.6,7.3-7.3,10.9-10.9c6.5-6.5,13.1-13,19.6-19.6c2.3-2.3,5.8-2.6,8.4-0.7
			c16.8,11.7,16.4,15.3,31.7,33.4c1.2,1.6,2.3,3.2,3.5,4.8c5.3,7.3,10.6,14.7,15.8,22c1,1.4,2,2.8,3,4.2c2.1,2.9,4.1,5.9,6.2,8.8
			c1.1,1.6,2.3,3.3,3.4,4.9c0.8,1.2,0.8,1.2,1.7,2.4c1.5,2.2,3,4.3,4.5,6.3c0,0,0.1,0.1,0.1,0.1c4.6,5.2,9.3,8.3,16.1,9.2
			c0.2,0,0.5,0,0.7,0c4-0.8,6.3-3.7,8.8-6.8c0,0,0.1-0.1,0.1-0.1l1.7-2.7c1.8-2.6,1.8-2.7,3-5.4c0.1-0.2,0.2-0.5,0.2-0.7
			c0.3-4.9,0-8.6-1.9-13.3C743.8,361.7,743.6,361,743.3,360.4z"/>
		<path class="st13" d="M356.6,559.2c-39.6,0-75.5-16-101.5-41.9c-24.5,24.5-85,85-85.6,85.6l64.5,63.1c0,0,0.1,0.1,0.1,0.1
			c5.6,5.6,11.5,8.2,19.3,8.3c0.1,0,0.3,0,0.4,0c5.4-0.9,9.5-3.2,13.4-7.1c0.7-0.7,0.7-0.7,1.4-1.5c1.7-1.7,3.4-3.4,5.1-5
			c1.2-1.2,2.5-2.5,3.7-3.7c3.4-3.4,6.9-6.8,10.3-10.3c3.7-3.8,7.5-7.5,11.2-11.2c7.3-7.3,14.7-14.7,22-22
			c8.6-8.6,17.2-17.3,25.8-25.9c10-10,19.9-19.9,29.9-29.9C370.1,558.7,363.4,559.2,356.6,559.2z"/>
	</g>
</g>
<g id="Layer_5">
	<path class="st14" d="M290.5,716c-2.9-2.9-5.2-5.5-6.8-8.7c0,0,0-0.1-0.1-0.1c-2.8-5.7-1.5-12.6,3-17.2l315.7-321.4
		c0.6-0.5,1-0.9,1.5-1.3c1.8-1.3,4.4-0.4,4.9,1.8c13,58.8-0.2,124.7-30.7,175.9c-9.6,15.5-20.1,30-32.5,43.3
		c-1.9,2.1-3.8,4.2-5.7,6.4c-3.5,4-7.2,7.9-11,11.7c-0.7,0.7-1.4,1.4-2.1,2.1c-2.3,2.3-4.6,4.6-6.9,7c-1.7,1.7-3.3,3.3-5,5
		c-5.4,5.5-10.9,10.9-16.3,16.4c-0.9,0.9-1.9,1.9-2.8,2.8c-8.7,8.8-17.5,17.5-26.2,26.3c-2,2-4,4-6.1,6.1c-0.5,0.5-1,1-1.5,1.5
		c-8.1,8.2-16.3,16.3-24.4,24.5c-8.4,8.4-16.7,16.8-25.1,25.2c-4.7,4.7-9.4,9.4-14.1,14.1c-4.4,4.4-8.8,8.9-13.2,13.3
		c-1.6,1.6-3.2,3.2-4.8,4.9c-2.2,2.2-4.4,4.4-6.6,6.6c-0.6,0.6-1.3,1.3-1.9,2c0,0-0.1,0.1-0.1,0.1c-8.5,8.2-21.9,8.9-31.2,1.6
		c-3.8-2.9-7.2-6.6-10.8-10.2L290.5,716z"/>
</g>
</svg>
