<?xml version="1.0" encoding="utf-8"?>
<!-- Generator: Adobe Illustrator 27.5.0, SVG Export Plug-In . SVG Version: 6.00 Build 0)  -->
<svg version="1.1" xmlns="http://www.w3.org/2000/svg" xmlns:xlink="http://www.w3.org/1999/xlink" x="0px" y="0px"
	 viewBox="0 0 598 208.2" style="enable-background:new 0 0 598 208.2;" xml:space="preserve">
<style type="text/css">
	.st0{display:none;}
	.st1{display:inline;}
	.st2{fill:#2B4BB2;}
	.st3{font-family:'Barlow-Bold';}
	.st4{font-size:78.8816px;}
	.st5{fill:#DD5000;}
	.st6{font-size:90px;}
	.st7{display:inline;fill:#2B4BB2;}
	.st8{display:inline;fill:#FF5000;}
	.st9{fill:#FF5000;}
	.st10{fill:#FFFFFF;}
	.st11{fill:#698AD5;}
	.st12{fill:#FF8F00;}
	.st13{fill:#213975;}
	.st14{fill:#FF4000;}
	.st15{display:inline;fill:#213975;}
	.st16{display:inline;fill:#FFFFFF;}
</style>
<g id="Layer_1" class="st0">
	<text transform="matrix(1 0 0 1 175.946 155.5164)" class="st1"><tspan x="0" y="0" class="st2 st3 st4">TECH</tspan><tspan x="189.7" y="0" class="st5 st3 st6">A</tspan><tspan x="250.1" y="0" class="st5 st3 st4">DMIN</tspan></text>
	<path class="st7" d="M59.6,92.9c0.6-0.3,1.2-0.6,1.7-1c3.5-2.2,6.9-4.4,10.3-6.7c1.4-0.9,2.7-1.9,4.1-2.9c0.1-0.1,0.5,0,0.7,0.1
		c2.2,1.5,4.4,2.9,6.6,4.4c1.2,0.8,2.5,1.5,3.7,2.3c0.2,0.1,0.3,0.2,0.6,0.4c-0.3,0.2-0.5,0.4-0.8,0.6c-3,1.9-6.1,3.7-9.1,5.7
		c-6.5,4.1-12.9,8.3-19.3,12.4c-1.8,1.1-1.7,1.2-1.8,3.3c0,6.4-0.1,12.8-0.1,19.2c0,0.8,0.2,1.3,1,1.8c5.5,3.4,11,6.9,16.5,10.3
		c0.8,0.5,1.1,1.1,1.1,2.1c0,7.3,0,14.5,0,21.8c0,0.3,0,0.7-0.1,1.1c-0.3-0.1-0.5-0.2-0.7-0.3c-7.3-4.6-14.6-9.1-22-13.7
		c-3.6-2.3-7.3-4.5-11-6.8c-3-1.9-6-3.7-9-5.7c-0.3-0.2-0.5-0.6-0.5-0.9c0-9.3,0-18.5,0-27.8c0-1,0.3-1.6,1.2-2.2
		c4.8-3,9.5-6.2,14.3-9.3c0.8-0.5,1.5-1,2.3-1.6c0.2-0.1,0.2-0.4,0.2-0.7c0-4.6,0-9.1,0.1-13.7c0-0.9,0.1-1.9,0.1-2.8
		c0-0.4,0.1-0.6,0.6-0.5c2.7,0,5.4,0,8.1,0.1c1,0,1.1,0,1,1c0,2.9-0.1,5.9-0.1,8.8c0,0.3,0,0.6,0,0.9C59.4,92.8,59.5,92.8,59.6,92.9
		z"/>
	<path class="st8" d="M77.2,167.8c0-0.5-0.1-0.8-0.1-1.1c0-7.5,0-14.9,0-22.4c0-0.6,0.2-0.8,0.7-1.2c5.4-3.4,10.8-6.8,16.3-10.1
		c1.2-0.8,1.7-1.7,1.7-3.3c-0.1-6.3-0.1-12.6-0.1-18.9c0-1-0.3-1.5-1.1-2.1c-2.3-1.4-4.4-2.9-6.6-4.3c-2.8-1.8-5.6-3.6-8.4-5.4
		c-1.4-0.9-1.4-1.1,0-2c2.9-1.8,5.8-3.7,8.7-5.6c0.8-0.5,1.4-0.6,2.3,0c7.3,4.8,14.7,9.6,22,14.4c2.3,1.5,4.5,3,6.8,4.4
		c0.8,0.5,1.1,1.1,1.1,2c0,5.4,0,10.9,0,16.3c0,3.6-0.2,7.3,0,10.9c0.1,1.3-0.4,1.7-1.4,2.3c-2.6,1.6-5.1,3.2-7.7,4.8
		c-2.6,1.6-5.2,3.2-7.8,4.9c-3.8,2.4-7.7,4.8-11.5,7.2c-4.4,2.7-8.8,5.5-13.2,8.2C78.3,167.2,77.9,167.4,77.2,167.8z"/>
	<path class="st1" d="M137.4,115.7c-1.5-1-3-1.9-4.4-2.9c-0.8-0.5-1.5-1.2-2.3-1.7c-1.7-0.9-3.1-2.2-4.8-3.2c-1.7-1-3.3-2.2-4.9-3.3
		c-1.6-1.1-3.3-2.1-4.9-3.1c-3.3-2.1-6.7-4.1-9.9-6.3c-3.2-2.1-6.3-4.3-9.4-6.4c-2.9-2-5.9-3.9-8.8-5.7C86.2,82,84.4,81,82.7,80
		c-0.4-0.2-0.7-0.6-1-0.8c-1.7-1.2-3.4-2.4-5.2-3.6c-0.5-0.4-0.9-0.1-1.3,0.2c-2,1.3-4,2.7-6,4c-1.8,1.2-3.7,2.4-5.5,3.6
		c-0.3,0.2-0.5,0.4-0.8,0.6c-0.6-1.1-0.3-2,0.6-2.6c3.8-2.4,7.6-4.9,11.4-7.4c0.8-0.5,1.4-0.5,2.2,0c4.6,3,9.2,5.9,13.8,8.9
		c3.8,2.5,7.6,5.1,11.5,7.6c5.5,3.7,11.1,7.3,16.6,10.9c5.9,3.9,11.9,7.7,17.9,11.6c1.8,1.2,3.6,2.4,5.3,3.7c0.3,0.2,0.6,0.6,1,1
		c-0.4,0-0.6,0.1-0.9,0.1c-4.4,0-8.8,0-13.2,0c-1,0-1,0-1,1c0,8.7-0.1,17.4-0.1,26.1c0,0.4-0.3,0.9-0.6,1.1
		c-3.3,2.1-6.7,4.2-10.1,6.2c-9.9,6.1-19.8,12.3-29.8,18.4c-3.3,2.1-6.7,4.1-10,6.2c-0.1,0.1-0.2,0.1-0.2,0.2
		c-0.8,1.1-1.8,0.6-2.7,0.1c-0.6-0.4-1.1-0.9-1.7-1.3c-0.8-0.5-1.5-1-2.3-1.5c-2.5-1.6-5.1-3.2-7.7-4.7c-2.3-1.4-4.6-2.8-6.9-4.2
		c-2-1.2-3.9-2.3-5.9-3.5c-1.1-0.6-2.2-1.2-3.2-2c-4.4-3.3-9.2-6-13.9-8.9c-2.2-1.4-4.4-2.6-6.6-3.9c-0.6-0.4-1.3-0.8-1.8-1.3
		c-0.3-0.3-0.4-0.8-0.4-1.3c0-3.4,0-6.7,0-10.1c0-5.2,0-10.4,0-15.6c0-1,0-1.1-1-1.1c-2,0-4,0-6,0c-2.5,0-5.1,0-7.6-0.1
		c-0.1,0-0.3-0.1-0.6-0.2c0.5-0.5,0.9-0.9,1.3-1.2c4.5-3,9.1-5.9,13.6-8.9c7.1-4.6,14.1-9.3,21.2-14c0,0,0.1-0.1,0.1-0.1
		c0.4-0.1,0.8-0.9,1.3-0.4c0.3,0.3-0.1,1.6-0.5,1.9c-3.7,2.5-7.4,5-11.1,7.5c-4.7,3.1-9.3,6.1-14,9.1c-1.8,1.2-3.6,2.4-5.4,3.5
		c-0.3,0.2-0.7,0.4-1.3,0.7c0.4,0.1,0.7,0.1,1,0.1c3.2,0.1,6.4,0.1,9.7,0.2c1,0,1,0.1,1.1,1.1c0.1,8.7,0.1,17.4,0.1,26
		c0,1.1,0.3,1.8,1.3,2.4c8.1,4.9,16.1,9.8,24.1,14.8c5.6,3.5,11.2,7.1,16.9,10.7c2.2,1.4,4.5,2.7,6.8,4.1c0.7,0.4,1.3,0.4,1.9,0
		c2.4-1.5,4.8-2.9,7.2-4.4c8.1-5,16.1-10,24.2-15c5.4-3.4,10.8-6.7,16.2-10.1c0.3-0.2,0.5-0.3,0.8-0.5c0.6-0.3,0.8-0.8,0.8-1.5
		c0-6.9,0-13.7,0.1-20.6c0-1.9,0-3.9,0.1-5.8c0-1.3,0.1-1.3,1.4-1.4c2.9,0,5.8-0.1,8.6-0.1C136.6,115.8,137,115.8,137.4,115.7z"/>
</g>
<g id="Layer_1_copy" class="st0">
	<g class="st1">
		<path class="st2" d="M219.8,101.6v6.9c0,0.9-0.4,1.3-1.3,1.3h-13.6c-0.3,0-0.5,0.2-0.5,0.5v43.8c0,0.9-0.4,1.3-1.3,1.3h-8.4
			c-0.9,0-1.3-0.4-1.3-1.3v-43.8c0-0.3-0.2-0.5-0.5-0.5h-13.3c-0.9,0-1.3-0.4-1.3-1.3v-6.9c0-0.9,0.4-1.3,1.3-1.3h39
			C219.4,100.3,219.8,100.7,219.8,101.6z"/>
		<path class="st2" d="M263.9,109.8h-25.4c-0.3,0-0.5,0.2-0.5,0.5v12.1c0,0.3,0.2,0.5,0.5,0.5H255c0.9,0,1.3,0.4,1.3,1.3v6.9
			c0,0.9-0.4,1.3-1.3,1.3h-16.5c-0.3,0-0.5,0.2-0.5,0.5v12.6c0,0.3,0.2,0.5,0.5,0.5h25.4c0.9,0,1.3,0.4,1.3,1.3v6.9
			c0,0.9-0.4,1.3-1.3,1.3h-35.7c-0.9,0-1.3-0.4-1.3-1.3v-52.5c0-0.9,0.4-1.3,1.3-1.3h35.7c0.9,0,1.3,0.4,1.3,1.3v6.9
			C265.2,109.4,264.8,109.8,263.9,109.8z"/>
		<path class="st2" d="M281.6,153.7c-3.1-1.6-5.5-3.9-7.2-6.7c-1.7-2.9-2.5-6.2-2.5-10v-18.2c0-3.8,0.8-7.1,2.5-10
			c1.7-2.9,4.1-5.1,7.2-6.7c3.1-1.6,6.7-2.4,10.8-2.4c4,0,7.6,0.7,10.7,2.2c3.1,1.5,5.5,3.6,7.2,6.4c1.7,2.8,2.6,6,2.6,9.6
			c0,0.5-0.4,0.8-1.3,0.9l-8.4,0.6h-0.3c-0.7,0-1.1-0.1-1.1-0.4v-0.5c0-2.8-0.9-5-2.6-6.7c-1.7-1.7-4-2.5-6.7-2.5
			c-2.8,0-5.1,0.8-6.8,2.5c-1.7,1.7-2.6,3.9-2.6,6.7v19c0,2.7,0.9,4.9,2.6,6.6c1.7,1.7,4,2.5,6.8,2.5c2.8,0,5-0.8,6.7-2.5
			c1.7-1.7,2.6-3.9,2.6-6.6c0-0.3,0.1-0.5,0.4-0.7c0.2-0.2,0.6-0.2,1-0.2l8.4,0.4c0.9,0.1,1.3,0.2,1.3,0.4v0.4
			c0,3.6-0.9,6.8-2.6,9.6c-1.7,2.8-4.1,4.9-7.2,6.5c-3.1,1.5-6.6,2.3-10.7,2.3C288.3,156.1,284.7,155.3,281.6,153.7z"/>
		<path class="st2" d="M351.6,100.3h8.4c0.9,0,1.3,0.4,1.3,1.3v52.5c0,0.9-0.4,1.3-1.3,1.3h-8.4c-0.9,0-1.3-0.4-1.3-1.3v-21.3
			c0-0.3-0.2-0.5-0.5-0.5h-17.3c-0.3,0-0.5,0.2-0.5,0.5v21.3c0,0.9-0.4,1.3-1.3,1.3h-8.4c-0.9,0-1.3-0.4-1.3-1.3v-52.5
			c0-0.9,0.4-1.3,1.3-1.3h8.4c0.9,0,1.3,0.4,1.3,1.3v20.7c0,0.3,0.2,0.5,0.5,0.5h17.3c0.3,0,0.5-0.2,0.5-0.5v-20.7
			C350.3,100.7,350.7,100.3,351.6,100.3z"/>
		<path class="st5" d="M409.9,154.3l-2.5-8.4c-0.1-0.3-0.2-0.5-0.5-0.5h-22c-0.3,0-0.5,0.2-0.5,0.5l-2.5,8.4
			c-0.3,0.8-0.9,1.3-1.7,1.3h-10.4c-0.5,0-0.9-0.2-1.2-0.5c-0.2-0.3-0.3-0.7-0.1-1.2l19.2-60c0.3-0.8,0.9-1.3,1.7-1.3h13.2
			c0.8,0,1.4,0.4,1.7,1.3l19.2,60c0.1,0.1,0.1,0.3,0.1,0.5c0,0.4-0.1,0.6-0.4,0.9c-0.2,0.2-0.6,0.3-1,0.3h-10.4
			C410.8,155.5,410.2,155.1,409.9,154.3z M387.9,135.6h15.9c0.4,0,0.5-0.2,0.5-0.6l-8.1-27.5c-0.1-0.2-0.2-0.4-0.3-0.4
			c-0.2,0-0.3,0.1-0.4,0.4l-8,27.5C387.4,135.4,387.5,135.6,387.9,135.6z"/>
		<path class="st5" d="M430.9,154.2v-52.5c0-0.9,0.4-1.3,1.3-1.3h19.3c3.9,0,7.4,0.7,10.4,2.1c3,1.4,5.3,3.4,6.9,5.9
			c1.6,2.5,2.4,5.4,2.4,8.8v21.8c0,3.3-0.8,6.2-2.4,8.8c-1.6,2.5-3.9,4.5-6.9,5.9c-3,1.4-6.4,2.1-10.4,2.1h-19.3
			C431.3,155.5,430.9,155.1,430.9,154.2z M442.4,146h9.5c2.4,0,4.4-0.8,5.9-2.4c1.5-1.6,2.3-3.8,2.3-6.5v-18.1
			c0-2.7-0.8-4.9-2.2-6.5c-1.5-1.6-3.5-2.4-6-2.4h-9.4c-0.3,0-0.5,0.2-0.5,0.5v35.2C442,145.8,442.1,146,442.4,146z"/>
		<path class="st5" d="M479.2,154.2v-52.5c0-0.9,0.4-1.3,1.3-1.3h8.4c0.7,0,1.2,0.3,1.6,0.9l11.4,18.5c0.1,0.2,0.2,0.2,0.4,0.2
			c0.1,0,0.2-0.1,0.3-0.2l11.6-18.5c0.4-0.6,0.9-0.9,1.6-0.9h8.4c0.9,0,1.3,0.4,1.3,1.3v52.5c0,0.9-0.4,1.3-1.3,1.3h-8.4
			c-0.9,0-1.3-0.4-1.3-1.3V120c0-0.2-0.1-0.3-0.2-0.4c-0.1-0.1-0.2,0-0.4,0.2l-8,13c-0.4,0.6-0.9,0.9-1.6,0.9h-4
			c-0.7,0-1.2-0.3-1.6-0.9l-7.9-13c-0.1-0.2-0.2-0.3-0.4-0.2c-0.1,0.1-0.2,0.2-0.2,0.4v34.2c0,0.9-0.4,1.3-1.3,1.3h-8.4
			C479.7,155.5,479.2,155.1,479.2,154.2z"/>
		<path class="st5" d="M535.2,154.2v-52.5c0-0.9,0.4-1.3,1.3-1.3h8.4c0.9,0,1.3,0.4,1.3,1.3v52.5c0,0.9-0.4,1.3-1.3,1.3h-8.4
			C535.7,155.5,535.2,155.1,535.2,154.2z"/>
		<path class="st5" d="M556,154.2v-52.5c0-0.9,0.4-1.3,1.3-1.3h8.1c0.7,0,1.2,0.3,1.6,0.9l19.7,32.8c0.1,0.2,0.2,0.3,0.4,0.2
			c0.1-0.1,0.2-0.2,0.2-0.4v-32.2c0-0.9,0.4-1.3,1.3-1.3h8.3c0.9,0,1.3,0.4,1.3,1.3v52.5c0,0.9-0.4,1.3-1.3,1.3h-8
			c-0.6,0-1.2-0.3-1.6-0.9l-19.8-33.1c-0.1-0.2-0.2-0.3-0.4-0.2c-0.1,0.1-0.2,0.2-0.2,0.4l0.1,32.6c0,0.9-0.4,1.3-1.3,1.3h-8.4
			C556.4,155.5,556,155.1,556,154.2z"/>
	</g>
	<path class="st7" d="M59.6,92.9c0.6-0.3,1.2-0.6,1.7-1c3.5-2.2,6.9-4.4,10.3-6.7c1.4-0.9,2.7-1.9,4.1-2.9c0.1-0.1,0.5,0,0.7,0.1
		c2.2,1.5,4.4,2.9,6.6,4.4c1.2,0.8,2.5,1.5,3.7,2.3c0.2,0.1,0.3,0.2,0.6,0.4c-0.3,0.2-0.5,0.4-0.8,0.6c-3,1.9-6.1,3.7-9.1,5.7
		c-6.5,4.1-12.9,8.3-19.3,12.4c-1.8,1.1-1.7,1.2-1.8,3.3c0,6.4-0.1,12.8-0.1,19.2c0,0.8,0.2,1.3,1,1.8c5.5,3.4,11,6.9,16.5,10.3
		c0.8,0.5,1.1,1.1,1.1,2.1c0,7.3,0,14.5,0,21.8c0,0.3,0,0.7-0.1,1.1c-0.3-0.1-0.5-0.2-0.7-0.3c-7.3-4.6-14.6-9.1-22-13.7
		c-3.6-2.3-7.3-4.5-11-6.8c-3-1.9-6-3.7-9-5.7c-0.3-0.2-0.5-0.6-0.5-0.9c0-9.3,0-18.5,0-27.8c0-1,0.3-1.6,1.2-2.2
		c4.8-3,9.5-6.2,14.3-9.3c0.8-0.5,1.5-1,2.3-1.6c0.2-0.1,0.2-0.4,0.2-0.7c0-4.6,0-9.1,0.1-13.7c0-0.9,0.1-1.9,0.1-2.8
		c0-0.4,0.1-0.6,0.6-0.5c2.7,0,5.4,0,8.1,0.1c1,0,1.1,0,1,1c0,2.9-0.1,5.9-0.1,8.8c0,0.3,0,0.6,0,0.9C59.4,92.8,59.5,92.8,59.6,92.9
		z"/>
	<path class="st8" d="M77.2,167.8c0-0.5-0.1-0.8-0.1-1.1c0-7.5,0-14.9,0-22.4c0-0.6,0.2-0.8,0.7-1.2c5.4-3.4,10.8-6.8,16.3-10.1
		c1.2-0.8,1.7-1.7,1.7-3.3c-0.1-6.3-0.1-12.6-0.1-18.9c0-1-0.3-1.5-1.1-2.1c-2.3-1.4-4.4-2.9-6.6-4.3c-2.8-1.8-5.6-3.6-8.4-5.4
		c-1.4-0.9-1.4-1.1,0-2c2.9-1.8,5.8-3.7,8.7-5.6c0.8-0.5,1.4-0.6,2.3,0c7.3,4.8,14.7,9.6,22,14.4c2.3,1.5,4.5,3,6.8,4.4
		c0.8,0.5,1.1,1.1,1.1,2c0,5.4,0,10.9,0,16.3c0,3.6-0.2,7.3,0,10.9c0.1,1.3-0.4,1.7-1.4,2.3c-2.6,1.6-5.1,3.2-7.7,4.8
		c-2.6,1.6-5.2,3.2-7.8,4.9c-3.8,2.4-7.7,4.8-11.5,7.2c-4.4,2.7-8.8,5.5-13.2,8.2C78.3,167.2,77.9,167.4,77.2,167.8z"/>
	<path class="st1" d="M137.4,115.7c-1.5-1-3-1.9-4.4-2.9c-0.8-0.5-1.5-1.2-2.3-1.7c-1.7-0.9-3.1-2.2-4.8-3.2c-1.7-1-3.3-2.2-4.9-3.3
		c-1.6-1.1-3.3-2.1-4.9-3.1c-3.3-2.1-6.7-4.1-9.9-6.3c-3.2-2.1-6.3-4.3-9.4-6.4c-2.9-2-5.9-3.9-8.8-5.7C86.2,82,84.4,81,82.7,80
		c-0.4-0.2-0.7-0.6-1-0.8c-1.7-1.2-3.4-2.4-5.2-3.6c-0.5-0.4-0.9-0.1-1.3,0.2c-2,1.3-4,2.7-6,4c-1.8,1.2-3.7,2.4-5.5,3.6
		c-0.3,0.2-0.5,0.4-0.8,0.6c-0.6-1.1-0.3-2,0.6-2.6c3.8-2.4,7.6-4.9,11.4-7.4c0.8-0.5,1.4-0.5,2.2,0c4.6,3,9.2,5.9,13.8,8.9
		c3.8,2.5,7.6,5.1,11.5,7.6c5.5,3.7,11.1,7.3,16.6,10.9c5.9,3.9,11.9,7.7,17.9,11.6c1.8,1.2,3.6,2.4,5.3,3.7c0.3,0.2,0.6,0.6,1,1
		c-0.4,0-0.6,0.1-0.9,0.1c-4.4,0-8.8,0-13.2,0c-1,0-1,0-1,1c0,8.7-0.1,17.4-0.1,26.1c0,0.4-0.3,0.9-0.6,1.1
		c-3.3,2.1-6.7,4.2-10.1,6.2c-9.9,6.1-19.8,12.3-29.8,18.4c-3.3,2.1-6.7,4.1-10,6.2c-0.1,0.1-0.2,0.1-0.2,0.2
		c-0.8,1.1-1.8,0.6-2.7,0.1c-0.6-0.4-1.1-0.9-1.7-1.3c-0.8-0.5-1.5-1-2.3-1.5c-2.5-1.6-5.1-3.2-7.7-4.7c-2.3-1.4-4.6-2.8-6.9-4.2
		c-2-1.2-3.9-2.3-5.9-3.5c-1.1-0.6-2.2-1.2-3.2-2c-4.4-3.3-9.2-6-13.9-8.9c-2.2-1.4-4.4-2.6-6.6-3.9c-0.6-0.4-1.3-0.8-1.8-1.3
		c-0.3-0.3-0.4-0.8-0.4-1.3c0-3.4,0-6.7,0-10.1c0-5.2,0-10.4,0-15.6c0-1,0-1.1-1-1.1c-2,0-4,0-6,0c-2.5,0-5.1,0-7.6-0.1
		c-0.1,0-0.3-0.1-0.6-0.2c0.5-0.5,0.9-0.9,1.3-1.2c4.5-3,9.1-5.9,13.6-8.9c7.1-4.6,14.1-9.3,21.2-14c0,0,0.1-0.1,0.1-0.1
		c0.4-0.1,0.8-0.9,1.3-0.4c0.3,0.3-0.1,1.6-0.5,1.9c-3.7,2.5-7.4,5-11.1,7.5c-4.7,3.1-9.3,6.1-14,9.1c-1.8,1.2-3.6,2.4-5.4,3.5
		c-0.3,0.2-0.7,0.4-1.3,0.7c0.4,0.1,0.7,0.1,1,0.1c3.2,0.1,6.4,0.1,9.7,0.2c1,0,1,0.1,1.1,1.1c0.1,8.7,0.1,17.4,0.1,26
		c0,1.1,0.3,1.8,1.3,2.4c8.1,4.9,16.1,9.8,24.1,14.8c5.6,3.5,11.2,7.1,16.9,10.7c2.2,1.4,4.5,2.7,6.8,4.1c0.7,0.4,1.3,0.4,1.9,0
		c2.4-1.5,4.8-2.9,7.2-4.4c8.1-5,16.1-10,24.2-15c5.4-3.4,10.8-6.7,16.2-10.1c0.3-0.2,0.5-0.3,0.8-0.5c0.6-0.3,0.8-0.8,0.8-1.5
		c0-6.9,0-13.7,0.1-20.6c0-1.9,0-3.9,0.1-5.8c0-1.3,0.1-1.3,1.4-1.4c2.9,0,5.8-0.1,8.6-0.1C136.6,115.8,137,115.8,137.4,115.7z"/>
</g>
<g id="Layer_1_copy_2" class="st0">
	<g class="st1">
		<path class="st2" d="M219.8,101.6v6.9c0,0.9-0.4,1.3-1.3,1.3h-13.6c-0.3,0-0.5,0.2-0.5,0.5v43.8c0,0.9-0.4,1.3-1.3,1.3h-8.4
			c-0.9,0-1.3-0.4-1.3-1.3v-43.8c0-0.3-0.2-0.5-0.5-0.5h-13.3c-0.9,0-1.3-0.4-1.3-1.3v-6.9c0-0.9,0.4-1.3,1.3-1.3h39
			C219.4,100.3,219.8,100.7,219.8,101.6z"/>
		<path class="st2" d="M263.9,109.8h-25.4c-0.3,0-0.5,0.2-0.5,0.5v12.1c0,0.3,0.2,0.5,0.5,0.5H255c0.9,0,1.3,0.4,1.3,1.3v6.9
			c0,0.9-0.4,1.3-1.3,1.3h-16.5c-0.3,0-0.5,0.2-0.5,0.5v12.6c0,0.3,0.2,0.5,0.5,0.5h25.4c0.9,0,1.3,0.4,1.3,1.3v6.9
			c0,0.9-0.4,1.3-1.3,1.3h-35.7c-0.9,0-1.3-0.4-1.3-1.3v-52.5c0-0.9,0.4-1.3,1.3-1.3h35.7c0.9,0,1.3,0.4,1.3,1.3v6.9
			C265.2,109.4,264.8,109.8,263.9,109.8z"/>
		<path class="st2" d="M281.6,153.7c-3.1-1.6-5.5-3.9-7.2-6.7c-1.7-2.9-2.5-6.2-2.5-10v-18.2c0-3.8,0.8-7.1,2.5-10
			c1.7-2.9,4.1-5.1,7.2-6.7c3.1-1.6,6.7-2.4,10.8-2.4c4,0,7.6,0.7,10.7,2.2c3.1,1.5,5.5,3.6,7.2,6.4c1.7,2.8,2.6,6,2.6,9.6
			c0,0.5-0.4,0.8-1.3,0.9l-8.4,0.6h-0.3c-0.7,0-1.1-0.1-1.1-0.4v-0.5c0-2.8-0.9-5-2.6-6.7c-1.7-1.7-4-2.5-6.7-2.5
			c-2.8,0-5.1,0.8-6.8,2.5c-1.7,1.7-2.6,3.9-2.6,6.7v19c0,2.7,0.9,4.9,2.6,6.6c1.7,1.7,4,2.5,6.8,2.5c2.8,0,5-0.8,6.7-2.5
			c1.7-1.7,2.6-3.9,2.6-6.6c0-0.3,0.1-0.5,0.4-0.7c0.2-0.2,0.6-0.2,1-0.2l8.4,0.4c0.9,0.1,1.3,0.2,1.3,0.4v0.4
			c0,3.6-0.9,6.8-2.6,9.6c-1.7,2.8-4.1,4.9-7.2,6.5c-3.1,1.5-6.6,2.3-10.7,2.3C288.3,156.1,284.7,155.3,281.6,153.7z"/>
		<path class="st2" d="M351.6,100.3h8.4c0.9,0,1.3,0.4,1.3,1.3v52.5c0,0.9-0.4,1.3-1.3,1.3h-8.4c-0.9,0-1.3-0.4-1.3-1.3v-21.3
			c0-0.3-0.2-0.5-0.5-0.5h-17.3c-0.3,0-0.5,0.2-0.5,0.5v21.3c0,0.9-0.4,1.3-1.3,1.3h-8.4c-0.9,0-1.3-0.4-1.3-1.3v-52.5
			c0-0.9,0.4-1.3,1.3-1.3h8.4c0.9,0,1.3,0.4,1.3,1.3v20.7c0,0.3,0.2,0.5,0.5,0.5h17.3c0.3,0,0.5-0.2,0.5-0.5v-20.7
			C350.3,100.7,350.7,100.3,351.6,100.3z"/>
		<path class="st5" d="M409.9,154.3l-2.5-8.4c-0.1-0.3-0.2-0.5-0.5-0.5h-22c-0.3,0-0.5,0.2-0.5,0.5l-2.5,8.4
			c-0.3,0.8-0.9,1.3-1.7,1.3h-10.4c-0.5,0-0.9-0.2-1.2-0.5c-0.2-0.3-0.3-0.7-0.1-1.2l19.2-60c0.3-0.8,0.9-1.3,1.7-1.3h13.2
			c0.8,0,1.4,0.4,1.7,1.3l19.2,60c0.1,0.1,0.1,0.3,0.1,0.5c0,0.4-0.1,0.6-0.4,0.9c-0.2,0.2-0.6,0.3-1,0.3h-10.4
			C410.8,155.5,410.2,155.1,409.9,154.3z M387.9,135.6h15.9c0.4,0,0.5-0.2,0.5-0.6l-8.1-27.5c-0.1-0.2-0.2-0.4-0.3-0.4
			c-0.2,0-0.3,0.1-0.4,0.4l-8,27.5C387.4,135.4,387.5,135.6,387.9,135.6z"/>
		<path class="st5" d="M430.9,154.2v-52.5c0-0.9,0.4-1.3,1.3-1.3h19.3c3.9,0,7.4,0.7,10.4,2.1c3,1.4,5.3,3.4,6.9,5.9
			c1.6,2.5,2.4,5.4,2.4,8.8v21.8c0,3.3-0.8,6.2-2.4,8.8c-1.6,2.5-3.9,4.5-6.9,5.9c-3,1.4-6.4,2.1-10.4,2.1h-19.3
			C431.3,155.5,430.9,155.1,430.9,154.2z M442.4,146h9.5c2.4,0,4.4-0.8,5.9-2.4c1.5-1.6,2.3-3.8,2.3-6.5v-18.1
			c0-2.7-0.8-4.9-2.2-6.5c-1.5-1.6-3.5-2.4-6-2.4h-9.4c-0.3,0-0.5,0.2-0.5,0.5v35.2C442,145.8,442.1,146,442.4,146z"/>
		<path class="st5" d="M479.2,154.2v-52.5c0-0.9,0.4-1.3,1.3-1.3h8.4c0.7,0,1.2,0.3,1.6,0.9l11.4,18.5c0.1,0.2,0.2,0.2,0.4,0.2
			c0.1,0,0.2-0.1,0.3-0.2l11.6-18.5c0.4-0.6,0.9-0.9,1.6-0.9h8.4c0.9,0,1.3,0.4,1.3,1.3v52.5c0,0.9-0.4,1.3-1.3,1.3h-8.4
			c-0.9,0-1.3-0.4-1.3-1.3V120c0-0.2-0.1-0.3-0.2-0.4c-0.1-0.1-0.2,0-0.4,0.2l-8,13c-0.4,0.6-0.9,0.9-1.6,0.9h-4
			c-0.7,0-1.2-0.3-1.6-0.9l-7.9-13c-0.1-0.2-0.2-0.3-0.4-0.2c-0.1,0.1-0.2,0.2-0.2,0.4v34.2c0,0.9-0.4,1.3-1.3,1.3h-8.4
			C479.7,155.5,479.2,155.1,479.2,154.2z"/>
		<path class="st5" d="M535.2,154.2v-52.5c0-0.9,0.4-1.3,1.3-1.3h8.4c0.9,0,1.3,0.4,1.3,1.3v52.5c0,0.9-0.4,1.3-1.3,1.3h-8.4
			C535.7,155.5,535.2,155.1,535.2,154.2z"/>
		<path class="st5" d="M556,154.2v-52.5c0-0.9,0.4-1.3,1.3-1.3h8.1c0.7,0,1.2,0.3,1.6,0.9l19.7,32.8c0.1,0.2,0.2,0.3,0.4,0.2
			c0.1-0.1,0.2-0.2,0.2-0.4v-32.2c0-0.9,0.4-1.3,1.3-1.3h8.3c0.9,0,1.3,0.4,1.3,1.3v52.5c0,0.9-0.4,1.3-1.3,1.3h-8
			c-0.6,0-1.2-0.3-1.6-0.9l-19.8-33.1c-0.1-0.2-0.2-0.3-0.4-0.2c-0.1,0.1-0.2,0.2-0.2,0.4l0.1,32.6c0,0.9-0.4,1.3-1.3,1.3h-8.4
			C556.4,155.5,556,155.1,556,154.2z"/>
	</g>
	<path class="st7" d="M8.7-66.8c0.6-0.3,1.2-0.6,1.7-1c3.5-2.2,6.9-4.4,10.3-6.7c1.4-0.9,2.7-1.9,4.1-2.9c0.1-0.1,0.5,0,0.7,0.1
		c2.2,1.5,4.4,2.9,6.6,4.4c1.2,0.8,2.5,1.5,3.7,2.3c0.2,0.1,0.3,0.2,0.6,0.4c-0.3,0.2-0.5,0.4-0.8,0.6c-3,1.9-6.1,3.7-9.1,5.7
		c-6.5,4.1-12.9,8.3-19.3,12.4c-1.8,1.1-1.7,1.2-1.8,3.3c0,6.4-0.1,12.8-0.1,19.2c0,0.8,0.2,1.3,1,1.8c5.5,3.4,11,6.9,16.5,10.3
		c0.8,0.5,1.1,1.1,1.1,2.1c0,7.3,0,14.5,0,21.8c0,0.3,0,0.7-0.1,1.1c-0.3-0.1-0.5-0.2-0.7-0.3C15.8,3.4,8.5-1.1,1.2-5.7
		c-3.6-2.3-7.3-4.5-11-6.8c-3-1.9-6-3.7-9-5.7c-0.3-0.2-0.5-0.6-0.5-0.9c0-9.3,0-18.5,0-27.8c0-1,0.3-1.6,1.2-2.2
		c4.8-3,9.5-6.2,14.3-9.3c0.8-0.5,1.5-1,2.3-1.6c0.2-0.1,0.2-0.4,0.2-0.7c0-4.6,0-9.1,0.1-13.7c0-0.9,0.1-1.9,0.1-2.8
		c0-0.4,0.1-0.6,0.6-0.5c2.7,0,5.4,0,8.1,0.1c1,0,1.1,0,1,1c0,2.9-0.1,5.9-0.1,8.8c0,0.3,0,0.6,0,0.9C8.6-66.9,8.6-66.8,8.7-66.8z"
		/>
	<path class="st8" d="M26.3,8.2c0-0.5-0.1-0.8-0.1-1.1c0-7.5,0-14.9,0-22.4c0-0.6,0.2-0.8,0.7-1.2c5.4-3.4,10.8-6.8,16.3-10.1
		c1.2-0.8,1.7-1.7,1.7-3.3c-0.1-6.3-0.1-12.6-0.1-18.9c0-1-0.3-1.5-1.1-2.1c-2.3-1.4-4.4-2.9-6.6-4.3c-2.8-1.8-5.6-3.6-8.4-5.4
		c-1.4-0.9-1.4-1.1,0-2c2.9-1.8,5.8-3.7,8.7-5.6c0.8-0.5,1.4-0.6,2.3,0c7.3,4.8,14.7,9.6,22,14.4c2.3,1.5,4.5,3,6.8,4.4
		c0.8,0.5,1.1,1.1,1.1,2c0,5.4,0,10.9,0,16.3c0,3.6-0.2,7.3,0,10.9c0.1,1.3-0.4,1.7-1.4,2.3c-2.6,1.6-5.1,3.2-7.7,4.8
		c-2.6,1.6-5.2,3.2-7.8,4.9c-3.8,2.4-7.7,4.8-11.5,7.2c-4.4,2.7-8.8,5.5-13.2,8.2C27.5,7.6,27,7.8,26.3,8.2z"/>
	<path class="st1" d="M86.6-43.9c-1.5-1-3-1.9-4.4-2.9c-0.8-0.5-1.5-1.2-2.3-1.7c-1.7-0.9-3.1-2.2-4.8-3.2c-1.7-1-3.3-2.2-4.9-3.3
		C68.5-56,66.9-57,65.3-58c-3.3-2.1-6.7-4.1-9.9-6.3c-3.2-2.1-6.3-4.3-9.4-6.4c-2.9-2-5.9-3.9-8.8-5.7c-1.7-1.1-3.5-2.1-5.3-3.2
		c-0.4-0.2-0.7-0.6-1-0.8c-1.7-1.2-3.4-2.4-5.2-3.6c-0.5-0.4-0.9-0.1-1.3,0.2c-2,1.3-4,2.7-6,4c-1.8,1.2-3.7,2.4-5.5,3.6
		c-0.3,0.2-0.5,0.4-0.8,0.6c-0.6-1.1-0.3-2,0.6-2.6c3.8-2.4,7.6-4.9,11.4-7.4c0.8-0.5,1.4-0.5,2.2,0c4.6,3,9.2,5.9,13.8,8.9
		c3.8,2.5,7.6,5.1,11.5,7.6C57-65.6,62.5-62,68.1-58.3C74-54.5,80-50.6,85.9-46.8c1.8,1.2,3.6,2.4,5.3,3.7c0.3,0.2,0.6,0.6,1,1
		c-0.4,0-0.6,0.1-0.9,0.1c-4.4,0-8.8,0-13.2,0c-1,0-1,0-1,1c0,8.7-0.1,17.4-0.1,26.1c0,0.4-0.3,0.9-0.6,1.1
		c-3.3,2.1-6.7,4.2-10.1,6.2C56.4-1.3,46.5,4.9,36.6,11c-3.3,2.1-6.7,4.1-10,6.2c-0.1,0.1-0.2,0.1-0.2,0.2c-0.8,1.1-1.8,0.6-2.7,0.1
		c-0.6-0.4-1.1-0.9-1.7-1.3c-0.8-0.5-1.5-1-2.3-1.5c-2.5-1.6-5.1-3.2-7.7-4.7C9.7,8.6,7.4,7.2,5,5.8c-2-1.2-3.9-2.3-5.9-3.5
		C-1.9,1.7-3,1.1-4,0.3c-4.4-3.3-9.2-6-13.9-8.9c-2.2-1.4-4.4-2.6-6.6-3.9c-0.6-0.4-1.3-0.8-1.8-1.3c-0.3-0.3-0.4-0.8-0.4-1.3
		c0-3.4,0-6.7,0-10.1c0-5.2,0-10.4,0-15.6c0-1,0-1.1-1-1.1c-2,0-4,0-6,0c-2.5,0-5.1,0-7.6-0.1c-0.1,0-0.3-0.1-0.6-0.2
		c0.5-0.5,0.9-0.9,1.3-1.2c4.5-3,9.1-5.9,13.6-8.9c7.1-4.6,14.1-9.3,21.2-14c0,0,0.1-0.1,0.1-0.1c0.4-0.1,0.8-0.9,1.3-0.4
		c0.3,0.3-0.1,1.6-0.5,1.9c-3.7,2.5-7.4,5-11.1,7.5c-4.7,3.1-9.3,6.1-14,9.1c-1.8,1.2-3.6,2.4-5.4,3.5c-0.3,0.2-0.7,0.4-1.3,0.7
		c0.4,0.1,0.7,0.1,1,0.1c3.2,0.1,6.4,0.1,9.7,0.2c1,0,1,0.1,1.1,1.1c0.1,8.7,0.1,17.4,0.1,26c0,1.1,0.3,1.8,1.3,2.4
		C-15.5-9.3-7.5-4.3,0.5,0.7c5.6,3.5,11.2,7.1,16.9,10.7c2.2,1.4,4.5,2.7,6.8,4.1c0.7,0.4,1.3,0.4,1.9,0c2.4-1.5,4.8-2.9,7.2-4.4
		c8.1-5,16.1-10,24.2-15c5.4-3.4,10.8-6.7,16.2-10.1c0.3-0.2,0.5-0.3,0.8-0.5c0.6-0.3,0.8-0.8,0.8-1.5c0-6.9,0-13.7,0.1-20.6
		c0-1.9,0-3.9,0.1-5.8c0-1.3,0.1-1.3,1.4-1.4c2.9,0,5.8-0.1,8.6-0.1C85.8-43.8,86.1-43.8,86.6-43.9z"/>
	<path class="st1" d="M122.2,142.8c0.7-1.3,0.6-2.7,0.6-4c0-6.4,0-12.8,0-19.2c0-0.4,0-0.8,0-1.3c0.2,0,0.5,0,0.8,0c1.3,0,2.7,0,4,0
		c0.2,0,0.4-0.1,0.6-0.2c-1.2-0.8-2.4-1.5-3.5-2.3c-3.6-2.6-7.1-5.2-10.6-7.9c-3.8-2.8-7.5-5.7-11.3-8.6c-4.5-3.4-9-6.8-13.5-10.3
		c-2.6-1.9-5.1-3.9-7.7-5.8c0,0-0.1-0.1-0.2-0.1c-0.4-0.3-0.7-0.8-1.1-0.8c-0.4,0-0.8,0.4-1.1,0.7c-2.3,1.8-4.6,3.6-6.8,5.3
		c-4,3.1-7.9,6.2-11.9,9.2c-4,3-7.9,6-11.9,9c-3.7,2.8-7.4,5.6-11.1,8.3c-1.1,0.8-2.3,1.5-3.5,2.3c-0.3,0.2-0.6,0.4-0.8,0.7
		c1.5,0,3.1,0,4.6,0c0,0.1,0,0.2,0,0.3c0,5.9,0,11.8,0,17.7c0,2.1,0.2,4.3,0.5,6.4c0.4,2.9,1.9,5.2,3.8,7.4c2.5,2.9,5.4,5.4,8.4,7.8
		c0.1,0.1,0.2,0.2,0.3,0.2c3,1.4,5.5,3.5,8.6,4.7c2.8,1.1,5.5,2.3,8.3,3.3c3.8,1.4,7.6,2.7,11.4,4.1c0.7,0.3,1.2,0.2,1.8,0
		c1.8-0.6,3.6-1.2,5.3-1.8c2.7-0.9,5.4-1.9,8.1-2.9c0.1,0,0.2-0.1,0.3-0.1c0.2,0.5,0.3,1,0.5,1.5c0.4,1.2,0.7,2.5,1.1,3.7
		c0,0.2,0,0.4,0,0.6c-0.2,0-0.4,0-0.6-0.1c-0.3-0.2-0.6-0.4-0.9-0.7c-0.4-0.5-0.8-0.4-1.3-0.3c-2.5,0.9-4.9,1.7-7.4,2.5
		c-1.5,0.5-3.1,0.9-4.6,1.3c-0.2,0.1-0.4,0.1-0.5,0.2c-0.6,0.4-1.3,0.3-2,0.1c-1.5-0.5-3-0.9-4.5-1.3c-0.2-0.1-0.5,0.1-0.6,0.3
		c-1.1,1.6-2.2,3.2-3.2,4.9c-0.7,1-1.6,1.4-2.8,1.1c-3.6-1-7.2-2.1-10.8-3.1c-1.2-0.3-1.8-1.2-2-2.6c-0.2-2-0.5-4.1-0.6-6.1
		c0-1.1-0.5-1.6-1.4-2.2c-2.3-1.5-4.5-3.1-6.8-4.7c-0.2-0.2-0.7-0.1-1-0.1c-1.7,0.5-3.4,1-5.1,1.5c-0.5,0.2-1,0.3-1.5,0.4
		c-1.5,0.4-2.7-0.1-3.6-1.5c-0.5-0.8-1-1.6-1.6-2.3c-0.5-0.7-1.2-1.2-1.8-1.9c-1.1-1.5-2.2-3-3.3-4.5c-0.5-0.7-0.5-1.4,0-2.1
		c1.5-2.1,3-4.3,4.5-6.4c0.1-0.1,0.1-0.3,0.1-0.5c-0.5-2.9-1.1-5.8-1.7-8.7c-0.1-0.3-0.4-0.7-0.6-0.8c-2.3-1.1-4.7-2.1-7-3.2
		c-1-0.5-1.7-1.1-1.6-2.4c0.1-2,0-3.9,0.1-5.9c0.1-1.1,0.3-2.1,0.5-3.2c0.1-0.9,0.3-1.8,0.4-2.8c0.1-1.2,0.6-1.6,1.9-1.9
		c2-0.4,3.9-0.9,5.9-1.4c0.2,0,0.4-0.2,0.6-0.2c1.3-0.1,1.9-0.9,2.5-2c1.1-2.1,2.4-4.2,3.6-6.3c0.3-0.5,0.5-0.9,0.1-1.5
		c-1.1-2.2-2.1-4.4-3.2-6.6C34,95.2,34,94.4,34.5,94c1.7-1.6,3.4-3.3,5.1-4.9c1.3-1.2,2.7-2.4,4.1-3.6c0.7-0.6,1.8-0.6,2.6-0.1
		c1.4,0.8,2.9,1.5,4.4,2.3c0.7,0.4,1.3,0.7,1.9,1.2c0.4,0.3,0.7,0.3,1.1,0.1c1.4-0.7,2.8-1.3,4.3-1.9c1.3-0.5,2.7-0.9,4-1.4
		c0.2-0.1,0.4-0.2,0.4-0.3c0.6-1.5,1.1-3,1.7-4.5c0.5-1.2,0.9-2.4,1.5-3.6c0.4-0.8,1.2-1.1,2-1.1c3.9,0,7.7,0,11.6,0
		c0.8,0,1.3,0.5,1.7,1.1c0.2,0.4,0.5,0.7,0.9,0.9c0.8,0.7,1.7,1.3,2.5,1.9c2.7,2.1,5.4,4.2,8.1,6.3c0.8,0.6,1.5,1.2,2.2,1.7
		c1.5-0.9,2.9-1.8,4.3-2.7c1-0.6,1.7-0.6,2.7,0.2c1.7,1.4,3.4,2.8,5.1,4.2c1.3,1.1,2.5,2.3,3.7,3.5c0.5,0.5,0.6,1.5,0.3,2.2
		c-0.6,1.3-1.1,2.6-1.7,3.9c9.2,7,18.3,14.2,27.4,21.3c0,0.1-0.1,0.2-0.1,0.3c-0.6,0-1.2,0-1.7,0c-2.6,0-5.3,0-7.9,0
		c-0.8,0-0.8,0-0.8,0.8c0,5.3,0,10.5-0.1,15.8c0,2.2-0.4,4.3-0.5,6.6C124.2,143.7,123.2,143.2,122.2,142.8z"/>
	<path class="st7" d="M97.3,133.8c2.7-1.8,4.5-4.3,5.8-7.3c0.5-1.2,0.8-2.5,1.2-3.7c0.3-0.9-0.2-1.9-1.5-1.7
		c-1.5,0.3-2.9,0.7-4.3,1.3c-1.8,0.9-3.6,1.8-5.4,2.7c-1,0.5-2.2,0.8-3.4,0.7h0c-0.6,0-1.1-0.2-1.5-0.6c-0.7-0.8-1.5-1.7-1.8-2.6
		c-0.8-1.7-1.9-3.7-0.9-5.5c0-0.3,0.7-0.8,0.9-1l12.3-7.2c0.4-0.4,0.7-1.1,0.1-1.6c-1.1-1-2.4-1.7-3.7-2.4c-1.2-0.6-2.6-1.1-4-1.4
		c-2.4-0.5-4.9-0.7-7.4-0.2c-3.9,0.8-6.9,2.8-9.4,5.7c-2,2.4-3.3,5.2-3.6,8.3c-0.1,0.6-0.1,1.2-0.1,1.9c0,2-1,3.9-2.7,5.1l0,0
		c-5.3,4-10.7,8-16,12c-2.7,2-5.4,4.1-8.1,6.2c-0.1,0-0.1,0.1-0.4,0.2c-0.2-1.7-0.7-3.4-0.7-5c-0.1-5.9,0-11.8,0-17.7
		c0-2.1,1-4.1,2.7-5.4c2.6-2,5.3-3.9,7.9-5.9c2.1-1.6,4.2-3.2,6.3-4.8c2.7-2.1,5.4-4.1,8.1-6.2c2.7-2.1,5.5-4.2,8.2-6.3
		c0.4-0.3,0.7-0.6,1.1-0.8c1.9-1.4,5-1.5,6.8,0c2,1.5,3.9,3,5.9,4.5c2.8,2.1,5.6,4.1,8.4,6.2c2.2,1.7,4.4,3.3,6.6,5
		c4,3.1,8,6.2,12.1,9.2c1.1,0.8,1.4,1.5,1.4,2.8c-0.1,6.9,0,13.7,0,20.6c0,0.5-0.1,1,0,1.6c0,0.6-0.3,0.7-0.7,0.6
		c-0.8-0.2-1.5-0.5-2.3-0.7c-2.9-0.9-5.8-1.8-8.7-2.8c-2.9-1-5.8-2-8.7-2.9c-0.3-0.1-0.6-0.2-0.9-0.3
		C96.9,134.3,96.8,134.2,97.3,133.8z"/>
	<path class="st8" d="M126.5,178.7c-0.3,0.4-0.5,0.7-0.7,1c-1.7,2.6-3.5,5.1-5.2,7.7c-0.2,0.3-0.4,0.5-0.6,0.8
		c-0.3,0.5-0.8,0.8-1.4,0.6c-0.6-0.2-1.1-0.5-1.3-1.2c-0.6-2.4-1.2-4.8-1.9-7.2c-0.7-2.4-1.4-4.9-2.1-7.3c-1-3.6-2-7.2-2.9-10.8
		c-0.6-2.1-1.2-4.2-1.7-6.4c-0.3-1-0.6-2.1-0.7-3.1c-0.1-0.7,0.2-0.9,0.9-0.7c3.8,1.2,7.5,2.5,11.3,3.7c2.3,0.8,4.6,1.4,6.9,2.2
		c3.3,1.1,6.6,2.2,9.8,3.3c2,0.7,4,1.3,6,2c0.7,0.2,1.4,0.4,2,0.8c0.3,0.2,0.7,0.6,0.7,0.9c0,0.3-0.3,0.8-0.6,1
		c-3.2,1.9-6.4,3.7-9.7,5.6c-0.4,0.2-0.9,0.4-1.4,0.5c0.4,0.5,0.9,0.9,1.3,1.4c2.7,3.2,5.5,6.4,8.2,9.6c0.7,0.8,1.4,1.5,2,2.3
		c0.3,0.4,0.5,0.9,0.7,1.4c0.1,0.4-0.1,0.8-0.4,1.1c-1.6,1.4-3.1,2.8-4.6,4.3c-0.8,0.7-2.5,0.6-3.3-0.3c-2.5-3-4.9-5.9-7.4-8.9
		c-1.1-1.4-2.2-2.7-3.4-4.1C126.9,179,126.7,178.9,126.5,178.7z"/>
	<path class="st7" d="M55.3,155.7c0.6-0.5,1.2-0.9,1.7-1.3c4.3-3.4,8.6-6.9,12.9-10.3c2.5-2,5-4.1,7.5-6.2c0.4-0.3,0.7-0.7,1.1-1.1
		c0.4-0.4,0.8-0.5,1.3-0.4c1,0.3,2,0.6,3,0.9c0.3,0.1,0.7,0.2,1,0.2c1.1,0.1,2.2,0.2,3.3,0.4c0.2,0,0.4,0.2,0.4,0.4
		c0.6,2.5,1.2,5,1.8,7.5c0.4,1.5,0.8,3,1.2,4.5c0.6,2.1,1.1,4.3,1.7,6.4c0.3,1,0.7,2,1,3c0.2,0.8,0.1,0.9-0.7,1.2
		c-1.7,0.5-3.3,1.2-4.9,1.8c-2.1,0.7-4.2,1.4-6.3,2.3c-1.1,0.5-2,0.2-2.9-0.2c-2.8-1-5.7-2-8.5-3.1c-3-1.2-6-2.4-8.9-3.7
		c-0.1,0-0.2-0.1-0.3-0.1c-1.6,0.1-2.7-1-4-1.5C56.3,156.2,55.9,156,55.3,155.7z"/>
	<path class="st1" d="M53.9-2.9c-0.3,0.4-0.5,0.7-0.7,1c-1.7,2.6-3.5,5.1-5.2,7.7c-0.2,0.3-0.4,0.5-0.6,0.8
		c-0.3,0.5-0.8,0.8-1.4,0.6c-0.6-0.2-1.1-0.5-1.3-1.2c-0.6-2.4-1.2-4.8-1.9-7.2c-0.7-2.4-1.4-4.9-2.1-7.3c-1-3.6-2-7.2-2.9-10.8
		c-0.6-2.1-1.2-4.2-1.7-6.4c-0.3-1-0.6-2.1-0.7-3.1c-0.1-0.7,0.2-0.9,0.9-0.7c3.8,1.2,7.5,2.5,11.3,3.7c2.3,0.8,4.6,1.4,6.9,2.2
		c3.3,1.1,6.6,2.2,9.8,3.3c2,0.7,4,1.3,6,2c0.7,0.2,1.4,0.4,2,0.8c0.3,0.2,0.7,0.6,0.7,0.9c0,0.3-0.3,0.8-0.6,1
		c-3.2,1.9-6.4,3.7-9.7,5.6c-0.4,0.2-0.9,0.4-1.4,0.5c0.4,0.5,0.9,0.9,1.3,1.4c2.7,3.2,5.5,6.4,8.2,9.6c0.7,0.8,1.4,1.5,2,2.3
		c0.3,0.4,0.5,0.9,0.7,1.4c0.1,0.4-0.1,0.8-0.4,1.1c-1.6,1.4-3.1,2.8-4.6,4.3c-0.8,0.7-2.5,0.6-3.3-0.3c-2.5-3-4.9-5.9-7.4-8.9
		c-1.1-1.4-2.2-2.7-3.4-4.1C54.3-2.6,54.1-2.7,53.9-2.9z"/>
	<g class="st1">
		<path class="st2" d="M-94.5-75.7c0.6-0.3,1.2-0.6,1.7-1c3.5-2.2,6.9-4.4,10.3-6.7c1.4-0.9,2.7-1.9,4.1-2.9c0.1-0.1,0.5,0,0.7,0.1
			c2.2,1.5,4.4,2.9,6.6,4.4c1.2,0.8,2.5,1.5,3.7,2.3c0.2,0.1,0.3,0.2,0.6,0.4c-0.3,0.2-0.5,0.4-0.8,0.6c-3,1.9-6.1,3.7-9.1,5.7
			c-6.5,4.1-12.9,8.3-19.3,12.4c-1.8,1.1-1.7,1.2-1.8,3.3c0,6.4-0.1,12.8-0.1,19.2c0,0.8,0.2,1.3,1,1.8c5.5,3.4,11,6.9,16.5,10.3
			c0.8,0.5,1.1,1.1,1.1,2.1c0,7.3,0,14.5,0,21.8c0,0.3,0,0.7-0.1,1.1C-79.6-0.8-79.9-0.9-80-1c-7.3-4.6-14.6-9.1-22-13.7
			c-3.6-2.3-7.3-4.5-11-6.8c-3-1.9-6-3.7-9-5.7c-0.3-0.2-0.5-0.6-0.5-0.9c0-9.3,0-18.5,0-27.8c0-1,0.3-1.6,1.2-2.2
			c4.8-3,9.5-6.2,14.3-9.3c0.8-0.5,1.5-1,2.3-1.6c0.2-0.1,0.2-0.4,0.2-0.7c0-4.6,0-9.1,0.1-13.7c0-0.9,0.1-1.9,0.1-2.8
			c0-0.4,0.1-0.6,0.6-0.5c2.7,0,5.4,0,8.1,0.1c1,0,1.1,0,1,1c0,2.9-0.1,5.9-0.1,8.8c0,0.3,0,0.6,0,0.9L-94.5-75.7"/>
		<path class="st9" d="M-76.9-0.8c0-0.5-0.1-0.8-0.1-1.1c0-7.5,0-14.9,0-22.4c0-0.6,0.2-0.8,0.7-1.2c5.4-3.4,10.8-6.8,16.3-10.1
			c1.2-0.8,1.7-1.7,1.7-3.3c-0.1-6.3-0.1-12.6-0.1-18.9c0-1-0.3-1.5-1.1-2.1c-2.3-1.4-4.4-2.9-6.6-4.3c-2.8-1.8-5.6-3.6-8.4-5.4
			c-1.4-0.9-1.4-1.1,0-2c2.9-1.8,5.8-3.7,8.7-5.6c0.8-0.5,1.4-0.6,2.3,0c7.3,4.8,14.7,9.6,22,14.4c2.3,1.5,4.5,3,6.8,4.4
			c0.8,0.5,1.1,1.1,1.1,2c0,5.4,0,10.9,0,16.3c0,3.6-0.2,7.3,0,10.9c0.1,1.3-0.4,1.7-1.4,2.3c-2.6,1.6-5.1,3.2-7.7,4.8
			c-2.6,1.6-5.2,3.2-7.8,4.9c-3.8,2.4-7.7,4.8-11.5,7.2c-4.4,2.7-8.8,5.5-13.2,8.2C-75.8-1.4-76.2-1.2-76.9-0.8"/>
		<path class="st10" d="M-71.8-75.8c-1.6,1-3.3,2-4.9,3.1c-6.5,4.1-12.9,8.3-19.3,12.4c-1.8,1.1-1.7,1.2-1.8,3.3
			c0,6.4-0.1,12.8-0.1,19.2c0,0.8,0.2,1.3,1,1.8c5.5,3.4,11,6.9,16.5,10.3c0.8,0.5,1.1,1.1,1.1,2.1c0,1.6,0,3.2,0,4.8
			c0.2,0,0.4,0,0.6,0c0.6,0,1.2,0,1.8,0c0-1.8,0-3.6,0-5.4c0-0.6,0.2-0.8,0.7-1.2c5.4-3.4,10.8-6.8,16.3-10.1
			c1.2-0.8,1.7-1.7,1.7-3.3c-0.1-6.3-0.1-12.6-0.1-18.9c0-1-0.3-1.5-1.1-2.1c-2.3-1.4-4.4-2.9-6.6-4.3c-2.8-1.8-5.6-3.6-8.4-5.4
			c-1.4-0.9-1.4-1.1,0-2c1.9-1.2,3.7-2.4,5.6-3.5C-69.9-75.3-70.8-75.6-71.8-75.8"/>
		<path class="st11" d="M-78.7-76.6c-16.5,0-29.8,12.9-29.8,28.9c0,15.8,13,28.6,29.2,28.9c0-1.6,0-3.2,0-4.8c0-1-0.3-1.6-1.1-2.1
			c-5.5-3.4-10.9-7-16.5-10.3c-0.8-0.5-1-1-1-1.8c0.1-6.4,0.1-12.8,0.1-19.2c0-2.1,0-2.1,1.8-3.3c6.4-4.2,12.9-8.3,19.3-12.4
			c1.6-1,3.2-2,4.9-3.1C-74-76.3-76.3-76.6-78.7-76.6"/>
		<path class="st12" d="M-68.9-75c-1.9,1.2-3.7,2.4-5.6,3.5c-1.4,0.9-1.4,1.1,0,2c2.8,1.8,5.6,3.6,8.4,5.4c2.2,1.4,4.4,2.9,6.6,4.3
			c0.9,0.5,1.1,1.1,1.1,2.1c0,6.3,0,12.6,0.1,18.9c0,1.5-0.5,2.5-1.7,3.3c-5.4,3.4-10.8,6.8-16.3,10.1c-0.5,0.3-0.7,0.6-0.7,1.2
			c0,1.8,0,3.6,0,5.4c15.6-0.9,28-13.5,28-28.8C-48.9-60.3-57.3-71.1-68.9-75"/>
	</g>
	<path class="st1" d="M255,245.7c0.7-1.3,0.6-2.7,0.6-4c0-6.4,0-12.8,0-19.2c0-0.4,0-0.8,0-1.3c0.2,0,0.5,0,0.8,0c1.3,0,2.7,0,4,0
		c0.2,0,0.4-0.1,0.6-0.2c-1.2-0.8-2.4-1.5-3.5-2.3c-3.6-2.6-7.1-5.2-10.6-7.9c-3.8-2.8-7.5-5.7-11.3-8.6c-4.5-3.4-9-6.8-13.5-10.3
		c-2.6-1.9-5.1-3.9-7.7-5.8c0,0-0.1-0.1-0.2-0.1c-0.4-0.3-0.7-0.8-1.1-0.8c-0.4,0-0.8,0.4-1.1,0.7c-2.3,1.8-4.6,3.6-6.8,5.3
		c-4,3.1-7.9,6.2-11.9,9.2c-4,3-7.9,6-11.9,9c-3.7,2.8-7.4,5.6-11.1,8.3c-1.1,0.8-2.3,1.5-3.5,2.3c-0.3,0.2-0.6,0.4-0.8,0.7
		c1.5,0,3.1,0,4.6,0c0,0.1,0,0.2,0,0.3c0,5.9,0,11.8,0,17.7c0,2.1,0.2,4.3,0.5,6.4c0.4,2.9,1.9,5.2,3.8,7.4c2.5,2.9,5.4,5.4,8.4,7.8
		c0.1,0.1,0.2,0.2,0.3,0.2c3,1.4,5.5,3.5,8.6,4.7c2.8,1.1,5.5,2.3,8.3,3.3c3.8,1.4,7.6,2.7,11.4,4.1c0.7,0.3,1.2,0.2,1.8,0
		c1.8-0.6,3.6-1.2,5.3-1.8c2.7-0.9,5.4-1.9,8.1-2.9c0.1,0,0.2-0.1,0.3-0.1c0.2,0.5,0.3,1,0.5,1.5c0.4,1.2,0.7,2.5,1.1,3.7
		c0,0.2,0,0.4,0,0.6c-0.2,0-0.4,0-0.6-0.1c-0.3-0.2-0.6-0.4-0.9-0.7c-0.4-0.5-0.8-0.4-1.3-0.3c-2.5,0.9-4.9,1.7-7.4,2.5
		c-1.5,0.5-3.1,0.9-4.6,1.3c-0.2,0.1-0.4,0.1-0.5,0.2c-0.6,0.4-1.3,0.3-2,0.1c-1.5-0.5-3-0.9-4.5-1.3c-0.2-0.1-0.5,0.1-0.6,0.3
		c-1.1,1.6-2.2,3.2-3.2,4.9c-0.7,1-1.6,1.4-2.8,1.1c-3.6-1-7.2-2.1-10.8-3.1c-1.2-0.3-1.8-1.2-2-2.6c-0.2-2-0.5-4.1-0.6-6.1
		c0-1.1-0.5-1.6-1.4-2.2c-2.3-1.5-4.5-3.1-6.8-4.7c-0.2-0.2-0.7-0.1-1-0.1c-1.7,0.5-3.4,1-5.1,1.5c-0.5,0.2-1,0.3-1.5,0.4
		c-1.5,0.4-2.7-0.1-3.6-1.5c-0.5-0.8-1-1.6-1.6-2.3c-0.5-0.7-1.2-1.2-1.8-1.9c-1.1-1.5-2.2-3-3.3-4.5c-0.5-0.7-0.5-1.4,0-2.1
		c1.5-2.1,3-4.3,4.5-6.4c0.1-0.1,0.1-0.3,0.1-0.5c-0.5-2.9-1.1-5.8-1.7-8.7c-0.1-0.3-0.4-0.7-0.6-0.8c-2.3-1.1-4.7-2.1-7-3.2
		c-1-0.5-1.7-1.1-1.6-2.4c0.1-2,0-3.9,0.1-5.9c0.1-1.1,0.3-2.1,0.5-3.2c0.1-0.9,0.3-1.8,0.4-2.8c0.1-1.2,0.6-1.6,1.9-1.9
		c2-0.4,3.9-0.9,5.9-1.4c0.2,0,0.4-0.2,0.6-0.2c1.3-0.1,1.9-0.9,2.5-2c1.1-2.1,2.4-4.2,3.6-6.3c0.3-0.5,0.5-0.9,0.1-1.5
		c-1.1-2.2-2.1-4.4-3.2-6.6c-0.3-0.6-0.3-1.4,0.2-1.8c1.7-1.6,3.4-3.3,5.1-4.9c1.3-1.2,2.7-2.4,4.1-3.6c0.7-0.6,1.8-0.6,2.6-0.1
		c1.4,0.8,2.9,1.5,4.4,2.3c0.7,0.4,1.3,0.7,1.9,1.2c0.4,0.3,0.7,0.3,1.1,0.1c1.4-0.7,2.8-1.3,4.3-1.9c1.3-0.5,2.7-0.9,4-1.4
		c0.2-0.1,0.4-0.2,0.4-0.3c0.6-1.5,1.1-3,1.7-4.5c0.5-1.2,0.9-2.4,1.5-3.6c0.4-0.8,1.2-1.1,2-1.1c3.9,0,7.7,0,11.6,0
		c0.8,0,1.3,0.5,1.7,1.1c0.2,0.4,0.5,0.7,0.9,0.9c0.8,0.7,1.7,1.3,2.5,1.9c2.7,2.1,5.4,4.2,8.1,6.3c0.8,0.6,1.5,1.2,2.2,1.7
		c1.5-0.9,2.9-1.8,4.3-2.7c1-0.6,1.7-0.6,2.7,0.2c1.7,1.4,3.4,2.8,5.1,4.2c1.3,1.1,2.5,2.3,3.7,3.5c0.5,0.5,0.6,1.5,0.3,2.2
		c-0.6,1.3-1.1,2.6-1.7,3.9c9.2,7,18.3,14.2,27.4,21.3c0,0.1-0.1,0.2-0.1,0.3c-0.6,0-1.2,0-1.7,0c-2.6,0-5.3,0-7.9,0
		c-0.8,0-0.8,0-0.8,0.8c0,5.3,0,10.5-0.1,15.8c0,2.2-0.4,4.3-0.5,6.6C257,246.6,256.1,246.1,255,245.7z"/>
	<g id="SBCrkm_00000144301074902701310610000008258901200468292237_" class="st1">
		<g>
			<path d="M359.8,41.2c3.5,0.2,6.2,0.2,8.9,0.4c3.4,0.3,4.5,1.6,4.7,4.9c0,0.4,0,0.7,0,1.1c0,2,0,4.1,0,6.1c0,1.8,0.8,2.8,2.5,3.5
				c4.1,1.7,8.2,3.4,12.3,5.1c1.6,0.7,2.8,0.5,4.1-0.8c1.7-1.7,3.5-3.5,5.2-5.2c2.2-2.1,4.1-2.4,6.3-0.3c4.2,3.9,8.2,7.9,12.1,12.1
				c2.2,2.4,1.9,4.2-0.4,6.6c-1.6,1.7-3.4,3.4-5,5c-1.3,1.3-1.5,2.6-0.7,4.3c1.7,4,3.4,8,5,12c0.7,1.8,1.7,2.6,3.6,2.7
				c2.7,0,5.3,0,8,0.1c2.3,0.1,3.4,1,3.9,3.3c0.2,1,0.4,2,0.4,3c-0.1,5.1,0,10.2-0.3,15.3c-0.2,2.9-1.5,3.8-4.4,3.9
				c-2.5,0.1-4.9,0-7.4,0c-2.2,0-3,0.7-3.8,2.7c-1.6,4-3.2,7.9-4.9,11.8c-0.8,1.8-0.6,3,0.8,4.4c1.7,1.7,3.4,3.4,5.1,5.1
				c2,2.1,2.3,3.9,0.5,6.1c-3,3.5-6.2,6.7-9.4,10c-0.9,0.9-2,1.8-3.1,2.6c-2.4,1.7-4,1.6-6.1-0.5c-1.7-1.7-3.4-3.4-5.1-5.1
				c-1.5-1.5-2.7-1.6-4.6-0.7c-3.8,1.6-7.6,3.2-11.4,4.7c-2.3,0.9-3,1.7-3,4.1c0,2.5,0,5.1-0.1,7.6c-0.1,2.4-1.1,3.5-3.4,3.9
				c-1.3,0.2-2.6,0.4-4,0.4c-4.3,0-8.6-0.1-13-0.2c-0.8,0-1.6-0.2-2.4-0.5c-1.6-0.4-2.5-1.5-2.6-3.1c-0.1-2.6-0.1-5.2-0.1-7.9
				c0-2.8-0.7-3.6-3.3-4.5c-3.5-1.3-7-2.7-10.5-4.3c-2.7-1.2-3.6-1.2-5.7,0.9c-1.5,1.5-3,3.1-4.6,4.6c-2.1,2.1-3.9,2.3-6.2,0.4
				c-3-2.5-5.7-5.2-8.5-7.9c-1.4-1.4-2.7-2.8-3.9-4.4c-1.8-2.4-1.6-4.1,0.5-6.3c1.7-1.8,3.5-3.5,5.2-5.2c1.2-1.3,1.4-2.4,0.7-4.1
				c-1.7-4.1-3.4-8.1-5-12.2c-0.7-1.7-1.7-2.5-3.6-2.5c-2.5,0-5.1,0-7.6-0.1c-2.8-0.1-3.9-1.1-4.3-3.8c-0.3-1.6-0.4-3.2-0.4-4.8
				c0-4,0.1-7.9,0.2-11.9c0-0.8,0.2-1.6,0.5-2.3c0.5-1.6,1.6-2.6,3.3-2.6c2.8-0.1,5.6-0.1,8.4-0.2c2,0,2.9-0.7,3.7-2.6
				c1.6-4,3.3-8.1,5-12.1c0.7-1.7,0.6-2.8-0.7-4.2c-1.7-1.7-3.4-3.4-5.1-5.1c-2.2-2.3-2.5-4.2-0.3-6.5c3.8-4.1,7.8-8.2,12-12
				c2.4-2.2,4.2-1.9,6.6,0.4c1.7,1.7,3.4,3.4,5.1,5.1c1.2,1.2,2.4,1.4,4,0.7c4.1-1.7,8.3-3.4,12.4-5.1c1.7-0.7,2.3-1.6,2.4-3.4
				c0-2.7,0-5.5,0.1-8.2c0.1-2.2,1.1-3.4,3.3-3.7C354.3,41.5,357.4,41.4,359.8,41.2z M321.6,111.6c0,21.4,17.5,38.9,38.9,39
				c21.5,0,39-17.5,39-39c0-21.4-17.5-39-38.9-39C339.1,72.5,321.6,90,321.6,111.6z"/>
		</g>
	</g>
</g>
<g id="final">
	<g>
		<path class="st13" d="M52.1,116.6c0.3,0.3,0.4,0.6,0.4,1.1v9c0,0.4-0.1,0.8-0.4,1.1c-0.3,0.3-0.6,0.4-1.1,0.4H37
			c-0.4,0-0.6,0.2-0.6,0.6v44.6c0,0.4-0.1,0.8-0.4,1.1c-0.3,0.3-0.6,0.4-1.1,0.4H24.1c-0.4,0-0.8-0.1-1.1-0.4
			c-0.3-0.3-0.4-0.6-0.4-1.1v-44.6c0-0.4-0.2-0.6-0.6-0.6H8.5c-0.4,0-0.8-0.1-1.1-0.4c-0.3-0.3-0.4-0.6-0.4-1.1v-9
			c0-0.4,0.1-0.8,0.4-1.1c0.3-0.3,0.6-0.4,1.1-0.4H51C51.5,116.2,51.8,116.4,52.1,116.6z"/>
		<path class="st13" d="M88.7,173.7l-9.7-21.8c-0.1-0.3-0.3-0.4-0.7-0.4h-5.2c-0.4,0-0.6,0.2-0.6,0.6v21.3c0,0.4-0.1,0.8-0.4,1.1
			c-0.3,0.3-0.6,0.4-1.1,0.4H60.1c-0.4,0-0.8-0.1-1.1-0.4c-0.3-0.3-0.4-0.6-0.4-1.1v-55.6c0-0.4,0.1-0.8,0.4-1.1
			c0.3-0.3,0.6-0.4,1.1-0.4h24.4c3.7,0,6.9,0.8,9.7,2.3c2.8,1.5,5,3.6,6.5,6.4c1.5,2.8,2.3,5.9,2.3,9.5c0,3.7-0.9,6.9-2.7,9.6
			c-1.8,2.7-4.3,4.7-7.6,5.9c-0.4,0.2-0.5,0.4-0.3,0.8l10.7,22.3l0.2,0.7c0,0.7-0.4,1.1-1.3,1.1H90.4
			C89.6,174.9,89,174.5,88.7,173.7z M72.5,128.7v11.6c0,0.4,0.2,0.6,0.6,0.6h9.1c2.1,0,3.7-0.6,5-1.7c1.3-1.1,1.9-2.7,1.9-4.6
			c0-2-0.6-3.5-1.9-4.7c-1.3-1.2-3-1.8-5-1.8h-9.1C72.7,128.1,72.5,128.3,72.5,128.7z"/>
		<path class="st13" d="M147.7,173.6l-1.9-6.9c-0.1-0.3-0.3-0.5-0.7-0.5h-18.9c-0.3,0-0.6,0.2-0.7,0.5l-1.9,6.9
			c-0.2,0.8-0.8,1.3-1.7,1.3H110c-0.6,0-1-0.2-1.2-0.5c-0.2-0.3-0.3-0.7-0.1-1.2l17.6-55.7c0.3-0.8,0.9-1.3,1.8-1.3H143
			c0.9,0,1.5,0.4,1.8,1.3l17.7,55.7c0.1,0.1,0.1,0.3,0.1,0.6c0,0.7-0.4,1.1-1.3,1.1h-11.8C148.4,174.9,147.9,174.5,147.7,173.6z
			 M128.9,155c0,0.3,0.2,0.5,0.5,0.5h12.4c0.2,0,0.4-0.1,0.5-0.2c0.1-0.1,0.1-0.3,0-0.5l-6.4-22.3c-0.1-0.3-0.2-0.4-0.3-0.4
			c-0.1,0-0.3,0.1-0.4,0.4l-6.4,22.3V155z"/>
		<path class="st13" d="M169.2,174.5c-0.3-0.3-0.4-0.6-0.4-1.1v-55.6c0-0.4,0.1-0.8,0.4-1.1c0.3-0.3,0.6-0.4,1.1-0.4h20.9
			c4.4,0,8.2,0.8,11.6,2.3c3.4,1.5,5.9,3.7,7.8,6.5c1.8,2.8,2.8,6,2.8,9.6v22c0,3.6-0.9,6.8-2.8,9.6c-1.8,2.8-4.4,4.9-7.8,6.5
			c-3.4,1.5-7.2,2.3-11.6,2.3h-20.9C169.8,174.9,169.5,174.7,169.2,174.5z M183.3,163h8.5c2.2,0,4-0.8,5.4-2.4
			c1.4-1.6,2.1-3.7,2.2-6.4v-17.3c0-2.7-0.7-4.8-2.1-6.4c-1.4-1.6-3.3-2.4-5.6-2.4h-8.4c-0.4,0-0.6,0.2-0.6,0.6v33.7
			C182.7,162.8,182.9,163,183.3,163z"/>
		<path class="st13" d="M261.8,127.7c-0.3,0.3-0.6,0.4-1.1,0.4h-25.6c-0.4,0-0.6,0.2-0.6,0.6v10c0,0.4,0.2,0.6,0.6,0.6h16.2
			c0.4,0,0.8,0.1,1.1,0.4c0.3,0.3,0.4,0.6,0.4,1.1v8.8c0,0.4-0.1,0.8-0.4,1.1c-0.3,0.3-0.6,0.4-1.1,0.4h-16.2
			c-0.4,0-0.6,0.2-0.6,0.6v10.7c0,0.4,0.2,0.6,0.6,0.6h25.6c0.4,0,0.8,0.1,1.1,0.4c0.3,0.3,0.4,0.6,0.4,1.1v8.9
			c0,0.4-0.1,0.8-0.4,1.1c-0.3,0.3-0.6,0.4-1.1,0.4h-38.6c-0.4,0-0.8-0.1-1.1-0.4c-0.3-0.3-0.4-0.6-0.4-1.1v-55.6
			c0-0.4,0.1-0.8,0.4-1.1c0.3-0.3,0.6-0.4,1.1-0.4h38.6c0.4,0,0.8,0.1,1.1,0.4c0.3,0.3,0.4,0.6,0.4,1.1v8.9
			C262.2,127.1,262.1,127.4,261.8,127.7z"/>
		<path class="st13" d="M278.1,173.3c-3.4-1.5-6-3.6-7.8-6.4c-1.8-2.8-2.8-6-2.8-9.6v-1.1c0-0.4,0.1-0.8,0.4-1.1
			c0.3-0.3,0.6-0.4,1.1-0.4h10.6c0.4,0,0.8,0.1,1.1,0.3c0.3,0.2,0.4,0.4,0.4,0.7v1c0,1.8,0.9,3.4,2.7,4.8c1.8,1.4,4.1,2.1,7,2.1
			c2.5,0,4.3-0.5,5.4-1.6c1.2-1.1,1.8-2.3,1.8-3.7c0-1.6-0.7-2.8-2.1-3.6c-1.4-0.8-3.8-1.8-7.3-2.9l-1.8-0.6
			c-3.6-1.2-6.7-2.4-9.4-3.8c-2.7-1.4-5-3.3-6.9-5.7c-1.9-2.4-2.8-5.4-2.8-9c0-3.5,0.9-6.5,2.7-9.1c1.8-2.6,4.3-4.6,7.5-6
			c3.2-1.4,6.9-2.1,10.9-2.1c4.3,0,8.2,0.8,11.6,2.3c3.4,1.6,6.1,3.8,8.1,6.6c2,2.8,2.9,6.1,2.9,9.8v0.7c0,0.4-0.1,0.8-0.4,1.1
			c-0.3,0.3-0.6,0.4-1.1,0.4h-10.6c-0.4,0-0.8-0.1-1.1-0.2c-0.3-0.1-0.4-0.3-0.4-0.6v-0.8c0-2-0.9-3.7-2.6-5.2
			c-1.7-1.5-4.1-2.3-7-2.3c-2.2,0-3.9,0.4-5.1,1.3c-1.2,0.9-1.8,2.2-1.8,3.8c0,1.2,0.4,2.2,1.2,3.1c0.8,0.8,2,1.6,3.6,2.3
			c1.6,0.7,4.2,1.6,7.6,2.7c3.9,1.3,7,2.5,9.1,3.5c2.2,1,4.2,2.6,6.2,4.9c1.9,2.3,2.9,5.2,2.9,8.9c0,3.5-0.9,6.6-2.8,9.3
			c-1.8,2.7-4.4,4.7-7.8,6.2c-3.4,1.5-7.2,2.2-11.6,2.2C285.4,175.6,281.5,174.8,278.1,173.3z"/>
	</g>
	<g>
		<path class="st14" d="M352.6,173.7l-2-7c-0.1-0.3-0.3-0.5-0.7-0.5h-19.4c-0.3,0-0.6,0.2-0.7,0.5l-2,7c-0.2,0.9-0.8,1.3-1.7,1.3
			h-12.1c-0.6,0-1-0.2-1.2-0.5c-0.2-0.3-0.3-0.7-0.1-1.2l18-57c0.3-0.9,0.9-1.3,1.8-1.3h15.2c1,0,1.6,0.4,1.8,1.3l18.1,57
			c0.1,0.1,0.1,0.3,0.1,0.6c0,0.7-0.5,1.1-1.4,1.1h-12.1C353.4,175,352.9,174.6,352.6,173.7z M333.4,154.7c0,0.3,0.2,0.5,0.5,0.5
			h12.7c0.2,0,0.4-0.1,0.5-0.2c0.1-0.1,0.1-0.3,0-0.5l-6.5-22.8c-0.1-0.3-0.2-0.4-0.3-0.4c-0.1,0-0.3,0.1-0.4,0.4l-6.5,22.8V154.7z"
			/>
		<path class="st14" d="M374.7,174.6c-0.3-0.3-0.4-0.7-0.4-1.1v-56.9c0-0.5,0.1-0.8,0.4-1.1c0.3-0.3,0.7-0.4,1.1-0.4h21.3
			c4.5,0,8.4,0.8,11.8,2.3c3.4,1.5,6.1,3.7,8,6.6c1.9,2.9,2.8,6.1,2.8,9.9v22.5c0,3.7-0.9,7-2.8,9.9c-1.9,2.9-4.5,5.1-8,6.6
			c-3.4,1.5-7.4,2.3-11.8,2.3h-21.3C375.3,175,374.9,174.9,374.7,174.6z M389.1,162.8h8.7c2.3,0,4.1-0.8,5.6-2.4s2.2-3.8,2.2-6.6
			v-17.7c0-2.7-0.7-4.9-2.2-6.6c-1.5-1.6-3.4-2.4-5.7-2.4h-8.6c-0.4,0-0.6,0.2-0.6,0.6v34.5C388.5,162.6,388.7,162.8,389.1,162.8z"
			/>
		<path class="st14" d="M427.5,174.6c-0.3-0.3-0.4-0.7-0.4-1.1v-56.9c0-0.5,0.1-0.8,0.4-1.1c0.3-0.3,0.7-0.4,1.1-0.4h11.1
			c0.8,0,1.4,0.3,1.8,1l11.4,18.4c0.3,0.4,0.6,0.4,0.9,0l11.5-18.4c0.4-0.7,1-1,1.8-1H478c0.5,0,0.8,0.1,1.1,0.4
			c0.3,0.3,0.4,0.7,0.4,1.1v56.9c0,0.5-0.1,0.8-0.4,1.1c-0.3,0.3-0.7,0.4-1.1,0.4h-11.1c-0.5,0-0.8-0.1-1.1-0.4
			c-0.3-0.3-0.4-0.7-0.4-1.1V140c0-0.3-0.1-0.5-0.3-0.5c-0.2-0.1-0.3,0.1-0.4,0.3l-6.9,11.3c-0.4,0.7-1,1-1.8,1h-5.2
			c-0.8,0-1.4-0.3-1.8-1l-6.9-11.3c-0.1-0.3-0.3-0.4-0.4-0.3c-0.2,0.1-0.3,0.2-0.3,0.5v33.5c0,0.5-0.1,0.8-0.4,1.1
			c-0.3,0.3-0.7,0.4-1.1,0.4h-11.1C428.1,175,427.7,174.9,427.5,174.6z"/>
		<path class="st14" d="M488.5,174.6c-0.3-0.3-0.4-0.7-0.4-1.1v-56.9c0-0.5,0.1-0.8,0.4-1.1c0.3-0.3,0.7-0.4,1.1-0.4h11.1
			c0.5,0,0.8,0.1,1.1,0.4c0.3,0.3,0.4,0.7,0.4,1.1v56.9c0,0.5-0.1,0.8-0.4,1.1c-0.3,0.3-0.7,0.4-1.1,0.4h-11.1
			C489.1,175,488.8,174.9,488.5,174.6z"/>
		<path class="st14" d="M511.3,174.6c-0.3-0.3-0.4-0.7-0.4-1.1v-56.9c0-0.5,0.1-0.8,0.4-1.1c0.3-0.3,0.7-0.4,1.1-0.4h10.5
			c0.8,0,1.4,0.3,1.8,1l18.9,31.9c0.1,0.2,0.3,0.3,0.4,0.3c0.2-0.1,0.3-0.2,0.3-0.5l-0.1-31.1c0-0.5,0.1-0.8,0.4-1.1
			c0.3-0.3,0.7-0.4,1.1-0.4h11c0.5,0,0.8,0.1,1.1,0.4c0.3,0.3,0.4,0.7,0.4,1.1v56.9c0,0.5-0.1,0.8-0.4,1.1c-0.3,0.3-0.7,0.4-1.1,0.4
			h-10.5c-0.7,0-1.3-0.3-1.8-1l-18.9-32.3c-0.1-0.3-0.3-0.4-0.5-0.3c-0.2,0.1-0.3,0.2-0.3,0.5l0.2,31.6c0,0.5-0.1,0.8-0.4,1.1
			c-0.3,0.3-0.7,0.4-1.1,0.4h-11C511.9,175,511.6,174.9,511.3,174.6z"/>
	</g>
	<path class="st13" d="M21.8,109.8c0.3,0,0.6-0.3,0.6-0.6c0-10.3-0.1-13.8,0.1-24.4c0.1-2,1.4-4.7,3-5.7
		C47.9,66,70.3,53.1,92.9,40.3c1.5-0.9,4.4-1,5.8-0.2c22.4,12.7,44.6,25.7,67,38.4c2.9,1.6,3.6,3.6,3.6,6.7c0,0,0,20.3-0.1,23.9
		c0,0.3,0.2,0.6,0.6,0.6H184c0.3,0,0.6-0.3,0.6-0.6c0-15.5-0.2-17.3,0.1-32.5c0.1-3.8-1.3-5.6-4.4-7.4C153.4,54,126.6,38.5,99.9,23
		c-3-1.7-5.1-1.7-8,0C65.1,38.6,38.4,54,11.5,69.4c-2.9,1.6-4.2,3.3-4.2,6.8c0.2,13.9,0.1,19.3,0.1,33c0,0.3,0.2,0.6,0.6,0.6
		L21.8,109.8z"/>
	<g>
		<path class="st14" d="M294.8,109.6c-0.3,0-0.6,0-0.9,0c-5-0.8-10.3-0.4-14.8,0.8c-0.9,0.4-1-0.3-1-0.8c0-0.8-0.1-1.8-0.1-2.5
			c0-2.2,0-4.4,0.1-6.6c0-0.6,0.1-1.2,0.1-1.7c0-1.1,1-1.7,1.9-1.7c1.3,0,2.6,0,3.9-0.1c0.2,0,0.4,0,0.6,0c0.5,0,1-0.3,1.2-0.8
			c0.4-0.9,0.8-1.9,1.2-2.8c0.5-1.2,1-2.3,1.5-3.5c0.1-0.2,0.1-0.4,0.2-0.5c0.2-0.6,0.1-1.2-0.3-1.7c-0.3-0.4-0.7-0.8-1.1-1.1
			c-0.6-0.6-1.3-1.3-1.9-1.9c-0.1-0.1-0.1-0.1-0.1-0.2c-0.7-0.8-0.7-1.6-0.1-2.5c0.5-0.6,1-1.1,1.5-1.7c1-1.1,2-2.2,3-3.2
			c0.7-0.7,1.5-1.4,2.4-2c0.8-0.6,1.9-0.4,2.6,0.3c0.7,0.7,1.5,1.5,2.2,2.2c0.3,0.3,0.6,0.5,0.9,0.8c0.6,0.5,1.2,0.5,1.8,0.2
			c1.3-0.5,2.6-1.1,4-1.7c0.8-0.3,1.5-0.6,2.3-0.9c0.9-0.4,1.2-0.8,1.2-1.8c0-1.2,0-2.3,0-3.5c0-0.4,0.1-0.9,0.2-1.3
			c0.1-0.5,0.5-0.9,1-1.1c0.9-0.3,1.9-0.4,2.9-0.4c2,0,4,0,6,0.1c0.6,0,1.3,0.2,1.9,0.4c0.7,0.2,1,0.8,1,1.5
			c0.1,1.5,0.1,2.9,0.1,4.4c0,0.8,0.3,1.3,1,1.6c1.3,0.5,2.6,1,3.9,1.6c0.7,0.3,1.4,0.6,2.1,0.9c0.1,0,0.2,0.1,0.3,0.1
			c0.8,0.4,1.5,0.3,2.2-0.4c0.7-0.8,1.4-1.5,2.2-2.2c0.5-0.4,1-0.8,1.6-1.2c0.1-0.1,0.3,0,0.5,0c0.1,0,0.1,0,0.2,0
			c0.3-0.2,0.6,0,0.9,0.2c0.4,0.2,0.7,0.5,1,0.7c1.4,1.3,2.7,2.5,4.1,3.9c0.7,0.7,1.4,1.5,2,2.3c0.7,1,0.6,1.8-0.2,2.7
			c-0.1,0.1-0.2,0.2-0.3,0.3c-0.8,0.8-1.7,1.7-2.5,2.5c-0.6,0.6-0.7,1.3-0.5,2c0.4,1,0.8,2,1.2,3c0.5,1.1,0.9,2.2,1.4,3.3
			c0.3,0.8,0.9,1.3,1.8,1.3c1.2,0,2.4,0,3.6,0c0.3,0,0.6,0,0.9,0.1c0.8,0.1,1.3,0.6,1.4,1.4c0.2,1,0.3,2,0.3,3.1
			c0,2-0.1,4.1-0.2,6.1c0,0.5-0.3,1.1-0.5,1.6c-0.1,0.3-0.4,0.5-0.8,0.5c-4.6,0-9.2,0-13.8,0c-0.5,0-1.1,0-1.6,0
			c2.1-7.9,0.6-14.9-5.4-20.6c-4.2-4.1-9.4-5.7-15.2-5.2c-6.3,0.6-11.2,3.6-14.7,8.8C293.6,97.9,293.1,103.6,294.8,109.6z"/>
	</g>
</g>
<g id="favicon" class="st0">
	<path class="st15" d="M61.8,129.8c0.3,0,0.6-0.3,0.6-0.6c0-10.3-0.1-13.8,0.1-24.4c0.1-2,1.4-4.7,3-5.7
		c22.4-13.1,44.8-26.1,67.4-38.9c1.5-0.9,4.4-1,5.8-0.2c22.4,12.7,44.6,25.7,67,38.4c2.9,1.6,3.6,3.6,3.6,6.7c0,0,0,20.3-0.1,23.9
		c0,0.3,0.2,0.6,0.6,0.6H224c0.3,0,0.6-0.3,0.6-0.6c0-15.5-0.2-17.3,0.1-32.5c0.1-3.8-1.3-5.6-4.4-7.4C193.4,74,166.6,58.5,139.9,43
		c-3-1.7-5.1-1.7-8,0c-26.7,15.6-53.5,31-80.4,46.4c-2.9,1.6-4.2,3.3-4.2,6.8c0.2,13.9,0.1,19.3,0.1,33c0,0.3,0.2,0.6,0.6,0.6
		L61.8,129.8z"/>
	<g class="st1">
		<path class="st14" d="M115.7,125.6c-0.3,0-0.7,0-1,0c-5.8,0-11.5,0-17.3,0c-0.5,0-0.8-0.2-1.1-0.6c-0.4-0.8-0.5-1.6-0.5-2.4
			c0-2.6,0.1-5.3,0.1-7.9c0-0.7,0.1-1.4,0.1-2.1c0-1.3,1.1-2,2.3-2.1c1.5,0,3.1-0.1,4.6-0.1c0.2,0,0.5,0,0.7,0
			c0.6-0.1,1.2-0.3,1.4-0.9c0.5-1.1,1-2.3,1.4-3.4c0.6-1.4,1.2-2.8,1.7-4.2c0.1-0.2,0.2-0.4,0.2-0.6c0.3-0.7,0.2-1.4-0.4-2
			c-0.4-0.5-0.9-0.9-1.3-1.3c-0.7-0.8-1.5-1.5-2.2-2.3c-0.1-0.1-0.1-0.1-0.2-0.2c-0.8-1-0.9-1.9-0.1-3c0.5-0.7,1.2-1.4,1.8-2
			c1.2-1.3,2.3-2.6,3.6-3.8c0.9-0.9,1.8-1.6,2.8-2.4c1-0.7,2.2-0.5,3.1,0.3c0.9,0.9,1.7,1.7,2.6,2.6c0.3,0.3,0.7,0.6,1,0.9
			c0.7,0.6,1.4,0.6,2.2,0.3c1.6-0.7,3.1-1.3,4.7-2c0.9-0.4,1.8-0.7,2.8-1.1c1.1-0.4,1.5-1,1.5-2.1c0-1.4,0-2.8,0-4.2
			c0-0.5,0.1-1,0.2-1.5c0.2-0.6,0.6-1,1.2-1.3c1.1-0.4,2.3-0.5,3.5-0.5c2.4,0,4.8,0,7.2,0.1c0.7,0,1.5,0.3,2.2,0.5
			c0.9,0.3,1.2,1,1.2,1.8c0.1,1.7,0.1,3.5,0.2,5.2c0,0.9,0.4,1.5,1.2,1.9c1.5,0.6,3.1,1.2,4.7,1.9c0.8,0.3,1.7,0.7,2.5,1.1
			c0.1,0.1,0.2,0.1,0.3,0.1c1,0.4,1.8,0.4,2.6-0.4c0.8-0.9,1.7-1.8,2.6-2.6c0.6-0.5,1.2-1,1.9-1.4c0.1-0.1,0.4,0,0.6,0
			c0.1,0,0.1,0.1,0.2,0c0.4-0.3,0.7,0,1,0.2c0.4,0.2,0.8,0.5,1.2,0.9c1.6,1.5,3.3,3,4.9,4.6c0.9,0.9,1.6,1.8,2.4,2.8
			c0.9,1.2,0.8,2.2-0.2,3.2c-0.1,0.1-0.2,0.2-0.3,0.3c-1,1-2,2-3,3c-0.8,0.7-0.9,1.6-0.5,2.4c0.4,1.2,1,2.3,1.4,3.5
			c0.5,1.3,1.1,2.6,1.6,4c0.4,1,1.1,1.5,2.1,1.5c1.4,0,2.8,0,4.3,0c0.4,0,0.8,0,1.1,0.1c0.9,0.2,1.6,0.7,1.7,1.6
			c0.2,1.2,0.4,2.4,0.4,3.7c0,2.4-0.1,4.9-0.2,7.3c0,0.6-0.3,1.3-0.5,1.9c-0.2,0.4-0.5,0.6-1,0.6c-5.5,0-11,0-16.4,0
			c-0.6,0-1.3,0-1.9,0c2.5-9.4,0.7-17.7-6.5-24.6c-5.1-4.8-11.3-6.8-18.2-6.2c-7.5,0.7-13.4,4.3-17.5,10.5
			C114.3,111.6,113.7,118.5,115.7,125.6z"/>
	</g>
	<circle class="st15" cx="137.9" cy="117.3" r="12.5"/>
</g>
<g id="footer" class="st0">
	<g class="st1">
		<path class="st10" d="M52.1,116.6c0.3,0.3,0.4,0.6,0.4,1.1v9c0,0.4-0.1,0.8-0.4,1.1c-0.3,0.3-0.6,0.4-1.1,0.4H37
			c-0.4,0-0.6,0.2-0.6,0.6v44.6c0,0.4-0.1,0.8-0.4,1.1c-0.3,0.3-0.6,0.4-1.1,0.4H24.1c-0.4,0-0.8-0.1-1.1-0.4
			c-0.3-0.3-0.4-0.6-0.4-1.1v-44.6c0-0.4-0.2-0.6-0.6-0.6H8.5c-0.4,0-0.8-0.1-1.1-0.4c-0.3-0.3-0.4-0.6-0.4-1.1v-9
			c0-0.4,0.1-0.8,0.4-1.1c0.3-0.3,0.6-0.4,1.1-0.4H51C51.5,116.2,51.8,116.4,52.1,116.6z"/>
		<path class="st10" d="M88.7,173.7l-9.7-21.8c-0.1-0.3-0.3-0.4-0.7-0.4h-5.2c-0.4,0-0.6,0.2-0.6,0.6v21.3c0,0.4-0.1,0.8-0.4,1.1
			c-0.3,0.3-0.6,0.4-1.1,0.4H60.1c-0.4,0-0.8-0.1-1.1-0.4c-0.3-0.3-0.4-0.6-0.4-1.1v-55.6c0-0.4,0.1-0.8,0.4-1.1
			c0.3-0.3,0.6-0.4,1.1-0.4h24.4c3.7,0,6.9,0.8,9.7,2.3c2.8,1.5,5,3.6,6.5,6.4c1.5,2.8,2.3,5.9,2.3,9.5c0,3.7-0.9,6.9-2.7,9.6
			c-1.8,2.7-4.3,4.7-7.6,5.9c-0.4,0.2-0.5,0.4-0.3,0.8l10.7,22.3l0.2,0.7c0,0.7-0.4,1.1-1.3,1.1H90.4
			C89.6,174.9,89,174.5,88.7,173.7z M72.5,128.7v11.6c0,0.4,0.2,0.6,0.6,0.6h9.1c2.1,0,3.7-0.6,5-1.7c1.3-1.1,1.9-2.7,1.9-4.6
			c0-2-0.6-3.5-1.9-4.7c-1.3-1.2-3-1.8-5-1.8h-9.1C72.7,128.1,72.5,128.3,72.5,128.7z"/>
		<path class="st10" d="M147.7,173.6l-1.9-6.9c-0.1-0.3-0.3-0.5-0.7-0.5h-18.9c-0.3,0-0.6,0.2-0.7,0.5l-1.9,6.9
			c-0.2,0.8-0.8,1.3-1.7,1.3H110c-0.6,0-1-0.2-1.2-0.5c-0.2-0.3-0.3-0.7-0.1-1.2l17.6-55.7c0.3-0.8,0.9-1.3,1.8-1.3H143
			c0.9,0,1.5,0.4,1.8,1.3l17.7,55.7c0.1,0.1,0.1,0.3,0.1,0.6c0,0.7-0.4,1.1-1.3,1.1h-11.8C148.4,174.9,147.9,174.5,147.7,173.6z
			 M128.9,155c0,0.3,0.2,0.5,0.5,0.5h12.4c0.2,0,0.4-0.1,0.5-0.2c0.1-0.1,0.1-0.3,0-0.5l-6.4-22.3c-0.1-0.3-0.2-0.4-0.3-0.4
			c-0.1,0-0.3,0.1-0.4,0.4l-6.4,22.3V155z"/>
		<path class="st10" d="M169.2,174.5c-0.3-0.3-0.4-0.6-0.4-1.1v-55.6c0-0.4,0.1-0.8,0.4-1.1c0.3-0.3,0.6-0.4,1.1-0.4h20.9
			c4.4,0,8.2,0.8,11.6,2.3c3.4,1.5,5.9,3.7,7.8,6.5c1.8,2.8,2.8,6,2.8,9.6v22c0,3.6-0.9,6.8-2.8,9.6c-1.8,2.8-4.4,4.9-7.8,6.5
			c-3.4,1.5-7.2,2.3-11.6,2.3h-20.9C169.8,174.9,169.5,174.7,169.2,174.5z M183.3,163h8.5c2.2,0,4-0.8,5.4-2.4
			c1.4-1.6,2.1-3.7,2.2-6.4v-17.3c0-2.7-0.7-4.8-2.1-6.4c-1.4-1.6-3.3-2.4-5.6-2.4h-8.4c-0.4,0-0.6,0.2-0.6,0.6v33.7
			C182.7,162.8,182.9,163,183.3,163z"/>
		<path class="st10" d="M261.8,127.7c-0.3,0.3-0.6,0.4-1.1,0.4h-25.6c-0.4,0-0.6,0.2-0.6,0.6v10c0,0.4,0.2,0.6,0.6,0.6h16.2
			c0.4,0,0.8,0.1,1.1,0.4c0.3,0.3,0.4,0.6,0.4,1.1v8.8c0,0.4-0.1,0.8-0.4,1.1c-0.3,0.3-0.6,0.4-1.1,0.4h-16.2
			c-0.4,0-0.6,0.2-0.6,0.6v10.7c0,0.4,0.2,0.6,0.6,0.6h25.6c0.4,0,0.8,0.1,1.1,0.4c0.3,0.3,0.4,0.6,0.4,1.1v8.9
			c0,0.4-0.1,0.8-0.4,1.1c-0.3,0.3-0.6,0.4-1.1,0.4h-38.6c-0.4,0-0.8-0.1-1.1-0.4c-0.3-0.3-0.4-0.6-0.4-1.1v-55.6
			c0-0.4,0.1-0.8,0.4-1.1c0.3-0.3,0.6-0.4,1.1-0.4h38.6c0.4,0,0.8,0.1,1.1,0.4c0.3,0.3,0.4,0.6,0.4,1.1v8.9
			C262.2,127.1,262.1,127.4,261.8,127.7z"/>
		<path class="st10" d="M278.1,173.3c-3.4-1.5-6-3.6-7.8-6.4c-1.8-2.8-2.8-6-2.8-9.6v-1.1c0-0.4,0.1-0.8,0.4-1.1
			c0.3-0.3,0.6-0.4,1.1-0.4h10.6c0.4,0,0.8,0.1,1.1,0.3c0.3,0.2,0.4,0.4,0.4,0.7v1c0,1.8,0.9,3.4,2.7,4.8c1.8,1.4,4.1,2.1,7,2.1
			c2.5,0,4.3-0.5,5.4-1.6c1.2-1.1,1.8-2.3,1.8-3.7c0-1.6-0.7-2.8-2.1-3.6c-1.4-0.8-3.8-1.8-7.3-2.9l-1.8-0.6
			c-3.6-1.2-6.7-2.4-9.4-3.8c-2.7-1.4-5-3.3-6.9-5.7c-1.9-2.4-2.8-5.4-2.8-9c0-3.5,0.9-6.5,2.7-9.1c1.8-2.6,4.3-4.6,7.5-6
			c3.2-1.4,6.9-2.1,10.9-2.1c4.3,0,8.2,0.8,11.6,2.3c3.4,1.6,6.1,3.8,8.1,6.6c2,2.8,2.9,6.1,2.9,9.8v0.7c0,0.4-0.1,0.8-0.4,1.1
			c-0.3,0.3-0.6,0.4-1.1,0.4h-10.6c-0.4,0-0.8-0.1-1.1-0.2c-0.3-0.1-0.4-0.3-0.4-0.6v-0.8c0-2-0.9-3.7-2.6-5.2
			c-1.7-1.5-4.1-2.3-7-2.3c-2.2,0-3.9,0.4-5.1,1.3c-1.2,0.9-1.8,2.2-1.8,3.8c0,1.2,0.4,2.2,1.2,3.1c0.8,0.8,2,1.6,3.6,2.3
			c1.6,0.7,4.2,1.6,7.6,2.7c3.9,1.3,7,2.5,9.1,3.5c2.2,1,4.2,2.6,6.2,4.9c1.9,2.3,2.9,5.2,2.9,8.9c0,3.5-0.9,6.6-2.8,9.3
			c-1.8,2.7-4.4,4.7-7.8,6.2c-3.4,1.5-7.2,2.2-11.6,2.2C285.4,175.6,281.5,174.8,278.1,173.3z"/>
	</g>
	<g class="st1">
		<path class="st9" d="M352.6,173.7l-2-7c-0.1-0.3-0.3-0.5-0.7-0.5h-19.4c-0.3,0-0.6,0.2-0.7,0.5l-2,7c-0.2,0.9-0.8,1.3-1.7,1.3
			h-12.1c-0.6,0-1-0.2-1.2-0.5c-0.2-0.3-0.3-0.7-0.1-1.2l18-57c0.3-0.9,0.9-1.3,1.8-1.3h15.2c1,0,1.6,0.4,1.8,1.3l18.1,57
			c0.1,0.1,0.1,0.3,0.1,0.6c0,0.7-0.5,1.1-1.4,1.1h-12.1C353.4,175,352.9,174.6,352.6,173.7z M333.4,154.7c0,0.3,0.2,0.5,0.5,0.5
			h12.7c0.2,0,0.4-0.1,0.5-0.2c0.1-0.1,0.1-0.3,0-0.5l-6.5-22.8c-0.1-0.3-0.2-0.4-0.3-0.4c-0.1,0-0.3,0.1-0.4,0.4l-6.5,22.8V154.7z"
			/>
		<path class="st9" d="M374.7,174.6c-0.3-0.3-0.4-0.7-0.4-1.1v-56.9c0-0.5,0.1-0.8,0.4-1.1c0.3-0.3,0.7-0.4,1.1-0.4h21.3
			c4.5,0,8.4,0.8,11.8,2.3c3.4,1.5,6.1,3.7,8,6.6c1.9,2.9,2.8,6.1,2.8,9.9v22.5c0,3.7-0.9,7-2.8,9.9c-1.9,2.9-4.5,5.1-8,6.6
			c-3.4,1.5-7.4,2.3-11.8,2.3h-21.3C375.3,175,374.9,174.9,374.7,174.6z M389.1,162.8h8.7c2.3,0,4.1-0.8,5.6-2.4s2.2-3.8,2.2-6.6
			v-17.7c0-2.7-0.7-4.9-2.2-6.6c-1.5-1.6-3.4-2.4-5.7-2.4h-8.6c-0.4,0-0.6,0.2-0.6,0.6v34.5C388.5,162.6,388.7,162.8,389.1,162.8z"
			/>
		<path class="st9" d="M427.5,174.6c-0.3-0.3-0.4-0.7-0.4-1.1v-56.9c0-0.5,0.1-0.8,0.4-1.1c0.3-0.3,0.7-0.4,1.1-0.4h11.1
			c0.8,0,1.4,0.3,1.8,1l11.4,18.4c0.3,0.4,0.6,0.4,0.9,0l11.5-18.4c0.4-0.7,1-1,1.8-1H478c0.5,0,0.8,0.1,1.1,0.4
			c0.3,0.3,0.4,0.7,0.4,1.1v56.9c0,0.5-0.1,0.8-0.4,1.1c-0.3,0.3-0.7,0.4-1.1,0.4h-11.1c-0.5,0-0.8-0.1-1.1-0.4
			c-0.3-0.3-0.4-0.7-0.4-1.1V140c0-0.3-0.1-0.5-0.3-0.5c-0.2-0.1-0.3,0.1-0.4,0.3l-6.9,11.3c-0.4,0.7-1,1-1.8,1h-5.2
			c-0.8,0-1.4-0.3-1.8-1l-6.9-11.3c-0.1-0.3-0.3-0.4-0.4-0.3c-0.2,0.1-0.3,0.2-0.3,0.5v33.5c0,0.5-0.1,0.8-0.4,1.1
			c-0.3,0.3-0.7,0.4-1.1,0.4h-11.1C428.1,175,427.7,174.9,427.5,174.6z"/>
		<path class="st9" d="M488.5,174.6c-0.3-0.3-0.4-0.7-0.4-1.1v-56.9c0-0.5,0.1-0.8,0.4-1.1c0.3-0.3,0.7-0.4,1.1-0.4h11.1
			c0.5,0,0.8,0.1,1.1,0.4c0.3,0.3,0.4,0.7,0.4,1.1v56.9c0,0.5-0.1,0.8-0.4,1.1c-0.3,0.3-0.7,0.4-1.1,0.4h-11.1
			C489.1,175,488.8,174.9,488.5,174.6z"/>
		<path class="st9" d="M511.3,174.6c-0.3-0.3-0.4-0.7-0.4-1.1v-56.9c0-0.5,0.1-0.8,0.4-1.1c0.3-0.3,0.7-0.4,1.1-0.4h10.5
			c0.8,0,1.4,0.3,1.8,1l18.9,31.9c0.1,0.2,0.3,0.3,0.4,0.3c0.2-0.1,0.3-0.2,0.3-0.5l-0.1-31.1c0-0.5,0.1-0.8,0.4-1.1
			c0.3-0.3,0.7-0.4,1.1-0.4h11c0.5,0,0.8,0.1,1.1,0.4c0.3,0.3,0.4,0.7,0.4,1.1v56.9c0,0.5-0.1,0.8-0.4,1.1c-0.3,0.3-0.7,0.4-1.1,0.4
			h-10.5c-0.7,0-1.3-0.3-1.8-1l-18.9-32.3c-0.1-0.3-0.3-0.4-0.5-0.3c-0.2,0.1-0.3,0.2-0.3,0.5l0.2,31.6c0,0.5-0.1,0.8-0.4,1.1
			c-0.3,0.3-0.7,0.4-1.1,0.4h-11C511.9,175,511.6,174.9,511.3,174.6z"/>
	</g>
	<path class="st16" d="M21.8,109.8c0.3,0,0.6-0.3,0.6-0.6c0-10.3-0.1-13.8,0.1-24.4c0.1-2,1.4-4.7,3-5.7
		C47.9,66,70.3,53.1,92.9,40.3c1.5-0.9,4.4-1,5.8-0.2c22.4,12.7,44.6,25.7,67,38.4c2.9,1.6,3.6,3.6,3.6,6.7c0,0,0,20.3-0.1,23.9
		c0,0.3,0.2,0.6,0.6,0.6H184c0.3,0,0.6-0.3,0.6-0.6c0-15.5-0.2-17.3,0.1-32.5c0.1-3.8-1.3-5.6-4.4-7.4C153.4,54,126.6,38.5,99.9,23
		c-3-1.7-5.1-1.7-8,0C65.1,38.6,38.4,54,11.5,69.4c-2.9,1.6-4.2,3.3-4.2,6.8c0.2,13.9,0.1,19.3,0.1,33c0,0.3,0.2,0.6,0.6,0.6
		L21.8,109.8z"/>
	<g class="st1">
		<path class="st9" d="M478.6,106.7c-0.2,0-0.5,0-0.8,0c-4.3,0-8.6,0-12.9,0c-0.4,0-0.6-0.2-0.8-0.5c-0.3-0.6-0.4-1.2-0.4-1.8
			c0-2,0-3.9,0.1-5.9c0-0.5,0.1-1,0.1-1.5c0-0.9,0.8-1.5,1.7-1.5c1.2,0,2.3,0,3.5-0.1c0.2,0,0.4,0,0.5,0c0.5,0,0.9-0.2,1.1-0.7
			c0.4-0.8,0.7-1.7,1.1-2.5c0.4-1,0.9-2.1,1.3-3.1c0.1-0.2,0.1-0.3,0.2-0.5c0.2-0.5,0.1-1.1-0.3-1.5c-0.3-0.3-0.7-0.7-1-1
			c-0.6-0.6-1.1-1.1-1.7-1.7c0,0-0.1-0.1-0.1-0.1c-0.6-0.7-0.6-1.4-0.1-2.2c0.4-0.5,0.9-1,1.3-1.5c0.9-0.9,1.7-1.9,2.7-2.8
			c0.7-0.6,1.4-1.2,2.1-1.8c0.7-0.5,1.7-0.4,2.3,0.2c0.7,0.6,1.3,1.3,2,1.9c0.2,0.2,0.5,0.5,0.8,0.7c0.5,0.4,1.1,0.5,1.6,0.2
			c1.2-0.5,2.3-1,3.5-1.5c0.7-0.3,1.4-0.6,2.1-0.8c0.8-0.3,1.1-0.7,1.1-1.6c0-1,0-2.1,0-3.1c0-0.4,0.1-0.8,0.2-1.1
			c0.1-0.5,0.4-0.8,0.9-0.9c0.8-0.3,1.7-0.4,2.6-0.4c1.8,0,3.6,0,5.4,0c0.6,0,1.1,0.2,1.7,0.4c0.6,0.2,0.9,0.7,0.9,1.4
			c0,1.3,0.1,2.6,0.1,3.9c0,0.7,0.3,1.2,0.9,1.4c1.2,0.5,2.3,0.9,3.5,1.4c0.6,0.3,1.3,0.5,1.9,0.8c0.1,0,0.2,0.1,0.3,0.1
			c0.7,0.3,1.4,0.3,1.9-0.3c0.6-0.7,1.3-1.3,1.9-1.9c0.4-0.4,0.9-0.7,1.4-1c0.1-0.1,0.3,0,0.4,0c0,0,0.1,0,0.1,0
			c0.3-0.2,0.5,0,0.8,0.1c0.3,0.2,0.6,0.4,0.9,0.6c1.2,1.1,2.4,2.2,3.6,3.4c0.6,0.6,1.2,1.3,1.8,2.1c0.6,0.9,0.6,1.6-0.1,2.4
			c-0.1,0.1-0.2,0.2-0.2,0.2c-0.8,0.7-1.5,1.5-2.3,2.2c-0.6,0.5-0.6,1.2-0.4,1.8c0.3,0.9,0.7,1.7,1.1,2.6c0.4,1,0.8,2,1.2,3
			c0.3,0.7,0.8,1.1,1.6,1.1c1.1,0,2.1,0,3.2,0c0.3,0,0.6,0,0.8,0.1c0.7,0.1,1.2,0.6,1.3,1.2c0.2,0.9,0.3,1.8,0.3,2.7
			c0,1.8-0.1,3.6-0.1,5.5c0,0.5-0.2,0.9-0.4,1.4c-0.1,0.3-0.4,0.4-0.7,0.4c-4.1,0-8.2,0-12.2,0c-0.5,0-1,0-1.4,0
			c1.9-7,0.5-13.2-4.8-18.3c-3.8-3.6-8.4-5.1-13.5-4.6c-5.6,0.5-10,3.2-13.1,7.8C477.5,96.3,477.1,101.4,478.6,106.7z"/>
	</g>
	<circle class="st16" cx="495.1" cy="100.5" r="9.3"/>
</g>
</svg>
