<?xml version="1.0" encoding="utf-8"?>
<!-- Generator: Adobe Illustrator 27.5.0, SVG Export Plug-In . SVG Version: 6.00 Build 0)  -->
<svg version="1.1" xmlns="http://www.w3.org/2000/svg" xmlns:xlink="http://www.w3.org/1999/xlink" x="0px" y="0px"
	 viewBox="0 0 710.7 166.7" style="enable-background:new 0 0 710.7 166.7;" xml:space="preserve">
<style type="text/css">
	.st0{display:none;}
	.st1{display:inline;}
	.st2{fill:#2B4BB2;}
	.st3{font-family:'Barlow-Bold';}
	.st4{font-size:78.8816px;}
	.st5{fill:#DD5000;}
	.st6{font-size:90px;}
	.st7{display:inline;fill:#2B4BB2;}
	.st8{display:inline;fill:#FF5000;}
	.st9{fill:#FF5000;}
	.st10{fill:#FFFFFF;}
	.st11{fill:#698AD5;}
	.st12{fill:#FF8F00;}
	.st13{fill:#213975;}
	.st14{fill:#FF2000;}
</style>
<g id="Layer_1" class="st0">
	<text transform="matrix(1 0 0 1 175.946 113.6163)" class="st1"><tspan x="0" y="0" class="st2 st3 st4">TECH</tspan><tspan x="189.7" y="0" class="st5 st3 st6">A</tspan><tspan x="250.1" y="0" class="st5 st3 st4">DMIN</tspan></text>
	<path class="st7" d="M59.6,51c0.6-0.3,1.2-0.6,1.7-1c3.5-2.2,6.9-4.4,10.3-6.7c1.4-0.9,2.7-1.9,4.1-2.9c0.1-0.1,0.5,0,0.7,0.1
		c2.2,1.5,4.4,2.9,6.6,4.4c1.2,0.8,2.5,1.5,3.7,2.3c0.2,0.1,0.3,0.2,0.6,0.4c-0.3,0.2-0.5,0.4-0.8,0.6c-3,1.9-6.1,3.7-9.1,5.7
		c-6.5,4.1-12.9,8.3-19.3,12.4c-1.8,1.1-1.7,1.2-1.8,3.3c0,6.4-0.1,12.8-0.1,19.2c0,0.8,0.2,1.3,1,1.8c5.5,3.4,11,6.9,16.5,10.3
		c0.8,0.5,1.1,1.1,1.1,2.1c0,7.3,0,14.5,0,21.8c0,0.3,0,0.7-0.1,1.1c-0.3-0.1-0.5-0.2-0.7-0.3c-7.3-4.6-14.6-9.1-22-13.7
		c-3.6-2.3-7.3-4.5-11-6.8c-3-1.9-6-3.7-9-5.7c-0.3-0.2-0.5-0.6-0.5-0.9c0-9.3,0-18.5,0-27.8c0-1,0.3-1.6,1.2-2.2
		c4.8-3,9.5-6.2,14.3-9.3c0.8-0.5,1.5-1,2.3-1.6c0.2-0.1,0.2-0.4,0.2-0.7c0-4.6,0-9.1,0.1-13.7c0-0.9,0.1-1.9,0.1-2.8
		c0-0.4,0.1-0.6,0.6-0.5c2.7,0,5.4,0,8.1,0.1c1,0,1.1,0,1,1c0,2.9-0.1,5.9-0.1,8.8c0,0.3,0,0.6,0,0.9C59.4,50.9,59.5,50.9,59.6,51z"
		/>
	<path class="st8" d="M77.2,125.9c0-0.5-0.1-0.8-0.1-1.1c0-7.5,0-14.9,0-22.4c0-0.6,0.2-0.8,0.7-1.2c5.4-3.4,10.8-6.8,16.3-10.1
		c1.2-0.8,1.7-1.7,1.7-3.3c-0.1-6.3-0.1-12.6-0.1-18.9c0-1-0.3-1.5-1.1-2.1c-2.3-1.4-4.4-2.9-6.6-4.3c-2.8-1.8-5.6-3.6-8.4-5.4
		c-1.4-0.9-1.4-1.1,0-2c2.9-1.8,5.8-3.7,8.7-5.6c0.8-0.5,1.4-0.6,2.3,0c7.3,4.8,14.7,9.6,22,14.4c2.3,1.5,4.5,3,6.8,4.4
		c0.8,0.5,1.1,1.1,1.1,2c0,5.4,0,10.9,0,16.3c0,3.6-0.2,7.3,0,10.9c0.1,1.3-0.4,1.7-1.4,2.3c-2.6,1.6-5.1,3.2-7.7,4.8
		c-2.6,1.6-5.2,3.2-7.8,4.9c-3.8,2.4-7.7,4.8-11.5,7.2c-4.4,2.7-8.8,5.5-13.2,8.2C78.3,125.3,77.9,125.5,77.2,125.9z"/>
	<path class="st1" d="M137.4,73.8c-1.5-1-3-1.9-4.4-2.9c-0.8-0.5-1.5-1.2-2.3-1.7c-1.7-0.9-3.1-2.2-4.8-3.2c-1.7-1-3.3-2.2-4.9-3.3
		c-1.6-1.1-3.3-2.1-4.9-3.1c-3.3-2.1-6.7-4.1-9.9-6.3c-3.2-2.1-6.3-4.3-9.4-6.4c-2.9-2-5.9-3.9-8.8-5.7c-1.7-1.1-3.5-2.1-5.3-3.2
		c-0.4-0.2-0.7-0.6-1-0.8c-1.7-1.2-3.4-2.4-5.2-3.6c-0.5-0.4-0.9-0.1-1.3,0.2c-2,1.3-4,2.7-6,4c-1.8,1.2-3.7,2.4-5.5,3.6
		c-0.3,0.2-0.5,0.4-0.8,0.6c-0.6-1.1-0.3-2,0.6-2.6c3.8-2.4,7.6-4.9,11.4-7.4c0.8-0.5,1.4-0.5,2.2,0c4.6,3,9.2,5.9,13.8,8.9
		c3.8,2.5,7.6,5.1,11.5,7.6c5.5,3.7,11.1,7.3,16.6,10.9c5.9,3.9,11.9,7.7,17.9,11.6c1.8,1.2,3.6,2.4,5.3,3.7c0.3,0.2,0.6,0.6,1,1
		c-0.4,0-0.6,0.1-0.9,0.1c-4.4,0-8.8,0-13.2,0c-1,0-1,0-1,1c0,8.7-0.1,17.4-0.1,26.1c0,0.4-0.3,0.9-0.6,1.1
		c-3.3,2.1-6.7,4.2-10.1,6.2c-9.9,6.1-19.8,12.3-29.8,18.4c-3.3,2.1-6.7,4.1-10,6.2c-0.1,0.1-0.2,0.1-0.2,0.2
		c-0.8,1.1-1.8,0.6-2.7,0.1c-0.6-0.4-1.1-0.9-1.7-1.3c-0.8-0.5-1.5-1-2.3-1.5c-2.5-1.6-5.1-3.2-7.7-4.7c-2.3-1.4-4.6-2.8-6.9-4.2
		c-2-1.2-3.9-2.3-5.9-3.5c-1.1-0.6-2.2-1.2-3.2-2c-4.4-3.3-9.2-6-13.9-8.9c-2.2-1.4-4.4-2.6-6.6-3.9c-0.6-0.4-1.3-0.8-1.8-1.3
		c-0.3-0.3-0.4-0.8-0.4-1.3c0-3.4,0-6.7,0-10.1c0-5.2,0-10.4,0-15.6c0-1,0-1.1-1-1.1c-2,0-4,0-6,0c-2.5,0-5.1,0-7.6-0.1
		c-0.1,0-0.3-0.1-0.6-0.2c0.5-0.5,0.9-0.9,1.3-1.2c4.5-3,9.1-5.9,13.6-8.9c7.1-4.6,14.1-9.3,21.2-14c0,0,0.1-0.1,0.1-0.1
		c0.4-0.1,0.8-0.9,1.3-0.4c0.3,0.3-0.1,1.6-0.5,1.9c-3.7,2.5-7.4,5-11.1,7.5c-4.7,3.1-9.3,6.1-14,9.1c-1.8,1.2-3.6,2.4-5.4,3.5
		c-0.3,0.2-0.7,0.4-1.3,0.7c0.4,0.1,0.7,0.1,1,0.1c3.2,0.1,6.4,0.1,9.7,0.2c1,0,1,0.1,1.1,1.1c0.1,8.7,0.1,17.4,0.1,26
		c0,1.1,0.3,1.8,1.3,2.4c8.1,4.9,16.1,9.8,24.1,14.8c5.6,3.5,11.2,7.1,16.9,10.7c2.2,1.4,4.5,2.7,6.8,4.1c0.7,0.4,1.3,0.4,1.9,0
		c2.4-1.5,4.8-2.9,7.2-4.4c8.1-5,16.1-10,24.2-15c5.4-3.4,10.8-6.7,16.2-10.1c0.3-0.2,0.5-0.3,0.8-0.5c0.6-0.3,0.8-0.8,0.8-1.5
		c0-6.9,0-13.7,0.1-20.6c0-1.9,0-3.9,0.1-5.8c0-1.3,0.1-1.3,1.4-1.4c2.9,0,5.8-0.1,8.6-0.1C136.6,73.9,137,73.9,137.4,73.8z"/>
</g>
<g id="Layer_1_copy" class="st0">
	<g class="st1">
		<path class="st2" d="M219.8,59.7v6.9c0,0.9-0.4,1.3-1.3,1.3h-13.6c-0.3,0-0.5,0.2-0.5,0.5v43.8c0,0.9-0.4,1.3-1.3,1.3h-8.4
			c-0.9,0-1.3-0.4-1.3-1.3V68.5c0-0.3-0.2-0.5-0.5-0.5h-13.3c-0.9,0-1.3-0.4-1.3-1.3v-6.9c0-0.9,0.4-1.3,1.3-1.3h39
			C219.4,58.4,219.8,58.8,219.8,59.7z"/>
		<path class="st2" d="M263.9,67.9h-25.4c-0.3,0-0.5,0.2-0.5,0.5v12.1c0,0.3,0.2,0.5,0.5,0.5H255c0.9,0,1.3,0.4,1.3,1.3v6.9
			c0,0.9-0.4,1.3-1.3,1.3h-16.5c-0.3,0-0.5,0.2-0.5,0.5v12.6c0,0.3,0.2,0.5,0.5,0.5h25.4c0.9,0,1.3,0.4,1.3,1.3v6.9
			c0,0.9-0.4,1.3-1.3,1.3h-35.7c-0.9,0-1.3-0.4-1.3-1.3V59.7c0-0.9,0.4-1.3,1.3-1.3h35.7c0.9,0,1.3,0.4,1.3,1.3v6.9
			C265.2,67.5,264.8,67.9,263.9,67.9z"/>
		<path class="st2" d="M281.6,111.8c-3.1-1.6-5.5-3.9-7.2-6.7c-1.7-2.9-2.5-6.2-2.5-10V76.9c0-3.8,0.8-7.1,2.5-10
			c1.7-2.9,4.1-5.1,7.2-6.7c3.1-1.6,6.7-2.4,10.8-2.4c4,0,7.6,0.7,10.7,2.2c3.1,1.5,5.5,3.6,7.2,6.4c1.7,2.8,2.6,6,2.6,9.6
			c0,0.5-0.4,0.8-1.3,0.9l-8.4,0.6h-0.3c-0.7,0-1.1-0.1-1.1-0.4v-0.5c0-2.8-0.9-5-2.6-6.7c-1.7-1.7-4-2.5-6.7-2.5
			c-2.8,0-5.1,0.8-6.8,2.5c-1.7,1.7-2.6,3.9-2.6,6.7v19c0,2.7,0.9,4.9,2.6,6.6c1.7,1.7,4,2.5,6.8,2.5c2.8,0,5-0.8,6.7-2.5
			c1.7-1.7,2.6-3.9,2.6-6.6c0-0.3,0.1-0.5,0.4-0.7c0.2-0.2,0.6-0.2,1-0.2l8.4,0.4c0.9,0.1,1.3,0.2,1.3,0.4v0.4
			c0,3.6-0.9,6.8-2.6,9.6c-1.7,2.8-4.1,4.9-7.2,6.5c-3.1,1.5-6.6,2.3-10.7,2.3C288.3,114.2,284.7,113.4,281.6,111.8z"/>
		<path class="st2" d="M351.6,58.4h8.4c0.9,0,1.3,0.4,1.3,1.3v52.5c0,0.9-0.4,1.3-1.3,1.3h-8.4c-0.9,0-1.3-0.4-1.3-1.3V91
			c0-0.3-0.2-0.5-0.5-0.5h-17.3c-0.3,0-0.5,0.2-0.5,0.5v21.3c0,0.9-0.4,1.3-1.3,1.3h-8.4c-0.9,0-1.3-0.4-1.3-1.3V59.7
			c0-0.9,0.4-1.3,1.3-1.3h8.4c0.9,0,1.3,0.4,1.3,1.3v20.7c0,0.3,0.2,0.5,0.5,0.5h17.3c0.3,0,0.5-0.2,0.5-0.5V59.7
			C350.3,58.8,350.7,58.4,351.6,58.4z"/>
		<path class="st5" d="M409.9,112.4l-2.5-8.4c-0.1-0.3-0.2-0.5-0.5-0.5h-22c-0.3,0-0.5,0.2-0.5,0.5l-2.5,8.4
			c-0.3,0.8-0.9,1.3-1.7,1.3h-10.4c-0.5,0-0.9-0.2-1.2-0.5c-0.2-0.3-0.3-0.7-0.1-1.2l19.2-60c0.3-0.8,0.9-1.3,1.7-1.3h13.2
			c0.8,0,1.4,0.4,1.7,1.3l19.2,60c0.1,0.1,0.1,0.3,0.1,0.5c0,0.4-0.1,0.6-0.4,0.9c-0.2,0.2-0.6,0.3-1,0.3h-10.4
			C410.8,113.6,410.2,113.2,409.9,112.4z M387.9,93.7h15.9c0.4,0,0.5-0.2,0.5-0.6l-8.1-27.5c-0.1-0.2-0.2-0.4-0.3-0.4
			c-0.2,0-0.3,0.1-0.4,0.4l-8,27.5C387.4,93.5,387.5,93.7,387.9,93.7z"/>
		<path class="st5" d="M430.9,112.3V59.7c0-0.9,0.4-1.3,1.3-1.3h19.3c3.9,0,7.4,0.7,10.4,2.1c3,1.4,5.3,3.4,6.9,5.9
			c1.6,2.5,2.4,5.4,2.4,8.8v21.8c0,3.3-0.8,6.2-2.4,8.8c-1.6,2.5-3.9,4.5-6.9,5.9c-3,1.4-6.4,2.1-10.4,2.1h-19.3
			C431.3,113.6,430.9,113.2,430.9,112.3z M442.4,104.1h9.5c2.4,0,4.4-0.8,5.9-2.4c1.5-1.6,2.3-3.8,2.3-6.5V76.9
			c0-2.7-0.8-4.9-2.2-6.5c-1.5-1.6-3.5-2.4-6-2.4h-9.4c-0.3,0-0.5,0.2-0.5,0.5v35.2C442,103.9,442.1,104.1,442.4,104.1z"/>
		<path class="st5" d="M479.2,112.3V59.7c0-0.9,0.4-1.3,1.3-1.3h8.4c0.7,0,1.2,0.3,1.6,0.9L502,77.7c0.1,0.2,0.2,0.2,0.4,0.2
			c0.1,0,0.2-0.1,0.3-0.2l11.6-18.5c0.4-0.6,0.9-0.9,1.6-0.9h8.4c0.9,0,1.3,0.4,1.3,1.3v52.5c0,0.9-0.4,1.3-1.3,1.3h-8.4
			c-0.9,0-1.3-0.4-1.3-1.3V78.1c0-0.2-0.1-0.3-0.2-0.4c-0.1-0.1-0.2,0-0.4,0.2l-8,13c-0.4,0.6-0.9,0.9-1.6,0.9h-4
			c-0.7,0-1.2-0.3-1.6-0.9l-7.9-13c-0.1-0.2-0.2-0.3-0.4-0.2c-0.1,0.1-0.2,0.2-0.2,0.4v34.2c0,0.9-0.4,1.3-1.3,1.3h-8.4
			C479.7,113.6,479.2,113.2,479.2,112.3z"/>
		<path class="st5" d="M535.2,112.3V59.7c0-0.9,0.4-1.3,1.3-1.3h8.4c0.9,0,1.3,0.4,1.3,1.3v52.5c0,0.9-0.4,1.3-1.3,1.3h-8.4
			C535.7,113.6,535.2,113.2,535.2,112.3z"/>
		<path class="st5" d="M556,112.3V59.7c0-0.9,0.4-1.3,1.3-1.3h8.1c0.7,0,1.2,0.3,1.6,0.9l19.7,32.8c0.1,0.2,0.2,0.3,0.4,0.2
			c0.1-0.1,0.2-0.2,0.2-0.4V59.7c0-0.9,0.4-1.3,1.3-1.3h8.3c0.9,0,1.3,0.4,1.3,1.3v52.5c0,0.9-0.4,1.3-1.3,1.3h-8
			c-0.6,0-1.2-0.3-1.6-0.9l-19.8-33.1c-0.1-0.2-0.2-0.3-0.4-0.2c-0.1,0.1-0.2,0.2-0.2,0.4l0.1,32.6c0,0.9-0.4,1.3-1.3,1.3h-8.4
			C556.4,113.6,556,113.2,556,112.3z"/>
	</g>
	<path class="st7" d="M59.6,51c0.6-0.3,1.2-0.6,1.7-1c3.5-2.2,6.9-4.4,10.3-6.7c1.4-0.9,2.7-1.9,4.1-2.9c0.1-0.1,0.5,0,0.7,0.1
		c2.2,1.5,4.4,2.9,6.6,4.4c1.2,0.8,2.5,1.5,3.7,2.3c0.2,0.1,0.3,0.2,0.6,0.4c-0.3,0.2-0.5,0.4-0.8,0.6c-3,1.9-6.1,3.7-9.1,5.7
		c-6.5,4.1-12.9,8.3-19.3,12.4c-1.8,1.1-1.7,1.2-1.8,3.3c0,6.4-0.1,12.8-0.1,19.2c0,0.8,0.2,1.3,1,1.8c5.5,3.4,11,6.9,16.5,10.3
		c0.8,0.5,1.1,1.1,1.1,2.1c0,7.3,0,14.5,0,21.8c0,0.3,0,0.7-0.1,1.1c-0.3-0.1-0.5-0.2-0.7-0.3c-7.3-4.6-14.6-9.1-22-13.7
		c-3.6-2.3-7.3-4.5-11-6.8c-3-1.9-6-3.7-9-5.7c-0.3-0.2-0.5-0.6-0.5-0.9c0-9.3,0-18.5,0-27.8c0-1,0.3-1.6,1.2-2.2
		c4.8-3,9.5-6.2,14.3-9.3c0.8-0.5,1.5-1,2.3-1.6c0.2-0.1,0.2-0.4,0.2-0.7c0-4.6,0-9.1,0.1-13.7c0-0.9,0.1-1.9,0.1-2.8
		c0-0.4,0.1-0.6,0.6-0.5c2.7,0,5.4,0,8.1,0.1c1,0,1.1,0,1,1c0,2.9-0.1,5.9-0.1,8.8c0,0.3,0,0.6,0,0.9C59.4,50.9,59.5,50.9,59.6,51z"
		/>
	<path class="st8" d="M77.2,125.9c0-0.5-0.1-0.8-0.1-1.1c0-7.5,0-14.9,0-22.4c0-0.6,0.2-0.8,0.7-1.2c5.4-3.4,10.8-6.8,16.3-10.1
		c1.2-0.8,1.7-1.7,1.7-3.3c-0.1-6.3-0.1-12.6-0.1-18.9c0-1-0.3-1.5-1.1-2.1c-2.3-1.4-4.4-2.9-6.6-4.3c-2.8-1.8-5.6-3.6-8.4-5.4
		c-1.4-0.9-1.4-1.1,0-2c2.9-1.8,5.8-3.7,8.7-5.6c0.8-0.5,1.4-0.6,2.3,0c7.3,4.8,14.7,9.6,22,14.4c2.3,1.5,4.5,3,6.8,4.4
		c0.8,0.5,1.1,1.1,1.1,2c0,5.4,0,10.9,0,16.3c0,3.6-0.2,7.3,0,10.9c0.1,1.3-0.4,1.7-1.4,2.3c-2.6,1.6-5.1,3.2-7.7,4.8
		c-2.6,1.6-5.2,3.2-7.8,4.9c-3.8,2.4-7.7,4.8-11.5,7.2c-4.4,2.7-8.8,5.5-13.2,8.2C78.3,125.3,77.9,125.5,77.2,125.9z"/>
	<path class="st1" d="M137.4,73.8c-1.5-1-3-1.9-4.4-2.9c-0.8-0.5-1.5-1.2-2.3-1.7c-1.7-0.9-3.1-2.2-4.8-3.2c-1.7-1-3.3-2.2-4.9-3.3
		c-1.6-1.1-3.3-2.1-4.9-3.1c-3.3-2.1-6.7-4.1-9.9-6.3c-3.2-2.1-6.3-4.3-9.4-6.4c-2.9-2-5.9-3.9-8.8-5.7c-1.7-1.1-3.5-2.1-5.3-3.2
		c-0.4-0.2-0.7-0.6-1-0.8c-1.7-1.2-3.4-2.4-5.2-3.6c-0.5-0.4-0.9-0.1-1.3,0.2c-2,1.3-4,2.7-6,4c-1.8,1.2-3.7,2.4-5.5,3.6
		c-0.3,0.2-0.5,0.4-0.8,0.6c-0.6-1.1-0.3-2,0.6-2.6c3.8-2.4,7.6-4.9,11.4-7.4c0.8-0.5,1.4-0.5,2.2,0c4.6,3,9.2,5.9,13.8,8.9
		c3.8,2.5,7.6,5.1,11.5,7.6c5.5,3.7,11.1,7.3,16.6,10.9c5.9,3.9,11.9,7.7,17.9,11.6c1.8,1.2,3.6,2.4,5.3,3.7c0.3,0.2,0.6,0.6,1,1
		c-0.4,0-0.6,0.1-0.9,0.1c-4.4,0-8.8,0-13.2,0c-1,0-1,0-1,1c0,8.7-0.1,17.4-0.1,26.1c0,0.4-0.3,0.9-0.6,1.1
		c-3.3,2.1-6.7,4.2-10.1,6.2c-9.9,6.1-19.8,12.3-29.8,18.4c-3.3,2.1-6.7,4.1-10,6.2c-0.1,0.1-0.2,0.1-0.2,0.2
		c-0.8,1.1-1.8,0.6-2.7,0.1c-0.6-0.4-1.1-0.9-1.7-1.3c-0.8-0.5-1.5-1-2.3-1.5c-2.5-1.6-5.1-3.2-7.7-4.7c-2.3-1.4-4.6-2.8-6.9-4.2
		c-2-1.2-3.9-2.3-5.9-3.5c-1.1-0.6-2.2-1.2-3.2-2c-4.4-3.3-9.2-6-13.9-8.9c-2.2-1.4-4.4-2.6-6.6-3.9c-0.6-0.4-1.3-0.8-1.8-1.3
		c-0.3-0.3-0.4-0.8-0.4-1.3c0-3.4,0-6.7,0-10.1c0-5.2,0-10.4,0-15.6c0-1,0-1.1-1-1.1c-2,0-4,0-6,0c-2.5,0-5.1,0-7.6-0.1
		c-0.1,0-0.3-0.1-0.6-0.2c0.5-0.5,0.9-0.9,1.3-1.2c4.5-3,9.1-5.9,13.6-8.9c7.1-4.6,14.1-9.3,21.2-14c0,0,0.1-0.1,0.1-0.1
		c0.4-0.1,0.8-0.9,1.3-0.4c0.3,0.3-0.1,1.6-0.5,1.9c-3.7,2.5-7.4,5-11.1,7.5c-4.7,3.1-9.3,6.1-14,9.1c-1.8,1.2-3.6,2.4-5.4,3.5
		c-0.3,0.2-0.7,0.4-1.3,0.7c0.4,0.1,0.7,0.1,1,0.1c3.2,0.1,6.4,0.1,9.7,0.2c1,0,1,0.1,1.1,1.1c0.1,8.7,0.1,17.4,0.1,26
		c0,1.1,0.3,1.8,1.3,2.4c8.1,4.9,16.1,9.8,24.1,14.8c5.6,3.5,11.2,7.1,16.9,10.7c2.2,1.4,4.5,2.7,6.8,4.1c0.7,0.4,1.3,0.4,1.9,0
		c2.4-1.5,4.8-2.9,7.2-4.4c8.1-5,16.1-10,24.2-15c5.4-3.4,10.8-6.7,16.2-10.1c0.3-0.2,0.5-0.3,0.8-0.5c0.6-0.3,0.8-0.8,0.8-1.5
		c0-6.9,0-13.7,0.1-20.6c0-1.9,0-3.9,0.1-5.8c0-1.3,0.1-1.3,1.4-1.4c2.9,0,5.8-0.1,8.6-0.1C136.6,73.9,137,73.9,137.4,73.8z"/>
</g>
<g id="Layer_1_copy_2" class="st0">
	<g class="st1">
		<path class="st2" d="M219.8,59.7v6.9c0,0.9-0.4,1.3-1.3,1.3h-13.6c-0.3,0-0.5,0.2-0.5,0.5v43.8c0,0.9-0.4,1.3-1.3,1.3h-8.4
			c-0.9,0-1.3-0.4-1.3-1.3V68.5c0-0.3-0.2-0.5-0.5-0.5h-13.3c-0.9,0-1.3-0.4-1.3-1.3v-6.9c0-0.9,0.4-1.3,1.3-1.3h39
			C219.4,58.4,219.8,58.8,219.8,59.7z"/>
		<path class="st2" d="M263.9,67.9h-25.4c-0.3,0-0.5,0.2-0.5,0.5v12.1c0,0.3,0.2,0.5,0.5,0.5H255c0.9,0,1.3,0.4,1.3,1.3v6.9
			c0,0.9-0.4,1.3-1.3,1.3h-16.5c-0.3,0-0.5,0.2-0.5,0.5v12.6c0,0.3,0.2,0.5,0.5,0.5h25.4c0.9,0,1.3,0.4,1.3,1.3v6.9
			c0,0.9-0.4,1.3-1.3,1.3h-35.7c-0.9,0-1.3-0.4-1.3-1.3V59.7c0-0.9,0.4-1.3,1.3-1.3h35.7c0.9,0,1.3,0.4,1.3,1.3v6.9
			C265.2,67.5,264.8,67.9,263.9,67.9z"/>
		<path class="st2" d="M281.6,111.8c-3.1-1.6-5.5-3.9-7.2-6.7c-1.7-2.9-2.5-6.2-2.5-10V76.9c0-3.8,0.8-7.1,2.5-10
			c1.7-2.9,4.1-5.1,7.2-6.7c3.1-1.6,6.7-2.4,10.8-2.4c4,0,7.6,0.7,10.7,2.2c3.1,1.5,5.5,3.6,7.2,6.4c1.7,2.8,2.6,6,2.6,9.6
			c0,0.5-0.4,0.8-1.3,0.9l-8.4,0.6h-0.3c-0.7,0-1.1-0.1-1.1-0.4v-0.5c0-2.8-0.9-5-2.6-6.7c-1.7-1.7-4-2.5-6.7-2.5
			c-2.8,0-5.1,0.8-6.8,2.5c-1.7,1.7-2.6,3.9-2.6,6.7v19c0,2.7,0.9,4.9,2.6,6.6c1.7,1.7,4,2.5,6.8,2.5c2.8,0,5-0.8,6.7-2.5
			c1.7-1.7,2.6-3.9,2.6-6.6c0-0.3,0.1-0.5,0.4-0.7c0.2-0.2,0.6-0.2,1-0.2l8.4,0.4c0.9,0.1,1.3,0.2,1.3,0.4v0.4
			c0,3.6-0.9,6.8-2.6,9.6c-1.7,2.8-4.1,4.9-7.2,6.5c-3.1,1.5-6.6,2.3-10.7,2.3C288.3,114.2,284.7,113.4,281.6,111.8z"/>
		<path class="st2" d="M351.6,58.4h8.4c0.9,0,1.3,0.4,1.3,1.3v52.5c0,0.9-0.4,1.3-1.3,1.3h-8.4c-0.9,0-1.3-0.4-1.3-1.3V91
			c0-0.3-0.2-0.5-0.5-0.5h-17.3c-0.3,0-0.5,0.2-0.5,0.5v21.3c0,0.9-0.4,1.3-1.3,1.3h-8.4c-0.9,0-1.3-0.4-1.3-1.3V59.7
			c0-0.9,0.4-1.3,1.3-1.3h8.4c0.9,0,1.3,0.4,1.3,1.3v20.7c0,0.3,0.2,0.5,0.5,0.5h17.3c0.3,0,0.5-0.2,0.5-0.5V59.7
			C350.3,58.8,350.7,58.4,351.6,58.4z"/>
		<path class="st5" d="M409.9,112.4l-2.5-8.4c-0.1-0.3-0.2-0.5-0.5-0.5h-22c-0.3,0-0.5,0.2-0.5,0.5l-2.5,8.4
			c-0.3,0.8-0.9,1.3-1.7,1.3h-10.4c-0.5,0-0.9-0.2-1.2-0.5c-0.2-0.3-0.3-0.7-0.1-1.2l19.2-60c0.3-0.8,0.9-1.3,1.7-1.3h13.2
			c0.8,0,1.4,0.4,1.7,1.3l19.2,60c0.1,0.1,0.1,0.3,0.1,0.5c0,0.4-0.1,0.6-0.4,0.9c-0.2,0.2-0.6,0.3-1,0.3h-10.4
			C410.8,113.6,410.2,113.2,409.9,112.4z M387.9,93.7h15.9c0.4,0,0.5-0.2,0.5-0.6l-8.1-27.5c-0.1-0.2-0.2-0.4-0.3-0.4
			c-0.2,0-0.3,0.1-0.4,0.4l-8,27.5C387.4,93.5,387.5,93.7,387.9,93.7z"/>
		<path class="st5" d="M430.9,112.3V59.7c0-0.9,0.4-1.3,1.3-1.3h19.3c3.9,0,7.4,0.7,10.4,2.1c3,1.4,5.3,3.4,6.9,5.9
			c1.6,2.5,2.4,5.4,2.4,8.8v21.8c0,3.3-0.8,6.2-2.4,8.8c-1.6,2.5-3.9,4.5-6.9,5.9c-3,1.4-6.4,2.1-10.4,2.1h-19.3
			C431.3,113.6,430.9,113.2,430.9,112.3z M442.4,104.1h9.5c2.4,0,4.4-0.8,5.9-2.4c1.5-1.6,2.3-3.8,2.3-6.5V76.9
			c0-2.7-0.8-4.9-2.2-6.5c-1.5-1.6-3.5-2.4-6-2.4h-9.4c-0.3,0-0.5,0.2-0.5,0.5v35.2C442,103.9,442.1,104.1,442.4,104.1z"/>
		<path class="st5" d="M479.2,112.3V59.7c0-0.9,0.4-1.3,1.3-1.3h8.4c0.7,0,1.2,0.3,1.6,0.9L502,77.7c0.1,0.2,0.2,0.2,0.4,0.2
			c0.1,0,0.2-0.1,0.3-0.2l11.6-18.5c0.4-0.6,0.9-0.9,1.6-0.9h8.4c0.9,0,1.3,0.4,1.3,1.3v52.5c0,0.9-0.4,1.3-1.3,1.3h-8.4
			c-0.9,0-1.3-0.4-1.3-1.3V78.1c0-0.2-0.1-0.3-0.2-0.4c-0.1-0.1-0.2,0-0.4,0.2l-8,13c-0.4,0.6-0.9,0.9-1.6,0.9h-4
			c-0.7,0-1.2-0.3-1.6-0.9l-7.9-13c-0.1-0.2-0.2-0.3-0.4-0.2c-0.1,0.1-0.2,0.2-0.2,0.4v34.2c0,0.9-0.4,1.3-1.3,1.3h-8.4
			C479.7,113.6,479.2,113.2,479.2,112.3z"/>
		<path class="st5" d="M535.2,112.3V59.7c0-0.9,0.4-1.3,1.3-1.3h8.4c0.9,0,1.3,0.4,1.3,1.3v52.5c0,0.9-0.4,1.3-1.3,1.3h-8.4
			C535.7,113.6,535.2,113.2,535.2,112.3z"/>
		<path class="st5" d="M556,112.3V59.7c0-0.9,0.4-1.3,1.3-1.3h8.1c0.7,0,1.2,0.3,1.6,0.9l19.7,32.8c0.1,0.2,0.2,0.3,0.4,0.2
			c0.1-0.1,0.2-0.2,0.2-0.4V59.7c0-0.9,0.4-1.3,1.3-1.3h8.3c0.9,0,1.3,0.4,1.3,1.3v52.5c0,0.9-0.4,1.3-1.3,1.3h-8
			c-0.6,0-1.2-0.3-1.6-0.9l-19.8-33.1c-0.1-0.2-0.2-0.3-0.4-0.2c-0.1,0.1-0.2,0.2-0.2,0.4l0.1,32.6c0,0.9-0.4,1.3-1.3,1.3h-8.4
			C556.4,113.6,556,113.2,556,112.3z"/>
	</g>
	<path class="st7" d="M8.7-108.7c0.6-0.3,1.2-0.6,1.7-1c3.5-2.2,6.9-4.4,10.3-6.7c1.4-0.9,2.7-1.9,4.1-2.9c0.1-0.1,0.5,0,0.7,0.1
		c2.2,1.5,4.4,2.9,6.6,4.4c1.2,0.8,2.5,1.5,3.7,2.3c0.2,0.1,0.3,0.2,0.6,0.4c-0.3,0.2-0.5,0.4-0.8,0.6c-3,1.9-6.1,3.7-9.1,5.7
		c-6.5,4.1-12.9,8.3-19.3,12.4c-1.8,1.1-1.7,1.2-1.8,3.3c0,6.4-0.1,12.8-0.1,19.2c0,0.8,0.2,1.3,1,1.8c5.5,3.4,11,6.9,16.5,10.3
		c0.8,0.5,1.1,1.1,1.1,2.1c0,7.3,0,14.5,0,21.8c0,0.3,0,0.7-0.1,1.1c-0.3-0.1-0.5-0.2-0.7-0.3c-7.3-4.6-14.6-9.1-22-13.7
		c-3.6-2.3-7.3-4.5-11-6.8c-3-1.9-6-3.7-9-5.7c-0.3-0.2-0.5-0.6-0.5-0.9c0-9.3,0-18.5,0-27.8c0-1,0.3-1.6,1.2-2.2
		c4.8-3,9.5-6.2,14.3-9.3c0.8-0.5,1.5-1,2.3-1.6c0.2-0.1,0.2-0.4,0.2-0.7c0-4.6,0-9.1,0.1-13.7c0-0.9,0.1-1.9,0.1-2.8
		c0-0.4,0.1-0.6,0.6-0.5c2.7,0,5.4,0,8.1,0.1c1,0,1.1,0,1,1c0,2.9-0.1,5.9-0.1,8.8c0,0.3,0,0.6,0,0.9C8.6-108.8,8.6-108.7,8.7-108.7
		z"/>
	<path class="st8" d="M26.3-33.7c0-0.5-0.1-0.8-0.1-1.1c0-7.5,0-14.9,0-22.4c0-0.6,0.2-0.8,0.7-1.2c5.4-3.4,10.8-6.8,16.3-10.1
		c1.2-0.8,1.7-1.7,1.7-3.3c-0.1-6.3-0.1-12.6-0.1-18.9c0-1-0.3-1.5-1.1-2.1c-2.3-1.4-4.4-2.9-6.6-4.3c-2.8-1.8-5.6-3.6-8.4-5.4
		c-1.4-0.9-1.4-1.1,0-2c2.9-1.8,5.8-3.7,8.7-5.6c0.8-0.5,1.4-0.6,2.3,0c7.3,4.8,14.7,9.6,22,14.4c2.3,1.5,4.5,3,6.8,4.4
		c0.8,0.5,1.1,1.1,1.1,2c0,5.4,0,10.9,0,16.3c0,3.6-0.2,7.3,0,10.9c0.1,1.3-0.4,1.7-1.4,2.3c-2.6,1.6-5.1,3.2-7.7,4.8
		c-2.6,1.6-5.2,3.2-7.8,4.9c-3.8,2.4-7.7,4.8-11.5,7.2c-4.4,2.7-8.8,5.5-13.2,8.2C27.5-34.3,27-34.1,26.3-33.7z"/>
	<path class="st1" d="M86.6-85.8c-1.5-1-3-1.9-4.4-2.9c-0.8-0.5-1.5-1.2-2.3-1.7c-1.7-0.9-3.1-2.2-4.8-3.2c-1.7-1-3.3-2.2-4.9-3.3
		c-1.6-1.1-3.3-2.1-4.9-3.1c-3.3-2.1-6.7-4.1-9.9-6.3c-3.2-2.1-6.3-4.3-9.4-6.4c-2.9-2-5.9-3.9-8.8-5.7c-1.7-1.1-3.5-2.1-5.3-3.2
		c-0.4-0.2-0.7-0.6-1-0.8c-1.7-1.2-3.4-2.4-5.2-3.6c-0.5-0.4-0.9-0.1-1.3,0.2c-2,1.3-4,2.7-6,4c-1.8,1.2-3.7,2.4-5.5,3.6
		c-0.3,0.2-0.5,0.4-0.8,0.6c-0.6-1.1-0.3-2,0.6-2.6c3.8-2.4,7.6-4.9,11.4-7.4c0.8-0.5,1.4-0.5,2.2,0c4.6,3,9.2,5.9,13.8,8.9
		c3.8,2.5,7.6,5.1,11.5,7.6c5.5,3.7,11.1,7.3,16.6,10.9C74-96.4,80-92.5,85.9-88.7c1.8,1.2,3.6,2.4,5.3,3.7c0.3,0.2,0.6,0.6,1,1
		c-0.4,0-0.6,0.1-0.9,0.1c-4.4,0-8.8,0-13.2,0c-1,0-1,0-1,1c0,8.7-0.1,17.4-0.1,26.1c0,0.4-0.3,0.9-0.6,1.1
		c-3.3,2.1-6.7,4.2-10.1,6.2C56.4-43.2,46.5-37,36.6-30.9c-3.3,2.1-6.7,4.1-10,6.2c-0.1,0.1-0.2,0.1-0.2,0.2
		c-0.8,1.1-1.8,0.6-2.7,0.1c-0.6-0.4-1.1-0.9-1.7-1.3c-0.8-0.5-1.5-1-2.3-1.5c-2.5-1.6-5.1-3.2-7.7-4.7c-2.3-1.4-4.6-2.8-6.9-4.2
		c-2-1.2-3.9-2.3-5.9-3.5c-1.1-0.6-2.2-1.2-3.2-2c-4.4-3.3-9.2-6-13.9-8.9c-2.2-1.4-4.4-2.6-6.6-3.9c-0.6-0.4-1.3-0.8-1.8-1.3
		c-0.3-0.3-0.4-0.8-0.4-1.3c0-3.4,0-6.7,0-10.1c0-5.2,0-10.4,0-15.6c0-1,0-1.1-1-1.1c-2,0-4,0-6,0c-2.5,0-5.1,0-7.6-0.1
		c-0.1,0-0.3-0.1-0.6-0.2c0.5-0.5,0.9-0.9,1.3-1.2c4.5-3,9.1-5.9,13.6-8.9c7.1-4.6,14.1-9.3,21.2-14c0,0,0.1-0.1,0.1-0.1
		c0.4-0.1,0.8-0.9,1.3-0.4c0.3,0.3-0.1,1.6-0.5,1.9c-3.7,2.5-7.4,5-11.1,7.5c-4.7,3.1-9.3,6.1-14,9.1c-1.8,1.2-3.6,2.4-5.4,3.5
		c-0.3,0.2-0.7,0.4-1.3,0.7c0.4,0.1,0.7,0.1,1,0.1c3.2,0.1,6.4,0.1,9.7,0.2c1,0,1,0.1,1.1,1.1c0.1,8.7,0.1,17.4,0.1,26
		c0,1.1,0.3,1.8,1.3,2.4c8.1,4.9,16.1,9.8,24.1,14.8c5.6,3.5,11.2,7.1,16.9,10.7c2.2,1.4,4.5,2.7,6.8,4.1c0.7,0.4,1.3,0.4,1.9,0
		c2.4-1.5,4.8-2.9,7.2-4.4c8.1-5,16.1-10,24.2-15c5.4-3.4,10.8-6.7,16.2-10.1c0.3-0.2,0.5-0.3,0.8-0.5c0.6-0.3,0.8-0.8,0.8-1.5
		c0-6.9,0-13.7,0.1-20.6c0-1.9,0-3.9,0.1-5.8c0-1.3,0.1-1.3,1.4-1.4c2.9,0,5.8-0.1,8.6-0.1C85.8-85.7,86.1-85.7,86.6-85.8z"/>
	<g class="st1">
		<path d="M122.2,100.9c0.7-1.3,0.6-2.7,0.6-4c0-6.4,0-12.8,0-19.2c0-0.4,0-0.8,0-1.3c0.2,0,0.5,0,0.8,0c1.3,0,2.7,0,4,0
			c0.2,0,0.4-0.1,0.6-0.2c-1.2-0.8-2.4-1.5-3.5-2.3c-3.6-2.6-7.1-5.2-10.6-7.9c-3.8-2.8-7.5-5.7-11.3-8.6c-4.5-3.4-9-6.8-13.5-10.3
			c-2.6-1.9-5.1-3.9-7.7-5.8c0,0-0.1-0.1-0.2-0.1c-0.4-0.3-0.7-0.8-1.1-0.8c-0.4,0-0.8,0.4-1.1,0.7c-2.3,1.8-4.6,3.6-6.8,5.3
			c-4,3.1-7.9,6.2-11.9,9.2c-4,3-7.9,6-11.9,9c-3.7,2.8-7.4,5.6-11.1,8.3c-1.1,0.8-2.3,1.5-3.5,2.3c-0.3,0.2-0.6,0.4-0.8,0.7
			c1.5,0,3.1,0,4.6,0c0,0.1,0,0.2,0,0.3c0,5.9,0,11.8,0,17.7c0,2.1,0.2,4.3,0.5,6.4c0.4,2.9,1.9,5.2,3.8,7.4
			c2.5,2.9,5.4,5.4,8.4,7.8c0.1,0.1,0.2,0.2,0.3,0.2c3,1.4,5.5,3.5,8.6,4.7c2.8,1.1,5.5,2.3,8.3,3.3c3.8,1.4,7.6,2.7,11.4,4.1
			c0.7,0.3,1.2,0.2,1.8,0c1.8-0.6,3.6-1.2,5.3-1.8c2.7-0.9,5.4-1.9,8.1-2.9c0.1,0,0.2-0.1,0.3-0.1c0.2,0.5,0.3,1,0.5,1.5
			c0.4,1.2,0.7,2.5,1.1,3.7c0,0.2,0,0.4,0,0.6c-0.2,0-0.4,0-0.6-0.1c-0.3-0.2-0.6-0.4-0.9-0.7c-0.4-0.5-0.8-0.4-1.3-0.3
			c-2.5,0.9-4.9,1.7-7.4,2.5c-1.5,0.5-3.1,0.9-4.6,1.3c-0.2,0.1-0.4,0.1-0.5,0.2c-0.6,0.4-1.3,0.3-2,0.1c-1.5-0.5-3-0.9-4.5-1.3
			c-0.2-0.1-0.5,0.1-0.6,0.3c-1.1,1.6-2.2,3.2-3.2,4.9c-0.7,1-1.6,1.4-2.8,1.1c-3.6-1-7.2-2.1-10.8-3.1c-1.2-0.3-1.8-1.2-2-2.6
			c-0.2-2-0.5-4.1-0.6-6.1c0-1.1-0.5-1.6-1.4-2.2c-2.3-1.5-4.5-3.1-6.8-4.7c-0.2-0.2-0.7-0.1-1-0.1c-1.7,0.5-3.4,1-5.1,1.5
			c-0.5,0.2-1,0.3-1.5,0.4c-1.5,0.4-2.7-0.1-3.6-1.5c-0.5-0.8-1-1.6-1.6-2.3c-0.5-0.7-1.2-1.2-1.8-1.9c-1.1-1.5-2.2-3-3.3-4.5
			c-0.5-0.7-0.5-1.4,0-2.1c1.5-2.1,3-4.3,4.5-6.4c0.1-0.1,0.1-0.3,0.1-0.5c-0.5-2.9-1.1-5.8-1.7-8.7c-0.1-0.3-0.4-0.7-0.6-0.8
			c-2.3-1.1-4.7-2.1-7-3.2c-1-0.5-1.7-1.1-1.6-2.4c0.1-2,0-3.9,0.1-5.9c0.1-1.1,0.3-2.1,0.5-3.2c0.1-0.9,0.3-1.8,0.4-2.8
			c0.1-1.2,0.6-1.6,1.9-1.9c2-0.4,3.9-0.9,5.9-1.4c0.2,0,0.4-0.2,0.6-0.2c1.3-0.1,1.9-0.9,2.5-2c1.1-2.1,2.4-4.2,3.6-6.3
			c0.3-0.5,0.5-0.9,0.1-1.5c-1.1-2.2-2.1-4.4-3.2-6.6c-0.3-0.6-0.3-1.4,0.2-1.8c1.7-1.6,3.4-3.3,5.1-4.9c1.3-1.2,2.7-2.4,4.1-3.6
			c0.7-0.6,1.8-0.6,2.6-0.1c1.4,0.8,2.9,1.5,4.4,2.3c0.7,0.4,1.3,0.7,1.9,1.2c0.4,0.3,0.7,0.3,1.1,0.1c1.4-0.7,2.8-1.3,4.3-1.9
			c1.3-0.5,2.7-0.9,4-1.4c0.2-0.1,0.4-0.2,0.4-0.3c0.6-1.5,1.1-3,1.7-4.5c0.5-1.2,0.9-2.4,1.5-3.6c0.4-0.8,1.2-1.1,2-1.1
			c3.9,0,7.7,0,11.6,0c0.8,0,1.3,0.5,1.7,1.1c0.2,0.4,0.5,0.7,0.9,0.9c0.8,0.7,1.7,1.3,2.5,1.9c2.7,2.1,5.4,4.2,8.1,6.3
			c0.8,0.6,1.5,1.2,2.2,1.7c1.5-0.9,2.9-1.8,4.3-2.7c1-0.6,1.7-0.6,2.7,0.2c1.7,1.4,3.4,2.8,5.1,4.2c1.3,1.1,2.5,2.3,3.7,3.5
			c0.5,0.5,0.6,1.5,0.3,2.2c-0.6,1.3-1.1,2.6-1.7,3.9c9.2,7,18.3,14.2,27.4,21.3c0,0.1-0.1,0.2-0.1,0.3c-0.6,0-1.2,0-1.7,0
			c-2.6,0-5.3,0-7.9,0c-0.8,0-0.8,0-0.8,0.8c0,5.3,0,10.5-0.1,15.8c0,2.2-0.4,4.3-0.5,6.6C124.2,101.8,123.2,101.3,122.2,100.9z"/>
		<path class="st2" d="M97.3,91.9c2.7-1.8,4.5-4.3,5.8-7.3c0.5-1.2,0.8-2.5,1.2-3.7c0.3-0.9-0.2-1.9-1.5-1.7
			c-1.5,0.3-2.9,0.7-4.3,1.3c-1.8,0.9-3.6,1.8-5.4,2.7c-1,0.5-2.2,0.8-3.4,0.7h0c-0.6,0-1.1-0.2-1.5-0.6c-0.7-0.8-1.5-1.7-1.8-2.6
			c-0.8-1.7-1.9-3.7-0.9-5.5c0-0.3,0.7-0.8,0.9-1l12.3-7.2c0.4-0.4,0.7-1.1,0.1-1.6c-1.1-1-2.4-1.7-3.7-2.4c-1.2-0.6-2.6-1.1-4-1.4
			c-2.4-0.5-4.9-0.7-7.4-0.2c-3.9,0.8-6.9,2.8-9.4,5.7c-2,2.4-3.3,5.2-3.6,8.3c-0.1,0.6-0.1,1.2-0.1,1.9c0,2-1,3.9-2.7,5.1l0,0
			c-5.3,4-10.7,8-16,12c-2.7,2-5.4,4.1-8.1,6.2c-0.1,0-0.1,0.1-0.4,0.2c-0.2-1.7-0.7-3.4-0.7-5c-0.1-5.9,0-11.8,0-17.7
			c0-2.1,1-4.1,2.7-5.4c2.6-2,5.3-3.9,7.9-5.9c2.1-1.6,4.2-3.2,6.3-4.8c2.7-2.1,5.4-4.1,8.1-6.2c2.7-2.1,5.5-4.2,8.2-6.3
			c0.4-0.3,0.7-0.6,1.1-0.8c1.9-1.4,5-1.5,6.8,0c2,1.5,3.9,3,5.9,4.5c2.8,2.1,5.6,4.1,8.4,6.2c2.2,1.7,4.4,3.3,6.6,5
			c4,3.1,8,6.2,12.1,9.2c1.1,0.8,1.4,1.5,1.4,2.8c-0.1,6.9,0,13.7,0,20.6c0,0.5-0.1,1,0,1.6c0,0.6-0.3,0.7-0.7,0.6
			c-0.8-0.2-1.5-0.5-2.3-0.7c-2.9-0.9-5.8-1.8-8.7-2.8c-2.9-1-5.8-2-8.7-2.9c-0.3-0.1-0.6-0.2-0.9-0.3
			C96.9,92.4,96.8,92.3,97.3,91.9z"/>
		<path class="st9" d="M110.6,121.8c-0.3,0.4-0.5,0.7-0.7,1c-1.7,2.6-3.5,5.1-5.2,7.7c-0.2,0.3-0.4,0.5-0.6,0.8
			c-0.3,0.5-0.8,0.8-1.4,0.6c-0.6-0.2-1.1-0.5-1.3-1.2c-0.6-2.4-1.2-4.8-1.9-7.2c-0.7-2.4-1.4-4.9-2.1-7.3c-1-3.6-2-7.2-2.9-10.8
			c-0.6-2.1-1.2-4.2-1.7-6.4c-0.3-1-0.6-2.1-0.7-3.1c-0.1-0.7,0.2-0.9,0.9-0.7c3.8,1.2,7.5,2.5,11.3,3.7c2.3,0.8,4.6,1.4,6.9,2.2
			c3.3,1.1,6.6,2.2,9.8,3.3c2,0.7,4,1.3,6,2c0.7,0.2,1.4,0.4,2,0.8c0.3,0.2,0.7,0.6,0.7,0.9c0,0.3-0.3,0.8-0.6,1
			c-3.2,1.9-6.4,3.7-9.7,5.6c-0.4,0.2-0.9,0.4-1.4,0.5c0.4,0.5,0.9,0.9,1.3,1.4c2.7,3.2,5.5,6.4,8.2,9.6c0.7,0.8,1.4,1.5,2,2.3
			c0.3,0.4,0.5,0.9,0.7,1.4c0.1,0.4-0.1,0.8-0.4,1.1c-1.6,1.4-3.1,2.8-4.6,4.3c-0.8,0.7-2.5,0.6-3.3-0.3c-2.5-3-4.9-5.9-7.4-8.9
			c-1.1-1.4-2.2-2.7-3.4-4.1C110.9,122.2,110.8,122,110.6,121.8z"/>
		<path class="st2" d="M55.3,113.8c0.6-0.5,1.2-0.9,1.7-1.3c4.3-3.4,8.6-6.9,12.9-10.3c2.5-2,5-4.1,7.5-6.2c0.4-0.3,0.7-0.7,1.1-1.1
			c0.4-0.4,0.8-0.5,1.3-0.4c1,0.3,2,0.6,3,0.9c0.3,0.1,0.7,0.2,1,0.2c1.1,0.1,2.2,0.2,3.3,0.4c0.2,0,0.4,0.2,0.4,0.4
			c0.6,2.5,1.2,5,1.8,7.5c0.4,1.5,0.8,3,1.2,4.5c0.6,2.1,1.1,4.3,1.7,6.4c0.3,1,0.7,2,1,3c0.2,0.8,0.1,0.9-0.7,1.2
			c-1.7,0.5-3.3,1.2-4.9,1.8c-2.1,0.7-4.2,1.4-6.3,2.3c-1.1,0.5-2,0.2-2.9-0.2c-2.8-1-5.7-2-8.5-3.1c-3-1.2-6-2.4-8.9-3.7
			c-0.1,0-0.2-0.1-0.3-0.1c-1.6,0.1-2.7-1-4-1.5C56.3,114.3,55.9,114.1,55.3,113.8z"/>
	</g>
	<path class="st1" d="M53.9-44.8c-0.3,0.4-0.5,0.7-0.7,1c-1.7,2.6-3.5,5.1-5.2,7.7c-0.2,0.3-0.4,0.5-0.6,0.8
		c-0.3,0.5-0.8,0.8-1.4,0.6c-0.6-0.2-1.1-0.5-1.3-1.2c-0.6-2.4-1.2-4.8-1.9-7.2c-0.7-2.4-1.4-4.9-2.1-7.3c-1-3.6-2-7.2-2.9-10.8
		c-0.6-2.1-1.2-4.2-1.7-6.4c-0.3-1-0.6-2.1-0.7-3.1c-0.1-0.7,0.2-0.9,0.9-0.7c3.8,1.2,7.5,2.5,11.3,3.7c2.3,0.8,4.6,1.4,6.9,2.2
		c3.3,1.1,6.6,2.2,9.8,3.3c2,0.7,4,1.3,6,2c0.7,0.2,1.4,0.4,2,0.8c0.3,0.2,0.7,0.6,0.7,0.9c0,0.3-0.3,0.8-0.6,1
		c-3.2,1.9-6.4,3.7-9.7,5.6c-0.4,0.2-0.9,0.4-1.4,0.5c0.4,0.5,0.9,0.9,1.3,1.4c2.7,3.2,5.5,6.4,8.2,9.6c0.7,0.8,1.4,1.5,2,2.3
		c0.3,0.4,0.5,0.9,0.7,1.4c0.1,0.4-0.1,0.8-0.4,1.1c-1.6,1.4-3.1,2.8-4.6,4.3c-0.8,0.7-2.5,0.6-3.3-0.3c-2.5-3-4.9-5.9-7.4-8.9
		c-1.1-1.4-2.2-2.7-3.4-4.1C54.3-44.5,54.1-44.6,53.9-44.8z"/>
	<g class="st1">
		<path class="st2" d="M-94.5-117.6c0.6-0.3,1.2-0.6,1.7-1c3.5-2.2,6.9-4.4,10.3-6.7c1.4-0.9,2.7-1.9,4.1-2.9c0.1-0.1,0.5,0,0.7,0.1
			c2.2,1.5,4.4,2.9,6.6,4.4c1.2,0.8,2.5,1.5,3.7,2.3c0.2,0.1,0.3,0.2,0.6,0.4c-0.3,0.2-0.5,0.4-0.8,0.6c-3,1.9-6.1,3.7-9.1,5.7
			c-6.5,4.1-12.9,8.3-19.3,12.4c-1.8,1.1-1.7,1.2-1.8,3.3c0,6.4-0.1,12.8-0.1,19.2c0,0.8,0.2,1.3,1,1.8c5.5,3.4,11,6.9,16.5,10.3
			c0.8,0.5,1.1,1.1,1.1,2.1c0,7.3,0,14.5,0,21.8c0,0.3,0,0.7-0.1,1.1c-0.3-0.1-0.5-0.2-0.7-0.3c-7.3-4.6-14.6-9.1-22-13.7
			c-3.6-2.3-7.3-4.5-11-6.8c-3-1.9-6-3.7-9-5.7c-0.3-0.2-0.5-0.6-0.5-0.9c0-9.3,0-18.5,0-27.8c0-1,0.3-1.6,1.2-2.2
			c4.8-3,9.5-6.2,14.3-9.3c0.8-0.5,1.5-1,2.3-1.6c0.2-0.1,0.2-0.4,0.2-0.7c0-4.6,0-9.1,0.1-13.7c0-0.9,0.1-1.9,0.1-2.8
			c0-0.4,0.1-0.6,0.6-0.5c2.7,0,5.4,0,8.1,0.1c1,0,1.1,0,1,1c0,2.9-0.1,5.9-0.1,8.8c0,0.3,0,0.6,0,0.9L-94.5-117.6"/>
		<path class="st9" d="M-76.9-42.7c0-0.5-0.1-0.8-0.1-1.1c0-7.5,0-14.9,0-22.4c0-0.6,0.2-0.8,0.7-1.2c5.4-3.4,10.8-6.8,16.3-10.1
			c1.2-0.8,1.7-1.7,1.7-3.3c-0.1-6.3-0.1-12.6-0.1-18.9c0-1-0.3-1.5-1.1-2.1c-2.3-1.4-4.4-2.9-6.6-4.3c-2.8-1.8-5.6-3.6-8.4-5.4
			c-1.4-0.9-1.4-1.1,0-2c2.9-1.8,5.8-3.7,8.7-5.6c0.8-0.5,1.4-0.6,2.3,0c7.3,4.8,14.7,9.6,22,14.4c2.3,1.5,4.5,3,6.8,4.4
			c0.8,0.5,1.1,1.1,1.1,2c0,5.4,0,10.9,0,16.3c0,3.6-0.2,7.3,0,10.9c0.1,1.3-0.4,1.7-1.4,2.3c-2.6,1.6-5.1,3.2-7.7,4.8
			c-2.6,1.6-5.2,3.2-7.8,4.9c-3.8,2.4-7.7,4.8-11.5,7.2c-4.4,2.7-8.8,5.5-13.2,8.2C-75.8-43.3-76.2-43.1-76.9-42.7"/>
		<path class="st10" d="M-71.8-117.7c-1.6,1-3.3,2-4.9,3.1c-6.5,4.1-12.9,8.3-19.3,12.4c-1.8,1.1-1.7,1.2-1.8,3.3
			c0,6.4-0.1,12.8-0.1,19.2c0,0.8,0.2,1.3,1,1.8c5.5,3.4,11,6.9,16.5,10.3c0.8,0.5,1.1,1.1,1.1,2.1c0,1.6,0,3.2,0,4.8
			c0.2,0,0.4,0,0.6,0c0.6,0,1.2,0,1.8,0c0-1.8,0-3.6,0-5.4c0-0.6,0.2-0.8,0.7-1.2c5.4-3.4,10.8-6.8,16.3-10.1
			c1.2-0.8,1.7-1.7,1.7-3.3c-0.1-6.3-0.1-12.6-0.1-18.9c0-1-0.3-1.5-1.1-2.1c-2.3-1.4-4.4-2.9-6.6-4.3c-2.8-1.8-5.6-3.6-8.4-5.4
			c-1.4-0.9-1.4-1.1,0-2c1.9-1.2,3.7-2.4,5.6-3.5C-69.9-117.2-70.8-117.5-71.8-117.7"/>
		<path class="st11" d="M-78.7-118.5c-16.5,0-29.8,12.9-29.8,28.9c0,15.8,13,28.6,29.2,28.9c0-1.6,0-3.2,0-4.8c0-1-0.3-1.6-1.1-2.1
			c-5.5-3.4-10.9-7-16.5-10.3c-0.8-0.5-1-1-1-1.8c0.1-6.4,0.1-12.8,0.1-19.2c0-2.1,0-2.1,1.8-3.3c6.4-4.2,12.9-8.3,19.3-12.4
			c1.6-1,3.2-2,4.9-3.1C-74-118.2-76.3-118.5-78.7-118.5"/>
		<path class="st12" d="M-68.9-116.9c-1.9,1.2-3.7,2.4-5.6,3.5c-1.4,0.9-1.4,1.1,0,2c2.8,1.8,5.6,3.6,8.4,5.4
			c2.2,1.4,4.4,2.9,6.6,4.3c0.9,0.5,1.1,1.1,1.1,2.1c0,6.3,0,12.6,0.1,18.9c0,1.5-0.5,2.5-1.7,3.3c-5.4,3.4-10.8,6.8-16.3,10.1
			c-0.5,0.3-0.7,0.6-0.7,1.2c0,1.8,0,3.6,0,5.4c15.6-0.9,28-13.5,28-28.8C-48.9-102.2-57.3-113-68.9-116.9"/>
	</g>
</g>
<g id="Layer_1_copy_3">
	<path class="st13" d="M39.1,46.6c0.7-0.4,1.3-0.7,2-1.1c4-2.6,8-5.2,12-7.8c1.6-1.1,3.2-2.2,4.8-3.3c0.2-0.1,0.6,0,0.8,0.1
		c2.6,1.7,5.1,3.4,7.7,5.1c1.4,0.9,2.9,1.8,4.3,2.7c0.2,0.1,0.4,0.3,0.6,0.5c-0.3,0.3-0.6,0.5-0.9,0.7c-3.5,2.2-7.1,4.4-10.6,6.6
		c-7.5,4.8-15,9.7-22.5,14.5c-2.1,1.3-2,1.4-2.1,3.8c0,7.5-0.1,14.9-0.2,22.4c0,1,0.2,1.5,1.2,2.1c6.5,3.9,12.8,8,19.2,12.1
		c1,0.6,1.3,1.3,1.3,2.5c0,8.5,0,16.9,0,25.4c0,0.4,0,0.8-0.1,1.3c-0.4-0.2-0.6-0.2-0.9-0.4c-8.5-5.3-17.1-10.6-25.6-15.9
		c-4.3-2.6-8.5-5.3-12.8-7.9c-3.5-2.2-7-4.4-10.5-6.6c-0.3-0.2-0.6-0.7-0.6-1c0-10.8,0-21.6,0-32.4c0-1.1,0.3-1.9,1.4-2.6
		c5.6-3.5,11.1-7.2,16.7-10.8c0.9-0.6,1.8-1.2,2.7-1.9c0.2-0.1,0.3-0.5,0.3-0.8c0-5.3,0-10.7,0.1-16c0-1.1,0.1-2.2,0.1-3.3
		c0-0.4,0.1-0.6,0.7-0.6c3.2,0.1,6.3,0.1,9.5,0.1c1.2,0,1.2,0,1.2,1.2c0,3.4-0.1,6.8-0.1,10.2c0,0.3,0,0.7,0,1
		C38.9,46.5,39,46.6,39.1,46.6z"/>
	<path class="st14" d="M59.7,134c0-0.6-0.1-1-0.1-1.3c0-8.7,0-17.4,0-26.1c0-0.7,0.2-1,0.8-1.3c6.3-3.9,12.6-7.9,19-11.8
		c1.4-0.9,2-2,2-3.8c-0.1-7.3-0.1-14.7-0.1-22c0-1.1-0.3-1.8-1.3-2.4c-2.6-1.6-5.1-3.3-7.7-5c-3.2-2.1-6.5-4.2-9.7-6.3
		c-1.6-1-1.6-1.2,0-2.3c3.4-2.2,6.8-4.3,10.1-6.5c0.9-0.6,1.7-0.6,2.6,0c8.5,5.6,17.1,11.2,25.7,16.8c2.6,1.7,5.2,3.5,7.9,5.1
		c1,0.6,1.2,1.2,1.2,2.3c0,6.3,0,12.7-0.1,19c0,4.2-0.2,8.5,0,12.7c0.1,1.5-0.5,2-1.6,2.6c-3,1.8-6,3.7-9,5.6
		c-3,1.9-6.1,3.8-9.1,5.7c-4.5,2.8-8.9,5.6-13.4,8.4c-5.1,3.2-10.3,6.4-15.4,9.6C60.9,133.3,60.4,133.5,59.7,134z"/>
	<g>
		<path class="st14" d="M481.4,112.7l-2.4-8c-0.1-0.3-0.2-0.4-0.5-0.4h-21c-0.3,0-0.5,0.1-0.5,0.4l-2.4,8c-0.3,0.8-0.8,1.2-1.6,1.2
			H443c-0.5,0-0.9-0.2-1.1-0.5c-0.2-0.3-0.3-0.7-0.1-1.2l18.3-57.2c0.3-0.8,0.8-1.2,1.6-1.2h12.6c0.8,0,1.3,0.4,1.6,1.2l18.3,57.2
			c0.1,0.1,0.1,0.3,0.1,0.5c0,0.3-0.1,0.6-0.3,0.8c-0.2,0.2-0.5,0.3-0.9,0.3H483C482.2,113.9,481.7,113.5,481.4,112.7z M460.4,95
			h15.2c0.3,0,0.5-0.2,0.4-0.6l-7.7-26.1c-0.1-0.2-0.2-0.3-0.3-0.3c-0.1,0-0.3,0.1-0.4,0.3L460,94.4C459.9,94.8,460.1,95,460.4,95z"
			/>
		<path class="st14" d="M502,112.5V55.4c0-1,0.5-1.5,1.5-1.5h21c4.3,0,8,0.8,11.3,2.3c3.2,1.5,5.7,3.6,7.5,6.4
			c1.8,2.7,2.7,5.9,2.7,9.5v23.7c0,3.6-0.9,6.8-2.7,9.5c-1.8,2.7-4.3,4.9-7.5,6.4c-3.2,1.5-7,2.3-11.3,2.3h-21
			C502.5,113.9,502,113.5,502,112.5z M514.6,103.6h10.3c2.6,0,4.8-0.9,6.4-2.7c1.6-1.8,2.5-4.1,2.5-7.1V74.1c0-3-0.8-5.3-2.4-7.1
			c-1.6-1.8-3.8-2.7-6.6-2.7h-10.2c-0.3,0-0.5,0.2-0.5,0.5v38.2C514.1,103.4,514.2,103.6,514.6,103.6z"/>
		<path class="st14" d="M554.5,112.5V55.4c0-1,0.5-1.5,1.5-1.5h9.2c0.7,0,1.3,0.3,1.7,0.9L579.3,75c0.1,0.2,0.2,0.3,0.4,0.3
			c0.1,0,0.2-0.1,0.3-0.3l12.6-20.1c0.4-0.6,1-0.9,1.7-0.9h9.2c1,0,1.5,0.5,1.5,1.5v57.1c0,1-0.5,1.5-1.5,1.5h-9.2
			c-1,0-1.5-0.5-1.5-1.5V75.4c0-0.2-0.1-0.4-0.2-0.4c-0.1-0.1-0.3,0-0.4,0.3l-8.7,14.1c-0.4,0.6-1,0.9-1.7,0.9h-4.4
			c-0.7,0-1.3-0.3-1.7-0.9l-8.6-14.1c-0.1-0.2-0.2-0.3-0.4-0.3c-0.1,0.1-0.2,0.2-0.2,0.4v37.1c0,1-0.5,1.5-1.5,1.5H556
			C555,113.9,554.5,113.5,554.5,112.5z"/>
		<path class="st14" d="M615.4,112.5V55.4c0-1,0.5-1.5,1.5-1.5h9.2c1,0,1.5,0.5,1.5,1.5v57.1c0,1-0.5,1.5-1.5,1.5h-9.2
			C615.8,113.9,615.4,113.5,615.4,112.5z"/>
		<path class="st14" d="M637.9,112.5V55.4c0-1,0.5-1.5,1.5-1.5h8.8c0.7,0,1.3,0.3,1.7,0.9l21.4,35.6c0.1,0.2,0.2,0.3,0.4,0.3
			c0.1-0.1,0.2-0.2,0.2-0.4v-35c0-1,0.5-1.5,1.5-1.5h9c1,0,1.5,0.5,1.5,1.5v57.1c0,1-0.5,1.5-1.5,1.5h-8.7c-0.7,0-1.3-0.3-1.7-1
			l-21.5-36c-0.1-0.2-0.2-0.3-0.4-0.3c-0.1,0.1-0.2,0.2-0.2,0.4l0.1,35.4c0,1-0.5,1.5-1.5,1.5h-9.1
			C638.4,113.9,637.9,113.5,637.9,112.5z"/>
	</g>
	<path class="st13" d="M80.6,124.8c0.1,0.2,0.2,0.3,0.3,0.5c0.9,1.5,1.8,3,2.6,4.4c2.2,3.5,4.4,7.1,6.5,10.6
		c0.6,1.1,2.4,1.5,3.4,0.9c1.7-1.2,3.4-2.3,5.1-3.5c1-0.7,1.3-2,0.7-3.1l0,0c-0.5-1-1.2-1.8-1.8-2.7c-2.4-3.8-4.9-7.7-7.3-11.5
		c-0.3-0.6-0.2-1.2,0-1.5c0.2-0.3,0.5-0.6,0.8-0.7c3.6-1.4,7.2-2.8,10.8-4.3c0.4-0.2,0.8-0.6,0.8-1c0-0.4-0.3-0.9-0.6-1.1
		c-0.6-0.5-1.3-0.8-2-1.1c-2-1-4.1-2.1-6.1-3.1c-3.3-1.7-6.6-3.4-10-5.1c-2.3-1.2-4.7-2.3-7-3.4c-2.9-1.4-5.7-2.9-8.6-4.3
		c-2.3-1.2-3.9,0-3.6,2.6c0,0,0,0,0,0c0.3,2.4,0.6,4.7,0.9,7.1c0.5,4,0.9,8,1.5,12c0.3,2.7,0.8,5.4,1.1,8.1c0.3,2.6,0.6,5.3,0.9,7.9
		c0.1,0.8,0.6,1.2,1.2,1.5c0.6,0.3,1.2,0,1.6-0.4c0.2-0.3,0.5-0.5,0.8-0.8c2.2-2.5,4.5-4.9,6.7-7.4
		C79.3,125.2,79.9,124.4,80.6,124.8z"/>
	<g>
		<path class="st13" d="M179.1,55.7c0.3,0.3,0.4,0.6,0.4,1.1v9c0,0.4-0.1,0.8-0.4,1.1c-0.3,0.3-0.6,0.4-1.1,0.4h-14
			c-0.4,0-0.6,0.2-0.6,0.6v44.6c0,0.4-0.1,0.8-0.4,1.1c-0.3,0.3-0.6,0.4-1.1,0.4h-10.9c-0.4,0-0.8-0.1-1.1-0.4
			c-0.3-0.3-0.4-0.6-0.4-1.1V67.9c0-0.4-0.2-0.6-0.6-0.6h-13.5c-0.4,0-0.8-0.1-1.1-0.4c-0.3-0.3-0.4-0.6-0.4-1.1v-9
			c0-0.4,0.1-0.8,0.4-1.1c0.3-0.3,0.6-0.4,1.1-0.4H178C178.5,55.3,178.8,55.5,179.1,55.7z"/>
		<path class="st13" d="M215.7,112.8L205.9,91c-0.1-0.3-0.3-0.4-0.7-0.4h-5.2c-0.4,0-0.6,0.2-0.6,0.6v21.3c0,0.4-0.1,0.8-0.4,1.1
			c-0.3,0.3-0.6,0.4-1.1,0.4h-10.9c-0.4,0-0.8-0.1-1.1-0.4c-0.3-0.3-0.4-0.6-0.4-1.1V56.8c0-0.4,0.1-0.8,0.4-1.1
			c0.3-0.3,0.6-0.4,1.1-0.4h24.4c3.7,0,6.9,0.8,9.7,2.3c2.8,1.5,5,3.6,6.5,6.4c1.5,2.8,2.3,5.9,2.3,9.5c0,3.7-0.9,6.9-2.7,9.6
			c-1.8,2.7-4.3,4.7-7.6,5.9c-0.4,0.2-0.5,0.4-0.3,0.8l10.7,22.3l0.2,0.7c0,0.7-0.4,1.1-1.3,1.1h-11.5
			C216.6,114,216,113.6,215.7,112.8z M199.5,67.8v11.6c0,0.4,0.2,0.6,0.6,0.6h9.1c2.1,0,3.7-0.6,5-1.7c1.3-1.1,1.9-2.7,1.9-4.6
			c0-2-0.6-3.5-1.9-4.7c-1.3-1.2-3-1.8-5-1.8h-9.1C199.7,67.2,199.5,67.4,199.5,67.8z"/>
		<path class="st13" d="M274.7,112.7l-1.9-6.9c-0.1-0.3-0.3-0.5-0.7-0.5h-18.9c-0.3,0-0.6,0.2-0.7,0.5l-1.9,6.9
			c-0.2,0.8-0.8,1.3-1.7,1.3H237c-0.6,0-1-0.2-1.2-0.5c-0.2-0.3-0.3-0.7-0.1-1.2l17.6-55.7c0.3-0.8,0.9-1.3,1.8-1.3H270
			c0.9,0,1.5,0.4,1.8,1.3l17.7,55.7c0.1,0.1,0.1,0.3,0.1,0.6c0,0.7-0.4,1.1-1.3,1.1h-11.8C275.4,114,274.9,113.6,274.7,112.7z
			 M255.9,94.1c0,0.3,0.2,0.5,0.5,0.5h12.4c0.2,0,0.4-0.1,0.5-0.2c0.1-0.1,0.1-0.3,0-0.5l-6.4-22.3c-0.1-0.3-0.2-0.4-0.3-0.4
			c-0.1,0-0.3,0.1-0.4,0.4L255.9,94V94.1z"/>
		<path class="st13" d="M296.2,113.6c-0.3-0.3-0.4-0.6-0.4-1.1V56.8c0-0.4,0.1-0.8,0.4-1.1c0.3-0.3,0.6-0.4,1.1-0.4h20.9
			c4.4,0,8.2,0.8,11.6,2.3c3.4,1.5,5.9,3.7,7.8,6.5c1.8,2.8,2.8,6,2.8,9.6v22c0,3.6-0.9,6.8-2.8,9.6c-1.8,2.8-4.4,4.9-7.8,6.5
			c-3.4,1.5-7.2,2.3-11.6,2.3h-20.9C296.8,114,296.5,113.8,296.2,113.6z M310.3,102.1h8.5c2.2,0,4-0.8,5.4-2.4
			c1.4-1.6,2.1-3.7,2.2-6.4V76c0-2.7-0.7-4.8-2.1-6.4c-1.4-1.6-3.3-2.4-5.6-2.4h-8.4c-0.4,0-0.6,0.2-0.6,0.6v33.7
			C309.7,101.9,309.9,102.1,310.3,102.1z"/>
		<path class="st13" d="M388.8,66.8c-0.3,0.3-0.6,0.4-1.1,0.4h-25.6c-0.4,0-0.6,0.2-0.6,0.6v10c0,0.4,0.2,0.6,0.6,0.6h16.2
			c0.4,0,0.8,0.1,1.1,0.4c0.3,0.3,0.4,0.6,0.4,1.1v8.8c0,0.4-0.1,0.8-0.4,1.1c-0.3,0.3-0.6,0.4-1.1,0.4h-16.2
			c-0.4,0-0.6,0.2-0.6,0.6v10.7c0,0.4,0.2,0.6,0.6,0.6h25.6c0.4,0,0.8,0.1,1.1,0.4c0.3,0.3,0.4,0.6,0.4,1.1v8.9
			c0,0.4-0.1,0.8-0.4,1.1c-0.3,0.3-0.6,0.4-1.1,0.4h-38.6c-0.4,0-0.8-0.1-1.1-0.4c-0.3-0.3-0.4-0.6-0.4-1.1V56.8
			c0-0.4,0.1-0.8,0.4-1.1c0.3-0.3,0.6-0.4,1.1-0.4h38.6c0.4,0,0.8,0.1,1.1,0.4c0.3,0.3,0.4,0.6,0.4,1.1v8.9
			C389.2,66.2,389.1,66.5,388.8,66.8z"/>
		<path class="st13" d="M405.1,112.4c-3.4-1.5-6-3.6-7.8-6.4c-1.8-2.8-2.8-6-2.8-9.6v-1.1c0-0.4,0.1-0.8,0.4-1.1
			c0.3-0.3,0.6-0.4,1.1-0.4h10.6c0.4,0,0.8,0.1,1.1,0.3c0.3,0.2,0.4,0.4,0.4,0.7v1c0,1.8,0.9,3.4,2.7,4.8c1.8,1.4,4.1,2.1,7,2.1
			c2.5,0,4.3-0.5,5.4-1.6c1.2-1.1,1.8-2.3,1.8-3.7c0-1.6-0.7-2.8-2.1-3.6c-1.4-0.8-3.8-1.8-7.3-2.9l-1.8-0.6
			c-3.6-1.2-6.7-2.4-9.4-3.8c-2.7-1.4-5-3.3-6.9-5.7c-1.9-2.4-2.8-5.4-2.8-9c0-3.5,0.9-6.5,2.7-9.1c1.8-2.6,4.3-4.6,7.5-6
			c3.2-1.4,6.9-2.1,10.9-2.1c4.3,0,8.2,0.8,11.6,2.3c3.4,1.6,6.1,3.8,8.1,6.6c2,2.8,2.9,6.1,2.9,9.8v0.7c0,0.4-0.1,0.8-0.4,1.1
			c-0.3,0.3-0.6,0.4-1.1,0.4h-10.6c-0.4,0-0.8-0.1-1.1-0.2c-0.3-0.1-0.4-0.3-0.4-0.6V74c0-2-0.9-3.7-2.6-5.2c-1.7-1.5-4.1-2.3-7-2.3
			c-2.2,0-3.9,0.4-5.1,1.3c-1.2,0.9-1.8,2.2-1.8,3.8c0,1.2,0.4,2.2,1.2,3.1c0.8,0.8,2,1.6,3.6,2.3c1.6,0.7,4.2,1.6,7.6,2.7
			c3.9,1.3,7,2.5,9.1,3.5c2.2,1,4.2,2.6,6.2,4.9c1.9,2.3,2.9,5.2,2.9,8.9c0,3.5-0.9,6.6-2.8,9.3c-1.8,2.7-4.4,4.7-7.8,6.2
			c-3.4,1.5-7.2,2.2-11.6,2.2C412.4,114.7,408.5,113.9,405.1,112.4z"/>
	</g>
</g>
</svg>
